<svg width="654" height="638" viewBox="0 0 654 638" fill="none" xmlns="http://www.w3.org/2000/svg">
<g filter="url(#filter0_d_41_571)">
<path d="M298.674 433.76C260.392 433.76 222.227 434.578 183.945 434.812C181.72 434.812 178.91 436.566 177.271 438.32C161.935 455.625 146.833 473.164 131.731 490.703C118.736 505.786 105.858 520.87 92.8632 535.836C76.8244 554.311 60.9027 572.785 44.7469 591.142C42.2884 593.948 39.2446 596.17 36.2007 598.158C31.4008 601.198 26.835 599.21 26.3668 593.598C25.7814 586.816 25.7814 580.034 26.3668 573.253C27.1862 563.08 28.8252 552.907 30.113 542.735C32.6886 522.273 35.4983 501.928 37.9568 481.466C40.4153 460.887 42.5226 440.191 44.9811 419.495C47.6737 397.63 50.8346 375.765 53.5273 353.783C55.4004 338.349 56.8053 322.797 58.6784 307.246C59.9662 296.138 61.8393 285.03 63.2442 273.922C64.7661 262.113 66.0539 250.303 67.4587 238.611C68.8636 226.801 70.3855 215.109 71.5562 203.299C72.6099 191.957 74.3659 180.733 79.2829 170.326C94.8534 137.938 118.97 115.956 155.145 108.706C171.301 105.432 187.457 102.158 203.613 98.8845C224.685 94.6752 245.758 90.4659 266.714 86.1396C280.177 83.3334 293.406 80.1764 306.869 77.4871C325.132 73.7455 343.513 70.2377 361.893 66.613C385.775 61.819 409.541 56.7912 433.423 51.9973C456.018 47.4372 478.613 42.7601 501.207 38.3169C517.012 35.1599 532.817 31.4183 548.855 29.6644C567.47 27.5598 585.616 30.1321 600.952 42.0586C610.201 49.191 615.235 59.0128 617.459 70.3546C620.386 85.6719 618.279 100.755 612.542 115.137C600.835 144.486 588.777 173.6 576.718 202.832C562.553 237.208 548.27 271.467 533.987 305.726C525.207 326.656 516.31 347.586 507.646 368.632C500.739 385.587 488.915 398.565 474.632 409.323C453.676 425.108 430.145 433.877 403.453 433.526C368.566 433.175 333.444 433.76 298.674 433.76Z" fill="url(#paint0_linear_41_571)"/>
</g>
<g filter="url(#filter1_d_41_571)">
<path d="M270.503 451.286C236.175 451.286 201.952 452.018 167.624 452.227C165.629 452.227 163.109 453.795 161.64 455.364C147.887 470.84 134.345 486.525 120.803 502.21C109.15 515.699 97.6023 529.189 85.9496 542.573C71.5675 559.095 57.2903 575.617 42.8032 592.034C40.5986 594.543 37.8691 596.53 35.1397 598.308C30.8355 601.027 26.7413 599.249 26.3214 594.23C25.7965 588.165 25.7965 582.1 26.3214 576.035C27.0563 566.938 28.526 557.84 29.6807 548.743C31.9903 530.443 34.5098 512.249 36.7144 493.949C38.9189 475.545 40.8085 457.037 43.0131 438.528C45.4276 418.974 48.2621 399.42 50.6766 379.761C52.3563 365.958 53.616 352.051 55.2957 338.143C56.4505 328.209 58.1301 318.275 59.3899 308.341C60.7546 297.78 61.9094 287.219 63.1691 276.762C64.4289 266.201 65.7936 255.744 66.8434 245.182C67.7882 235.039 69.3629 225.001 73.772 215.694C87.7343 186.729 109.36 167.07 141.799 160.587C156.286 157.659 170.773 154.731 185.26 151.803C204.156 148.039 223.053 144.275 241.844 140.406C253.917 137.896 265.779 135.073 277.852 132.667C294.229 129.321 310.71 126.184 327.192 122.943C348.608 118.655 369.919 114.159 391.334 109.872C411.595 105.794 431.856 101.611 452.117 97.6373C466.29 94.8139 480.462 91.4678 494.844 89.8993C511.536 88.017 527.808 90.3175 541.56 100.983C549.853 107.362 554.367 116.146 556.362 126.289C558.986 139.987 557.097 153.476 551.953 166.338C541.455 192.585 530.642 218.622 519.829 244.764C507.127 275.507 494.319 306.145 481.512 336.784C473.638 355.501 465.66 374.219 457.891 393.041C451.698 408.204 441.095 419.811 428.287 429.431C409.496 443.548 388.395 451.39 364.46 451.076C333.176 450.763 301.682 451.286 270.503 451.286Z" fill="url(#paint1_linear_41_571)"/>
</g>
<g filter="url(#filter2_d_41_571)">
<path d="M241.404 475.155C211.03 475.155 180.749 475.805 150.375 475.991C148.61 475.991 146.381 477.386 145.08 478.78C132.912 492.54 120.93 506.486 108.947 520.431C98.6365 532.424 88.4189 544.417 78.1084 556.318C65.3828 571.007 52.7501 585.696 39.9317 600.293C37.981 602.524 35.5659 604.29 33.1509 605.871C29.3425 608.288 25.7199 606.708 25.3483 602.245C24.8839 596.853 24.8839 591.46 25.3483 586.068C25.9985 577.98 27.299 569.891 28.3207 561.803C30.3642 545.533 32.5935 529.356 34.5442 513.086C36.4948 496.724 38.1668 480.268 40.1174 463.812C42.2538 446.427 44.7618 429.041 46.8982 411.563C48.3844 399.291 49.4991 386.926 50.9853 374.561C52.007 365.729 53.4932 356.896 54.6079 348.064C55.8154 338.674 56.8372 329.284 57.9518 319.987C59.0665 310.597 60.274 301.3 61.2029 291.91C62.0389 282.892 63.4322 273.967 67.3334 265.693C79.6875 239.94 98.8223 222.461 127.525 216.697C140.343 214.094 153.161 211.491 165.98 208.888C182.7 205.541 199.419 202.194 216.046 198.754C226.728 196.523 237.225 194.013 247.907 191.874C262.397 188.899 276.98 186.11 291.564 183.228C310.513 179.416 329.369 175.418 348.318 171.607C366.245 167.981 384.173 164.262 402.1 160.729C414.64 158.219 427.179 155.244 439.905 153.849C454.674 152.176 469.072 154.221 481.24 163.704C488.578 169.375 492.572 177.185 494.337 186.203C496.659 198.382 494.987 210.375 490.436 221.811C481.147 245.146 471.58 268.296 462.012 291.538C450.773 318.872 439.441 346.112 428.108 373.352C421.142 389.994 414.082 406.635 407.209 423.37C401.728 436.851 392.347 447.171 381.014 455.724C364.388 468.275 345.717 475.248 324.539 474.969C296.858 474.69 268.992 475.155 241.404 475.155Z" fill="url(#paint2_linear_41_571)"/>
</g>
<defs>
<filter id="filter0_d_41_571" x="0.927734" y="0" width="652.844" height="630.578" filterUnits="userSpaceOnUse" color-interpolation-filters="sRGB">
<feFlood flood-opacity="0" result="BackgroundImageFix"/>
<feColorMatrix in="SourceAlpha" type="matrix" values="0 0 0 0 0 0 0 0 0 0 0 0 0 0 0 0 0 0 127 0" result="hardAlpha"/>
<feOffset dx="5" dy="1"/>
<feGaussianBlur stdDeviation="15"/>
<feComposite in2="hardAlpha" operator="out"/>
<feColorMatrix type="matrix" values="0 0 0 0 0 0 0 0 0 0 0 0 0 0 0 0 0 0 0.15 0"/>
<feBlend mode="normal" in2="BackgroundImageFix" result="effect1_dropShadow_41_571"/>
<feBlend mode="normal" in="SourceGraphic" in2="effect1_dropShadow_41_571" result="shape"/>
</filter>
<filter id="filter1_d_41_571" x="0.927734" y="60.3051" width="591.612" height="570.273" filterUnits="userSpaceOnUse" color-interpolation-filters="sRGB">
<feFlood flood-opacity="0" result="BackgroundImageFix"/>
<feColorMatrix in="SourceAlpha" type="matrix" values="0 0 0 0 0 0 0 0 0 0 0 0 0 0 0 0 0 0 127 0" result="hardAlpha"/>
<feOffset dx="5" dy="1"/>
<feGaussianBlur stdDeviation="15"/>
<feComposite in2="hardAlpha" operator="out"/>
<feColorMatrix type="matrix" values="0 0 0 0 0 0 0 0 0 0 0 0 0 0 0 0 0 0 0.15 0"/>
<feBlend mode="normal" in2="BackgroundImageFix" result="effect1_dropShadow_41_571"/>
<feBlend mode="normal" in="SourceGraphic" in2="effect1_dropShadow_41_571" result="shape"/>
</filter>
<filter id="filter2_d_41_571" x="0" y="124.321" width="530.379" height="513.679" filterUnits="userSpaceOnUse" color-interpolation-filters="sRGB">
<feFlood flood-opacity="0" result="BackgroundImageFix"/>
<feColorMatrix in="SourceAlpha" type="matrix" values="0 0 0 0 0 0 0 0 0 0 0 0 0 0 0 0 0 0 127 0" result="hardAlpha"/>
<feOffset dx="5" dy="1"/>
<feGaussianBlur stdDeviation="15"/>
<feComposite in2="hardAlpha" operator="out"/>
<feColorMatrix type="matrix" values="0 0 0 0 0 0 0 0 0 0 0 0 0 0 0 0 0 0 0.15 0"/>
<feBlend mode="normal" in2="BackgroundImageFix" result="effect1_dropShadow_41_571"/>
<feBlend mode="normal" in="SourceGraphic" in2="effect1_dropShadow_41_571" result="shape"/>
</filter>
<linearGradient id="paint0_linear_41_571" x1="322.35" y1="29" x2="322.35" y2="599.578" gradientUnits="userSpaceOnUse">
<stop stop-color="#7A8EFF"/>
<stop offset="1" stop-color="#281DE4"/>
</linearGradient>
<linearGradient id="paint1_linear_41_571" x1="291.734" y1="89.3051" x2="291.734" y2="599.578" gradientUnits="userSpaceOnUse">
<stop stop-color="#7A8EFF"/>
<stop offset="1" stop-color="#281DE4"/>
</linearGradient>
<linearGradient id="paint2_linear_41_571" x1="260.189" y1="153.321" x2="260.189" y2="607" gradientUnits="userSpaceOnUse">
<stop stop-color="#7A8EFF"/>
<stop offset="1" stop-color="#0D00EA"/>
</linearGradient>
</defs>
</svg>
