<svg width="53" height="51" viewBox="0 0 53 51" fill="none" xmlns="http://www.w3.org/2000/svg">
<path d="M24.2764 36.1036C20.869 36.1036 17.4721 36.1766 14.0647 36.1975C13.8667 36.1975 13.6166 36.3539 13.4707 36.5104C12.1057 38.0539 10.7615 39.6184 9.41726 41.1828C8.26062 42.5282 7.1144 43.8736 5.95775 45.2086C4.53019 46.8564 3.11304 48.5043 1.67505 50.1417C1.45622 50.392 1.1853 50.5902 0.914373 50.7675C0.487145 51.0387 0.0807566 50.8614 0.0390758 50.3607C-0.0130253 49.7558 -0.0130253 49.1509 0.0390758 48.546C0.112017 47.6386 0.2579 46.7313 0.372522 45.8239C0.601767 43.9988 0.851852 42.184 1.07068 40.3589C1.2895 38.5233 1.47706 36.6772 1.69589 34.8312C1.93555 32.8809 2.2169 30.9306 2.45656 28.9698C2.62329 27.5931 2.74833 26.206 2.91505 24.8189C3.02968 23.8281 3.1964 22.8373 3.32144 21.8465C3.4569 20.7931 3.57153 19.7397 3.69657 18.6968C3.82161 17.6434 3.95707 16.6005 4.06128 15.5471C4.15506 14.5354 4.31136 13.5342 4.74901 12.606C6.1349 9.71698 8.28146 7.75624 11.5013 7.10961C12.9393 6.81758 14.3773 6.52556 15.8153 6.23353C17.6909 5.85807 19.5665 5.48261 21.4318 5.09671C22.6301 4.84641 23.8076 4.56481 25.0059 4.32493C26.6314 3.99119 28.2674 3.6783 29.9034 3.35499C32.0291 2.92738 34.1444 2.47891 36.2701 2.0513C38.2812 1.64455 40.2923 1.22737 42.3034 0.831049C43.7102 0.549452 45.1169 0.215708 46.5445 0.0592656C48.2013 -0.128465 49.8164 0.100984 51.1815 1.16479C52.0047 1.80099 52.4527 2.67707 52.6507 3.68873C52.9112 5.055 52.7236 6.4004 52.2131 7.68323C51.171 10.301 50.0978 12.898 49.0245 15.5054C47.7636 18.5716 46.4924 21.6275 45.2211 24.6833C44.4396 26.5502 43.6476 28.4171 42.8766 30.2944C42.2618 31.8067 41.2093 32.9643 39.9381 33.9239C38.0728 35.3318 35.9784 36.114 33.6026 36.0828C30.4973 36.0515 27.3712 36.1036 24.2764 36.1036Z" fill="#949393"/>
</svg>
