<svg width="647" height="751" viewBox="0 0 647 751" fill="none" xmlns="http://www.w3.org/2000/svg">
<g opacity="0.8">
<path d="M457.207 523.472C457.207 523.472 457.149 523.704 457.062 524.139C456.162 528.403 450.968 552.042 440.465 584.092C428.83 619.565 420.763 647.12 414.844 665.451C411.217 676.705 403.151 703.68 397.493 722.794C397.319 722.678 397.203 722.62 397.203 722.62C395.723 725.143 394.94 730.132 394.679 732.278C393.373 736.745 392.734 740.313 392.183 742.198C389.63 741.415 374.6 737.151 354.376 737.992C333.688 738.834 315.728 745.679 313.203 746.665C312.623 741.792 315.524 691.527 319.064 666.437C322.604 641.348 329.974 595.926 333.311 576.232C336.241 558.974 341.464 530.665 343.089 523.936C343.321 523.008 343.495 522.486 343.553 522.486C344.134 522.486 350.633 519.759 354.985 520.717C354.985 520.717 354.985 522.022 355.043 524.284C355.218 534.697 355.624 565.935 354.985 591.779C354.202 623.307 353.419 666.031 353.419 680.012C353.419 693.992 353.419 708.959 356.175 708.175C358.932 707.392 366.621 691.44 375.093 668.787C383.566 646.134 397.551 618.579 408.983 592.562C420.415 566.573 447.574 520.688 447.574 520.688C447.574 520.688 454.276 518.947 456.046 520.688C457.816 522.457 457.236 523.443 457.236 523.443L457.207 523.472Z" fill="#423479"/>
<path d="M18.4341 523.935C14.7492 523.152 13.5 523.935 13.5 523.935C13.5 523.935 11.3544 523.181 11.3544 523.935C6.03781 522.936 1.53775 519.655 2.03809 517.935C2.53843 516.216 10.5 515.435 24.038 516.935C24.038 516.935 24.5155 521.347 23.5 523C22.2814 520.477 22.4953 524.457 20 523.935L18.4341 523.935Z" fill="#423479"/>
<path d="M88.8245 521.259C88.8245 521.259 88.7374 521.433 88.6794 521.665H88.6504V521.868V521.549C88.6504 519.983 87.4684 515.653 88.6502 515.153C91.6678 513.877 104.538 513.653 109.538 515.653C113.252 518.118 104.478 520.562 100.038 522.65C99.8642 521.838 98 522 98 522C98 522 89.3468 520.998 88.8245 521.259Z" fill="#423479"/>
<path d="M22.1794 678.92C20.0612 665.897 15.5348 633.064 13.0395 608.612C10.6312 584.915 11.2113 531.882 11.3274 523.5C11.3509 521.8 16.5984 521.388 18.5002 521.5C23.0002 521.765 22.9199 521.511 23.5002 522.7C24.0805 523.889 24.7327 527.573 25.226 529.429C26.7928 535.201 31.1161 548.34 32.4218 571.051C33.7275 593.762 35.7296 592.979 42.2871 624.884C46.7554 646.522 50.4114 660.067 52.3264 666.535C49.4539 667.173 46.6104 667.927 43.8829 668.827C32.77 672.481 26.0384 676.223 22.1504 678.891L22.1794 678.92Z" fill="#ECB7B0"/>
<path d="M112.329 649.142C111.662 657.524 110.907 663.209 110.298 666.777C107.629 665.327 104.379 663.876 100.636 662.89C95.7904 661.585 87.8692 660.657 78.8164 660.628C80.6444 647.402 83.2267 624.546 85.2868 604.271C87.521 582.083 88.1594 567.522 88.0433 551.366C87.9273 536.603 88.2464 523.957 88.7107 521.694C88.7687 521.462 88.7977 521.317 88.8557 521.288C91.3332 520.05 99.5 520 100.143 521.752C101.826 529.236 107.106 563.723 109.718 579.994C112.619 597.977 113.664 632.638 112.358 649.171L112.329 649.142Z" fill="#ECB7B0"/>
<path d="M118.277 674.878C118.161 674.501 115.259 671.687 110.297 668.961C109.398 668.439 108.411 667.974 107.367 667.51C107.251 667.452 107.106 667.394 106.99 667.336C105.075 666.495 102.956 665.712 100.635 665.074C97.9948 664.378 94.4549 663.769 90.3057 663.363C90.1606 663.363 90.0156 663.334 89.8995 663.334C86.5337 663.015 82.7907 662.841 78.8156 662.812C73.3317 662.812 67.4416 663.102 61.4934 663.885C61.3773 663.885 61.2323 663.914 61.1162 663.943C58.1856 664.32 55.2551 664.813 52.3535 665.451C49.481 666.089 46.6665 666.843 43.9101 667.742C39.993 669.019 36.6562 670.324 33.7547 671.571C33.6386 671.629 33.4935 671.687 33.3774 671.716C28.2417 673.978 24.6148 676.096 22.1775 677.778C18.9568 680.04 17.7091 681.52 17.7091 681.52C17.506 694.021 24.992 716.964 31.9847 731.93C38.9774 746.897 41.4437 747.796 42.3142 750.058C42.3142 750.058 44.6064 747.68 50.0033 745.244C50.1194 745.186 50.2354 745.128 50.3515 745.099C54.1815 743.416 59.5204 741.763 66.6001 740.864C66.7162 740.864 66.8613 740.835 66.9773 740.835C67.8768 740.719 68.8053 740.632 69.7628 740.545C74.6664 740.139 78.7576 740.081 82.1234 740.284C82.2684 740.284 82.3845 740.284 82.5296 740.284C87.2591 740.574 90.5668 741.328 92.801 742.053C92.9171 742.053 93.0622 742.111 93.1782 742.169C95.4124 742.952 96.428 743.677 96.6311 743.764C96.6311 743.764 101.854 734.512 109.05 717.776C116.246 701.04 118.393 675.545 118.219 674.936L118.277 674.878Z" fill="#423479"/>
<path d="M502.529 520.479C502.297 520.769 501.891 521.523 501.368 522.538C497.625 521.204 491.957 517.618 492.537 515.153C493.027 513.072 516.538 514.499 516.538 514.499C516.538 514.499 515.267 522.944 514.106 524.598C514.193 523.902 514.222 523.379 514.222 523.118C514.222 519.203 504.241 518.362 502.529 520.479Z" fill="#0E7E90"/>
<path d="M514.076 524.598C513.002 533.648 505.459 583.946 502.093 598.623C486.047 602.828 477.633 606.831 473.31 610.138C475.805 601.697 483.145 569.73 486.627 559.085C490.254 548.005 498.146 529.007 501.367 522.539C501.889 521.494 502.296 520.769 502.528 520.479C504.24 518.333 514.221 519.174 514.221 523.119C514.221 523.38 514.192 523.902 514.105 524.598H514.076Z" fill="#ECB7B0"/>
<path d="M588.414 535.799C587.892 532.116 579.071 529.099 578.172 529.505C578.056 529.563 577.853 529.795 577.592 530.172C574.893 527.156 571.183 519.979 571.038 518.152C570.922 516.325 576.037 514.153 579.538 516.652C583.078 518.509 589.459 528.78 589.575 529.476C589.72 530.172 588.588 535.248 588.356 537.771C588.414 536.785 588.443 536.118 588.414 535.799Z" fill="#0E7E90"/>
<path d="M588.357 537.771C587.689 547.256 581.857 585.397 576.983 602.278C571.18 598.276 562.04 594.476 550.927 592.33C554.641 583.338 562.533 564.34 567.001 552.97C571.209 542.238 575.851 532.696 577.592 530.143C577.853 529.766 578.056 529.534 578.172 529.476C579.101 529.07 587.892 532.086 588.415 535.77C588.444 536.089 588.415 536.756 588.357 537.742V537.771Z" fill="#ECB7B0"/>
<path d="M581.45 606.049C580.318 604.801 578.838 603.525 577.01 602.278C571.207 598.275 562.067 594.476 550.954 592.329C539.377 590.125 525.624 589.777 511.203 593.025C507.925 593.751 504.907 594.534 502.092 595.23C486.076 599.435 477.632 603.438 473.309 606.774C470.901 608.63 469.769 610.225 469.305 611.56C468.377 614.17 463.908 623.887 464.053 640.709C464.198 657.503 466.694 674.964 474.296 695.442C477.661 704.491 480.911 712.729 483.494 719.081C486.105 725.433 488.049 729.958 488.716 731.553C488.716 731.553 490.951 729.058 497.769 727.173C498.03 727.115 498.291 727.028 498.553 726.97C501.338 726.274 504.82 725.665 509.114 725.346C509.375 725.346 509.636 725.317 509.898 725.288C511.755 725.172 513.757 725.085 515.904 725.085C518.602 725.085 521.04 725.23 523.274 725.433C523.535 725.433 523.796 725.491 524.057 725.52C528.874 726.042 532.559 726.999 535.402 728.043C535.663 728.13 535.924 728.246 536.157 728.333C541.408 730.451 543.236 732.829 543.236 732.829C543.236 732.829 556.758 703.012 565.288 675.167C573.819 647.352 581.45 605.991 581.45 605.991V606.049Z" fill="#96ABBC"/>
<path d="M160.814 526.435C155.678 524.666 153.444 521.5 153.444 521.5C153.444 521.761 153.444 522.254 153.444 522.95C149.382 521.471 144.565 518.222 144.797 516.134C145.184 512.654 167.538 514.176 167.538 515.496C167.538 517.564 168 524 168.068 526.895C166 527.435 165.978 529.205 160.843 527.435L160.814 526.435Z" fill="#F44234"/>
<path d="M257.841 527.435C252.734 527.058 247.192 523.443 247.192 523.443C247.192 523.443 247.134 523.704 247.047 524.139C246.67 520.832 247.337 515.059 248.527 514.653C249.716 514.247 271.246 514.015 272.958 515.842C274.466 517.437 268.925 522.34 263.644 524.284C263.266 523.095 261.932 527.754 257.87 527.435H257.841Z" fill="#F44234"/>
<path d="M258.363 607.615C257.579 625.076 251.66 692.048 250.355 708.842C249.049 725.636 246.699 741.27 246.699 741.27C246.699 740.864 240.518 735.237 211.242 734.454C181.965 733.67 166.326 739.558 166.326 739.558C166.065 735.498 160.813 683.376 159.768 667.742C158.724 652.109 154.662 603.786 153.994 587.776C153.385 572.925 153.327 531.564 153.443 522.892C153.443 522.196 153.443 521.703 153.443 521.441C153.443 521.441 155.364 522.666 160.5 524.435C165.607 526.205 168.038 526.807 168.038 526.807C168.125 527.01 168.27 527.446 168.415 528.084C170.272 535.016 176.655 567.24 180.515 593.113C184.722 621.334 191.279 664.407 194.558 676.357C197.837 688.307 203.089 710.873 206.367 709.973C209.646 709.045 215.826 689.641 220.034 663.624C224.241 637.635 234.86 582.091 237.617 567.646C240.141 554.478 246.031 528.606 247.047 524.081C247.134 523.646 247.192 523.385 247.192 523.385C247.192 523.385 252.705 525.558 257.841 525.935C261.932 526.254 263.237 523.037 263.615 524.226C263.702 524.516 263.731 524.806 263.731 524.98C263.731 525.879 259.146 590.096 258.363 607.557V607.615Z" fill="#0E7E91"/>
<path d="M343.552 522.486C343.552 522.486 343.32 523.008 343.088 523.936C339.664 522.979 334.057 518.152 334.298 515.653C334.587 512.654 355.5 515.5 355.5 515.5L355.043 524.284C355.014 522.022 354.985 520.716 354.985 520.716C350.632 519.759 344.133 522.486 343.552 522.486Z" fill="#C6BCC3"/>
<path d="M457.061 524.168C457.148 523.732 457.206 523.5 457.206 523.5C457.206 523.5 457.786 522.514 456.016 520.745C454.247 519.005 447.544 520.745 447.544 520.745C447.544 520.745 452.07 517.322 455.494 515.495C458.918 513.639 465.737 514.625 466.114 516.771C466.433 518.512 459.672 522.688 457.032 524.226L457.061 524.168Z" fill="#C6BCC3"/>
<path opacity="0.4" d="M50.381 745.041C44.781 731.64 36.6857 705.275 33.7551 671.542C33.6391 671.6 33.494 671.658 33.3779 671.687C36.3085 705.391 44.4038 731.756 50.0038 745.186C50.1198 745.128 50.2359 745.07 50.352 745.041H50.381Z" fill="white"/>
<path opacity="0.4" d="M66.6881 700.257C65.4405 690.018 63.7286 678.648 62.4809 670.353C62.1037 667.946 61.7845 665.712 61.4944 663.856C61.3783 663.856 61.2332 663.885 61.1172 663.914C61.3493 665.509 61.6685 667.626 62.1037 670.382C63.3514 678.677 65.0923 690.047 66.3109 700.286C68.255 716.645 67.3845 731.698 66.6301 740.777C66.7462 740.777 66.8913 740.748 67.0073 740.748C67.7617 731.611 68.6322 716.616 66.6881 700.257Z" fill="white"/>
<path opacity="0.4" d="M90.336 663.363C90.336 663.363 90.0458 663.334 89.9297 663.334C91.2064 673.369 92.1059 689.641 89.2914 707.073C86.5639 724.244 83.6624 735.208 82.1826 740.226C82.3277 740.226 82.4438 740.226 82.5888 740.226C84.0686 735.15 86.9412 724.186 89.6686 707.102C92.4541 689.67 91.5836 673.398 90.3069 663.334L90.336 663.363Z" fill="white"/>
<path opacity="0.4" d="M107.397 667.51C107.397 667.51 107.136 667.394 107.019 667.336C106.642 676.386 105.279 687.06 102.986 699.184C99.9687 715.078 97.1542 725.694 95.0941 733.496C94.2237 736.774 93.4983 739.53 92.918 742.053C93.034 742.053 93.1791 742.111 93.2952 742.169C93.8755 739.675 94.6009 736.919 95.4713 733.613C97.5314 725.839 100.346 715.165 103.393 699.271C105.685 687.176 107.048 676.56 107.455 667.539L107.397 667.51Z" fill="white"/>
<path d="M480.07 645.177C480.07 644.945 479.896 644.771 479.693 644.771C479.49 644.771 479.287 644.945 479.287 645.177C478.678 683.028 491.909 714.905 497.799 727.174C498.06 727.116 498.321 727.029 498.582 726.971C492.75 714.876 479.49 682.999 480.099 645.177H480.07Z" fill="#C6BCC3"/>
<path d="M508.1 663.71C508.1 652.921 508.1 640.739 508.042 626.236C508.042 626.004 507.868 625.859 507.636 625.859C507.404 625.859 507.259 626.033 507.259 626.236C507.346 640.739 507.346 652.921 507.317 663.71C507.317 692.425 507.288 709.393 509.116 725.346C509.377 725.346 509.638 725.317 509.899 725.288C508.071 709.335 508.071 692.396 508.1 663.71Z" fill="#C6BCC3"/>
<path d="M535.23 645.205C535.23 645.002 535.085 644.799 534.853 644.77C534.65 644.77 534.476 644.944 534.476 645.118C532.358 673.195 528.615 700.199 523.305 725.433C523.566 725.433 523.827 725.491 524.088 725.52C529.398 700.286 533.17 673.253 535.259 645.176L535.23 645.205Z" fill="#C6BCC3"/>
<path d="M557.194 677.807C557.194 677.604 557.049 677.401 556.817 677.401C556.585 677.401 556.44 677.575 556.44 677.778C555.424 695.5 541.816 718.037 535.433 728.101C535.694 728.188 535.955 728.304 536.187 728.391C542.657 718.24 556.208 695.703 557.223 677.836L557.194 677.807Z" fill="#C6BCC3"/>
</g>
<rect x="647" y="750" width="647" height="372" transform="rotate(-180 647 750)" fill="url(#paint0_linear_1279_113170)"/>
<path d="M519.668 200.903C519.581 201.483 519.435 202.063 519.29 202.702C519 203.891 518.594 204.907 518.072 205.806C516.882 207.896 515.112 209.23 513.197 209.898C511.775 210.391 510.296 210.507 508.845 210.275C507.713 210.072 506.611 209.665 505.682 208.998C504.58 208.215 503.651 207.112 502.839 205.777C501.678 203.862 500.837 201.483 500.285 199.046C499.647 196.289 499.357 193.475 499.444 191.067C499.647 185.031 501.533 181.782 503.709 181.55C506.872 181.23 508.903 183.174 512.124 187.004C515.344 190.805 518.101 188.194 518.681 189.558C519.232 190.834 520.77 194.461 519.639 200.903H519.668Z" fill="#ECB7B0"/>
<path d="M457.169 508.147C457.169 508.147 457.111 507.915 457.024 507.48C456.124 503.214 450.93 479.567 440.427 447.505C428.792 412.019 420.725 384.454 414.806 366.116C411.179 354.858 403.113 327.874 397.455 308.753C397.281 308.869 397.165 308.927 397.165 308.927C395.685 306.403 394.902 301.412 394.64 299.265C393.335 294.797 392.696 291.228 392.145 289.342C389.592 290.125 374.562 294.39 354.338 293.549C333.65 292.707 315.689 285.86 313.165 284.873C312.585 289.748 315.486 340.032 319.026 365.13C322.566 390.228 329.936 435.666 333.273 455.368C336.203 472.632 341.426 500.951 343.051 507.683C343.283 508.611 343.457 509.134 343.515 509.134C344.096 509.134 350.595 511.861 354.947 510.903C354.947 510.903 354.947 509.598 355.005 507.335C355.179 496.918 355.586 465.668 354.947 439.816C354.164 408.276 353.38 365.536 353.38 351.551C353.38 337.565 353.38 322.593 356.137 323.377C358.893 324.16 366.583 340.119 375.055 362.78C383.528 385.441 397.513 413.005 408.945 439.032C420.377 465.03 447.536 510.932 447.536 510.932C447.536 510.932 454.238 512.673 456.008 510.932C457.778 509.163 457.198 508.176 457.198 508.176L457.169 508.147Z" fill="#423479"/>
<path d="M309.944 140.261C308.784 140.406 306.172 131.701 307.159 130.715C308.145 129.728 310.902 135.241 311.279 134.864C311.685 134.458 313.049 123.432 314.035 123.925C315.022 124.418 314.325 133.79 315.022 133.587C315.718 133.384 316.299 122.445 317.981 122.939C319.664 123.432 318.591 134.661 318.881 134.748C319.171 134.864 320.245 127.059 321.928 127.842C323.61 128.626 320.854 138.172 321.144 138.375C321.434 138.578 323.117 132.659 324.191 133.065C325.264 133.442 320.825 146.238 320.825 146.238C320.825 146.238 318.272 143.133 315.225 141.305C313.571 140.319 311.366 140.058 309.944 140.232V140.261Z" fill="#ECB7B0"/>
<path d="M320.824 146.238C320.824 146.238 315.746 139.39 309.827 140.087C309.827 140.087 304.691 155.755 298.395 170.089C292.069 184.393 283.016 201.338 268.828 197.421C255.104 193.62 245.935 186.105 216.165 181.579C215.207 183 214.25 183.929 213.583 183.494C212.973 183.087 212.741 182.217 212.654 181.085C180.592 176.675 164.75 178.242 149.72 179.693C134.603 181.143 128.77 184.509 124.94 164.227C121.081 143.946 116.41 120.849 116.41 120.849C116.41 120.849 105.413 117.106 104.456 119.167C102.86 122.619 104.601 147.631 106.748 166.81C108.866 185.989 110.578 194.665 121.488 200.178C132.397 205.69 149.081 200.584 156.306 206.358C163.531 212.132 166.142 218.835 166.287 236.302C166.403 253.769 166.287 292.011 166.287 292.011C166.287 292.011 181.927 297.902 211.203 297.118C240.48 296.335 246.66 290.677 246.66 290.299C246.66 289.922 246.515 256.816 246.66 243.933C246.776 231.079 245.616 222.781 247.589 221.33C249.562 219.879 268.48 227.887 279.244 225.798C290.009 223.68 305.765 208.215 313.396 182.449C320.998 156.712 320.853 146.238 320.853 146.238H320.824Z" fill="#423479"/>
<path d="M43.1756 92.5887C44.0461 92.2406 49.3849 91.3991 49.6751 90.3255C49.9653 89.252 44.9456 89.7452 45.1487 88.9618C45.3518 88.1784 52.0544 80.9826 50.6616 79.909C49.2979 78.8354 44.3653 86.0022 43.9591 85.625C43.5528 85.2188 49.559 78.6033 48.1083 77.5007C46.6285 76.3691 41.6959 83.4779 41.6959 83.4779C41.6959 83.4779 43.1756 78.2261 42.2762 77.5007C41.3767 76.7753 38.243 83.1587 38.243 83.1587C38.243 83.1587 38.7363 79.7059 37.5757 79.3287C36.386 78.9225 34.9062 86.8147 34.9062 86.8147C34.9062 86.8147 38.5622 94.5038 43.1756 92.6178V92.5887Z" fill="#ECB7B0"/>
<path d="M104.457 119.166C104.282 118.905 104.747 114.843 105.153 114.06C105.559 113.276 110.782 111.39 113.829 114.06C116.875 116.7 116.382 121.836 116.44 121.546C116.498 121.255 106.256 121.749 104.486 119.166H104.457Z" fill="#ECB7B0"/>
<path d="M105.818 117.107C107.124 116.294 103.758 108.924 102.162 109.998C100.595 111.072 104.019 118.18 105.818 117.107Z" fill="#ECB7B0"/>
<path d="M107.88 116.323C108.983 116.178 108.49 108.256 106.11 107.067C103.731 105.877 105.704 116.613 107.88 116.323Z" fill="#ECB7B0"/>
<path d="M110.406 115.742C111.393 115.713 111.915 111.129 111.828 108.953C111.712 106.777 109.884 104.514 108.433 104.92C106.983 105.326 107.505 115.859 110.406 115.742Z" fill="#ECB7B0"/>
<path d="M112.725 115.742C114.031 116.207 115.684 111.419 115.888 108.75C116.091 106.08 114.176 104.223 112.725 105.587C111.274 106.951 110.752 115.046 112.725 115.742Z" fill="#ECB7B0"/>
<path d="M114.584 117.222C116.412 118.18 121.084 112.348 118.821 110.433C116.557 108.547 113.134 116.439 114.584 117.222Z" fill="#ECB7B0"/>
<path d="M394.931 298.22C394.264 297.408 386.314 300.919 386.604 301.789C386.894 302.689 393.945 301.006 393.945 301.006C393.945 301.006 385.385 304.082 385.559 305.039C385.762 306.084 389.912 305.329 390.985 304.546C392.088 303.762 393.945 302.979 393.945 302.979C393.945 302.979 386.372 308.55 386.72 309.275C387.387 310.697 394.525 306.316 394.525 306.316C394.525 306.316 389.912 311.364 390.492 311.945C391.246 312.699 396.498 309.798 397.165 308.927C397.165 308.927 397.456 301.267 394.902 298.22H394.931Z" fill="#ECB7B0"/>
<path d="M85.8294 172.178C85.5683 173.338 85.133 174.789 84.6108 176.327C83.9724 178.184 83.218 180.128 82.4346 181.869C81.39 184.161 80.2584 186.105 79.33 186.976C78.4015 187.846 77.8502 188.426 77.531 188.891C77.3859 188.949 77.2118 188.949 77.0667 189.007C75.8191 189.355 74.6004 189.181 73.4398 188.658C73.3528 188.484 73.2657 188.31 73.1497 188.136C72.9466 187.788 72.7144 187.411 72.4533 187.063C71.7279 186.105 70.9735 185.061 70.2481 183.929C69.2036 182.362 68.217 180.65 67.4336 178.996C66.7663 177.604 66.273 176.211 65.9538 174.934C65.8088 173.715 65.7507 172.555 65.8378 171.597C65.8668 171.481 65.8958 171.336 65.8958 171.249C67.1725 167.187 69.2616 169.566 72.9756 168.203C74.4263 167.651 75.9642 166.549 77.3859 165.446C78.1693 164.895 78.8657 164.314 79.504 163.821C80.8968 162.748 82.1154 162.022 82.8988 162.283C84.8429 162.922 86.7289 167.999 85.7424 172.236L85.8294 172.178Z" fill="#ECB7B0"/>
<path d="M45.5259 205.081C48.4274 202.673 47.0057 199.945 45.5259 195.1C41.5218 194.432 38.0979 192.778 34.413 189.297C25.4762 180.882 19.9633 172.961 19.441 155.145C19.0928 143.684 36.7632 101.554 42.8855 92.7043C42.8855 92.7043 40.7383 90.325 38.7653 88.9613C36.7922 87.5686 35.1093 87.1624 35.1093 87.1624C30.8731 90.5281 22.3135 100.596 12.9416 117.106C3.56958 133.645 -0.0573464 143.22 0.000684401 159.063C0.0587152 173.744 2.90223 194.839 17.526 211.377C21.5301 215.904 27.2172 218.312 32.3819 220.546C32.3819 220.401 32.3529 220.285 32.3239 220.169C31.8306 211.987 41.986 208.041 45.5259 205.11V205.081Z" fill="#E12A37"/>
<path d="M77.0664 188.978C75.8187 189.326 74.6001 189.152 73.4395 188.629C74.3099 190.399 74.426 192.111 73.9037 193.736C73.8167 193.997 73.7006 194.287 73.5845 194.549C73.6135 194.578 73.6426 194.636 73.7006 194.636C74.6001 195.071 75.8187 194.81 76.5151 193.649C76.5731 193.562 76.6021 193.417 76.6602 193.33L77.0954 189.703C77.0954 189.442 77.0954 189.21 77.0954 189.007L77.0664 188.978Z" fill="#ECB7B0"/>
<path d="M94.5908 186.048C91.4281 181.405 88.5846 177.169 88.8748 167.826C89.1649 158.454 84.9287 151.983 76.2531 151.867C70.8272 151.78 64.9371 153.231 62.4707 162.893C60.0044 172.555 57.5671 176.298 53.9982 178.736C50.4584 181.202 42.9724 184.249 44.5392 191.444C44.8294 192.779 45.1775 193.969 45.4967 195.071C46.9765 199.888 48.3983 202.644 45.4967 205.053C41.9568 208.012 31.8014 211.929 32.2947 220.112C32.2947 220.257 32.3237 220.373 32.3527 220.489C32.875 225.537 37.4885 227.307 43.4076 227.423C46.5993 227.482 50.1392 227.104 53.6791 226.495C63.9215 224.725 68.9412 219.009 68.8541 214.076C68.7671 209.173 63.2251 201.861 68.564 199.221C70.9723 198.002 72.7132 196.377 73.5836 194.491C73.6997 194.23 73.8158 193.969 73.9028 193.679C74.3961 192.083 74.28 190.342 73.4386 188.572C73.3515 188.398 73.2645 188.224 73.1484 188.05C72.9453 187.701 72.7132 187.324 72.452 186.976C69.8116 183.494 66.9681 178.445 65.9526 174.819C65.7205 173.919 65.6044 172.439 65.8365 171.482C65.8655 171.366 65.8655 171.221 65.9236 171.134C67.2003 167.1 69.2894 169.451 73.0033 168.087C74.4541 167.536 75.9919 166.462 77.4427 165.33C78.1681 164.779 78.8935 164.199 79.5608 163.706C80.9536 162.661 82.1722 161.936 82.9556 162.197C84.8997 162.835 86.7857 167.913 85.7991 172.149C84.8126 176.385 81.5629 184.887 79.2997 186.947C78.3422 187.817 77.8199 188.427 77.5007 188.862C77.0655 189.442 77.0655 189.703 77.0655 189.703L76.6303 193.33V193.65C83.8551 193.504 90.7898 194.027 97.1152 195.536C97.4343 193.562 96.7089 189.21 94.5618 186.077L94.5908 186.048Z" fill="#0E7E91"/>
<path d="M18.3963 514.278C14.7114 515.061 11.3166 513.349 11.3166 513.349C11.3166 513.349 11.3166 511.724 11.3166 510.969C6 511.969 1.49966 514.749 2 516.469C2.50034 518.19 10 519.5 24 518C24 518 24.6637 511.638 23.6481 509.984C22.4295 512.508 20.9207 513.727 18.4253 514.249L18.3963 514.278Z" fill="#423479"/>
<path d="M88.7864 510.361C88.7864 510.361 88.6994 510.187 88.6413 509.955H88.6123V509.751V510.071C88.6123 511.637 87.4303 515.969 88.6121 516.469C91.6297 517.746 104.5 517.969 109.5 515.969C113.214 513.503 104.44 511.058 100 508.969C99.8261 509.782 99.7542 511.173 99.6672 511.318C98.7387 512.711 89.3087 510.622 88.7864 510.361Z" fill="#423479"/>
<path d="M22.1411 355.969C20.0229 368.997 15.4965 401.843 13.0012 426.303C10.5929 450.008 11.1732 503.861 11.2893 512.246C11.2893 512.972 11.2893 513.378 11.2893 513.378C11.2893 513.378 14.6841 515.09 18.3691 514.306C20.8644 513.784 22.3732 512.565 23.5918 510.041C24.1721 508.852 24.6944 507.372 25.1877 505.515C26.7545 499.741 31.0778 486.597 32.3835 463.878C33.6892 441.159 35.6913 441.942 42.2488 410.025C46.7171 388.379 50.3731 374.829 52.2881 368.359C49.4156 367.72 46.572 366.966 43.8446 366.067C32.7317 362.411 26.0001 358.668 22.112 355.998L22.1411 355.969Z" fill="#ECB7B0"/>
<path d="M112.291 382.431C111.624 374.046 110.869 368.359 110.26 364.79C107.591 366.241 104.341 367.692 100.598 368.678C95.7523 369.984 87.8311 370.912 78.7783 370.941C80.6063 384.172 83.1887 407.037 85.2488 427.318C87.4829 449.515 88.1213 464.081 88.0052 480.242C87.8892 495.011 88.2083 507.662 88.6726 509.925C88.7306 510.157 88.7596 510.302 88.8177 510.331C89.3399 510.593 98.799 512.682 99.6984 511.289C99.7855 511.144 99.9306 510.68 100.105 509.867C101.788 502.381 107.068 467.882 109.68 451.604C112.581 433.615 113.626 398.941 112.32 382.402L112.291 382.431Z" fill="#ECB7B0"/>
<path d="M118.239 356.687C118.122 357.064 115.221 359.878 110.259 362.606C109.36 363.128 108.373 363.592 107.329 364.057C107.213 364.115 107.068 364.173 106.951 364.231C105.036 365.072 102.918 365.856 100.597 366.494C97.9567 367.19 94.4168 367.8 90.2676 368.206C90.1226 368.206 89.9775 368.235 89.8614 368.235C86.4956 368.554 82.7526 368.728 78.7775 368.757C73.2936 368.757 67.4035 368.467 61.4553 367.684C61.3392 367.684 61.1942 367.655 61.0781 367.626C58.1476 367.248 55.217 366.755 52.3155 366.117C49.4429 365.478 46.6284 364.724 43.872 363.825C39.9549 362.548 36.6181 361.242 33.7166 359.994C33.6005 359.936 33.4554 359.878 33.3394 359.849C28.2036 357.586 24.5767 355.468 22.1394 353.785C18.9187 351.522 17.671 350.042 17.671 350.042C17.4679 337.537 24.9539 314.585 31.9466 299.613C38.9393 284.641 41.4057 283.742 42.2761 281.479C42.2761 281.479 44.5683 283.858 49.9652 286.295C50.0813 286.353 50.1973 286.411 50.3134 286.44C54.1434 288.123 59.4823 289.777 66.562 290.677C66.6781 290.677 66.8232 290.706 66.9392 290.706C67.8387 290.822 68.7672 290.909 69.7247 290.996C74.6283 291.402 78.7195 291.46 82.0853 291.257C82.2304 291.257 82.3464 291.257 82.4915 291.257C87.221 290.967 90.5288 290.212 92.763 289.487C92.879 289.487 93.0241 289.429 93.1402 289.371C95.3743 288.588 96.3899 287.862 96.593 287.775C96.593 287.775 101.816 297.031 109.012 313.773C116.207 330.515 118.355 356.019 118.18 356.629L118.239 356.687Z" fill="#423479"/>
<path d="M508.468 213.786C508.816 213.728 508.903 212.277 508.874 210.275C507.743 210.072 506.64 209.637 505.712 208.998C501.301 205.923 499.27 197.102 499.473 191.067C499.676 185.032 501.591 181.782 503.738 181.55C506.901 181.231 508.932 183.204 512.153 187.005C515.374 190.806 518.13 188.194 518.71 189.558C519.291 190.922 521.09 195.129 519.291 202.673C518.362 206.59 515.954 208.94 513.227 209.898C513.052 211.203 512.936 212.625 513.11 213.322C522.482 212.538 531.564 212.567 538.354 213.06C536.352 210.507 534.466 207.78 532.986 204.907C527.879 194.926 529.446 188.223 527.879 181.492C526.313 174.76 521.061 169.044 508.062 171.801C495.063 174.557 496.775 187.556 497.297 195.941C497.79 203.747 496.688 212.248 496.311 214.801C499.241 214.656 502.491 214.395 506.176 214.018C507.075 213.757 508.265 213.815 508.526 213.757L508.468 213.786Z" fill="#423479"/>
<path d="M544.361 251.912C543.172 259.862 541.547 283.393 542.707 295.29C543.723 294.216 544.39 292.765 544.884 291.721C546.334 288.703 548.83 290.154 555.909 290.009C562.989 289.893 569.315 288.964 570.939 277.793C572.593 266.622 563.802 259.398 558.144 253.362C554.923 249.91 552.921 245.325 551.557 240.625C547.321 240.015 545.551 243.874 544.361 251.912Z" fill="#423479"/>
<path d="M460.65 232.559C461.666 231.195 463.117 228.584 463.987 224.202C465.438 216.978 465.409 213.989 465.409 213.989C463.117 211.987 454.702 204.095 451.742 193.33C448.29 180.824 444.053 151.954 447.39 130.889C448.377 124.65 450.64 123.113 450.93 121.836C451.22 120.559 450.843 119.863 449.653 120.472C448.464 121.053 447.187 123.722 446.81 123.229C446.404 122.735 448.174 114.756 446.81 114.176C445.417 113.567 444.837 121.459 444.837 121.459C444.837 121.459 444.837 113.479 443.357 112.783C441.877 112.087 442.283 121.256 442.283 121.256C442.283 121.256 441.5 114.35 440.601 114.06C439.73 113.77 439.73 122.619 439.73 122.329C439.73 122.039 438.744 115.917 437.67 116.12C436.596 116.323 436.48 122.91 434.826 131.672C433.144 140.435 429.604 153.231 431.374 175.602C433.144 197.972 436.103 204.849 439.556 212.422C443.009 220.024 455.514 231.543 459.548 233.806C459.548 233.806 460.012 233.371 460.65 232.53V232.559Z" fill="#ECB7B0"/>
<path d="M506.118 214.018C506.873 213.96 507.656 213.873 508.468 213.757C508.207 213.815 507.047 213.757 506.118 214.018Z" fill="#ECB7B0"/>
<path d="M646.93 195.129C646.205 194.287 643.651 200.177 643.245 200.003C642.839 199.8 645.334 192.72 644.231 192.053C643.129 191.386 639.966 199.336 639.966 199.336C639.966 199.336 641.214 187.846 640.024 187.381C638.835 186.917 636.745 197.247 636.223 197.305C635.701 197.363 635.556 189.296 634.772 189.354C633.989 189.412 633.612 198.407 633.38 198.668C633.177 198.93 629.956 192.488 629.172 193.417C628.389 194.345 631.929 203.079 631.929 204.384C631.929 205.69 629.637 213.379 623.34 223.041C617.044 232.704 608.368 241.814 597.023 240.828C585.649 239.841 570.939 228.467 570.939 228.467L564.294 248.981C566.47 251.041 577.09 259.717 595.631 260.703C614.142 261.69 624.878 251.157 628.911 242.772C634.83 230.527 643.187 206.619 643.68 204.762C644.173 202.905 647.626 195.97 646.901 195.099L646.93 195.129Z" fill="#ECB7B0"/>
<path d="M502.491 511.141C502.259 510.851 501.853 510.097 501.33 509.081C497.587 510.416 491.919 514.003 492.499 516.469C492.989 518.551 516.5 517.124 516.5 517.124C516.5 517.124 515.229 508.675 514.068 507.021C514.155 507.717 514.184 508.24 514.184 508.501C514.184 512.418 504.203 513.259 502.491 511.141Z" fill="#0E7E90"/>
<path d="M514.038 507.021C512.964 497.968 505.421 447.651 502.055 432.969C486.009 428.762 477.595 424.758 473.271 421.45C475.767 429.894 483.107 461.873 486.589 472.521C490.216 483.605 498.108 502.61 501.329 509.081C501.851 510.125 502.257 510.851 502.49 511.141C504.202 513.288 514.183 512.447 514.183 508.5C514.183 508.239 514.154 507.717 514.067 507.021H514.038Z" fill="#ECB7B0"/>
<path d="M588.376 495.816C587.854 499.501 579.033 502.518 578.134 502.112C578.018 502.054 577.815 501.822 577.554 501.445C574.855 504.462 571.145 511.641 571 513.469C570.884 515.297 575.999 517.469 579.5 514.969C583.04 513.112 589.421 502.837 589.537 502.141C589.682 501.445 588.55 496.367 588.318 493.843C588.376 494.829 588.405 495.496 588.376 495.816Z" fill="#0E7E90"/>
<path d="M588.319 493.843C587.651 484.354 581.819 446.199 576.945 429.312C571.141 433.316 562.002 437.117 550.889 439.265C554.603 448.259 562.495 467.264 566.963 478.638C571.17 489.374 575.813 498.92 577.554 501.474C577.815 501.851 578.018 502.083 578.134 502.141C579.063 502.547 587.854 499.53 588.377 495.845C588.406 495.525 588.377 494.858 588.319 493.872V493.843Z" fill="#ECB7B0"/>
<path d="M581.412 425.54C580.28 426.788 578.8 428.065 576.972 429.312C571.169 433.316 562.029 437.117 550.916 439.265C539.339 441.47 525.586 441.818 511.165 438.568C507.886 437.843 504.869 437.059 502.054 436.363C486.038 432.156 477.594 428.152 473.271 424.815C470.863 422.958 469.731 421.362 469.267 420.027C468.338 417.416 463.87 407.696 464.015 390.867C464.16 374.067 466.656 356.6 474.258 336.115C477.623 327.062 480.873 318.822 483.455 312.467C486.067 306.113 488.011 301.586 488.678 299.991C488.678 299.991 490.913 302.486 497.731 304.372C497.992 304.43 498.253 304.517 498.515 304.575C501.3 305.271 504.782 305.881 509.076 306.2C509.337 306.2 509.598 306.229 509.86 306.258C511.717 306.374 513.719 306.461 515.866 306.461C518.564 306.461 521.001 306.316 523.236 306.113C523.497 306.113 523.758 306.055 524.019 306.026C528.836 305.503 532.521 304.546 535.364 303.501C535.625 303.414 535.886 303.298 536.119 303.211C541.37 301.093 543.198 298.714 543.198 298.714C543.198 298.714 556.719 328.542 565.25 356.397C573.781 384.222 581.412 425.598 581.412 425.598V425.54Z" fill="#96ABBC"/>
<path d="M518.883 213.641C518.216 213.119 513.69 214.482 513.167 213.554C513.138 213.496 513.109 213.409 513.08 213.293C512.935 212.596 513.051 211.175 513.196 209.869C511.774 210.362 510.266 210.478 508.844 210.246C508.844 212.248 508.786 213.699 508.438 213.757C507.625 213.844 506.871 213.931 506.087 214.018C505.565 214.163 505.13 214.424 505.014 214.889C504.695 216.136 506.146 223.1 508.032 228.294C509.947 233.487 511.107 235.693 512.558 235.577C513.98 235.431 514.966 228.352 516.417 222.897C517.868 217.442 519.493 214.163 518.854 213.641H518.883Z" fill="#ECB7B0"/>
<path d="M547.669 214.366C545.667 213.844 542.388 213.38 538.326 213.089C531.536 212.596 522.483 212.538 513.082 213.35C513.082 213.438 513.14 213.554 513.169 213.612C513.692 214.54 518.218 213.147 518.885 213.699C519.553 214.221 517.899 217.5 516.448 222.955C514.997 228.409 514.011 235.489 512.589 235.634C511.138 235.75 509.949 233.516 508.063 228.351C506.177 223.158 504.726 216.194 505.045 214.946C505.161 214.482 505.596 214.25 506.119 214.076C502.434 214.453 499.184 214.714 496.253 214.859C487.317 215.324 481.31 215.062 474.231 215.846C468.805 216.484 465.468 214.076 465.41 214.047C465.41 214.047 465.41 217.035 463.988 224.26C463.118 228.642 461.667 231.224 460.651 232.617C460.013 233.516 459.549 233.893 459.549 233.893C462.508 235.983 471.271 239 474.521 238.855C477.771 238.71 478.844 239.9 480.295 242.917C481.746 245.935 479.105 252.376 479.366 258.557C479.628 264.737 488.303 270.917 490.392 276.952C492.481 282.987 489.348 294.42 488.651 300.049C488.651 300.049 494.454 306.49 515.868 306.49C537.281 306.49 543.2 298.743 543.2 298.743C542.997 297.756 542.852 296.625 542.736 295.348C541.575 283.452 543.2 259.92 544.39 251.97C545.609 243.904 547.35 240.045 551.586 240.683C551.963 240.741 552.369 240.828 552.804 240.944C557.94 242.511 564.353 249.039 564.353 249.039L570.997 228.526C568.154 226.378 553.588 215.991 547.698 214.395L547.669 214.366Z" fill="#0E7E91"/>
<path d="M214.135 174.644C213.874 174.47 213.642 174.238 213.41 174.034C213.091 176.182 212.539 179.025 212.655 181.085C212.713 182.217 212.975 183.087 213.584 183.493C214.251 183.958 215.209 183 216.166 181.578C217.327 179.867 218.459 177.516 219.097 176.153C217.472 176.269 215.789 175.804 214.164 174.644H214.135Z" fill="#ECB7B0"/>
<path d="M229.252 164.46C228.73 165.881 228.121 167.332 227.482 168.812C227.047 169.769 226.583 170.669 226.032 171.452C224.204 174.209 221.737 175.979 219.097 176.153C217.472 176.269 215.789 175.805 214.164 174.644C213.903 174.47 213.671 174.267 213.439 174.035C211.553 172.352 210.45 170.002 209.87 167.883C209.841 167.709 209.174 164.082 209.551 163.096C209.986 162.08 207.694 161.819 206.823 159.237C206.475 158.279 206.33 157.438 206.359 156.713C206.417 156.393 206.504 156.103 206.62 155.813C206.852 155.32 207.113 154.943 207.375 154.71C207.52 154.623 207.694 154.565 207.897 154.507C208.709 154.362 209.406 154.769 210.131 155.117C210.189 155.175 210.218 155.233 210.247 155.291C210.247 155.291 210.276 155.291 210.363 155.233C210.973 155.523 211.611 155.697 212.336 155.407C214.048 154.71 213.99 152.941 216.137 152.563C218.284 152.157 222.347 149.691 223.536 147.921C224.726 146.151 225.799 145.048 228.353 146.528C230.906 148.008 231.225 150.677 230.906 152.157C230.819 152.563 231.022 152.708 231.399 152.65C231.632 156.626 230.732 160.456 229.252 164.46Z" fill="#ECB7B0"/>
<path d="M160.776 510.904C155.64 512.674 153.406 510.12 153.406 510.12C153.406 509.859 153.406 509.366 153.406 508.67C149.343 510.149 144.527 513.399 144.759 515.488C145.146 518.969 167.5 517.447 167.5 516.127C167.5 515.952 168.929 507.045 168.407 503.447C168.233 504.085 168.116 504.52 168.029 504.723C166.985 506.958 165.94 509.105 160.805 510.875L160.776 510.904Z" fill="#F44234"/>
<path d="M257.803 510.672C252.696 511.049 247.154 508.176 247.154 508.176C247.154 508.176 247.096 507.915 247.009 507.48C246.632 510.788 247.299 516.563 248.489 516.969C249.678 517.375 271.208 517.608 272.92 515.78C274.428 514.184 268.886 509.279 263.606 507.335C263.228 508.525 261.894 510.353 257.832 510.672H257.803Z" fill="#F44234"/>
<path d="M258.325 423.974C257.541 406.506 251.622 339.51 250.317 322.71C249.011 305.91 246.661 290.271 246.661 290.271C246.661 290.677 240.48 296.306 211.204 297.089C181.927 297.873 166.288 291.982 166.288 291.982C166.027 296.045 160.775 348.185 159.73 363.825C158.686 379.464 154.624 427.804 153.956 443.82C153.347 458.676 153.289 500.052 153.405 508.728C153.405 509.424 153.405 509.917 153.405 510.178C153.405 510.178 155.639 512.732 160.775 510.962C165.882 509.192 166.926 507.016 168 504.811C168.087 504.607 168.232 504.172 168.377 503.534C170.234 496.599 176.617 464.363 180.476 438.481C184.684 410.249 191.241 367.161 194.52 355.207C197.799 343.253 203.05 320.679 206.329 321.578C209.608 322.507 215.788 341.918 219.995 367.945C224.203 393.943 234.822 449.507 237.579 463.957C240.103 477.13 245.993 503.012 247.009 507.538C247.096 507.973 247.154 508.234 247.154 508.234C247.154 508.234 252.667 511.107 257.803 510.73C261.894 510.411 263.199 508.583 263.577 507.393C263.664 507.103 263.693 506.813 263.693 506.639C263.693 505.739 259.108 441.499 258.325 424.032V423.974Z" fill="#0E7E91"/>
<path d="M239.871 140.464C239.378 137.011 235.635 135.734 233.284 137.707C230.934 139.68 230.441 137.881 229.048 135.734C227.655 133.558 224.116 131.701 216.136 133.268C208.128 134.835 205.023 144.12 204.414 150.59C203.834 157.09 205.198 158.279 205.604 162.225C206.01 166.171 207.954 167.158 209.869 167.912C209.869 167.912 209.869 167.912 209.869 167.883C209.84 167.709 209.173 164.082 209.55 163.096C209.956 162.08 207.635 161.819 206.793 159.266C206.097 157.177 206.706 155.058 207.345 154.71C207.519 154.623 207.693 154.565 207.896 154.507C208.708 154.362 209.405 154.768 210.13 155.117C210.217 155.175 210.304 155.204 210.391 155.233C211.001 155.523 211.639 155.697 212.364 155.407C214.047 154.71 214.018 152.94 216.165 152.563C218.313 152.157 222.375 149.72 223.564 147.95C224.754 146.18 225.827 145.106 228.381 146.557C230.934 148.037 231.253 150.706 230.934 152.186C230.847 152.592 231.05 152.737 231.427 152.679C232.356 152.534 234.387 151.141 235.954 149.517C238.13 147.253 240.393 143.888 239.9 140.464H239.871Z" fill="#96ABBC"/>
<path d="M361.04 157.902C360.749 160.658 357.413 166.577 354.946 168.84C354.946 168.84 355.237 168.956 355.73 169.101C354.946 169.827 354.134 170.465 353.234 170.958C351.929 171.684 350.565 172.09 349.114 172.003C348.853 172.003 348.65 171.945 348.389 171.916C344.675 171.365 342.412 168.347 341.135 164.517C340.352 162.109 339.945 159.352 339.858 156.683C339.858 156.393 339.829 156.074 339.829 155.754C339.742 148.617 340.584 142.03 342.731 139.1C342.731 139.1 342.76 139.042 342.789 139.042C343.05 139.303 343.34 139.564 343.659 139.796C347.896 142.959 351.319 142.262 352.799 144.816C354.279 147.369 357.442 149.458 359.415 151.315C361.388 153.172 361.301 155.145 360.982 157.902H361.04Z" fill="#ECB7B0"/>
<path d="M425.253 224.203C413.299 204.356 397.66 185.844 381.005 180.854C372.619 178.329 362.696 176.153 352.425 175.022C351.641 176.995 349.929 178.155 348.537 177.256C347.695 176.733 347.637 175.747 347.84 174.586C339.136 173.89 330.315 174.006 322.046 175.341C302.489 178.503 289.606 182.827 283.571 178.881C277.536 174.935 282.381 160.224 285.283 151.577C288.155 142.901 306.928 106.777 306.928 106.777L296.947 99.6975C291.463 104.282 278.58 121.285 271.501 134.719C264.421 148.153 258.763 165.359 260.591 179.026C262.419 192.692 269.266 201.6 286.211 203.457C303.156 205.314 316.678 202.412 317.751 204.907C318.796 207.403 317.258 215.498 315.691 235.577C314.124 255.684 312.877 284.758 312.877 284.758C312.877 284.758 312.993 284.787 313.196 284.874C315.72 285.86 333.681 292.708 354.369 293.55C374.592 294.391 389.216 290.271 391.799 289.487C392.06 289.4 392.176 289.342 392.176 289.342C392.176 289.342 387.214 261.894 385.415 246.806C383.645 231.718 379.177 212.655 382.978 212.916C386.779 213.177 398.994 224.986 407.264 240.103C415.533 255.191 412.922 262.445 409.759 272.542C406.596 282.669 394.526 298.221 394.526 298.221C394.526 298.221 394.555 298.627 394.642 299.266C394.903 301.413 395.687 306.403 397.166 308.928C397.166 308.928 397.283 308.87 397.457 308.754C400.01 307.216 420.118 294.768 427.633 280.028C435.641 264.273 437.208 244.049 425.282 224.203H425.253Z" fill="#C6BCC3"/>
<path d="M349.115 171.974C348.854 171.974 348.651 171.916 348.39 171.858C348.187 172.787 347.955 173.744 347.81 174.586C347.636 175.746 347.694 176.733 348.506 177.255C349.899 178.126 351.611 176.965 352.394 175.021C352.51 174.789 352.568 174.528 352.655 174.266C352.974 173.019 353.12 171.8 353.236 170.93C351.959 171.626 350.566 172.032 349.115 171.945V171.974Z" fill="#ECB7B0"/>
<path d="M343.514 509.134C343.514 509.134 343.282 508.612 343.05 507.683C339.626 508.641 334.018 513.469 334.259 515.969C334.549 518.969 355.5 516.5 355.5 516.5L355.004 507.335C354.975 509.598 354.946 510.904 354.946 510.904C350.594 511.861 344.095 509.134 343.514 509.134Z" fill="#C6BCC3"/>
<path d="M457.023 507.451C457.11 507.886 457.168 508.118 457.168 508.118C457.168 508.118 457.748 509.105 455.978 510.875C454.208 512.616 447.506 510.875 447.506 510.875C447.506 510.875 452.032 514.299 455.456 516.127C458.88 517.984 465.699 516.997 466.076 514.85C466.395 513.109 459.634 508.931 456.994 507.393L457.023 507.451Z" fill="#C6BCC3"/>
<path d="M361.911 137.302C357.965 133.152 346.765 124.68 341.6 130.309C340.091 131.934 339.569 135.938 342.819 139.013C343.08 139.275 343.37 139.536 343.718 139.768C347.954 142.931 351.407 142.234 352.887 144.788C354.367 147.341 357.529 149.43 359.473 151.287C361.446 153.144 361.359 155.117 361.04 157.873C360.75 160.63 357.413 166.549 354.947 168.812C354.947 168.812 355.237 168.928 355.759 169.073C357.326 169.509 360.837 170.118 362.926 167.623C364.986 165.214 364.638 164.75 364.58 163.067C362.839 163.619 360.837 163.56 360.054 162.835C359.822 162.574 360.315 161.326 361.127 160.05C361.824 158.976 362.752 157.902 363.739 157.38C364.609 156.916 365.393 156.916 366.031 157.206C367.22 155.001 368.7 152.854 368.816 149.865C369.019 145.368 365.886 141.422 361.94 137.302H361.911Z" fill="#E12A37"/>
<path d="M366.031 157.234C365.392 156.944 364.609 156.944 363.738 157.408C362.752 157.931 361.823 159.004 361.127 160.078C360.286 161.355 359.792 162.602 360.053 162.863C360.837 163.589 362.839 163.647 364.58 163.095C366.06 162.631 367.336 161.79 367.481 160.542C367.656 158.917 367.046 157.699 366.06 157.234H366.031Z" fill="#ECB7B0"/>
<path d="M318.358 50.8639C318.097 51.038 317.952 51.2701 317.894 51.5312C317.574 53.6203 323.319 58.698 328.31 63.3405C333.939 68.5923 339.858 72.1322 341.57 70.1591C343.253 68.1861 324.103 47.295 318.329 50.8639H318.358Z" fill="#94999A"/>
<path d="M307.36 58.6113C310.146 54.6942 312.003 57.7989 312.844 59.7719C313.366 58.7564 313.918 57.7699 314.469 56.8414C313.569 55.0714 311.364 51.9088 307.389 52.5761C301.963 53.5046 298.742 64.7046 308.753 69.8113C309.043 68.7087 309.42 67.6641 309.797 66.6196C308.579 66.0103 303.994 63.3118 307.36 58.6113Z" fill="#C6BCC3"/>
<path d="M336.927 77.4709C336.173 78.5445 335.448 79.56 334.722 80.4885C336.057 80.7787 337.711 81.5041 337.769 83.303C337.885 86.0595 333.416 87.8874 330.515 85.3051C329.325 86.5237 328.194 87.4812 327.12 88.2646C328.716 90.1216 339.103 94.7061 343.166 88.2646C346.909 82.3745 343.224 77.8191 336.927 77.4419V77.4709Z" fill="#C6BCC3"/>
<path d="M309.742 107.677C309.742 107.677 309.626 107.88 309.539 107.996C309.626 107.938 309.684 107.822 309.742 107.677Z" fill="#3A28B1"/>
<path d="M310.379 86.8142L304.634 94.5613C304.634 94.5613 296.829 95.7509 295.03 98.1302C297.177 95.925 310.525 102.395 310.002 106.806C310.612 104.369 310.67 98.9136 308.58 96.3893L314.703 89.5706C314.035 89.2225 313.455 88.9033 312.904 88.6421C311.946 88.2069 311.105 87.5686 310.35 86.7852L310.379 86.8142Z" fill="#94999A"/>
<path d="M328.342 63.3405C323.351 58.6981 317.606 53.6204 317.926 51.5312C316.823 53.0401 315.662 54.839 314.473 56.8411C313.921 57.7986 313.399 58.7561 312.848 59.7716C311.745 61.9188 310.701 64.211 309.801 66.6193C309.424 67.6638 309.076 68.7084 308.757 69.7819C308.467 70.7685 308.176 71.784 307.973 72.7996C306.552 79.328 307.77 84.1156 310.382 86.843C311.136 87.6264 311.977 88.2648 312.935 88.7C313.486 88.9321 314.067 89.2803 314.734 89.6285C317.49 91.0212 321.407 92.472 327.152 88.2938C328.226 87.5104 329.358 86.5529 330.547 85.3342C331.853 84.0285 333.246 82.4327 334.755 80.5177C335.451 79.5892 336.205 78.6026 336.96 77.5001C338.439 75.3819 339.977 72.9737 341.631 70.1882C339.919 72.1612 334 68.6213 328.371 63.3695L328.342 63.3405Z" fill="#C6BCC3"/>
<path d="M310.029 106.835C309.942 107.183 309.855 107.474 309.739 107.677C309.913 107.416 310 107.125 310.029 106.835Z" fill="#261D98"/>
<path d="M294.855 98.4496C294.855 98.4496 295.001 98.2465 295.059 98.1594C294.972 98.2465 294.913 98.3335 294.855 98.4496Z" fill="#261D98"/>
<path d="M295.03 98.159C295.03 98.159 294.885 98.3331 294.827 98.4491C294.275 99.6968 305.795 112.406 309.509 107.966C309.596 107.85 309.654 107.763 309.712 107.647C309.828 107.444 309.915 107.154 310.002 106.806C310.495 102.424 297.177 95.9538 295.03 98.13V98.159Z" fill="#403548"/>
<path d="M301.153 98.3917C302.836 97.6953 299.18 90.1223 297.41 90.4124C295.64 90.7026 299.267 99.1751 301.153 98.3917Z" fill="#ECB7B0"/>
<path d="M303.532 96.9116C304.838 96.3603 302.923 89.8318 300.979 87.7427C299.006 85.6826 298.077 89.1064 299.644 92.3271C301.211 95.5478 302.342 97.4048 303.532 96.9116Z" fill="#ECB7B0"/>
<path d="M304.694 95.2578C306.58 95.4029 305.768 86.4371 303.272 86.8143C300.777 87.2205 303.127 95.1417 304.694 95.2578Z" fill="#ECB7B0"/>
<path d="M306.666 94.4159C307.74 94.2418 307.711 87.6553 305.535 87.6553C303.358 87.6553 305.593 94.59 306.666 94.4159Z" fill="#ECB7B0"/>
<path d="M306.954 97.1728C306.954 99.0588 314.44 98.3624 314.527 95.78C314.643 93.2267 306.954 95.2868 306.954 97.1728Z" fill="#ECB7B0"/>
<path d="M325.582 66.6198C321.81 64.5597 315.63 65.024 314.44 71.2623C313.251 77.5006 320.214 84.6094 327.12 81.2436C334.055 77.9068 330.689 69.4053 325.553 66.5908L325.582 66.6198Z" fill="#FEFEFE"/>
<path d="M318.965 70.7106C318.414 72.3935 323.289 71.6971 323.289 71.6971C323.289 71.6971 318.472 77.3261 319.459 78.3997C320.445 79.4733 325.871 70.7106 325.871 70.7106C325.871 70.7106 319.372 69.521 318.965 70.7106Z" fill="#02174C"/>
<path d="M361.214 95.5476C361.156 95.2575 364.289 93.2844 364.289 93.2844L366.639 104.426L364.376 104.92L361.185 95.5766L361.214 95.5476Z" fill="#338AC2"/>
<path d="M395.511 113.479L398.47 111.564L403.2 117.512L402.387 119.775L395.511 113.479Z" fill="#13005E"/>
<path d="M468.021 141.247H472.171L472.867 149.632C472.867 149.632 470.024 150.126 470.111 149.632C470.198 149.139 468.05 141.247 468.05 141.247H468.021Z" fill="#A14152"/>
<path d="M420.318 64.1241V67.3738L428.298 65.1106V60.178L420.318 64.1241Z" fill="#A14152"/>
<path d="M374.039 48.4562H377.202L380.451 38.3008C380.451 38.3008 376.302 35.3412 376.389 35.6313C376.505 35.9215 374.039 48.4272 374.039 48.4272V48.4562Z" fill="#338AC2"/>
<path d="M312.846 24.0245C313.165 24.0245 315.428 25.5914 315.428 25.5914L315.922 13.4919L310.757 14.1883L312.846 24.0245Z" fill="#F44234"/>
<path d="M284.702 69.7825L288.155 70.1887L284.702 79.2995L280.872 78.4871L284.702 69.7825Z" fill="#13005E"/>
<path d="M258.008 96.418L259.604 99.7257L251.537 107.27C251.537 107.27 250.754 102.134 250.754 101.844C250.754 101.554 258.037 96.418 258.037 96.418H258.008Z" fill="#A14152"/>
<path d="M244.428 7.97924C244.486 8.29841 247.271 3.33677 247.271 3.33677C247.271 3.33677 244.022 0.957509 240.859 0L239.292 1.76994C239.292 1.76994 243.528 3.9461 244.428 7.97924Z" fill="#338AC2"/>
<path d="M143.685 42.0436L147.109 38.5037L143.685 26.9556L139.507 31.9462C139.507 31.9462 142.67 37.4301 143.685 42.0436Z" fill="#C6BCC3"/>
<path d="M68.418 172.265C68.418 172.265 68.476 172.149 68.5921 171.917C68.7081 171.684 68.9112 171.336 69.2014 170.901C69.5206 170.524 69.9268 170.002 70.5651 169.624C71.2034 169.247 72.1029 168.986 73.0024 169.276C73.3796 169.334 73.9019 169.653 74.2501 170.002C74.3952 170.205 74.5692 170.408 74.7143 170.611C74.8304 170.843 74.9464 171.075 75.0335 171.307C75.3817 172.265 75.4977 173.309 75.5848 174.383C75.6428 175.456 75.6428 176.53 75.7299 177.633C75.7589 178.184 75.8169 178.735 75.933 179.287C75.991 179.548 76.049 179.838 76.1651 180.07C76.2231 180.186 76.3102 180.273 76.3392 180.302H76.4262C76.4843 180.244 76.5423 180.215 76.5713 180.157C77.0646 179.287 77.2677 178.068 77.4708 177.023C77.6449 175.95 77.7319 174.847 77.819 173.803C77.906 172.758 77.819 171.743 78.2252 170.669C78.6024 169.682 79.2407 168.841 80.0532 168.319C80.8366 167.767 82.0262 167.68 82.7516 168.203C83.477 168.696 83.7381 169.392 83.8832 169.886C84.0573 170.408 84.0573 170.814 84.0573 171.075C84.0573 171.365 84.0573 171.51 84.0573 171.51C84.0573 171.626 83.9993 171.714 83.8832 171.714C83.7671 171.714 83.6801 171.655 83.6801 171.539C83.6511 171.539 83.506 170.988 83.1288 170.147C82.9257 169.74 82.6355 169.276 82.2003 169.015C81.7941 168.754 81.1848 168.725 80.5464 169.102C79.9371 169.479 79.3858 170.147 79.0086 170.959C78.8345 171.365 78.7184 171.743 78.6314 172.294C78.5734 172.787 78.5153 173.309 78.4573 173.832C78.3122 174.876 78.1091 175.979 77.877 177.052C77.6159 178.155 77.4708 179.258 76.7744 180.331C76.7164 180.418 76.6583 180.447 76.6003 180.476C76.4552 180.534 76.3682 180.534 76.2811 180.505C76.078 180.418 75.991 180.273 75.904 180.128C75.7589 179.838 75.7008 179.577 75.6718 179.287C75.5558 178.706 75.4977 178.155 75.4687 177.604C75.3817 176.501 75.2946 175.398 75.2076 174.354C75.0915 173.309 74.9174 172.323 74.5692 171.452C74.4822 171.249 74.3661 171.046 74.2791 170.843C74.163 170.669 74.0179 170.524 73.9019 170.35C73.5827 170.089 73.3796 169.886 72.9154 169.798L72.6252 169.74C72.6252 169.74 72.4801 169.682 72.5382 169.74H72.3931C72.219 169.74 72.0449 169.74 71.8708 169.769C71.5226 169.857 71.2034 169.915 70.9423 170.118C70.391 170.408 69.9848 170.843 69.6946 171.191C69.0853 171.917 68.8242 172.439 68.8242 172.439C68.7662 172.526 68.6501 172.584 68.563 172.526C68.476 172.468 68.418 172.352 68.476 172.265H68.418Z" fill="#DC847F"/>
<path d="M76.109 185.553C75.4416 185.553 75.0354 185.263 74.8323 185.147C74.8033 185.147 74.7743 185.089 74.7743 185.089C74.6582 185.031 74.6292 184.915 74.6872 184.828C74.7452 184.741 74.8613 184.683 74.9484 184.741C74.9774 184.741 75.0064 184.77 75.0644 184.799C75.3546 185.002 76.138 185.495 77.4437 184.741C77.5597 184.683 77.6758 184.741 77.7338 184.828C77.7919 184.915 77.7338 185.031 77.6468 185.089C77.0665 185.437 76.5442 185.553 76.138 185.553H76.109Z" fill="#DA4F4F"/>
<path opacity="0.4" d="M50.3429 286.498C44.7429 299.903 36.6476 326.278 33.717 360.023C33.601 359.965 33.4559 359.907 33.3398 359.878C36.2704 326.162 44.3657 299.787 49.9657 286.353C50.0817 286.411 50.1978 286.469 50.3139 286.498H50.3429Z" fill="white"/>
<path opacity="0.4" d="M66.6501 331.298C65.4024 341.54 63.6905 352.914 62.4428 361.213C62.0656 363.621 61.7465 365.855 61.4563 367.712C61.3402 367.712 61.1952 367.683 61.0791 367.654C61.3112 366.058 61.6304 363.94 62.0656 361.184C63.3133 352.885 65.0542 341.511 66.2729 331.269C68.2169 314.904 67.3464 299.845 66.592 290.763C66.7081 290.763 66.8532 290.792 66.9692 290.792C67.7236 299.932 68.5941 314.933 66.6501 331.298Z" fill="white"/>
<path opacity="0.4" d="M90.2979 368.206C90.2979 368.206 90.0077 368.235 89.8917 368.235C91.1683 358.195 92.0678 341.918 89.2533 324.479C86.5259 307.302 83.6243 296.334 82.1445 291.315C82.2896 291.315 82.4057 291.315 82.5507 291.315C84.0305 296.392 86.9031 307.36 89.6305 324.45C92.416 341.889 91.5455 358.166 90.2688 368.235L90.2979 368.206Z" fill="white"/>
<path opacity="0.4" d="M107.359 364.057C107.359 364.057 107.097 364.173 106.981 364.231C106.604 355.178 105.24 344.5 102.948 332.372C99.9306 316.471 97.1161 305.852 95.056 298.046C94.1856 294.768 93.4602 292.011 92.8799 289.487C92.9959 289.487 93.141 289.429 93.2571 289.371C93.8374 291.866 94.5628 294.623 95.4332 297.93C97.4933 305.707 100.308 316.384 103.354 332.285C105.647 344.384 107.01 355.004 107.417 364.028L107.359 364.057Z" fill="white"/>
<path d="M217.065 154.043C217.065 154.043 217.181 153.956 217.443 153.81C217.704 153.665 218.11 153.52 218.632 153.433C219.155 153.346 219.88 153.317 220.663 153.723C221.041 153.927 221.389 154.304 221.592 154.739C221.766 155.174 221.824 155.696 221.824 156.132C221.824 157.902 221.708 159.933 221.65 162.109C221.621 163.182 221.592 164.314 221.65 165.446C221.65 166.026 221.679 166.606 221.766 167.158C221.766 167.303 221.824 167.448 221.853 167.564C221.853 167.709 222.027 167.767 221.853 167.767C222.027 167.709 222.172 167.419 222.288 167.187C222.723 166.142 222.985 164.981 223.217 163.879C223.42 162.776 223.623 161.645 223.768 160.571C223.913 159.527 224.029 158.395 224.493 157.408C224.929 156.422 225.538 155.58 226.408 155.058C226.815 154.797 227.308 154.565 227.83 154.478C228.381 154.391 228.904 154.623 229.281 154.913C230.006 155.551 230.209 156.248 230.325 156.799C230.442 157.35 230.442 157.757 230.442 158.047C230.442 158.337 230.442 158.482 230.442 158.482C230.442 158.598 230.325 158.656 230.209 158.656C230.151 158.656 230.093 158.598 230.035 158.54C230.035 158.54 229.977 158.395 229.89 158.134C229.803 157.873 229.658 157.495 229.455 157.089C229.223 156.683 228.933 156.19 228.527 155.929C228.294 155.813 228.12 155.755 227.859 155.667C227.598 155.58 227.25 155.638 226.931 155.842C226.292 156.19 225.683 156.886 225.248 157.728C224.784 158.569 224.609 159.556 224.406 160.629C224.174 161.703 223.971 162.805 223.71 163.937C223.42 165.068 223.188 166.2 222.694 167.303C222.549 167.564 222.433 167.883 222.056 168.057C221.824 168.115 221.737 167.941 221.679 167.883C221.65 167.796 221.621 167.709 221.563 167.651C221.534 167.506 221.505 167.361 221.476 167.216C221.389 166.606 221.331 166.055 221.331 165.475C221.302 164.314 221.273 163.182 221.244 162.109C221.215 159.933 221.186 157.902 221.128 156.161C221.128 155.29 220.866 154.739 220.373 154.478C219.88 154.246 219.3 154.246 218.806 154.246C218.342 154.246 217.965 154.333 217.704 154.362C217.443 154.42 217.298 154.42 217.298 154.42C217.181 154.42 217.094 154.362 217.065 154.246C217.065 154.159 217.065 154.101 217.152 154.043H217.065Z" fill="#DC847F"/>
<path d="M220.952 172.497C220.952 172.497 220.778 172.497 220.691 172.497C220.023 172.381 219.646 171.888 219.472 171.627C219.472 171.569 219.414 171.54 219.414 171.54C219.327 171.452 219.327 171.336 219.414 171.249C219.501 171.162 219.617 171.162 219.704 171.249C219.704 171.278 219.762 171.336 219.82 171.394C219.965 171.598 220.284 172.033 220.807 172.091C221.242 172.149 221.793 171.975 222.403 171.511C222.49 171.423 222.606 171.452 222.693 171.54C222.751 171.627 222.751 171.743 222.664 171.83C222.054 172.265 221.503 172.497 221.01 172.497H220.952Z" fill="#DA4F4F"/>
<path d="M209 160.107C209 160.107 208.797 160.02 208.797 159.904C208.797 159.527 208.652 158.657 207.463 156.916V156.829C207.463 156.829 207.375 156.626 207.463 156.568C207.55 156.51 207.666 156.539 207.753 156.626V156.684C208.739 158.076 209.232 159.179 209.203 159.904C209.203 160.02 209.116 160.078 209 160.078V160.107Z" fill="#DC847F"/>
<path d="M340.933 148.269C340.933 148.269 341.02 148.153 341.281 147.979C341.542 147.775 341.949 147.572 342.529 147.427C343.08 147.311 343.864 147.253 344.676 147.659C345.488 148.066 346.04 149.081 346.011 150.126C345.953 151.025 345.982 152.041 345.808 153.085C345.663 154.13 345.459 155.232 345.314 156.393C345.14 157.525 344.879 158.714 344.821 159.875C344.763 160.455 344.676 161.094 344.821 161.645C344.85 161.935 344.995 162.225 345.14 162.254C345.285 162.283 345.517 162.051 345.663 161.819C346.243 160.803 346.446 159.585 346.765 158.395C347.084 157.205 347.462 156.074 347.926 155C348.419 153.927 348.941 152.911 349.725 152.07C350.102 151.664 350.595 151.286 351.117 151.054C351.669 150.851 352.307 150.793 352.829 150.938C352.916 150.938 352.916 150.938 353.09 150.996L353.236 151.083L353.526 151.228C353.729 151.344 353.903 151.402 354.106 151.547C354.454 151.896 354.889 152.186 355.093 152.563C355.557 153.259 355.76 153.927 355.905 154.478C356.021 155.029 356.021 155.465 356.021 155.784C356.021 156.074 355.992 156.248 355.992 156.248C355.992 156.335 355.876 156.422 355.789 156.393C355.702 156.393 355.644 156.335 355.615 156.248C355.615 156.248 355.586 156.074 355.528 155.813C355.47 155.552 355.383 155.145 355.18 154.681C355.035 154.188 354.744 153.666 354.338 153.143C354.164 152.853 353.874 152.737 353.642 152.476C353.497 152.36 353.294 152.273 353.09 152.186L352.8 152.041L352.655 151.954C352.655 151.954 352.597 151.954 352.568 151.954C351.901 151.722 351.088 152.041 350.392 152.737C349.725 153.404 349.115 154.333 348.593 155.319C348.071 156.306 347.636 157.409 347.229 158.54C346.823 159.643 346.649 160.89 345.953 162.022C345.75 162.254 345.576 162.631 345.053 162.602C344.589 162.428 344.56 162.022 344.444 161.732C344.299 161.065 344.386 160.484 344.444 159.875C344.531 158.656 344.705 157.496 344.821 156.335C344.937 155.203 345.053 154.101 345.169 153.056C345.256 152.012 345.169 151.025 345.227 150.097C345.227 149.284 344.821 148.617 344.27 148.356C343.719 148.095 343.109 148.124 342.645 148.153C342.181 148.211 341.803 148.327 341.542 148.414C341.31 148.501 341.136 148.588 341.136 148.559C341.02 148.617 340.904 148.559 340.875 148.472C340.875 148.385 340.875 148.327 340.875 148.269H340.904H340.933Z" fill="#DC847F"/>
<path d="M362.461 161.384C362.461 161.384 362.374 161.384 362.345 161.355C362.258 161.297 362.229 161.181 362.287 161.065C362.345 161.007 363.361 159.585 364.579 159.092C364.666 159.034 364.811 159.092 364.84 159.208C364.898 159.324 364.84 159.411 364.724 159.469C363.622 159.934 362.606 161.297 362.577 161.326C362.548 161.384 362.49 161.413 362.432 161.413L362.461 161.384Z" fill="#DC847F"/>
<path d="M345.169 167.738H345.082C344.443 167.68 344.037 167.013 343.805 166.636C343.776 166.578 343.718 166.462 343.689 166.462C343.573 166.404 343.573 166.317 343.631 166.2C343.689 166.113 343.805 166.084 343.892 166.113C343.979 166.171 344.037 166.258 344.153 166.433C344.356 166.752 344.675 167.303 345.111 167.332C345.43 167.361 345.778 167.158 346.155 166.694C346.242 166.607 346.358 166.607 346.445 166.694C346.532 166.781 346.532 166.897 346.445 166.984C346.01 167.506 345.575 167.767 345.14 167.767L345.169 167.738Z" fill="#DA4F4F"/>
<path d="M500.516 191.937C500.516 191.937 500.574 191.792 500.719 191.56C500.835 191.328 501.096 190.95 501.444 190.544C501.821 190.167 502.344 189.645 503.243 189.5C503.475 189.5 503.707 189.5 503.939 189.5C504.172 189.587 504.375 189.645 504.636 189.79C504.81 189.906 504.955 189.993 505.129 190.167C505.303 190.341 505.506 190.515 505.651 190.718C506.232 191.531 506.493 192.517 506.638 193.562C506.783 194.577 506.87 195.651 506.899 196.753C506.928 197.856 506.928 199.017 507.015 200.148C507.073 200.7 507.131 201.338 507.392 201.715C507.624 202.121 508.234 201.918 508.408 201.396C508.785 200.38 508.698 199.133 508.669 198.001C508.64 196.84 508.524 195.709 508.553 194.577C508.553 193.504 508.727 192.285 509.22 191.328C509.684 190.312 510.584 189.558 511.57 189.296C511.803 189.18 512.064 189.209 512.296 189.18C512.441 189.18 512.47 189.151 512.731 189.151L513.021 189.209C513.398 189.209 513.834 189.442 514.24 189.645C514.936 190.08 515.343 190.602 515.662 191.037C516.271 191.937 516.445 192.517 516.445 192.517C516.445 192.517 516.445 192.72 516.329 192.778C516.242 192.778 516.155 192.778 516.097 192.691C516.097 192.691 515.807 192.198 515.139 191.444C514.82 191.066 514.356 190.66 513.834 190.341C513.573 190.225 513.34 190.051 512.876 190.051L512.586 189.993C512.586 189.993 512.441 190.022 512.383 190.051C512.209 190.109 512.006 190.051 511.832 190.138C511.077 190.312 510.381 190.863 509.975 191.705C509.568 192.546 509.307 193.475 509.278 194.606C509.191 195.651 509.249 196.811 509.22 197.972C509.162 199.133 509.278 200.322 508.843 201.541C508.785 201.686 508.669 201.831 508.582 201.976C508.437 202.121 508.263 202.237 508.118 202.266C507.769 202.382 507.305 202.266 507.102 201.918C506.725 201.338 506.725 200.729 506.638 200.148C506.551 198.988 506.493 197.856 506.406 196.724C506.319 195.622 506.174 194.577 506 193.591C505.796 192.633 505.506 191.734 505.042 191.124C504.926 190.95 504.81 190.863 504.694 190.718C504.578 190.602 504.375 190.486 504.201 190.37C504.056 190.341 503.939 190.283 503.823 190.254C503.678 190.254 503.533 190.254 503.417 190.254C502.866 190.37 502.402 190.747 502.024 191.037C501.647 191.328 501.386 191.618 501.183 191.821C501.009 192.024 500.893 192.14 500.893 192.14C500.806 192.227 500.69 192.227 500.603 192.14C500.545 192.082 500.516 191.995 500.574 191.908L500.516 191.937Z" fill="#DC847F"/>
<path d="M509.019 207.258C508.642 207.258 508.177 207.2 507.597 207.026H507.539C507.539 207.026 507.365 206.88 507.394 206.764C507.394 206.648 507.51 206.59 507.626 206.619H507.684C508.932 207.026 509.599 206.851 509.918 206.619C510.005 206.561 510.121 206.59 510.179 206.677C510.237 206.764 510.179 206.88 510.121 206.938C509.889 207.113 509.512 207.229 508.99 207.229L509.019 207.258Z" fill="#DA4F4F"/>
<path d="M70.2471 183.9C69.2026 182.333 68.216 180.621 67.4326 178.967C67.4616 178.01 67.7808 177.226 68.7673 177.197C70.102 177.139 72.0171 178.445 72.2202 180.65C72.3943 182.623 71.6108 183.842 70.2471 183.9Z" fill="#F39E97"/>
<path d="M84.6093 176.298C83.9709 178.155 83.2165 180.099 82.4331 181.84C81.3015 182.13 80.0829 181.027 80.4891 179.112C80.9243 176.878 82.7813 175.05 84.116 175.747C84.3191 175.863 84.4932 176.037 84.6093 176.298Z" fill="#F39E97"/>
<path d="M69.7247 173.86C68.9703 173.802 70.4501 170.813 72.2781 171.016C74.106 171.22 74.7734 173.077 74.2221 173.657C73.6998 174.237 73.6418 171.916 72.9744 171.829C72.9744 171.829 73.2646 173.599 72.3651 173.86C71.4656 174.121 71.3205 172.09 71.3205 172.09C71.3205 172.09 70.8853 172.38 70.5371 172.873C70.1599 173.367 70.0729 173.889 69.7247 173.86Z" fill="#361410"/>
<path d="M79.3587 172.961C78.6913 173.019 79.7939 169.885 81.4768 169.914C83.1597 169.914 83.7981 172.351 83.3048 172.787C82.8115 173.222 82.7245 170.959 82.0861 170.726C82.0861 170.726 82.9276 172.612 81.854 172.932C80.7514 173.28 80.3162 170.988 80.4323 171.075C80.5193 171.162 79.997 172.903 79.3877 172.932L79.3587 172.961Z" fill="#361410"/>
<path d="M212.654 169.334C215.208 170.611 217.79 168.783 217.529 165.765C217.268 162.748 215.034 161.442 212.915 162.37C210.768 163.299 210.362 168.174 212.683 169.334H212.654Z" fill="#F39E97"/>
<path d="M216.34 157.699C215.789 157.554 217.297 155.233 219.096 155.494C220.895 155.784 221.04 158.657 220.402 159.121C219.764 159.556 220.228 157.844 219.793 157.061C219.793 157.061 219.938 159.034 218.777 158.802C217.617 158.569 218.168 156.393 218.168 156.393C218.168 156.393 217.472 156.654 217.123 157.061C216.775 157.467 216.601 157.786 216.34 157.699Z" fill="#361410"/>
<path d="M225.479 159.208C224.927 158.947 226.349 157.032 227.597 157.525C228.844 158.018 229.135 160.223 228.67 160.572C228.206 160.92 228.467 159.063 227.916 158.598C227.916 158.598 228.061 160.31 227.278 160.31C226.494 160.31 226.668 158.308 226.668 158.308C226.668 158.308 226.349 158.54 226.117 158.773C225.885 159.034 225.856 159.324 225.508 159.15L225.479 159.208Z" fill="#361410"/>
<path d="M229.251 164.459C228.729 165.881 228.119 167.332 227.481 168.812C227.046 169.769 226.581 170.669 226.03 171.452C225.131 170.814 224.028 167.854 225.798 165.069C227.104 162.98 228.496 163.386 229.28 164.459H229.251Z" fill="#F39E97"/>
<path d="M342.645 160.455C342.761 162.631 342.152 163.966 341.165 164.488C340.382 162.08 339.976 159.324 339.889 156.654C341.252 156.828 342.529 158.511 342.645 160.455Z" fill="#F39E97"/>
<path d="M353.96 167.303C352.248 168.261 349.114 165.998 350.304 162.429C351.523 158.86 354.976 159.179 356.194 161.616C357.413 164.054 355.411 166.462 353.96 167.303Z" fill="#F39E97"/>
<path d="M340.584 152.157C339.974 151.954 341.193 149.807 342.76 150.184C344.327 150.59 345.11 152.534 344.501 153.492C343.921 154.478 343.776 151.286 342.847 151.286C342.847 151.286 343.282 152.911 342.296 153.172C341.309 153.433 341.628 151.344 341.628 151.344C341.628 151.344 341.106 152.331 340.584 152.157Z" fill="#361410"/>
<path d="M349.783 155.697C349.145 155.494 350.451 153.173 352.279 153.463C354.107 153.724 354.919 156.451 354.339 157.032C353.758 157.612 353.7 154.333 352.221 154.304C352.221 154.304 352.801 156.248 351.814 156.567C350.857 156.887 350.915 154.507 350.886 154.652C350.886 154.798 350.16 155.842 349.783 155.697Z" fill="#361410"/>
<path d="M504.812 202.353C504.841 204.559 503.97 205.458 502.868 205.748C501.707 203.833 500.866 201.454 500.314 199.017C502.926 196.782 504.812 199.713 504.841 202.324L504.812 202.353Z" fill="#F39E97"/>
<path d="M519.668 200.903C519.581 201.483 519.436 202.063 519.291 202.702C519.001 203.891 518.595 204.907 518.073 205.806C517.782 205.951 517.463 206.067 517.086 206.125C514.417 206.474 513.053 204.385 513.198 201.483C513.372 198.552 515.635 196.724 517.782 197.566C518.682 197.914 519.378 199.336 519.639 200.903H519.668Z" fill="#F39E97"/>
<path d="M501.1 194.345C500.345 194.345 501.303 192.053 503.073 191.676C504.843 191.328 505.858 193.649 505.8 194.606C505.742 195.564 505.191 194.897 504.988 194.171C504.814 193.446 504.059 192.575 503.508 192.662C503.508 192.662 504.146 194.316 503.044 194.664C501.97 195.013 501.999 193.33 501.999 193.359C501.999 193.359 501.506 194.345 501.071 194.345H501.1Z" fill="#361410"/>
<path d="M510.324 194.287C509.366 194.142 510.759 191.386 512.703 191.27C514.647 191.125 515.924 194.2 515.256 194.519C514.589 194.839 514.299 191.85 512.761 192.285C512.761 192.285 513.312 194.171 512.326 194.548C511.339 194.926 511.136 193.388 511.136 193.388C511.136 193.388 510.759 194.374 510.324 194.316V194.287Z" fill="#361410"/>
<path d="M480.032 386.398C480.032 386.63 479.858 386.804 479.655 386.804C479.452 386.804 479.249 386.63 479.249 386.398C478.64 348.533 491.871 316.645 497.761 304.372C498.022 304.43 498.283 304.517 498.544 304.575C492.712 316.674 479.452 348.562 480.061 386.398H480.032Z" fill="#C6BCC3"/>
<path d="M508.062 367.858C508.062 378.652 508.062 390.838 508.004 405.346C508.004 405.578 507.83 405.723 507.598 405.723C507.366 405.723 507.221 405.549 507.221 405.346C507.308 390.838 507.308 378.652 507.279 367.858C507.279 339.133 507.25 322.159 509.078 306.2C509.339 306.2 509.6 306.229 509.861 306.258C508.033 322.217 508.033 339.162 508.062 367.858Z" fill="#C6BCC3"/>
<path d="M535.192 386.369C535.192 386.572 535.047 386.776 534.815 386.805C534.612 386.805 534.438 386.63 534.438 386.456C532.319 358.369 528.576 331.356 523.267 306.113C523.528 306.113 523.789 306.055 524.05 306.026C529.36 331.269 533.132 358.311 535.221 386.398L535.192 386.369Z" fill="#C6BCC3"/>
<path d="M557.156 353.756C557.156 353.959 557.011 354.162 556.779 354.162C556.547 354.162 556.402 353.988 556.402 353.785C555.386 336.057 541.778 313.512 535.395 303.443C535.656 303.356 535.917 303.24 536.149 303.153C542.619 313.309 556.17 335.854 557.185 353.727L557.156 353.756Z" fill="#C6BCC3"/>
<path d="M154.275 215.12C154.275 215.12 144.323 178.387 124.911 155.929C124.911 156.277 120.298 164.169 115.627 164.227C116.932 167.274 121.691 177.662 125.898 187.063C130.831 198.088 136.547 211.29 132.775 212.364C129.032 213.467 115.627 202.412 104.223 197.798C101.96 196.87 99.581 196.144 97.1147 195.564C90.7603 194.055 83.8546 193.533 76.5718 193.678H76.4557C75.7593 194.839 74.5407 195.1 73.6412 194.665C73.6122 194.665 73.5542 194.607 73.5251 194.577C72.6547 196.463 70.9137 198.088 68.5055 199.307C63.1956 201.976 68.7086 209.259 68.7956 214.163C68.9117 219.096 63.863 224.812 53.6206 226.582C50.0807 227.191 46.5408 227.597 43.3491 227.51C43.9004 228.235 44.3646 229.019 44.6548 229.918C47.6144 238.797 47.9045 250.809 46.4247 260.762C44.9449 270.714 42.1885 281.537 42.1885 281.537C42.1885 281.537 49.6745 289.429 69.6661 291.083C89.6577 292.766 96.0701 288.123 96.5634 287.833C97.0566 287.543 99.8131 270.105 102.57 265.085C105.326 260.065 112.522 251.97 109.069 242.83C105.616 233.661 102.279 226.959 106.516 225.015C110.752 223.042 120.501 230.731 132.63 232.501C144.758 234.271 157.931 231.427 154.217 215.149L154.275 215.12Z" fill="#E12A37"/>
<path d="M123.259 147.659C122.36 147.949 121.866 152.679 121.489 152.795C121.083 152.911 120.706 144.932 119.806 145.106C118.936 145.309 119.313 153.085 119.11 153.636C118.907 154.188 116.266 142.059 114.671 143.336C113.104 144.613 116.063 155.145 115.657 155.755C115.28 156.335 111.537 146.295 110.928 148.443C110.347 150.619 114.177 158.482 113.974 159.672C113.771 160.861 107.678 158.685 107.881 160.455C108.084 162.225 113.22 163.56 113.974 163.908C114.525 164.14 115.077 164.227 115.628 164.227C120.271 164.198 124.913 156.277 124.913 155.929C124.913 155.522 124.13 147.369 123.23 147.659H123.259Z" fill="#ECB7B0"/>
<defs>
<linearGradient id="paint0_linear_1279_113170" x1="971" y1="803.143" x2="971" y2="1115.11" gradientUnits="userSpaceOnUse">
<stop/>
<stop offset="1" stop-opacity="0"/>
</linearGradient>
</defs>
</svg>
