<svg width="170" height="56" viewBox="0 0 170 56" fill="none" xmlns="http://www.w3.org/2000/svg">
<rect x="0.93106" y="1.33047" width="167.316" height="53.3389" rx="10.387" stroke="#949393" stroke-width="1.68439"/>
<path d="M0.0888672 11.7175C0.0888672 5.51577 5.11637 0.488281 11.3181 0.488281H51.1819V55.5115H11.3181C5.11637 55.5115 0.0888672 50.484 0.0888672 44.2823V11.7175Z" fill="#949393"/>
<path d="M20.5141 18.1387C20.1635 18.2178 19.827 18.3251 19.4847 18.4634C17.1536 19.392 15.7637 20.8017 14.9463 22.2117C17.2953 21.4112 19.8803 21.6525 21.6786 22.0138C21.7306 22.0266 21.7826 22.0394 21.8445 22.0508C21.5206 21.6743 21.2082 21.2358 20.9368 20.7313C20.5198 19.976 20.4284 19.0346 20.5141 18.1387Z" fill="#1F1F1F"/>
<path d="M15.3883 26.378C14.4076 26.4046 13.4776 26.4342 12.9358 26.51C12.8668 26.5196 12.7978 26.5292 12.7401 26.5474C9.02232 27.3283 6.63334 31.1477 7.06734 35.6172C7.37293 38.8088 9.12874 40.6626 10.2361 41.5424C9.91616 40.3315 9.88191 39.0808 10.146 37.8084C10.8496 34.4355 12.9453 33.1882 15.3849 31.7423C16.3869 31.1502 17.4707 30.4964 18.5355 29.6344L22.9259 25.043C21.9611 25.3988 20.584 25.8224 18.7724 26.156C17.9799 26.307 16.6588 26.341 15.3883 26.378Z" fill="#1F1F1F"/>
<path d="M26.712 22.6656C26.6778 22.7809 26.8295 22.8601 26.9058 22.759C27.3536 22.154 28.3147 21.1257 29.7446 20.9358C31.2829 20.7308 33.3826 21.4518 34.0391 22.5553C34.5681 23.4657 33.6161 24.2718 33.6161 24.2718C33.3326 24.0402 32.7412 23.7613 31.7322 23.8722C30.2475 24.0296 29.4063 25.4128 29.5355 25.4751C30.3391 25.8348 31.2909 25.6013 31.8595 25.5017C32.4282 25.4021 33.3127 25.0474 33.565 24.9117C34.0032 24.6696 34.6102 23.9821 34.8112 23.1203C34.9679 22.4455 35.2434 20.1771 31.8546 20.0783C29.7164 20.0157 27.2575 20.8918 26.712 22.6656Z" fill="#1F1F1F"/>
<path d="M42.5532 25.3327C42.4957 25.2804 42.4269 25.2197 42.3582 25.159L42.3245 25.1336C41.8797 24.7538 41.4614 24.4206 41.2593 24.268C41.3197 23.8377 41.4302 22.6169 40.9983 21.6829C40.6657 20.956 40.1149 20.2495 39.8247 19.8983L39.7294 19.7911C39.6817 19.7375 39.634 19.6839 39.5976 19.6388C39.5625 19.6035 39.5387 19.5767 39.5247 19.5485L39.4954 19.4823C39.1527 18.8271 38.3409 17.4038 37.4926 16.9398L42.0816 7.08739C42.26 6.71089 41.7714 6.37741 41.4808 6.66917L33.8452 14.4163C32.8186 13.3243 31.4662 12.5592 31.3889 12.5097C31.3018 12.4616 31.1822 12.4683 31.1005 12.53C31.0187 12.5916 30.9846 12.7069 31.0082 12.804C31.0096 12.8139 31.1486 13.377 30.9649 14.5779C31.741 14.7406 32.417 14.9776 32.9999 15.2677L32.6048 15.6745C31.6593 15.2342 30.4898 14.9155 29.052 14.9056C27.2724 14.8932 25.923 15.4435 25.0517 16.5396C25.6853 16.8327 26.4622 17.2163 26.8974 17.5271C26.9858 17.5851 27.0658 17.6542 27.1458 17.7234C26.8528 17.8548 26.5611 17.996 26.2695 18.1372C26.2372 18.1217 26.2133 18.0949 26.181 18.0793C25.9704 17.938 25.7007 17.8049 25.4184 17.6535C24.8341 17.3535 24.1514 16.997 23.669 16.4919C23.4095 16.2168 23.2051 15.9038 23.1021 15.5265C23.0395 15.2942 22.9485 15.1462 22.8178 15.0741C22.7518 15.0331 22.5144 14.9156 22.2506 15.1835C22.0756 15.3687 21.8901 15.7663 21.7521 16.2878C21.4092 17.5712 21.3371 19.5701 22.2097 20.8543C22.3596 21.0644 22.5081 21.2646 22.6651 21.4536C22.6395 21.5576 22.6251 21.6701 22.6191 21.7714C22.6069 22.1147 22.6379 22.5523 22.6758 23.0392C20.6108 22.4942 17.4596 22.0106 14.7947 23.0662C12.5199 23.9668 11.154 25.333 10.3213 26.705C11.0076 26.2977 11.7499 26.003 12.5594 25.8296C13.1056 25.7131 14.1861 25.6825 15.337 25.6522C16.5174 25.6178 17.8681 25.5796 18.6114 25.4355C20.4919 25.0922 21.886 24.6462 22.8198 24.2846C22.8942 24.8166 22.9826 25.3768 23.092 25.9441C23.3924 27.5896 23.8108 29.2889 24.2251 30.4564C24.8263 32.1703 26.611 35.6674 28.2084 36.3883C28.7985 36.6574 29.6514 37.0102 30.6491 37.393C30.4909 38.058 30.3546 38.9509 30.4703 39.7785C30.6797 41.276 31.349 42.3275 32.0636 43.2722C32.6298 44.0167 33.2257 44.6868 33.6553 45.4604C33.9911 46.0663 33.7708 48.2266 33.6393 49.37C33.5831 49.8298 33.5527 50.1153 33.5683 50.083C33.8626 49.5296 34.1584 48.9157 34.4502 48.2722C35.6242 45.6773 35.7141 43.3746 35.7102 43.2747L35.7106 43.134L35.5884 43.0506C35.566 43.0337 33.6776 41.7408 33.3269 40.022C33.1924 39.3477 33.267 38.8752 33.5604 38.6032C33.6055 38.5668 33.6507 38.5303 33.7056 38.4925C34.4955 38.7537 35.284 39.0051 36.0374 39.2212C36.3615 39.5274 37.0536 40.0233 37.3652 40.2409C37.7443 40.5093 38.1524 40.9143 38.6746 40.8413C39.1968 40.7683 40.2411 40.6223 40.7731 40.5479C41.3051 40.4735 42.0637 40.3675 42.4485 40.1027C42.8334 39.838 43.4453 39.4009 43.3587 38.7099C43.3381 38.5621 43.3444 38.3201 43.3537 38.0276C43.6507 37.4938 43.6116 36.9268 43.5622 36.0699C43.5329 35.5014 43.5161 34.5194 43.501 33.4769C43.4818 31.9026 43.4642 30.2678 43.3632 29.6893C43.2305 28.8841 43.0578 28.2956 43.0021 28.1125C43.1047 27.6964 43.2843 25.9637 42.5532 25.3327ZM28.4504 35.8924C27.0244 35.248 25.314 31.851 24.7504 30.2624C23.9483 27.9739 23.1271 23.6089 23.1706 21.7646C23.2066 20.0822 27.5229 17.6908 30.7294 17.132C30.9152 17.096 31.1024 17.0698 31.2797 17.045C31.3782 17.0313 31.4767 17.0175 31.5753 17.0037C31.6329 17.4878 31.9182 18.5227 33.2861 19.3259C34.807 20.2182 36.3499 19.3998 36.3499 19.3998L37.2844 17.3908C37.776 17.6736 38.3855 18.5125 38.8696 19.389C38.7754 19.362 38.6728 19.3462 38.5518 19.343C37.7359 19.3265 35.4262 19.6896 36.6184 22.7573C36.772 23.1376 37.2602 23.6117 38.6201 24.7174C38.9373 24.9744 39.1956 25.1693 39.4089 25.3303C40.0378 25.8049 40.2399 25.9574 40.3104 26.3895C40.3145 26.4191 40.3127 26.5499 40.3123 26.6906C40.2252 26.6425 40.1099 26.6084 39.9635 26.6389C39.6061 26.6688 36.7206 27.6548 35.9943 28.7106C35.853 28.9212 35.5868 29.0287 35.3535 28.9408C35.3423 28.9323 35.3324 28.9337 35.3212 28.9252C35.1722 28.8657 35.0684 28.7697 34.9971 28.6189C34.7988 28.1344 35.101 27.2785 35.2299 26.9793C35.2753 26.8725 35.2278 26.7485 35.1309 26.7018C35.0241 26.6565 34.9001 26.704 34.8534 26.8009C34.8463 26.822 34.7854 26.9611 34.7144 27.1719C34.4802 27.8676 34.0746 28.4868 33.5301 28.9747C32.6555 29.7599 31.375 30.8028 30.2834 31.2567C28.5747 31.9677 27.7173 30.7918 27.6794 30.7369C27.6164 30.6452 27.4828 30.6237 27.3912 30.6868C27.2996 30.7498 27.2682 30.8848 27.3411 30.975C27.3523 30.9835 28.1284 32.0803 29.6259 31.871C29.685 31.8627 29.7625 31.8418 29.8399 31.821C30.2567 31.7125 30.6941 31.7518 31.0889 31.9175C31.4626 32.0762 31.9418 32.2704 32.4168 32.435C33.7449 32.8821 33.9505 32.8434 34.4123 32.6984C34.5179 32.6636 39.2856 31.7761 42.1908 30.7873L42.5483 30.7574C42.7861 30.7342 43.0036 30.9248 43.0071 31.1654L43.0084 31.1752C43.008 31.3159 42.9457 31.4452 42.8372 31.5306C42.5918 31.7156 42.245 31.965 41.9293 32.1497C41.7799 32.2309 41.6207 32.3134 41.4489 32.3776C40.9249 32.5815 40.3773 32.6881 40.3773 32.6881C40.3773 32.6881 39.8619 32.8807 39.0763 33.081C38.7468 33.1672 38.3766 33.2491 37.9754 33.3253C36.6057 33.5871 36.7167 33.662 35.5459 33.7654C35.2588 33.7955 34.9802 33.8144 34.7199 33.8206C34.4695 33.8255 34.4515 34.1996 34.706 34.2243C35.3277 34.2881 36.0521 34.2973 36.8389 34.1772C36.9374 34.1635 37.0261 34.1511 37.1246 34.1373C38.3843 33.9511 39.6318 34.5401 40.2869 35.6338C40.5627 36.0975 40.8562 36.7596 41.0738 37.382C41.3668 38.1848 40.7734 39.0412 39.9249 39.0795C38.6755 39.1236 37.2382 38.9729 36.4018 38.7383C33.4892 37.9502 29.9958 36.6004 28.4504 35.8924ZM39.3794 20.1615L39.5238 20.3321C39.8153 20.6932 40.2497 21.2853 40.5349 21.8883C40.9835 22.8702 40.733 24.3115 40.7344 24.3213L40.7058 24.476L40.8293 24.5692C40.8307 24.5791 41.3935 25.0127 41.997 25.5209L42.0096 25.5392C42.0783 25.5999 42.1457 25.6508 42.2144 25.7115C42.6382 26.0842 42.6358 27.3602 42.5338 28.0675L42.5223 28.1294L42.5405 28.1871C42.5405 28.1871 42.5907 28.3307 42.6533 28.5631C42.3914 28.6298 42.2274 28.8938 42.2956 29.1655L42.4777 29.8934L41.6318 30.0217L40.091 28.7003C39.976 28.5959 39.9512 28.4185 40.0556 28.3035C40.667 27.5751 40.7228 27.256 40.726 27.135C40.7403 26.5906 40.7423 26.3894 40.7326 26.3204C40.6486 25.7195 40.323 25.4737 39.6717 24.9822C39.4583 24.8212 39.2 24.6263 38.8941 24.3777C38.8267 24.3269 38.7692 24.2747 38.7018 24.2238C38.917 24.254 39.2011 24.2745 39.5599 24.2545C40.3971 24.2078 40.6145 23.9665 40.6145 23.9665C40.6145 23.9665 40.725 23.6798 40.4152 23.3314C40.1053 22.983 39.7121 22.7567 39.0197 22.8334C38.5243 22.8826 38.1347 23.3288 37.9496 23.5857C37.8472 23.4995 37.5992 23.1626 37.4251 22.5641C37.1437 21.6292 37.4364 21.1362 37.6623 20.8837C38.0618 20.4361 38.6301 19.9749 38.9777 19.9464C39.0677 19.9439 39.1676 19.94 39.2492 19.9487C39.2701 20.0261 39.3191 20.0896 39.3794 20.1615ZM43.0824 36.0867C43.1264 36.9042 43.1503 37.3629 42.9353 37.7646C42.7514 38.1017 42.2271 37.944 42.2437 37.56C42.2542 37.3476 42.2535 37.1267 42.2344 36.9184C42.1166 35.8601 41.4638 34.9268 41.1928 34.2817L41.1914 34.2719C41.0504 33.9099 41.2036 33.4967 41.5362 33.2895C41.6842 33.1985 41.8491 33.085 42.0225 32.9604C42.444 32.6704 43.0158 32.9521 43.0171 33.4642L43.0184 33.474C43.0435 34.5152 43.0518 35.5084 43.0824 36.0867ZM34.2182 28.9388C34.3776 28.7859 34.6406 28.7994 34.7864 28.9799C34.8845 29.1068 35.0135 29.2394 35.1779 29.337C35.6722 29.6395 36.1916 29.5468 36.5265 29.5C36.8516 29.4545 37.0503 29.3665 37.1066 29.3385C37.3362 29.2562 37.5578 29.4763 37.4699 29.7096C37.2798 30.2183 37.0218 30.8872 36.9865 30.9223C36.9244 30.9812 34.8105 31.7388 34.5388 31.8069C34.2671 31.875 33.4125 32.0849 32.7044 31.762C32.4051 31.6331 32.1116 31.4732 31.8728 31.3459C31.6888 31.2511 31.6825 30.9908 31.8475 30.8773C32.7638 30.247 33.6496 29.4703 34.2182 28.9388ZM39.51 29.6454L40.453 30.4276C40.6242 30.5744 40.5629 30.8542 40.3503 30.914C39.866 31.042 39.3816 31.17 38.9058 31.2867C38.6819 31.3381 38.4899 31.1139 38.5805 30.9003C38.7264 30.5786 38.9077 30.1514 39.0722 29.7468C39.1388 29.5767 39.3626 29.5253 39.51 29.6454ZM33.5092 15.749L40.7838 7.79114L34.2669 16.4265C34.0536 16.6974 33.6387 16.6751 33.4482 16.3903C33.3194 16.1873 33.3413 15.9131 33.5092 15.749Z" fill="#1F1F1F"/>
<path d="M15.7679 32.3922C13.3932 33.799 11.5201 34.9146 10.8821 37.967C9.97299 42.3128 13.0272 46.5565 18.6939 48.9383C16.043 42.4787 17.7563 39.7179 19.283 37.2746C19.8075 36.4279 20.3079 35.6246 20.6216 34.7069C21.5371 31.9874 21.1378 29.5623 20.8612 28.4458C19.2081 30.3443 17.3914 31.432 15.7679 32.3922Z" fill="#1F1F1F"/>
<path d="M65.2685 24.2788V14.6331H68.3938C69.5781 14.6331 70.3501 14.6813 70.7098 14.7778C71.2625 14.9226 71.7253 15.2384 72.0981 15.7253C72.471 16.2078 72.6574 16.8329 72.6574 17.6005C72.6574 18.1927 72.5499 18.6905 72.335 19.0941C72.12 19.4976 71.8459 19.8156 71.5125 20.0481C71.1835 20.2762 70.848 20.4275 70.5058 20.5021C70.0409 20.5942 69.3676 20.6403 68.4859 20.6403H67.216V24.2788H65.2685ZM67.216 16.2648V19.0019H68.2819C69.0495 19.0019 69.5628 18.9515 69.8216 18.8506C70.0804 18.7497 70.2821 18.5918 70.4269 18.3769C70.576 18.1619 70.6506 17.9119 70.6506 17.6268C70.6506 17.2759 70.5475 16.9864 70.3413 16.7583C70.1352 16.5302 69.8742 16.3876 69.5584 16.3306C69.3259 16.2868 68.8587 16.2648 68.1569 16.2648H67.216ZM76.013 24.2788H74.1641V17.2912H75.8814V18.2848C76.1753 17.8154 76.4385 17.5062 76.671 17.357C76.9078 17.2079 77.1754 17.1333 77.4737 17.1333C77.8948 17.1333 78.3005 17.2496 78.6909 17.4821L78.1185 19.0941C77.807 18.8923 77.5175 18.7914 77.25 18.7914C76.9912 18.7914 76.7718 18.8638 76.592 19.0085C76.4122 19.1489 76.2696 19.4055 76.1643 19.7783C76.0634 20.1512 76.013 20.932 76.013 22.1207V24.2788ZM79.0659 20.6863C79.0659 20.0722 79.2173 19.4779 79.5199 18.9033C79.8226 18.3286 80.2503 17.89 80.803 17.5873C81.36 17.2847 81.9807 17.1333 82.665 17.1333C83.7221 17.1333 84.5884 17.4777 85.2639 18.1663C85.9395 18.8506 86.2772 19.7169 86.2772 20.7653C86.2772 21.8224 85.9351 22.6997 85.2508 23.3971C84.5709 24.0902 83.7133 24.4367 82.6782 24.4367C82.0377 24.4367 81.4258 24.292 80.8424 24.0025C80.2634 23.713 79.8226 23.2897 79.5199 22.7326C79.2173 22.1711 79.0659 21.489 79.0659 20.6863ZM80.9609 20.785C80.9609 21.4781 81.1254 22.0088 81.4543 22.3773C81.7833 22.7458 82.1891 22.93 82.6716 22.93C83.1541 22.93 83.5576 22.7458 83.8822 22.3773C84.2112 22.0088 84.3757 21.4737 84.3757 20.7719C84.3757 20.0876 84.2112 19.5612 83.8822 19.1928C83.5576 18.8243 83.1541 18.6401 82.6716 18.6401C82.1891 18.6401 81.7833 18.8243 81.4543 19.1928C81.1254 19.5612 80.9609 20.092 80.9609 20.785ZM90.9356 17.2912V18.7651H89.6723V21.5812C89.6723 22.1514 89.6833 22.4848 89.7052 22.5813C89.7315 22.6734 89.7863 22.7501 89.8697 22.8116C89.9574 22.873 90.0627 22.9037 90.1855 22.9037C90.3566 22.9037 90.6044 22.8444 90.929 22.726L91.0869 24.1604C90.6571 24.3446 90.1702 24.4367 89.6262 24.4367C89.2929 24.4367 88.9924 24.3819 88.7248 24.2722C88.4573 24.1582 88.2599 24.0134 88.1327 23.838C88.0098 23.6581 87.9243 23.4169 87.8761 23.1142C87.8366 22.8993 87.8168 22.465 87.8168 21.8114V18.7651H86.9681V17.2912H87.8168V15.9029L89.6723 14.8239V17.2912H90.9356ZM96.2651 22.0549L98.1074 22.3641C97.8705 23.0396 97.4955 23.555 96.9823 23.9103C96.4734 24.2613 95.8352 24.4367 95.0676 24.4367C93.8526 24.4367 92.9533 24.0397 92.3699 23.2458C91.9094 22.6098 91.6791 21.8071 91.6791 20.8377C91.6791 19.6796 91.9818 18.7739 92.5871 18.1203C93.1924 17.4623 93.9578 17.1333 94.8834 17.1333C95.9229 17.1333 96.7432 17.4777 97.3441 18.1663C97.9451 18.8506 98.2324 19.9012 98.2061 21.318H93.574C93.5872 21.8663 93.7363 22.294 94.0214 22.601C94.3066 22.9037 94.6619 23.055 95.0873 23.055C95.3768 23.055 95.6203 22.976 95.8177 22.8181C96.0151 22.6602 96.1642 22.4058 96.2651 22.0549ZM96.3704 20.1863C96.3572 19.6511 96.219 19.2454 95.9558 18.969C95.6927 18.6883 95.3725 18.548 94.9952 18.548C94.5917 18.548 94.2583 18.6949 93.9951 18.9888C93.7319 19.2827 93.6025 19.6818 93.6069 20.1863H96.3704ZM105.812 19.3572L103.99 19.6862C103.928 19.3222 103.788 19.048 103.568 18.8638C103.354 18.6795 103.073 18.5874 102.726 18.5874C102.266 18.5874 101.897 18.7475 101.621 19.0677C101.349 19.3836 101.213 19.9143 101.213 20.66C101.213 21.489 101.351 22.0746 101.627 22.4168C101.908 22.7589 102.283 22.93 102.753 22.93C103.104 22.93 103.391 22.8313 103.615 22.6339C103.838 22.4321 103.996 22.0878 104.088 21.6009L105.904 21.9101C105.716 22.7436 105.354 23.373 104.819 23.7985C104.283 24.224 103.566 24.4367 102.667 24.4367C101.645 24.4367 100.829 24.1143 100.219 23.4695C99.6141 22.8247 99.3115 21.9321 99.3115 20.7916C99.3115 19.638 99.6163 18.741 100.226 18.1005C100.836 17.4557 101.66 17.1333 102.7 17.1333C103.551 17.1333 104.226 17.3176 104.726 17.686C105.231 18.0501 105.593 18.6072 105.812 19.3572ZM110.424 17.2912V18.7651H109.161V21.5812C109.161 22.1514 109.172 22.4848 109.194 22.5813C109.22 22.6734 109.275 22.7501 109.359 22.8116C109.446 22.873 109.552 22.9037 109.674 22.9037C109.845 22.9037 110.093 22.8444 110.418 22.726L110.576 24.1604C110.146 24.3446 109.659 24.4367 109.115 24.4367C108.782 24.4367 108.481 24.3819 108.214 24.2722C107.946 24.1582 107.749 24.0134 107.622 23.838C107.499 23.6581 107.413 23.4169 107.365 23.1142C107.325 22.8993 107.306 22.465 107.306 21.8114V18.7651H106.457V17.2912H107.306V15.9029L109.161 14.8239V17.2912H110.424ZM115.754 22.0549L117.596 22.3641C117.359 23.0396 116.984 23.555 116.471 23.9103C115.962 24.2613 115.324 24.4367 114.556 24.4367C113.341 24.4367 112.442 24.0397 111.859 23.2458C111.398 22.6098 111.168 21.8071 111.168 20.8377C111.168 19.6796 111.471 18.7739 112.076 18.1203C112.681 17.4623 113.447 17.1333 114.372 17.1333C115.412 17.1333 116.232 17.4777 116.833 18.1663C117.434 18.8506 117.721 19.9012 117.695 21.318H113.063C113.076 21.8663 113.225 22.294 113.51 22.601C113.795 22.9037 114.151 23.055 114.576 23.055C114.866 23.055 115.109 22.976 115.307 22.8181C115.504 22.6602 115.653 22.4058 115.754 22.0549ZM115.859 20.1863C115.846 19.6511 115.708 19.2454 115.445 18.969C115.182 18.6883 114.861 18.548 114.484 18.548C114.081 18.548 113.747 18.6949 113.484 18.9888C113.221 19.2827 113.091 19.6818 113.096 20.1863H115.859ZM125.617 24.2788H123.9V23.2524C123.614 23.6516 123.277 23.9498 122.886 24.1472C122.5 24.3402 122.11 24.4367 121.715 24.4367C120.912 24.4367 120.224 24.1143 119.649 23.4695C119.079 22.8203 118.794 21.9167 118.794 20.7587C118.794 19.5744 119.072 18.6752 119.629 18.0611C120.186 17.4426 120.89 17.1333 121.741 17.1333C122.522 17.1333 123.198 17.4579 123.768 18.1071V14.6331H125.617V24.2788ZM120.682 20.6337C120.682 21.3794 120.785 21.9189 120.991 22.2523C121.29 22.7348 121.706 22.976 122.241 22.976C122.667 22.976 123.029 22.7962 123.327 22.4365C123.625 22.0724 123.775 21.5307 123.775 20.8113C123.775 20.0086 123.63 19.4318 123.34 19.0809C123.051 18.7256 122.68 18.548 122.228 18.548C121.79 18.548 121.421 18.7234 121.123 19.0743C120.829 19.4208 120.682 19.9406 120.682 20.6337ZM131.117 24.2788V14.6331H132.966V18.1071C133.537 17.4579 134.212 17.1333 134.993 17.1333C135.844 17.1333 136.548 17.4426 137.105 18.0611C137.662 18.6752 137.94 19.559 137.94 20.7126C137.94 21.9058 137.655 22.8247 137.085 23.4695C136.519 24.1143 135.831 24.4367 135.019 24.4367C134.62 24.4367 134.225 24.338 133.835 24.1406C133.449 23.9389 133.115 23.6428 132.835 23.2524V24.2788H131.117ZM132.953 20.6337C132.953 21.3575 133.067 21.8926 133.295 22.2391C133.615 22.7304 134.041 22.976 134.572 22.976C134.98 22.976 135.326 22.8028 135.611 22.4563C135.901 22.1053 136.046 21.5548 136.046 20.8048C136.046 20.0064 135.901 19.4318 135.611 19.0809C135.322 18.7256 134.951 18.548 134.499 18.548C134.056 18.548 133.688 18.7212 133.394 19.0677C133.1 19.4099 132.953 19.9319 132.953 20.6337ZM138.559 17.2912H140.526L142.197 22.2523L143.829 17.2912H145.744L143.277 24.0156L142.836 25.2329C142.673 25.6408 142.518 25.9522 142.369 26.1672C142.224 26.3821 142.055 26.5554 141.862 26.687C141.673 26.8229 141.439 26.9282 141.158 27.0028C140.882 27.0773 140.568 27.1146 140.217 27.1146C139.862 27.1146 139.513 27.0773 139.171 27.0028L139.006 25.5553C139.296 25.6123 139.557 25.6408 139.789 25.6408C140.219 25.6408 140.537 25.5136 140.743 25.2592C140.95 25.0091 141.107 24.6889 141.217 24.2985L138.559 17.2912ZM65.275 39.2788V29.6331H67.2226V33.4295H71.0388V29.6331H72.9864V39.2788H71.0388V35.0613H67.2226V39.2788H65.275ZM83.7046 39.2788H81.5859L80.7437 37.0878H76.8881L76.0919 39.2788H74.0259L77.7829 29.6331H79.8423L83.7046 39.2788ZM80.1187 35.4626L78.7896 31.8833L77.4868 35.4626H80.1187ZM84.7442 39.2788V29.6331H87.8695C89.0538 29.6331 89.8258 29.6813 90.1855 29.7778C90.7382 29.9226 91.201 30.2384 91.5738 30.7253C91.9467 31.2078 92.1331 31.8329 92.1331 32.6005C92.1331 33.1927 92.0256 33.6905 91.8107 34.0941C91.5957 34.4976 91.3216 34.8156 90.9882 35.0481C90.6592 35.2762 90.3237 35.4275 89.9815 35.5021C89.5166 35.5942 88.8433 35.6403 87.9616 35.6403H86.6917V39.2788H84.7442ZM86.6917 31.2648V34.0019H87.7576C88.5253 34.0019 89.0385 33.9515 89.2973 33.8506C89.5561 33.7497 89.7578 33.5918 89.9026 33.3769C90.0517 33.1619 90.1263 32.9119 90.1263 32.6268C90.1263 32.2759 90.0232 31.9864 89.8171 31.7583C89.6109 31.5302 89.3499 31.3876 89.0341 31.3306C88.8016 31.2868 88.3344 31.2648 87.6326 31.2648H86.6917ZM93.6727 39.2788V29.6331H95.6203V39.2788H93.6727ZM101.233 39.2788V29.6331H104.358C105.542 29.6331 106.314 29.6813 106.674 29.7778C107.227 29.9226 107.69 30.2384 108.062 30.7253C108.435 31.2078 108.622 31.8329 108.622 32.6005C108.622 33.1927 108.514 33.6905 108.299 34.0941C108.084 34.4976 107.81 34.8156 107.477 35.0481C107.148 35.2762 106.812 35.4275 106.47 35.5021C106.005 35.5942 105.332 35.6403 104.45 35.6403H103.18V39.2788H101.233ZM103.18 31.2648V34.0019H104.246C105.014 34.0019 105.527 33.9515 105.786 33.8506C106.045 33.7497 106.246 33.5918 106.391 33.3769C106.54 33.1619 106.615 32.9119 106.615 32.6268C106.615 32.2759 106.512 31.9864 106.306 31.7583C106.099 31.5302 105.838 31.3876 105.523 31.3306C105.29 31.2868 104.823 31.2648 104.121 31.2648H103.18ZM111.977 39.2788H110.128V32.2912H111.846V33.2848C112.14 32.8154 112.403 32.5062 112.635 32.357C112.872 32.2079 113.14 32.1333 113.438 32.1333C113.859 32.1333 114.265 32.2496 114.655 32.4821L114.083 34.0941C113.771 33.8923 113.482 33.7914 113.214 33.7914C112.955 33.7914 112.736 33.8638 112.556 34.0085C112.376 34.1489 112.234 34.4055 112.129 34.7783C112.028 35.1512 111.977 35.932 111.977 37.1207V39.2788ZM115.03 35.6863C115.03 35.0722 115.182 34.4779 115.484 33.9033C115.787 33.3286 116.215 32.89 116.767 32.5873C117.324 32.2847 117.945 32.1333 118.629 32.1333C119.686 32.1333 120.553 32.4777 121.228 33.1663C121.904 33.8506 122.241 34.7169 122.241 35.7653C122.241 36.8224 121.899 37.6997 121.215 38.3971C120.535 39.0902 119.678 39.4367 118.642 39.4367C118.002 39.4367 117.39 39.292 116.807 39.0025C116.228 38.713 115.787 38.2897 115.484 37.7326C115.182 37.1711 115.03 36.489 115.03 35.6863ZM116.925 35.785C116.925 36.4781 117.09 37.0088 117.419 37.3773C117.748 37.7458 118.153 37.93 118.636 37.93C119.118 37.93 119.522 37.7458 119.846 37.3773C120.175 37.0088 120.34 36.4737 120.34 35.7719C120.34 35.0876 120.175 34.5612 119.846 34.1928C119.522 33.8243 119.118 33.6401 118.636 33.6401C118.153 33.6401 117.748 33.8243 117.419 34.1928C117.09 34.5612 116.925 35.092 116.925 35.785ZM126.9 32.2912V33.7651H125.637V36.5812C125.637 37.1514 125.648 37.4848 125.669 37.5813C125.696 37.6734 125.751 37.7501 125.834 37.8116C125.922 37.873 126.027 37.9037 126.15 37.9037C126.321 37.9037 126.569 37.8444 126.893 37.726L127.051 39.1604C126.621 39.3446 126.134 39.4367 125.591 39.4367C125.257 39.4367 124.957 39.3819 124.689 39.2722C124.422 39.1582 124.224 39.0134 124.097 38.838C123.974 38.6581 123.889 38.4169 123.84 38.1142C123.801 37.8993 123.781 37.465 123.781 36.8114V33.7651H122.932V32.2912H123.781V30.9029L125.637 29.8239V32.2912H126.9ZM127.755 35.6863C127.755 35.0722 127.907 34.4779 128.209 33.9033C128.512 33.3286 128.94 32.89 129.492 32.5873C130.049 32.2847 130.67 32.1333 131.354 32.1333C132.411 32.1333 133.278 32.4777 133.953 33.1663C134.629 33.8506 134.966 34.7169 134.966 35.7653C134.966 36.8224 134.624 37.6997 133.94 38.3971C133.26 39.0902 132.403 39.4367 131.367 39.4367C130.727 39.4367 130.115 39.292 129.532 39.0025C128.953 38.713 128.512 38.2897 128.209 37.7326C127.907 37.1711 127.755 36.489 127.755 35.6863ZM129.65 35.785C129.65 36.4781 129.815 37.0088 130.144 37.3773C130.473 37.7458 130.878 37.93 131.361 37.93C131.843 37.93 132.247 37.7458 132.571 37.3773C132.9 37.0088 133.065 36.4737 133.065 35.7719C133.065 35.0876 132.9 34.5612 132.571 34.1928C132.247 33.8243 131.843 33.6401 131.361 33.6401C130.878 33.6401 130.473 33.8243 130.144 34.1928C129.815 34.5612 129.65 35.092 129.65 35.785ZM142.513 34.3572L140.691 34.6862C140.629 34.3222 140.489 34.048 140.27 33.8638C140.055 33.6795 139.774 33.5874 139.427 33.5874C138.967 33.5874 138.598 33.7475 138.322 34.0677C138.05 34.3836 137.914 34.9143 137.914 35.66C137.914 36.489 138.052 37.0746 138.329 37.4168C138.609 37.7589 138.984 37.93 139.454 37.93C139.805 37.93 140.092 37.8313 140.316 37.6339C140.539 37.4321 140.697 37.0878 140.789 36.6009L142.605 36.9101C142.417 37.7436 142.055 38.373 141.52 38.7985C140.985 39.224 140.267 39.4367 139.368 39.4367C138.346 39.4367 137.53 39.1143 136.921 38.4695C136.315 37.8247 136.013 36.9321 136.013 35.7916C136.013 34.638 136.317 33.741 136.927 33.1005C137.537 32.4557 138.362 32.1333 139.401 32.1333C140.252 32.1333 140.928 32.3176 141.428 32.686C141.932 33.0501 142.294 33.6072 142.513 34.3572ZM143.494 35.6863C143.494 35.0722 143.645 34.4779 143.948 33.9033C144.25 33.3286 144.678 32.89 145.231 32.5873C145.788 32.2847 146.408 32.1333 147.093 32.1333C148.15 32.1333 149.016 32.4777 149.692 33.1663C150.367 33.8506 150.705 34.7169 150.705 35.7653C150.705 36.8224 150.363 37.6997 149.679 38.3971C148.999 39.0902 148.141 39.4367 147.106 39.4367C146.465 39.4367 145.854 39.292 145.27 39.0025C144.691 38.713 144.25 38.2897 143.948 37.7326C143.645 37.1711 143.494 36.489 143.494 35.6863ZM145.389 35.785C145.389 36.4781 145.553 37.0088 145.882 37.3773C146.211 37.7458 146.617 37.93 147.099 37.93C147.582 37.93 147.985 37.7458 148.31 37.3773C148.639 37.0088 148.803 36.4737 148.803 35.7719C148.803 35.0876 148.639 34.5612 148.31 34.1928C147.985 33.8243 147.582 33.6401 147.099 33.6401C146.617 33.6401 146.211 33.8243 145.882 34.1928C145.553 34.5612 145.389 35.092 145.389 35.785ZM152.159 39.2788V29.6331H154.008V39.2788H152.159Z" fill="#949393"/>
</svg>
