<svg width="102" height="58" viewBox="0 0 102 58" fill="none" xmlns="http://www.w3.org/2000/svg">
<path d="M5.69558 8.136H1.91558V0.719999H0.883578V9H5.69558V8.136ZM5.96961 9H7.06161L7.90161 6.504H11.7656L12.6056 9H13.6976L10.9016 0.719999H8.76561L5.96961 9ZM9.83361 0.767999L11.4776 5.64H8.18961L9.83361 0.767999ZM19.8329 5.88C19.8329 7.32 19.2449 8.256 17.8049 8.256C16.3649 8.256 15.7769 7.32 15.7769 5.88V0.719999H14.7449V5.7C14.7449 8.052 15.8849 9.12 17.8049 9.12C19.7249 9.12 20.8649 8.052 20.8649 5.7V0.719999H19.8329V5.88ZM29.4886 0.719999H28.4566V8.952L25.1326 0.719999H23.0086V9H24.0406V0.767999L27.3646 9H29.4886V0.719999ZM31.2116 4.86C31.2116 7.368 32.7956 9.12 35.0276 9.12C36.9236 9.12 38.3156 7.92 38.6516 6.072H37.5836C37.3076 7.464 36.3716 8.256 35.1236 8.256C33.4556 8.256 32.3276 6.912 32.3276 4.86C32.3276 2.88 33.4076 1.464 35.0276 1.464C36.3236 1.464 37.2356 2.28 37.5116 3.672H38.5796C38.2436 1.824 36.8756 0.599999 34.9796 0.599999C32.7476 0.599999 31.2116 2.496 31.2116 4.86ZM45.2149 0.719999V4.344H41.2789V0.719999H40.2469V9H41.2789V5.208H45.2149V9H46.2469V0.719999H45.2149ZM48.4734 9H49.5054V5.676H51.1854C53.1894 5.676 54.4494 4.8 54.4494 3.192C54.4494 1.584 53.1894 0.719999 51.1854 0.719999H48.4734V9ZM51.3054 1.584C52.5894 1.584 53.3334 2.124 53.3334 3.192C53.3334 4.26 52.5894 4.812 51.3054 4.812H49.5054V1.584H51.3054ZM54.4266 9H55.5186L56.3586 6.504H60.2226L61.0626 9H62.1546L59.3586 0.719999H57.2226L54.4266 9ZM58.2906 0.767999L59.9346 5.64H56.6466L58.2906 0.767999ZM63.3914 9H65.7794C68.4194 9 70.0034 7.296 70.0034 4.86C70.0034 2.424 68.4194 0.719999 65.7794 0.719999H63.3914V9ZM65.6594 1.584C67.6994 1.584 68.8874 2.736 68.8874 4.86C68.8874 6.984 67.6994 8.136 65.6594 8.136H64.4234V1.584H65.6594ZM42.2273 25H43.2593V21.676H44.9393C46.9433 21.676 48.2033 20.8 48.2033 19.192C48.2033 17.584 46.9433 16.72 44.9393 16.72H42.2273V25ZM45.0593 17.584C46.3433 17.584 47.0873 18.124 47.0873 19.192C47.0873 20.26 46.3433 20.812 45.0593 20.812H43.2593V17.584H45.0593ZM54.4925 24.136H50.7125V16.72H49.6805V25H54.4925V24.136ZM54.7665 25H55.8585L56.6985 22.504H60.5625L61.4025 25H62.4945L59.6985 16.72H57.5625L54.7665 25ZM58.6305 16.768L60.2745 21.64H56.9865L58.6305 16.768ZM62.0561 17.584H64.8401V25H65.8721V17.584H68.6561V16.72H62.0561V17.584ZM69.9187 25H70.9507V21.256H75.0547V20.392H70.9507V17.584H75.1267V16.72H69.9187V25ZM80.087 25.12C82.379 25.12 83.951 23.224 83.951 20.86C83.951 18.496 82.379 16.6 80.087 16.6C77.795 16.6 76.223 18.496 76.223 20.86C76.223 23.224 77.795 25.12 80.087 25.12ZM80.087 24.256C78.443 24.256 77.339 22.84 77.339 20.86C77.339 18.88 78.443 17.464 80.087 17.464C81.731 17.464 82.835 18.88 82.835 20.86C82.835 22.84 81.731 24.256 80.087 24.256ZM85.6687 25H86.7007V21.508H88.2367C88.2967 21.508 88.3447 21.508 88.4047 21.508L90.3847 25H91.5727L89.5087 21.364C90.7327 21.064 91.4167 20.284 91.4167 19.108C91.4167 17.572 90.2407 16.72 88.2367 16.72H85.6687V25ZM88.3567 17.584C89.6407 17.584 90.3007 18.112 90.3007 19.108C90.3007 20.104 89.6407 20.644 88.3567 20.644H86.7007V17.584H88.3567ZM97.4513 24.952L95.3033 16.72H93.2273V25H94.2593V16.768L96.3833 25H98.5193L100.643 16.768V25H101.675V16.72H99.5993L97.4513 24.952ZM21.5555 41H22.5875V37.256H26.6915V36.392H22.5875V33.584H26.7635V32.72H21.5555V41ZM31.7238 41.12C34.0158 41.12 35.5878 39.224 35.5878 36.86C35.5878 34.496 34.0158 32.6 31.7238 32.6C29.4318 32.6 27.8598 34.496 27.8598 36.86C27.8598 39.224 29.4318 41.12 31.7238 41.12ZM31.7238 40.256C30.0798 40.256 28.9758 38.84 28.9758 36.86C28.9758 34.88 30.0798 33.464 31.7238 33.464C33.3678 33.464 34.4718 34.88 34.4718 36.86C34.4718 38.84 33.3678 40.256 31.7238 40.256ZM37.3055 41H38.3375V37.508H39.8735C39.9335 37.508 39.9815 37.508 40.0415 37.508L42.0215 41H43.2095L41.1455 37.364C42.3695 37.064 43.0535 36.284 43.0535 35.108C43.0535 33.572 41.8775 32.72 39.8735 32.72H37.3055V41ZM39.9935 33.584C41.2775 33.584 41.9375 34.112 41.9375 35.108C41.9375 36.104 41.2775 36.644 39.9935 36.644H38.3375V33.584H39.9935ZM50.515 37.328L53.599 32.72H52.435L49.999 36.356L47.563 32.72H46.399L49.483 37.328V41H50.515V37.328ZM57.7042 41.12C59.9962 41.12 61.5682 39.224 61.5682 36.86C61.5682 34.496 59.9962 32.6 57.7042 32.6C55.4122 32.6 53.8402 34.496 53.8402 36.86C53.8402 39.224 55.4122 41.12 57.7042 41.12ZM57.7042 40.256C56.0602 40.256 54.9562 38.84 54.9562 36.86C54.9562 34.88 56.0602 33.464 57.7042 33.464C59.3482 33.464 60.4522 34.88 60.4522 36.86C60.4522 38.84 59.3482 40.256 57.7042 40.256ZM68.2899 37.88C68.2899 39.32 67.7019 40.256 66.2619 40.256C64.8219 40.256 64.2339 39.32 64.2339 37.88V32.72H63.2019V37.7C63.2019 40.052 64.3419 41.12 66.2619 41.12C68.1819 41.12 69.3219 40.052 69.3219 37.7V32.72H68.2899V37.88ZM71.4656 41H72.4976V37.508H74.0336C74.0936 37.508 74.1416 37.508 74.2016 37.508L76.1816 41H77.3696L75.3056 37.364C76.5296 37.064 77.2136 36.284 77.2136 35.108C77.2136 33.572 76.0376 32.72 74.0336 32.72H71.4656V41ZM74.1536 33.584C75.4376 33.584 76.0976 34.112 76.0976 35.108C76.0976 36.104 75.4376 36.644 74.1536 36.644H72.4976V33.584H74.1536ZM1.91558 57V48.72H0.883578V57H1.91558ZM4.15311 57H6.54111C9.18111 57 10.7651 55.296 10.7651 52.86C10.7651 50.424 9.18111 48.72 6.54111 48.72H4.15311V57ZM6.42111 49.584C8.46111 49.584 9.64911 50.736 9.64911 52.86C9.64911 54.984 8.46111 56.136 6.42111 56.136H5.18511V49.584H6.42111ZM12.4969 57H17.3569V56.136H13.5289V53.184H17.1529V52.32H13.5289V49.584H17.2609V48.72H12.4969V57ZM18.1688 57H19.2608L20.1008 54.504H23.9648L24.8048 57H25.8968L23.1008 48.72H20.9648L18.1688 57ZM22.0328 48.768L23.6768 53.64H20.3888L22.0328 48.768ZM30.6398 52.332L29.5238 52.068C28.1558 51.744 27.7718 51.396 27.7718 50.772C27.7718 49.932 28.5158 49.464 29.5958 49.464C30.8678 49.464 31.6118 50.196 31.7078 51.18H32.7758C32.6318 49.752 31.5998 48.6 29.5478 48.6C27.9878 48.6 26.6558 49.464 26.6558 50.82C26.6558 51.972 27.4718 52.704 29.1998 53.112L30.3158 53.376C31.3838 53.628 31.8758 54.072 31.8758 54.84C31.8758 55.716 31.0238 56.256 29.7998 56.256C28.5398 56.256 27.5918 55.272 27.5198 54.084H26.4518C26.5598 55.656 27.6758 57.12 29.8478 57.12C31.8158 57.12 33.0038 56.1 33.0038 54.852C33.0038 53.412 32.1758 52.692 30.6398 52.332Z" fill="#949393"/>
</svg>
