<svg width="198" height="16" viewBox="0 0 198 16" fill="none" xmlns="http://www.w3.org/2000/svg">
<path d="M0.828308 15.5844C0.299905 15.5844 0 15.2815 0 14.7859V2.64402C0 2.25856 0.114249 1.9557 0.399873 1.65284L1.39956 0.592835C1.71374 0.289975 1.94224 0.0146484 2.39924 0.0146484H11.782C12.239 0.0146484 12.5389 0.193611 12.7531 0.565302L15.1523 4.46118C15.3665 4.83287 15.3951 5.17703 15.1523 5.53495L12.7817 9.44459C12.5389 9.81629 12.239 9.96772 11.8105 9.96772H3.32751C3.1847 9.96772 3.08473 10.0641 3.08473 10.2017V14.7859C3.08473 15.2953 2.77055 15.5844 2.25643 15.5844H0.828308ZM3.65598 8.60485C3.77023 8.60485 3.89876 8.56355 3.97017 8.46718L4.54141 7.77887C4.82704 7.46224 5.0841 7.25574 5.5411 7.25574H10.9394L12.3247 5.01183L10.9394 2.74038H3.08473V8.37082C3.08473 8.50848 3.1847 8.60485 3.32751 8.60485H3.65598Z" fill="white"/>
<path d="M30.1472 2.97417V3.2082C30.1472 3.31833 30.19 3.41469 30.29 3.48352L31.1468 4.07548C31.5039 4.32327 31.6752 4.5986 31.6752 5.03912V12.8722H36.4737C37.0021 12.8722 37.302 13.175 37.302 13.6706V14.7995C37.302 15.3088 36.9878 15.5979 36.4737 15.5979H23.5207C22.9923 15.5979 22.6924 15.2951 22.6924 14.7995V13.6706C22.6924 13.1613 23.0066 12.8722 23.5207 12.8722H28.5762V2.74014H23.5207C22.9923 2.74014 22.6924 2.43728 22.6924 1.94169V0.812853C22.6924 0.303498 23.0066 0.0144043 23.5207 0.0144043H36.4737C37.0021 0.0144043 37.302 0.317264 37.302 0.812853V1.94169C37.302 2.45105 36.9878 2.74014 36.4737 2.74014H30.3899C30.2471 2.74014 30.1472 2.83651 30.1472 2.97417Z" fill="white"/>
<path d="M59.9948 0.0144043C60.5232 0.0144043 60.8231 0.317264 60.8231 0.812853V1.94169C60.8231 2.45105 60.5089 2.74014 59.9948 2.74014H53.554C53.4112 2.74014 53.3112 2.83651 53.3112 2.97417V3.2082C53.3112 3.31833 53.354 3.41469 53.454 3.48352L54.3109 4.07548C54.6679 4.32327 54.8393 4.5986 54.8393 5.03912V14.7995C54.8393 15.3088 54.5251 15.5979 54.011 15.5979H52.5829C52.0545 15.5979 51.7545 15.2951 51.7545 14.7995V2.74014H46.342C45.8136 2.74014 45.5137 2.43728 45.5137 1.94169V0.812853C45.5137 0.303498 45.8279 0.0144043 46.342 0.0144043H59.9948Z" fill="white"/>
<path d="M72.8053 15.5835C72.3769 15.5835 72.0484 15.4183 71.8342 15.0604L67.864 8.34241C67.6784 7.99825 67.6498 7.62656 67.864 7.26863L71.8627 0.550654C72.077 0.178963 72.3911 0 72.8339 0H81.7739C82.2737 0 82.5879 0.30286 82.5879 0.784682V1.95482C82.5879 2.43664 82.2737 2.7395 81.7739 2.7395H73.9049L70.8916 7.81929L73.9049 12.8578H81.7739C82.2737 12.8578 82.5879 13.1606 82.5879 13.6425V14.8126C82.5879 15.2944 82.2737 15.5973 81.7739 15.5973H72.8053V15.5835Z" fill="white"/>
<path d="M104.91 0.0144043C105.439 0.0144043 105.739 0.317264 105.739 0.812853V14.7857C105.739 15.2951 105.424 15.5841 104.91 15.5841H103.482C102.954 15.5841 102.654 15.2813 102.654 14.7857V9.19656H93.9851V14.7857C93.9851 15.2951 93.6709 15.5841 93.1568 15.5841H91.7287C91.2003 15.5841 90.9004 15.2813 90.9004 14.7857V0.812853C90.9004 0.303498 91.2146 0.0144043 91.7287 0.0144043H93.1568C93.6852 0.0144043 93.9851 0.317264 93.9851 0.812853V7.61343C93.9851 7.75109 94.0851 7.84746 94.2279 7.84746H94.5421C94.6563 7.84746 94.7849 7.80616 94.8563 7.70979L95.4561 6.99394C95.7417 6.67732 95.9988 6.48459 96.4558 6.48459H102.682V0.812853C102.682 0.303498 102.997 0.0144043 103.511 0.0144043H104.91Z" fill="white"/>
<path d="M128.559 0.0144043C129.088 0.0144043 129.388 0.317264 129.388 0.812853V1.94169C129.388 2.45105 129.073 2.74014 128.559 2.74014H122.118C121.976 2.74014 121.876 2.83651 121.876 2.97417V3.2082C121.876 3.31833 121.918 3.41469 122.018 3.48352L122.875 4.07548C123.232 4.32327 123.404 4.5986 123.404 5.03912V14.7995C123.404 15.3088 123.09 15.5979 122.575 15.5979H121.147C120.619 15.5979 120.319 15.2951 120.319 14.7995V2.74014H114.906C114.378 2.74014 114.078 2.43728 114.078 1.94169V0.812853C114.078 0.303498 114.392 0.0144043 114.906 0.0144043H128.559Z" fill="white"/>
<path d="M151.537 14.648C151.752 15.1987 151.495 15.5841 150.866 15.5841H149.481C149.01 15.5841 148.667 15.4052 148.51 14.9647L147.624 12.7483H138.213L137.328 14.9647C137.156 15.4052 136.828 15.5841 136.357 15.5841H134.971C134.357 15.5841 134.086 15.1987 134.3 14.648L139.955 0.63389C140.127 0.193367 140.427 0.0144043 140.912 0.0144043H144.954C145.425 0.0144043 145.739 0.193367 145.911 0.63389L151.537 14.648ZM146.639 10.1877L143.711 2.76767H142.14L138.799 11.3028C138.727 11.468 138.799 11.6057 138.984 11.6057H139.227C139.413 11.6057 139.613 11.5368 139.727 11.3992L140.155 10.9174C140.541 10.4768 140.841 10.1877 141.512 10.1877H146.639Z" fill="white"/>
<path d="M162.078 15.5841C161.621 15.5841 161.392 15.3088 161.078 14.9922L160.079 13.9322C159.793 13.6293 159.679 13.3402 159.679 12.941V0.812853C159.679 0.303498 159.993 0.0144043 160.507 0.0144043H161.935C162.464 0.0144043 162.763 0.317264 162.763 0.812853V12.8584H172.86C173.389 12.8584 173.689 13.1613 173.689 13.6569V14.7857C173.689 15.2951 173.374 15.5841 172.86 15.5841H162.078Z" fill="white"/>
<path d="M197.151 14.7162C197.508 15.1568 197.365 15.5835 196.823 15.5835H194.88C194.452 15.5835 194.195 15.4871 193.881 15.1017L189.796 9.95307L185.969 15.0191C185.655 15.4045 185.426 15.5973 184.898 15.5973H182.741C182.213 15.5973 181.913 15.2944 181.913 14.7988V0.812215C181.913 0.30286 182.227 0.0137664 182.741 0.0137664H184.17C184.698 0.0137664 184.998 0.316626 184.998 0.812215V10.1596C184.998 10.5726 184.969 10.8204 184.741 11.1645L184.127 12.0318C184.027 12.1695 184.084 12.3071 184.269 12.3071H184.627C184.741 12.3071 184.841 12.2796 184.912 12.1695L193.509 0.481822C193.766 0.137663 194.081 0 194.509 0H196.366C196.908 0 197.037 0.440523 196.694 0.86728L191.539 7.66786L197.151 14.7162Z" fill="white"/>
</svg>
