<svg width="20" height="20" viewBox="0 0 20 20" fill="none" xmlns="http://www.w3.org/2000/svg">
<path d="M9.99521 18.3538C8.82914 18.3538 7.73656 18.1367 6.71746 17.7024C5.69838 17.2681 4.81293 16.6725 4.06111 15.9156C3.3093 15.1586 2.71891 14.2689 2.28994 13.2463C1.86097 12.2238 1.64648 11.1294 1.64648 9.96338C1.64648 8.79067 1.86097 7.6983 2.28994 6.68627C2.71891 5.67425 3.3093 4.79433 4.06111 4.04652C4.81293 3.29872 5.69838 2.71091 6.71746 2.28309C7.73656 1.85527 8.82914 1.64136 9.99521 1.64136C11.1679 1.64136 12.2629 1.85532 13.2802 2.28325C14.2976 2.71117 15.1827 3.29912 15.9356 4.04711C16.6886 4.79509 17.2807 5.67522 17.712 6.68748C18.1433 7.69975 18.3589 8.79005 18.3589 9.9584C18.3589 11.1278 18.1433 12.2238 17.712 13.2463C17.2807 14.2689 16.6886 15.1586 15.9356 15.9156C15.1827 16.6725 14.2976 17.2681 13.2802 17.7024C12.2629 18.1367 11.1679 18.3538 9.99521 18.3538ZM9.99521 17.0644C10.4798 16.5637 10.8841 15.9896 11.2081 15.3421C11.532 14.6947 11.8033 13.9231 12.0219 13.0272H8.00971C8.19388 13.8675 8.45142 14.6218 8.78234 15.2901C9.11326 15.9584 9.51755 16.5498 9.99521 17.0644ZM8.30182 16.804C7.94433 16.2759 7.64135 15.7045 7.39286 15.09C7.14437 14.4754 6.93616 13.7878 6.76821 13.0272H3.65463C4.16882 14.017 4.77496 14.7914 5.47303 15.3506C6.1711 15.9098 7.11403 16.3942 8.30182 16.804ZM11.7094 16.7831C12.7167 16.467 13.6197 15.9886 14.4184 15.3479C15.2172 14.7072 15.8615 13.9336 16.3512 13.0272H13.2634C13.0816 13.7739 12.8665 14.4545 12.6182 15.0691C12.3698 15.6837 12.0669 16.255 11.7094 16.7831ZM3.27419 11.8443H6.54096C6.4993 11.4623 6.47499 11.1229 6.46805 10.8259C6.4611 10.529 6.45763 10.2398 6.45763 9.9584C6.45763 9.61812 6.46457 9.31423 6.47846 9.04671C6.49235 8.7792 6.52013 8.4753 6.5618 8.13503H3.27419C3.17003 8.4753 3.10058 8.7746 3.06586 9.03292C3.03114 9.29123 3.01378 9.59972 3.01378 9.9584C3.01378 10.3138 3.03114 10.6318 3.06586 10.9126C3.10058 11.1935 3.17003 11.504 3.27419 11.8443ZM7.79096 11.8443H12.2407C12.2929 11.4068 12.3251 11.0546 12.3374 10.7876C12.3496 10.5207 12.3557 10.2443 12.3557 9.9584C12.3557 9.68305 12.3496 9.4197 12.3374 9.16834C12.3251 8.91696 12.2929 8.57253 12.2407 8.13503H7.79096C7.72846 8.57253 7.69027 8.91696 7.67638 9.16834C7.66249 9.4197 7.65555 9.68305 7.65555 9.9584C7.65555 10.2443 7.66249 10.5207 7.67638 10.7876C7.69027 11.0546 7.72846 11.4068 7.79096 11.8443ZM13.4386 11.8443H16.7316C16.8255 11.504 16.8907 11.1935 16.927 10.9126C16.9634 10.6318 16.9816 10.3138 16.9816 9.9584C16.9816 9.59972 16.9634 9.29123 16.927 9.03292C16.8907 8.7746 16.8255 8.4753 16.7316 8.13503H13.4594C13.4944 8.6314 13.5189 9.00557 13.5328 9.25755C13.5467 9.5095 13.5536 9.74312 13.5536 9.9584C13.5536 10.2537 13.5432 10.5359 13.5224 10.8051C13.5015 11.0743 13.4736 11.4207 13.4386 11.8443ZM13.2426 6.94709H16.3512C15.8892 5.98845 15.2589 5.19051 14.4601 4.55327C13.6613 3.91605 12.7375 3.46368 11.6886 3.19617C12.0461 3.71368 12.349 4.27196 12.5973 4.87098C12.8457 5.47002 13.0608 6.16206 13.2426 6.94709ZM8.00971 6.94709H12.0428C11.8933 6.21067 11.6367 5.49451 11.2728 4.79861C10.909 4.10269 10.4831 3.49563 9.99521 2.97742C9.55921 3.35312 9.18617 3.84733 8.87609 4.46007C8.56601 5.07279 8.27721 5.90179 8.00971 6.94709ZM3.65463 6.94709H6.78905C6.9431 6.20373 7.13916 5.53773 7.37723 4.94911C7.6153 4.3605 7.91655 3.78313 8.28098 3.217C7.22875 3.48452 6.31276 3.92738 5.53303 4.54559C4.75329 5.1638 4.12716 5.96429 3.65463 6.94709Z" fill="white"/>
</svg>
