<svg width="20" height="19" viewBox="0 0 20 19" fill="none" xmlns="http://www.w3.org/2000/svg">
<path d="M12.6456 3.11108C12.476 3.3961 12.3249 3.69045 12.193 3.99253C10.8971 3.80026 9.57715 3.80026 8.28131 3.99253C8.14943 3.69045 7.99827 3.3961 7.82865 3.11108C6.608 3.30677 5.42136 3.65721 4.30132 4.15279C2.29846 6.86468 1.39015 10.157 1.73909 13.4401C3.04432 14.3607 4.50925 15.0628 6.06926 15.5155C6.42448 15.0752 6.7415 14.609 7.01728 14.1212C6.50831 13.9451 6.01912 13.7223 5.55681 13.4561C5.68361 13.3769 5.80355 13.2885 5.91552 13.1916C7.26365 13.8009 8.74078 14.1173 10.2371 14.1173C11.7335 14.1173 13.2106 13.8009 14.5588 13.1916C14.6783 13.2878 14.7979 13.3759 14.9175 13.4561C14.4527 13.7202 13.9639 13.9455 13.457 14.1292C13.7214 14.628 14.0299 15.1052 14.3794 15.5555C15.9375 15.1044 17.3999 14.4021 18.701 13.4801C19.0584 10.1965 18.1493 6.90146 16.1388 4.19286C15.0314 3.68702 13.8564 3.32317 12.6456 3.11108ZM7.40161 11.565C6.97422 11.5362 6.57533 11.3532 6.28869 11.0543C6.00204 10.7555 5.84993 10.3641 5.86428 9.96234C5.84776 9.56001 5.99913 9.1675 6.2862 8.86823C6.57328 8.56896 6.97343 8.38653 7.40161 8.35971C7.8298 8.38653 8.22995 8.56896 8.51703 8.86823C8.8041 9.1675 8.95547 9.56001 8.93895 9.96234C8.95547 10.3647 8.8041 10.7572 8.51703 11.0564C8.22995 11.3557 7.8298 11.5381 7.40161 11.565ZM13.0727 11.565C12.6453 11.5362 12.2464 11.3532 11.9597 11.0543C11.6731 10.7555 11.521 10.3641 11.5353 9.96234C11.5188 9.56001 11.6702 9.1675 11.9573 8.86823C12.2443 8.56896 12.6445 8.38653 13.0727 8.35971C13.5017 8.38453 13.9031 8.56637 14.1906 8.8661C14.4781 9.16582 14.6287 9.55948 14.61 9.96234C14.6287 10.3652 14.4781 10.7589 14.1906 11.0586C13.9031 11.3583 13.5017 11.5402 13.0727 11.565Z" fill="#797979"/>
</svg>
