<svg xmlns="http://www.w3.org/2000/svg" class='linkedin-icon' width="24" height="24" viewBox="0 0 24 24" fill="none">
<path fill-rule="evenodd" clip-rule="evenodd" d="M12 0C5.37258 0 0 5.37258 0 12C0 18.6274 5.37258 24 12 24C18.6274 24 24 18.6274 24 12C24 5.37258 18.6274 0 12 0ZM7.81375 19.3279H4.5269V9.43921H7.81375V19.3279ZM6.17032 8.08953H6.14861C5.04603 8.08953 4.33136 7.32992 4.33136 6.38047C4.33136 5.41018 5.06692 4.67209 6.19185 4.67209C7.31702 4.67209 8.00846 5.41018 8.02998 6.38047C8.02998 7.32992 7.31702 8.08953 6.17032 8.08953ZM19.6686 19.3279H16.3809V14.0374C16.3809 12.7086 15.9059 11.8016 14.716 11.8016C13.8072 11.8016 13.2672 12.4123 13.0293 13.0039C12.9428 13.2152 12.9202 13.5089 12.9202 13.8053V19.328H9.63188C9.63188 19.328 9.67594 10.3669 9.63188 9.43926H12.9202V10.8405C13.3571 10.1682 14.1368 9.20711 15.8833 9.20711C18.0469 9.20711 19.6686 10.6201 19.6686 13.6573V19.3279Z" fill="#797979"/>
</svg>