<svg width="19" height="19" viewBox="0 0 19 19" fill="none" xmlns="http://www.w3.org/2000/svg">
<path d="M3.07055 5.03059C3.08067 4.92998 3.06711 4.82841 3.03095 4.73399C2.99479 4.63957 2.93703 4.55492 2.8623 4.48682L1.3186 2.6134V2.33325H6.11L9.81388 10.5186L13.0698 2.33325H17.6381V2.6134L16.3184 3.88686C16.2625 3.93004 16.2193 3.98759 16.1936 4.05338C16.1678 4.11917 16.1604 4.19072 16.1721 4.26039V13.6267C16.1604 13.6964 16.1678 13.7679 16.1936 13.8337C16.2193 13.8995 16.2625 13.957 16.3184 14.0002L17.6075 15.2745V15.5555H11.1254V15.2753L12.4608 13.9696C12.5922 13.8374 12.5922 13.7986 12.5922 13.5969V6.02556L8.88006 15.5241H8.37927L4.05725 6.02556V12.3921C4.02172 12.659 4.11014 12.9292 4.29691 13.1226L6.03315 15.2448V15.5241H1.11035V15.2448L2.84577 13.1226C2.93759 13.0268 3.00574 12.9108 3.04476 12.784C3.08379 12.6571 3.09262 12.5229 3.07055 12.3921V5.03059Z" fill="#797979"/>
</svg>
