<svg xmlns="http://www.w3.org/2000/svg" version="1.0" width="20.000000pt" height="22.000000pt" viewBox="0 0 20.000000 22.000000" preserveAspectRatio="xMidYMid meet">
  <g transform="translate(0.000000,22.000000) scale(0.020833,-0.022917)" fill="#797979" stroke="none">
    <path d="M276 731 c-72 -58 -256 -238 -256 -252 0 -13 159 -171 248 -246 38 -32 45 -35 67 -25 18 8 25 19 25 39 0 23 -21 47 -110 128 -60 55 -109 102 -109 105 0 3 49 50 109 105 60 54 111 107 114 118 4 18 -25 57 -43 57 -4 0 -25 -13 -45 -29z"/>
    <path d="M616 744 c-9 -8 -16 -24 -16 -33 0 -10 50 -67 111 -125 l110 -107 -110 -106 c-80 -76 -111 -111 -111 -129 0 -22 25 -44 49 -44 14 0 277 246 285 266 3 8 3 20 0 27 -8 22 -273 267 -288 267 -8 0 -22 -7 -30 -16z"/>
  </g>
</svg>