<svg width="19" height="19" viewBox="0 0 19 19" fill="none" xmlns="http://www.w3.org/2000/svg">
<g>
<path d="M18.3887 3.83992C17.7393 4.1277 17.0416 4.32214 16.3082 4.41003C17.065 3.9572 17.6311 3.24451 17.9011 2.40492C17.1901 2.82725 16.4119 3.12452 15.6004 3.28381C15.0547 2.70115 14.3319 2.31495 13.5442 2.18518C12.7565 2.05541 11.948 2.18932 11.2443 2.56612C10.5405 2.94292 9.98079 3.54154 9.65208 4.26902C9.32337 4.99651 9.24404 5.81217 9.4264 6.58937C7.98572 6.51703 6.57634 6.14257 5.28973 5.49029C4.00313 4.83801 2.86806 3.92249 1.95818 2.80314C1.64707 3.33981 1.46818 3.96203 1.46818 4.6247C1.46784 5.22125 1.61474 5.80867 1.89587 6.33482C2.17699 6.86098 2.58364 7.30962 3.07974 7.64092C2.5044 7.62261 1.94175 7.46715 1.43863 7.18748V7.23414C1.43857 8.07083 1.72799 8.88177 2.25777 9.52936C2.78755 10.177 3.52507 10.6213 4.34518 10.787C3.81146 10.9315 3.25189 10.9528 2.70874 10.8493C2.94012 11.5692 3.39085 12.1987 3.9978 12.6498C4.60476 13.1008 5.33756 13.3507 6.09363 13.3646C4.81016 14.3721 3.22509 14.9187 1.5934 14.9163C1.30437 14.9163 1.01557 14.8995 0.728516 14.8657C2.38477 15.9306 4.31278 16.4958 6.28185 16.4936C12.9474 16.4936 16.5913 10.9729 16.5913 6.18492C16.5913 6.02937 16.5874 5.87225 16.5804 5.7167C17.2892 5.20412 17.901 4.5694 18.3872 3.84225L18.3887 3.83992Z" fill="#797979"/>
</g>
<defs>
<clipPath id="clip0_150_626">
<rect width="18.6667" height="18.6667" fill="white"/>
</clipPath>
</defs>
</svg>
