<svg xmlns="http://www.w3.org/2000/svg" width="152" height="146" viewBox="0 0 152 146" fill="none">
<g opacity="0.8">
<path d="M142.844 39.3848L121.5 18.3603L100.156 39.3848L91 30.4289L121.5 0.384766L152 30.4289L142.844 39.3848Z" fill="white"/>
<path d="M128 9.38477H115V145.385H128V9.38477Z" fill="white"/>
<path d="M97.6934 98.3848L76 76.8212L54.3066 98.3848L45 89.1992L76 58.3848L107 89.1992L97.6934 98.3848Z" fill="white"/>
<path d="M82 67.3848H69V145.385H82V67.3848Z" fill="white"/>
<path d="M51.8436 59.3848L30.5 37.8212L9.15644 59.3848L0 50.1992L30.5 19.3848L61 50.1992L51.8436 59.3848Z" fill="white"/>
<path d="M37 28.3848H24V145.385H37V28.3848Z" fill="white"/>
</g>
</svg>