<svg width="139" height="140" viewBox="0 0 139 140" fill="none" xmlns="http://www.w3.org/2000/svg">
<g opacity="0.9">
<path d="M37.3159 139.004C32.4601 138.999 27.8048 137.067 24.3734 133.631L5.38695 114.401C3.67951 112.699 2.3247 110.677 1.4003 108.451C0.475908 106.225 0 103.838 0 101.427C0 99.017 0.475908 96.6302 1.4003 94.404C2.3247 92.1777 3.67951 90.1559 5.38695 88.4544L30.6617 63.1797C34.1555 59.8647 38.788 58.0166 43.6042 58.0166C48.4205 58.0166 53.053 59.8647 56.5468 63.1797L75.5332 82.3494C77.2407 84.0509 78.5955 86.0728 79.5199 88.299C80.4443 90.5252 80.9202 92.912 80.9202 95.3225C80.9202 97.733 80.4443 100.12 79.5199 102.346C78.5955 104.572 77.2407 106.594 75.5332 108.296L50.2585 133.509C48.5695 135.232 46.5568 136.605 44.3357 137.548C42.1146 138.491 39.7288 138.986 37.3159 139.004ZM43.4209 70.0784C42.6175 70.0737 41.821 70.2277 41.0771 70.5315C40.3333 70.8353 39.6571 71.283 39.0866 71.8488L13.8119 97.1235C12.6748 98.2673 12.0367 99.8146 12.0367 101.427C12.0367 103.04 12.6748 104.588 13.8119 105.732L32.9816 125.084C33.5492 125.657 34.2241 126.111 34.9681 126.421C35.712 126.731 36.51 126.89 37.3159 126.89C38.1219 126.89 38.9199 126.731 39.6638 126.421C40.4077 126.111 41.0831 125.657 41.6506 125.084L66.8642 99.8097C68.0013 98.6658 68.6394 97.1185 68.6394 95.5056C68.6394 93.8928 68.0013 92.3455 66.8642 91.2016L47.6334 71.9099C47.0629 71.344 46.3867 70.8964 45.6428 70.5926C44.899 70.2888 44.1025 70.1348 43.2991 70.1394L43.4209 70.0784Z" fill="white"/>
<path d="M95.3145 81.0066C90.4587 81.0023 85.8033 79.0699 82.3719 75.6342L63.0803 56.4035C61.3729 54.702 60.0181 52.6801 59.0937 50.4539C58.1693 48.2277 57.6934 45.8409 57.6934 43.4304C57.6934 41.0199 58.1693 38.6331 59.0937 36.4069C60.0181 34.1807 61.3729 32.1588 63.0803 30.4573L88.3551 5.18266C91.8488 1.8676 96.4814 0.0195313 101.298 0.0195312C106.114 0.0195313 110.746 1.8676 114.24 5.18266L133.593 24.4744C135.3 26.1759 136.655 28.1978 137.58 30.424C138.504 32.6502 138.98 35.037 138.98 37.4475C138.98 39.858 138.504 42.2448 137.58 44.471C136.655 46.6973 135.3 48.7191 133.593 50.4206L108.318 75.6342C106.612 77.3427 104.585 78.6969 102.353 79.6189C100.121 80.5409 97.7291 81.0125 95.3145 81.0066ZM101.419 12.0813C100.616 12.0767 99.8195 12.2306 99.0757 12.5345C98.3319 12.8383 97.6556 13.2859 97.0851 13.8517L71.8104 39.1264C70.6733 40.2702 70.0352 41.8176 70.0352 43.4304C70.0352 45.0433 70.6733 46.5906 71.8104 47.7344L90.8579 67.0262C91.4255 67.5984 92.1008 68.0526 92.8447 68.3625C93.5887 68.6725 94.3867 68.832 95.1926 68.832C95.9985 68.832 96.7965 68.6725 97.5405 68.3625C98.2844 68.0526 98.9594 67.5984 99.5269 67.0262L124.741 41.7515C125.878 40.6077 126.516 39.0604 126.516 37.4475C126.516 35.8347 125.878 34.2873 124.741 33.1435L105.51 13.8517C104.388 12.7385 102.878 12.1039 101.298 12.0813H101.419Z" fill="white"/>
<path d="M88.0231 42.0853L39.1992 90.9092L47.833 99.5429L96.6569 50.719L88.0231 42.0853Z" fill="white"/>
</g>
</svg>
