<svg width="120" height="125" viewBox="0 0 120 125" fill="none" xmlns="http://www.w3.org/2000/svg">
<g opacity="0.8">
<path d="M77.6617 124.23C69.4753 124.23 61.4726 121.802 54.6659 117.254C47.8591 112.706 42.5539 106.242 39.4211 98.6783C36.2883 91.1151 35.4688 82.7926 37.0659 74.7635C38.663 66.7344 42.605 59.3592 48.3936 53.5705C54.1823 47.7818 61.5575 43.8397 69.5867 42.2426C77.6158 40.6455 85.9382 41.4652 93.5015 44.598C101.065 47.7308 107.529 53.036 112.078 59.8428C116.626 66.6496 119.053 74.6522 119.053 82.8386C119.053 93.8162 114.692 104.344 106.93 112.107C99.1675 119.869 88.6394 124.23 77.6617 124.23ZM77.6617 51.7951C71.5219 51.7951 65.5199 53.6158 60.4148 57.0269C55.3098 60.438 51.3309 65.2863 48.9813 70.9588C46.6317 76.6312 46.017 82.8731 47.2148 88.8949C48.4126 94.9167 51.3693 100.448 55.7108 104.79C60.0523 109.131 65.5837 112.088 71.6055 113.286C77.6273 114.483 83.869 113.869 89.5415 111.519C95.2139 109.169 100.062 105.19 103.474 100.085C106.885 94.9803 108.705 88.9784 108.705 82.8386C108.705 74.6054 105.435 66.7093 99.613 60.8875C93.7912 55.0657 85.895 51.7951 77.6617 51.7951Z" fill="white"/>
<path d="M113.826 87.9567H77.6085L72.4346 82.7828V46.5654H82.7824V77.6089H113.826V87.9567Z" fill="white"/>
<path d="M103.531 113.881C102.851 113.885 102.176 113.754 101.545 113.497C100.915 113.239 100.342 112.86 99.8582 112.38L73.9886 86.5107C73.5037 86.0297 73.1186 85.4575 72.8559 84.827C72.5932 84.1965 72.458 83.5202 72.458 82.8372C72.458 82.1542 72.5932 81.4779 72.8559 80.8474C73.1186 80.2169 73.5037 79.6447 73.9886 79.1637C74.958 78.2 76.2692 77.6592 77.636 77.6592C79.0029 77.6592 80.3143 78.2 81.2837 79.1637L107.153 105.033C107.88 105.754 108.376 106.674 108.58 107.676C108.784 108.679 108.686 109.72 108.298 110.667C107.91 111.614 107.251 112.425 106.402 112.997C105.554 113.569 104.555 113.876 103.531 113.881Z" fill="white"/>
<path d="M31.0435 113.826H0V23.7482L23.7482 0H82.7826V31.0435H72.4348V10.3478H28.0427L10.3478 28.0426V103.478H31.0435V113.826Z" fill="white"/>
<path d="M36.2172 36.2172H10.3477V25.8694H25.8694V10.3477H36.2172V36.2172Z" fill="white"/>
</g>
</svg>
