<svg width="25" height="25" viewBox="0 0 25 25" fill="none" xmlns="http://www.w3.org/2000/svg">
<path d="M0.00209236 12.3951C-0.121004 18.9029 5.44301 24.8362 12.6647 24.549C18.9427 24.311 24.4657 19.026 24.3098 12.0915C24.1538 5.58374 18.7786 0.192062 12.041 0.241301C5.25426 0.29054 -0.096384 5.93662 0.00209236 12.3951ZM22.2007 12.469C22.1679 18.0084 17.761 22.4071 12.2872 22.4563C6.63295 22.5056 2.11937 17.8443 2.10296 12.4115C2.08655 6.76547 6.63295 2.36679 12.0985 2.36679C17.6215 2.35037 22.2007 6.94602 22.2007 12.469Z" fill="#653EE2"/>
<path d="M10.736 14.8735C10.736 15.8008 10.736 16.7281 10.736 17.6555C10.736 18.4187 11.3679 19.0424 12.1311 19.0506C12.8943 19.0588 13.5426 18.4269 13.5508 17.6719C13.5508 15.8008 13.5508 13.9297 13.5508 12.0586C13.5508 11.2954 12.9107 10.6799 12.1393 10.6799C11.3679 10.6799 10.736 11.3036 10.736 12.0668C10.736 13.0024 10.736 13.9379 10.736 14.8735Z" fill="#653EE2"/>
<path d="M12.1396 9.14533C13.0834 9.14533 13.8384 8.39034 13.8384 7.45479C13.8384 6.52746 13.0834 5.77246 12.156 5.77246C11.2123 5.77246 10.4573 6.52746 10.4573 7.463C10.4573 8.39034 11.2123 9.14533 12.1396 9.14533Z" fill="#653EE2"/>
</svg>
