<svg width="21" height="16" viewBox="0 0 21 16" fill="none" xmlns="http://www.w3.org/2000/svg">
<path d="M19.2415 9C19.7937 9 20.2415 8.55228 20.2415 8C20.2415 7.44772 19.7937 7 19.2415 7L19.2415 9ZM0.292968 7.29289C-0.0975567 7.68342 -0.0975567 8.31658 0.292968 8.70711L6.65693 15.0711C7.04745 15.4616 7.68062 15.4616 8.07114 15.0711C8.46167 14.6805 8.46167 14.0474 8.07114 13.6569L2.41429 8L8.07114 2.34314C8.46167 1.95262 8.46167 1.31946 8.07114 0.928931C7.68062 0.538407 7.04745 0.538407 6.65693 0.928931L0.292968 7.29289ZM19.2415 7L1.00007 7L1.00007 9L19.2415 9L19.2415 7Z" fill="#C4C4C4"/>
</svg>
