<svg width="21" height="16" viewBox="0 0 21 16" fill="none" xmlns="http://www.w3.org/2000/svg">
<path d="M1.00024 7C0.447959 7 0.000244141 7.44772 0.000244141 8C0.000244141 8.55228 0.447959 9 1.00024 9V7ZM19.9487 8.70711C20.3393 8.31658 20.3393 7.68342 19.9487 7.29289L13.5848 0.928932C13.1942 0.538408 12.5611 0.538408 12.1706 0.928932C11.78 1.31946 11.78 1.95262 12.1706 2.34315L17.8274 8L12.1706 13.6569C11.78 14.0474 11.78 14.6805 12.1706 15.0711C12.5611 15.4616 13.1942 15.4616 13.5848 15.0711L19.9487 8.70711ZM1.00024 9H19.2416V7H1.00024V9Z" fill="#C4C4C4"/>
</svg>
