<svg width="40" height="40" viewBox="0 0 40 40" fill="none" xmlns="http://www.w3.org/2000/svg">
<circle cx="20" cy="20" r="20" transform="rotate(180 20 20)" fill="#653EE2"/>
<path d="M24 19C23.4477 19 23 19.4477 23 20C23 20.5523 23.4477 21 24 21L24 19ZM25.2071 20.7071C25.5976 20.3166 25.5976 19.6834 25.2071 19.2929L18.8431 12.9289C18.4526 12.5384 17.8195 12.5384 17.4289 12.9289C17.0384 13.3195 17.0384 13.9526 17.4289 14.3431L23.0858 20L17.4289 25.6569C17.0384 26.0474 17.0384 26.6805 17.4289 27.0711C17.8195 27.4616 18.4526 27.4616 18.8431 27.0711L25.2071 20.7071ZM24 21L24.5 21L24.5 19L24 19L24 21Z" fill="black"/>
</svg>
