<svg xmlns="http://www.w3.org/2000/svg" width="21" height="20" viewBox="0 0 21 20" fill="none">
<path d="M20.9575 6.56348H0.95752V19.9999H20.9575V6.56348ZM19.7089 18.7513H2.20614V9.37747H19.7089V18.7513Z" fill="#653EE2"/>
<path d="M6.89502 10.313H8.76979V12.1878H6.89502V10.313Z" fill="#653EE2"/>
<path d="M10.022 10.313H11.8967V12.1878H10.022V10.313Z" fill="#653EE2"/>
<path d="M13.1453 10.313H15.02V12.1878H13.1453V10.313Z" fill="#653EE2"/>
<path d="M16.2393 10.313H18.114V12.1878H16.2393V10.313Z" fill="#653EE2"/>
<path d="M3.77148 13.127H5.64625V15.0017H3.77148V13.127Z" fill="#653EE2"/>
<path d="M6.89502 13.127H8.76979V15.0017H6.89502V13.127Z" fill="#653EE2"/>
<path d="M10.022 13.127H11.8967V15.0017H10.022V13.127Z" fill="#653EE2"/>
<path d="M13.1453 13.127H15.02V15.0017H13.1453V13.127Z" fill="#653EE2"/>
<path d="M16.2393 13.127H18.114V15.0017H16.2393V13.127Z" fill="#653EE2"/>
<path d="M3.77148 15.9375H5.64625V17.8123H3.77148V15.9375Z" fill="#653EE2"/>
<path d="M6.89502 15.9375H8.76979V17.8123H6.89502V15.9375Z" fill="#653EE2"/>
<path d="M10.022 15.9375H11.8967V17.8123H10.022V15.9375Z" fill="#653EE2"/>
<path d="M13.1453 15.9375H15.02V17.8123H13.1453V15.9375Z" fill="#653EE2"/>
<path d="M18.7697 2.50075C18.7697 3.18952 18.2061 3.74937 17.5211 3.74937C16.8323 3.74937 16.2724 3.18583 16.2724 2.50075V1.56152H14.3977V2.50075C14.3977 3.18952 13.8341 3.74937 13.149 3.74937C12.4603 3.74937 11.9004 3.18583 11.9004 2.50075V1.56152H10.0257V2.50075C10.0257 3.18952 9.46212 3.74937 8.77704 3.74937C8.08827 3.74937 7.52842 3.18583 7.52842 2.50075V1.56152H5.65365V2.50075C5.65365 3.18952 5.09012 3.74937 4.40503 3.74937C3.71627 3.74937 3.15641 3.18583 3.15641 2.50075V1.56152H0.95752V5.31106H20.9575V1.56152H18.7697V2.50075Z" fill="#653EE2"/>
<path d="M3.77148 0.626151V2.50092C3.77148 2.87661 4.11403 3.18969 4.48972 3.12707C4.80279 3.06446 5.0201 2.78453 5.0201 2.47145V0.626151C5.0201 0.28361 4.74018 0 4.39395 0C4.05141 0 3.77148 0.279926 3.77148 0.626151Z" fill="#653EE2"/>
<path d="M8.76971 0C8.42716 0 8.14355 0.279926 8.14355 0.626151V2.50092C8.14355 2.87661 8.4861 3.18969 8.86179 3.12707C9.17486 3.06446 9.39217 2.78453 9.39217 2.47145V1.56538V0.626151C9.39586 0.279926 9.11593 0 8.76971 0Z" fill="#653EE2"/>
<path d="M13.2412 3.12339C13.5543 3.06077 13.7716 2.78085 13.7716 2.46777V0.626151C13.7716 0.28361 13.4917 0 13.1454 0C12.8029 0 12.5193 0.279926 12.5193 0.626151V2.50092C12.5193 2.87661 12.8655 3.186 13.2412 3.12339Z" fill="#653EE2"/>
<path d="M16.895 0.626151V2.50092C16.895 2.87661 17.2376 3.18969 17.6133 3.12707C17.9263 3.06446 18.1436 2.78453 18.1436 2.47145V0.626151C18.1436 0.28361 17.8637 0 17.5175 0C17.1786 0 16.895 0.279926 16.895 0.626151Z" fill="#653EE2"/>
</svg>