<svg xmlns="http://www.w3.org/2000/svg" width="17" height="17" viewBox="0 0 17 17" fill="none">
<path d="M8.39453 16.498C6.27282 16.498 4.23809 15.6552 2.73767 14.1549C1.23741 12.6545 0.394531 10.6195 0.394531 8.49805C0.394531 6.37656 1.23738 4.3416 2.73767 2.84118C4.23806 1.34093 6.27304 0.498047 8.39453 0.498047C10.516 0.498047 12.551 1.34089 14.0514 2.84118C15.5517 4.34157 16.3945 6.37656 16.3945 8.49805C16.3921 10.6191 15.5485 12.6525 14.0487 14.1523C12.5489 15.6521 10.5156 16.4957 8.39447 16.4981L8.39453 16.498ZM8.39453 1.64078C6.5759 1.64078 4.83173 2.36324 3.54584 3.64922C2.25985 4.93521 1.5374 6.67935 1.5374 8.49791C1.5374 10.3165 2.25985 12.0607 3.54584 13.3466C4.83182 14.6326 6.57597 15.355 8.39453 15.355C10.2131 15.355 11.9573 14.6326 13.2432 13.3466C14.5292 12.0606 15.2517 10.3165 15.2517 8.49791C15.2496 6.67991 14.5265 4.93707 13.2411 3.65118C11.9555 2.36572 10.2125 1.64261 8.39434 1.64059L8.39453 1.64078Z" fill="#1F1F1F"/>
<path d="M11.2034 11.8792C11.0519 11.8794 10.9065 11.8191 10.7995 11.7118L7.98974 8.9021V8.90197C7.88247 8.79496 7.82227 8.64954 7.82227 8.49802V3.35512C7.82227 3.15091 7.93119 2.96226 8.10798 2.86022C8.28477 2.75818 8.50263 2.75818 8.67942 2.86022C8.8562 2.96226 8.96513 3.15091 8.96513 3.35512V8.26128L11.6075 10.9037C11.7145 11.0108 11.7747 11.1561 11.7747 11.3076C11.7747 11.4591 11.7145 11.6045 11.6074 11.7117C11.5002 11.8188 11.355 11.879 11.2034 11.879L11.2034 11.8792Z" fill="#1F1F1F"/>
</svg>