<svg width="103" height="89" viewBox="0 0 103 89" fill="none" xmlns="http://www.w3.org/2000/svg">
<path d="M1.19898 16.465C1.19898 16.465 -3.80411 70.4786 6.62143 87.8438L99.3481 88.9417C99.3481 88.9417 83.9863 42.1189 85.3192 15.052L1.19898 16.465Z" fill="#E0E0E0"/>
<path d="M1.19988 16.4651C1.19988 16.4651 -4.67667 72.1588 13.6341 84.0615H103.001C103.001 84.0615 87.1392 56.8744 85.8891 16.4651H1.19988Z" fill="#EBEBEB"/>
<path d="M87.689 3.44043H0.748047V17.3812H87.689V3.44043Z" fill="#0E7E90"/>
<path d="M8.51562 3.54726C8.51562 3.54726 9.39177 0.400635 12.5865 0.400635C15.3084 0.400635 16.6573 2.58565 16.6573 4.58902C16.6573 6.59239 15.4206 8.71062 12.5865 8.86555" stroke="#E0E0E0" stroke-width="0.801349" stroke-linecap="round" stroke-linejoin="round"/>
<path d="M11.5155 3.39233H7.22559V5.30756H11.5155V3.39233Z" fill="#263238"/>
<path d="M25.0342 3.54726C25.0342 3.54726 25.9103 0.400635 29.105 0.400635C31.8269 0.400635 33.1759 2.58565 33.1759 4.58902C33.1759 6.59239 31.9391 8.71062 29.105 8.86555" stroke="#E0E0E0" stroke-width="0.801349" stroke-linecap="round" stroke-linejoin="round"/>
<path d="M28.0311 3.39233H23.7412V5.30756H28.0311V3.39233Z" fill="#263238"/>
<path d="M41.5498 3.54726C41.5498 3.54726 42.4259 0.400635 45.6207 0.400635C48.3426 0.400635 49.6915 2.58565 49.6915 4.58902C49.6915 6.59239 48.4548 8.71062 45.6207 8.86555" stroke="#E0E0E0" stroke-width="0.801349" stroke-linecap="round" stroke-linejoin="round"/>
<path d="M44.5497 3.39233H40.2598V5.30756H44.5497V3.39233Z" fill="#263238"/>
<path d="M58.0684 3.54726C58.0684 3.54726 58.9445 0.400635 62.1392 0.400635C64.8611 0.400635 66.2101 2.58565 66.2101 4.58902C66.2101 6.59239 64.9733 8.71062 62.1392 8.86555" stroke="#E0E0E0" stroke-width="0.801349" stroke-linecap="round" stroke-linejoin="round"/>
<path d="M61.0653 3.39233H56.7754V5.30756H61.0653V3.39233Z" fill="#263238"/>
<path d="M74.584 3.54726C74.584 3.54726 75.4601 0.400635 78.6548 0.400635C81.3767 0.400635 82.7257 2.58565 82.7257 4.58902C82.7257 6.59239 81.4889 8.71062 78.6548 8.86555" stroke="#E0E0E0" stroke-width="0.801349" stroke-linecap="round" stroke-linejoin="round"/>
<path d="M77.5838 3.39233H73.2939V5.30756H77.5838V3.39233Z" fill="#263238"/>
<path d="M1.00733 17.0027C1.00733 17.0027 0.0439024 79.9729 20.201 79.9729L103 80C103 80 91.1658 67.7756 87.66 17H1.00733V17.0027Z" fill="#F5F5F5"/>
<path d="M90.7669 72.3058C90.7482 72.2523 90.6601 72.0039 90.4651 71.4563C90.2701 70.8954 89.9656 70.078 89.6076 68.9855C88.8677 66.8085 87.8366 63.5871 86.6506 59.4308C84.2733 51.1181 81.4018 39.0071 79.1687 24.0753L79.2248 24.1233C59.6879 24.126 35.4071 24.1314 9.15222 24.1367H8.48443L8.55388 24.0566C9.81467 33.0424 11.1102 41.8011 13.207 50.0042C14.2541 54.1045 15.5016 58.0578 17.0081 61.7947C18.512 65.5317 20.2723 69.0469 22.265 72.2737L22.2115 72.2443C62.8185 72.2817 90.214 72.3058 90.7669 72.3084C90.214 72.3084 62.8185 72.3351 22.2115 72.3725H22.1768L22.1581 72.3432C20.1601 69.1084 18.3918 65.5878 16.8852 61.8455C15.376 58.1032 14.1233 54.1445 13.0762 50.0416C10.974 41.8278 9.67844 33.0664 8.41498 24.0779L8.4043 23.9978H9.15222C35.4071 24.0031 59.6906 24.0085 79.2248 24.0112H79.2729L79.2809 24.0592C81.5006 38.9884 84.3534 51.0994 86.7121 59.4147C87.8874 63.5737 88.9078 66.7978 89.6397 68.9775C90.3716 71.1385 90.7322 72.2016 90.7696 72.3084L90.7669 72.3058Z" fill="#263238"/>
<path d="M83.3408 48.1503C83.3408 48.1877 67.5596 48.2197 48.0975 48.2197C28.6355 48.2197 12.8516 48.1877 12.8516 48.1503C12.8516 48.1129 28.6301 48.0808 48.0975 48.0808C67.565 48.0808 83.3408 48.1129 83.3408 48.1503Z" fill="#263238"/>
<path d="M87.1388 61.0441C87.1388 61.0815 71.3549 61.1135 51.8875 61.1135C32.4201 61.1135 16.6309 61.0815 16.6309 61.0441C16.6309 61.0067 32.4121 60.9746 51.8875 60.9746C71.363 60.9746 87.1388 61.0067 87.1388 61.0441Z" fill="#263238"/>
<path d="M80.9551 35.724C80.9551 35.7614 65.1739 35.7934 45.7118 35.7934C26.2497 35.7934 10.4658 35.7614 10.4658 35.724C10.4658 35.6866 26.2417 35.6545 45.7118 35.6545C65.1819 35.6545 80.9551 35.6866 80.9551 35.724Z" fill="#263238"/>
<path d="M33.6943 72.3056C33.6943 72.3056 33.6782 72.2655 33.6515 72.1854C33.6248 72.0999 33.5847 71.9797 33.5367 71.8275C33.4352 71.5069 33.2909 71.0422 33.1039 70.4465C32.73 69.2471 32.2064 67.5082 31.5734 65.3526C30.3152 61.0413 28.6458 55.0633 27.0377 48.4014C26.2337 45.0705 25.5178 41.8838 24.9035 38.9775C24.3025 36.0686 23.7816 33.4456 23.3889 31.2338C23.1832 30.1306 23.015 29.129 22.8654 28.2475C22.7131 27.3687 22.5902 26.6101 22.4968 25.9903C22.4033 25.3733 22.3285 24.8952 22.2777 24.5613C22.2537 24.4037 22.2376 24.2781 22.2243 24.19C22.2136 24.1072 22.2109 24.0618 22.2109 24.0618C22.2109 24.0618 22.2216 24.1045 22.2376 24.1873C22.2537 24.2755 22.275 24.3983 22.3044 24.5586C22.3605 24.8898 22.4433 25.3706 22.5502 25.9823C22.6517 26.602 22.7826 27.358 22.9428 28.2368C23.0978 29.1156 23.2741 30.1146 23.4851 31.2178C23.8884 33.4269 24.42 36.0473 25.029 38.9508C25.6487 41.8544 26.3699 45.0384 27.174 48.3693C28.782 55.0285 30.4328 61.0093 31.6695 65.3259C32.2892 67.4842 32.7994 69.2284 33.1574 70.4305C33.3337 71.0288 33.4699 71.4936 33.5634 71.8195C33.6061 71.9744 33.6408 72.0946 33.6649 72.1801C33.6862 72.2629 33.6943 72.3056 33.6943 72.3056Z" fill="#263238"/>
<path d="M47.373 72.3056C47.373 72.3056 47.3569 72.2655 47.3302 72.1854C47.3035 72.0999 47.2661 71.9797 47.218 71.8275C47.1192 71.5043 46.9776 71.0395 46.796 70.4438C46.4301 69.2418 45.9172 67.5002 45.2921 65.3419C44.0527 61.0253 42.3779 55.0499 40.7458 48.3934C39.1031 41.7368 37.8316 35.6599 37.0409 31.2392C36.8379 30.1333 36.6643 29.1343 36.5227 28.2528C36.3758 27.374 36.2503 26.6154 36.1621 25.993C36.0713 25.376 36.0018 24.8952 35.9538 24.5613C35.9324 24.401 35.9164 24.2781 35.903 24.19C35.8923 24.1072 35.8896 24.0618 35.8896 24.0618C35.8896 24.0618 35.9003 24.1045 35.9164 24.1873C35.9324 24.2755 35.9538 24.3983 35.9805 24.5586C36.0339 24.8898 36.114 25.3706 36.2155 25.985C36.3117 26.6047 36.4452 27.3607 36.5975 28.2395C36.7444 29.1183 36.9261 30.1173 37.1344 31.2205C37.9491 35.6359 39.2366 41.7048 40.8794 48.3587C42.5088 55.0125 44.1703 60.9906 45.3856 65.3125C46.0027 67.4655 46.4995 69.2124 46.8468 70.4251C47.0177 71.0235 47.1513 71.4909 47.2421 71.8168C47.2848 71.9717 47.3169 72.0919 47.3409 72.1801C47.3623 72.2629 47.3703 72.3056 47.3703 72.3056H47.373Z" fill="#263238"/>
<path d="M61.6586 72.3056C61.6586 72.3056 61.6426 72.2656 61.6132 72.1854C61.5838 72.1 61.5464 71.9797 61.4956 71.8275C61.3941 71.507 61.2472 71.0422 61.0576 70.4492C60.6783 69.2525 60.1467 67.5136 59.4976 65.3633C58.2128 61.0574 56.4819 55.0953 54.8231 48.4415C53.1536 41.7903 51.9088 35.7027 51.1796 31.2659C50.9953 30.1574 50.8324 29.1557 50.7095 28.2715C50.5813 27.3874 50.4664 26.6288 50.397 26.0037C50.3222 25.384 50.2634 24.9032 50.2233 24.5666C50.2046 24.4064 50.1913 24.2835 50.1806 24.1927C50.1726 24.1072 50.1699 24.0645 50.1699 24.0645C50.1699 24.0645 50.1806 24.1072 50.194 24.19C50.2073 24.2808 50.226 24.4037 50.2501 24.5613C50.2955 24.8952 50.3649 25.376 50.4504 25.993C50.5305 26.6154 50.6507 27.374 50.787 28.2555C50.9152 29.137 51.0861 30.1387 51.2758 31.2472C52.0291 35.676 53.2872 41.7556 54.9566 48.4041C56.6128 55.0553 58.3303 61.02 59.5884 65.3312C60.2268 67.4788 60.745 69.2204 61.1057 70.4305C61.2846 71.0288 61.4209 71.4936 61.517 71.8168C61.5624 71.9717 61.5971 72.0919 61.6212 72.1774C61.6426 72.2602 61.6532 72.303 61.6532 72.303L61.6586 72.3056Z" fill="#263238"/>
<path d="M75.944 72.3056C75.944 72.3056 75.9253 72.2656 75.8986 72.1854C75.8692 72.1 75.8291 71.9797 75.7784 71.8275C75.6742 71.507 75.522 71.0448 75.327 70.4518C74.9343 69.2578 74.3867 67.5216 73.7163 65.3766C72.3914 61.0814 70.6017 55.1301 68.9055 48.4815C68.0534 45.1586 67.3135 41.9719 66.7151 39.0604C66.4026 37.6072 66.1542 36.2156 65.9031 34.9174C65.7909 34.2656 65.6841 33.6352 65.5799 33.0315C65.4757 32.4279 65.3769 31.8455 65.3021 31.2899C64.6263 26.8425 64.458 24.0645 64.458 24.0645C64.458 24.0645 64.466 24.1072 64.4767 24.1927C64.4874 24.2835 64.5034 24.4064 64.5221 24.5666C64.5595 24.9032 64.6129 25.3867 64.6797 26.0064C64.7385 26.6314 64.848 27.3927 64.9629 28.2795C65.0697 29.1664 65.23 30.1707 65.4009 31.2793C65.4811 31.8349 65.5826 32.4145 65.6894 33.0182C65.7963 33.6219 65.9058 34.2496 66.018 34.9014C66.2717 36.1969 66.5255 37.5859 66.8407 39.039C67.447 41.9479 68.187 45.1292 69.0417 48.4522C70.7352 55.098 72.5089 61.0494 73.8097 65.3526C74.4695 67.4949 75.0038 69.2338 75.3777 70.4412C75.562 71.0368 75.7036 71.5016 75.8024 71.8248C75.8478 71.9798 75.8852 72.1 75.9093 72.1854C75.9333 72.2682 75.9413 72.311 75.9413 72.311L75.944 72.3056Z" fill="#263238"/>
<path d="M24.347 28.8431C24.347 28.8431 24.948 34.6957 27.2719 38.3498H40.9509C40.9509 38.3498 37.6253 32.4305 37.2246 28.3169L36.9228 26.009H24.1279L24.347 28.8431Z" fill="#455A64"/>
<path d="M35.7085 29.869C35.7085 29.9064 33.7612 29.9385 31.3572 29.9385C28.9531 29.9385 27.0059 29.9064 27.0059 29.869C27.0059 29.8316 28.9531 29.7996 31.3572 29.7996C33.7612 29.7996 35.7085 29.8316 35.7085 29.869Z" fill="#FAFAFA"/>
<path d="M36.144 31.3487C36.144 31.3861 34.1968 31.4182 31.7927 31.4182C29.3887 31.4182 27.4414 31.3861 27.4414 31.3487C27.4414 31.3114 29.3887 31.2793 31.7927 31.2793C34.1968 31.2793 36.144 31.3114 36.144 31.3487Z" fill="#FAFAFA"/>
<path d="M36.5786 32.8285C36.5786 32.8659 34.6313 32.8979 32.2273 32.8979C29.8233 32.8979 27.876 32.8659 27.876 32.8285C27.876 32.7911 29.8233 32.759 32.2273 32.759C34.6313 32.759 36.5786 32.7911 36.5786 32.8285Z" fill="#FAFAFA"/>
<path d="M37.0142 34.3085C37.0142 34.3459 35.0669 34.3779 32.6628 34.3779C30.2588 34.3779 28.3115 34.3459 28.3115 34.3085C28.3115 34.2711 30.2588 34.239 32.6628 34.239C35.0669 34.239 37.0142 34.2711 37.0142 34.3085Z" fill="#FAFAFA"/>
<path d="M71.3098 43.2675C71.3098 43.2675 71.9109 49.12 74.2348 52.7741H87.9138C87.9138 52.7741 84.5882 46.8548 84.1875 42.7412L83.8857 40.4333H71.0908L71.3098 43.2675Z" fill="#263238"/>
<path d="M82.6704 44.0021C82.6704 44.0395 80.7231 44.0715 78.3191 44.0715C75.9151 44.0715 73.9678 44.0395 73.9678 44.0021C73.9678 43.9647 75.9151 43.9326 78.3191 43.9326C80.7231 43.9326 82.6704 43.9647 82.6704 44.0021Z" fill="#E0E0E0"/>
<path d="M83.105 45.4818C83.105 45.5192 81.1577 45.5513 78.7537 45.5513C76.3496 45.5513 74.4023 45.5192 74.4023 45.4818C74.4023 45.4444 76.3496 45.4124 78.7537 45.4124C81.1577 45.4124 83.105 45.4444 83.105 45.4818Z" fill="#E0E0E0"/>
<path d="M83.5405 46.9618C83.5405 46.9992 81.5933 47.0312 79.1892 47.0312C76.7852 47.0312 74.8379 46.9992 74.8379 46.9618C74.8379 46.9244 76.7852 46.8923 79.1892 46.8923C81.5933 46.8923 83.5405 46.9244 83.5405 46.9618Z" fill="#E0E0E0"/>
<path d="M83.9761 48.4415C83.9761 48.4789 82.0288 48.511 79.6248 48.511C77.2207 48.511 75.2734 48.4789 75.2734 48.4415C75.2734 48.4041 77.2207 48.3721 79.6248 48.3721C82.0288 48.3721 83.9761 48.4041 83.9761 48.4415Z" fill="#E0E0E0"/>
<path d="M62.4835 25.1596C62.6251 25.2744 60.8541 27.6304 58.1776 30.0745C55.5091 32.5266 53.0062 34.0839 52.9047 33.9343C52.7872 33.7714 55.079 31.9817 57.7075 29.5616C60.3466 27.1549 62.3286 25.0287 62.4835 25.1596Z" fill="#E8505B"/>
<path d="M65.0774 34.1534C64.9625 34.3136 61.9735 32.3663 58.2953 29.9676C54.6171 27.5636 51.6334 25.6083 51.7349 25.44C51.8311 25.2771 54.9831 26.9706 58.6746 29.3853C62.3688 31.7947 65.1869 34.0011 65.0774 34.1534Z" fill="#E8505B"/>
<path d="M39.2628 33.0689C39.1453 32.9167 41.1139 31.2232 43.6569 29.2866C46.1998 27.35 48.3554 25.9049 48.473 26.0571C48.5905 26.2094 46.6219 27.9029 44.0789 29.8395C41.536 31.7761 39.3803 33.2212 39.2628 33.0689Z" fill="#E8505B"/>
<path d="M50.0682 33.8943C49.9453 34.0519 47.3276 32.2062 44.0047 30.0879C40.6844 27.959 37.9117 26.3563 38.0052 26.18C38.088 26.0144 41.029 27.3553 44.3786 29.503C47.7309 31.6426 50.1831 33.7501 50.0682 33.8943Z" fill="#E8505B"/>
<path d="M50.8224 49.4832C50.8224 49.4618 50.9587 49.4298 51.2258 49.4111C51.4929 49.4004 51.8936 49.4111 52.3957 49.5259C52.8953 49.6435 53.5016 49.8571 54.116 50.2658C54.7357 50.6612 55.3634 51.2568 55.8442 52.0662C56.3224 52.8729 56.6242 53.8906 56.6322 54.9938C56.6376 55.5441 56.5708 56.1183 56.4185 56.6873C56.2636 57.2563 56.0178 57.8226 55.6866 58.3488C55.0215 59.4039 54.0118 60.3067 52.7831 60.8784C51.5597 61.4607 50.0959 61.653 48.6855 61.4019C47.2725 61.1562 45.9663 60.4937 44.9993 59.5348C44.019 58.5812 43.4313 57.3337 43.2203 56.113C42.9986 54.8869 43.1428 53.6742 43.5408 52.6432C43.7358 52.125 44.003 51.6548 44.3182 51.2488C44.6307 50.8401 44.9806 50.4902 45.3519 50.2097C46.0865 49.6274 46.8825 49.3069 47.5903 49.1226C48.3035 48.9409 48.9419 48.9196 49.4521 48.9677C49.5803 48.973 49.7005 48.9917 49.8127 49.0131C49.9249 49.0344 50.0291 49.0451 50.1253 49.0718C50.3149 49.1252 50.4779 49.1626 50.6007 49.2134C50.8491 49.3149 50.9747 49.379 50.9667 49.4004C50.948 49.4672 50.4218 49.2454 49.4388 49.2401C48.9526 49.2348 48.3516 49.2962 47.6918 49.4992C47.0401 49.7076 46.3108 50.0388 45.6564 50.5971C45.3225 50.8668 45.0153 51.1954 44.7455 51.572C44.4731 51.946 44.2434 52.3761 44.0777 52.8488C43.7439 53.7891 43.629 54.8923 43.848 55.9981C44.0591 57.1013 44.596 58.2045 45.4748 59.0486C46.3456 59.898 47.5262 60.4964 48.8057 60.7181C50.0852 60.9451 51.3887 60.7795 52.4973 60.2613C53.6111 59.7538 54.5353 58.9471 55.147 58.0069C55.4516 57.5367 55.6786 57.0346 55.8282 56.5244C55.9751 56.0115 56.0472 55.496 56.0552 54.9938C56.0713 53.9894 55.8255 53.0572 55.4168 52.3093C55.0081 51.5613 54.4525 50.987 53.8969 50.5864C53.344 50.175 52.7884 49.94 52.3263 49.7877C51.3887 49.4992 50.8224 49.5473 50.8224 49.4832Z" fill="#E8505B"/>
<path d="M12.8244 46.6012C12.6774 46.481 14.3603 44.1891 16.7269 41.6061C19.0508 39.0605 21.1824 37.0972 21.3534 37.2735C21.4896 37.4124 19.5877 39.5039 17.2398 42.0735C14.8892 44.6405 12.9766 46.724 12.8244 46.5985V46.6012Z" fill="#E8505B"/>
<path d="M23.6557 45.5085C23.5542 45.6715 20.8216 44.1649 17.5521 42.1455C14.2826 40.1235 11.7129 38.3525 11.8144 38.1896C11.9159 38.0266 14.6192 39.5331 17.8887 41.5525C21.1582 43.5746 23.7572 45.3456 23.6557 45.5085Z" fill="#E8505B"/>
<path d="M49.641 51.6015L50.6854 53.1C50.7709 53.2256 50.9152 53.2977 51.0648 53.2977L52.8918 53.287C53.2738 53.287 53.4928 53.7197 53.2604 54.0242L52.1573 55.48C52.0664 55.6002 52.0397 55.7578 52.0878 55.9021L52.6621 57.6357C52.7823 57.9989 52.4351 58.3408 52.0745 58.2153L50.3489 57.617C50.2046 57.5662 50.047 57.5902 49.9242 57.6811L48.4524 58.7629C48.1452 58.9899 47.7124 58.7629 47.7205 58.3836L47.7552 56.5565C47.7579 56.4042 47.6857 56.2627 47.5629 56.1745L46.0777 55.1087C45.7678 54.887 45.848 54.4062 46.2113 54.294L47.9582 53.7625C48.1024 53.7197 48.2173 53.6049 48.2627 53.4606L48.8156 51.719C48.9305 51.3557 49.414 51.2836 49.633 51.5962L49.641 51.6015Z" fill="#E8505B"/>
<path d="M78.0828 25.2237C78.211 25.3679 75.8844 27.6598 72.8847 30.3443C69.885 33.0288 67.3501 35.0883 67.2219 34.9467C67.0936 34.8025 69.4202 32.5106 72.4199 29.8261C75.4196 27.1416 77.9546 25.0821 78.0828 25.2237Z" fill="#E8505B"/>
<path d="M79.8302 33.4751C79.7447 33.6461 76.4833 32.1849 72.5486 30.2136C68.6114 28.2396 65.4914 26.5007 65.5769 26.3298C65.6624 26.1588 68.9239 27.6199 72.8612 29.5939C76.7958 31.5679 79.9184 33.3068 79.8329 33.4778L79.8302 33.4751Z" fill="#E8505B"/>
<path opacity="0.2" d="M49.641 51.6015L50.6854 53.1C50.7709 53.2256 50.9152 53.2977 51.0648 53.2977L52.8918 53.287C53.2738 53.287 53.4928 53.7197 53.2604 54.0242L52.1573 55.48C52.0664 55.6002 52.0397 55.7578 52.0878 55.9021L52.6621 57.6357C52.7823 57.9989 52.4351 58.3408 52.0745 58.2153L50.3489 57.617C50.2046 57.5662 50.047 57.5902 49.9242 57.6811L48.4524 58.7629C48.1452 58.9899 47.7124 58.7629 47.7205 58.3836L47.7552 56.5565C47.7579 56.4042 47.6857 56.2627 47.5629 56.1745L46.0777 55.1087C45.7678 54.887 45.848 54.4062 46.2113 54.294L47.9582 53.7625C48.1024 53.7197 48.2173 53.6049 48.2627 53.4606L48.8156 51.719C48.9305 51.3557 49.414 51.2836 49.633 51.5962L49.641 51.6015Z" fill="white"/>
</svg>
