<svg width="98" height="95" viewBox="0 0 98 95" fill="none" xmlns="http://www.w3.org/2000/svg">
<path d="M57.9182 63.8556L58.7153 84.3551L68.2383 86.6542L68.0403 89.2567L50.7575 92.7255L40.9386 87.1947L42.3018 58.9968L57.9182 63.8556Z" fill="#E0E0E0"/>
<path d="M0 12.43L4.47 86.05L97.68 70.8L92.25 0L0 12.43Z" fill="white"/>
<path d="M5 14.87L89.38 3.19995L94.1 63.24L10.06 76.39L5 14.87Z" fill="#455A64"/>
<path d="M13.9995 22.1399L11.7695 25.6099L14.0195 28.4399" stroke="#34B77E" stroke-width="0.76" stroke-linecap="round" stroke-linejoin="round"/>
<path d="M19.6396 21.3201L21.8996 24.1501L19.6696 27.6201" stroke="#34B77E" stroke-width="0.76" stroke-linecap="round" stroke-linejoin="round"/>
<path d="M15.9004 28.7101L17.6504 21.6101" stroke="#34B77E" stroke-width="0.76" stroke-linecap="round" stroke-linejoin="round"/>
<path d="M24.9399 27.4599C24.9399 27.9499 24.6599 28.3899 24.3099 28.4399C23.9599 28.4899 23.6699 28.1299 23.6699 27.6399C23.6699 27.1499 23.9499 26.7099 24.2999 26.6599C24.6499 26.6099 24.9399 26.9699 24.9399 27.4599Z" fill="#34B77E"/>
<path d="M27.56 27.08C27.56 27.57 27.28 28.01 26.93 28.06C26.58 28.11 26.29 27.75 26.29 27.26C26.29 26.77 26.57 26.33 26.92 26.28C27.27 26.23 27.56 26.59 27.56 27.08Z" fill="#34B77E"/>
<path d="M30.1802 26.6999C30.1802 27.1899 29.9002 27.6299 29.5502 27.6799C29.2002 27.7299 28.9202 27.3699 28.9102 26.8799C28.9102 26.3899 29.1902 25.9499 29.5402 25.8999C29.8902 25.8499 30.1802 26.2099 30.1802 26.6999Z" fill="#34B77E"/>
<path d="M11.7998 34.7199L86.6698 23.8899" stroke="#34B77E" stroke-width="0.69" stroke-linecap="round" stroke-linejoin="round"/>
<path d="M11.8203 38.6299L56.8003 32.1299" stroke="#00FCFF" stroke-width="0.78" stroke-linecap="round" stroke-linejoin="round"/>
<path d="M60.2998 31.6201L86.6898 27.8101" stroke="#00FCFF" stroke-width="0.77" stroke-linecap="round" stroke-linejoin="round"/>
<path d="M86.6997 32.1001L49.6797 37.4501" stroke="#00FCFF" stroke-width="0.77" stroke-linecap="round" stroke-linejoin="round"/>
<path d="M63.0303 15.0501L86.8003 11.6101" stroke="#E1F0FF" stroke-width="0.69" stroke-linecap="round" stroke-linejoin="round"/>
<path d="M60.4297 19.34L86.8197 15.52" stroke="#E1F0FF" stroke-width="0.77" stroke-linecap="round" stroke-linejoin="round"/>
<path d="M86.8296 19.8101L49.8096 25.1601" stroke="#E1F0FF" stroke-width="0.77" stroke-linecap="round" stroke-linejoin="round"/>
<path d="M46.6698 37.8799L42.2598 38.5199" stroke="#00FCFF" stroke-width="0.78" stroke-linecap="round" stroke-linejoin="round"/>
<path d="M38.7596 39.03L34.3496 39.67" stroke="#00FCFF" stroke-width="0.78" stroke-linecap="round" stroke-linejoin="round"/>
<path d="M30.8497 40.1699L26.4297 40.8099" stroke="#00FCFF" stroke-width="0.78" stroke-linecap="round" stroke-linejoin="round"/>
<path d="M22.9295 41.3201L18.5195 41.9501" stroke="#00FCFF" stroke-width="0.78" stroke-linecap="round" stroke-linejoin="round"/>
<path d="M86.7199 37.3101L17.1299 47.3701" stroke="#FF4F92" stroke-width="0.69" stroke-linecap="round" stroke-linejoin="round"/>
<path d="M13.4301 42.6899L11.8301 42.9199" stroke="#00FCFF" stroke-width="0.78" stroke-linecap="round" stroke-linejoin="round"/>
<path d="M13.4496 47.8999L11.8496 48.1299" stroke="#00FCFF" stroke-width="0.78" stroke-linecap="round" stroke-linejoin="round"/>
<path d="M13.4699 53.1201L11.8799 53.3501" stroke="#00FCFF" stroke-width="0.78" stroke-linecap="round" stroke-linejoin="round"/>
<path d="M13.4904 58.3301L11.9004 58.5601" stroke="#00FCFF" stroke-width="0.78" stroke-linecap="round" stroke-linejoin="round"/>
<path d="M18.4004 52.3999L37.5404 49.6399" stroke="#FF4F92" stroke-width="0.9" stroke-linecap="round" stroke-linejoin="round"/>
<path d="M18.4199 57.7501L43.7999 54.0801" stroke="#FF4F92" stroke-width="0.9" stroke-linecap="round" stroke-linejoin="round"/>
<path d="M18.4404 63.0901L52.8704 58.1101" stroke="#E1F0FF" stroke-width="0.77" stroke-linecap="round" stroke-linejoin="round"/>
<path d="M39.5498 49.35L86.7398 42.52" stroke="#FF8B00" stroke-width="0.78" stroke-linecap="round" stroke-linejoin="round"/>
<path d="M45.6201 53.8101L86.7701 47.8601" stroke="#FF8B00" stroke-width="0.78" stroke-linecap="round" stroke-linejoin="round"/>
<path d="M54.9902 57.7999L86.7902 53.2" stroke="#E1F0FF" stroke-width="0.77" stroke-linecap="round" stroke-linejoin="round"/>
</svg>
