<svg xmlns="http://www.w3.org/2000/svg" width="15" height="20" viewBox="0 0 15 20" fill="none">
<path d="M8.04679 19.1895C8.73672 18.5339 9.20528 17.7199 9.45617 16.8764H8.45263C8.23495 17.5026 7.85863 18.0624 7.35686 18.5339L7.2019 18.6886L7.01374 18.5007C6.51197 18.0329 6.13564 17.4694 5.91796 16.8433H4.91443C5.16531 17.7199 5.66708 18.5302 6.32381 19.1563L7.2019 19.9998L8.04679 19.1895Z" fill="#653EE2"/>
<path d="M14.4 12.188L12.4888 11.002C12.3634 12.5342 11.987 14.0664 11.3303 15.5029L14.4 16.2543V12.188Z" fill="#653EE2"/>
<path d="M0 12.1877V16.2503L3.06964 15.499C2.41291 14.0294 2.03659 12.5303 1.91115 10.998L0 12.1877Z" fill="#653EE2"/>
<path d="M7.19818 0C6.54145 0.593002 5.94745 1.21915 5.41248 1.87477H8.9802C8.4526 1.21915 7.8586 0.593002 7.19818 0Z" fill="#653EE2"/>
<path d="M4.13226 16.2208H10.2346C10.3896 15.9409 10.5483 15.6278 10.7032 15.3147C11.3931 13.8157 11.799 12.2208 11.8617 10.5965V9.97036C11.8617 7.59467 11.205 5.21898 9.85832 3.09375H4.53811C3.06601 5.40683 2.40928 7.99983 2.53472 10.5928C2.62696 12.1877 3.00329 13.812 3.69322 15.3111C3.81866 15.6241 3.97731 15.9372 4.13226 16.2208ZM7.2019 5.62414C8.57807 5.62414 9.70705 6.74753 9.70705 8.12506C9.70705 9.50259 8.58176 10.626 7.2019 10.626C5.82204 10.626 4.69675 9.50259 4.69675 8.12506C4.69675 6.74753 5.82204 5.62414 7.2019 5.62414Z" fill="#653EE2"/>
<path d="M7.19812 9.3737C7.88805 9.3737 8.44885 8.81017 8.44885 8.12508C8.44885 7.43632 7.88436 6.87646 7.19812 6.87646C6.50819 6.87646 5.94739 7.44 5.94739 8.12508C5.94739 8.81017 6.51188 9.3737 7.19812 9.3737Z" fill="#653EE2"/>
</svg>