<svg width="86" height="98" viewBox="0 0 86 98" fill="none" xmlns="http://www.w3.org/2000/svg">
<path d="M55.0485 0H29.8433C28.1559 0 26.7881 1.36785 26.7881 3.05518V9.92935C26.7881 11.6167 28.1559 12.9845 29.8433 12.9845H55.0485C56.7359 12.9845 58.1037 11.6167 58.1037 9.92935V3.05518C58.1037 1.36785 56.7359 0 55.0485 0Z" fill="#338AC2"/>
<path d="M25 92L42 61" stroke="#338AC2" stroke-width="1.14569" stroke-linecap="round" stroke-linejoin="round"/>
<path d="M42 97V61" stroke="#338AC2" stroke-width="1.14569" stroke-linecap="round" stroke-linejoin="round"/>
<path d="M59 92L42 63" stroke="#338AC2" stroke-width="1.14569" stroke-linecap="round" stroke-linejoin="round"/>
<path d="M54.5645 64.2583H30.123V71.1325H54.5645V64.2583Z" fill="black"/>
<path d="M83.1333 3H2L0 72H86L83.1333 3Z" fill="white"/>
<path d="M8.82031 46.0262C9.523 49.0928 10.81 52.1557 13.1969 54.2103C15.5799 56.2611 19.2461 57.044 21.9461 55.4362C23.5692 54.4662 24.6462 52.8087 25.6009 51.178C26.5557 49.5473 27.4951 47.8402 28.9693 46.6525C30.4434 45.4648 32.6278 44.9302 34.2394 45.9193C37.3443 47.8173 36.0382 53.2975 38.9979 55.4171C40.6668 56.6124 43.0575 56.1541 44.7684 55.0199C46.4793 53.8857 47.7319 52.2015 49.1984 50.7656C50.6649 49.3296 52.5438 48.077 54.5946 48.1954" stroke="#338AC2" stroke-width="0.381898" stroke-miterlimit="10"/>
<path d="M5.83793 40.252C5.71572 40.9546 5.96014 62.2722 5.96014 62.2722L57.5393 61.4473" stroke="#338AC2" stroke-width="0.381898" stroke-miterlimit="10"/>
<path d="M18.8591 57.7123C19.5973 57.7123 20.1957 57.1139 20.1957 56.3757C20.1957 55.6375 19.5973 55.0391 18.8591 55.0391C18.1209 55.0391 17.5225 55.6375 17.5225 56.3757C17.5225 57.1139 18.1209 57.7123 18.8591 57.7123Z" fill="#F15A29"/>
<path d="M31.0818 47.0192C31.82 47.0192 32.4184 46.4208 32.4184 45.6826C32.4184 44.9444 31.82 44.3459 31.0818 44.3459C30.3436 44.3459 29.7451 44.9444 29.7451 45.6826C29.7451 46.4208 30.3436 47.0192 31.0818 47.0192Z" fill="#F7941D"/>
<path d="M47.8845 53.8935C48.6227 53.8935 49.2211 53.2951 49.2211 52.5569C49.2211 51.8187 48.6227 51.2202 47.8845 51.2202C47.1463 51.2202 46.5479 51.8187 46.5479 52.5569C46.5479 53.2951 47.1463 53.8935 47.8845 53.8935Z" fill="#FBB040"/>
<path d="M68.5406 22.2988C68.5406 24.6513 67.9487 26.8663 66.9099 28.8025C64.8973 32.5413 61.212 35.2413 56.8507 35.8944C56.8393 35.8944 56.8316 35.8944 56.8202 35.8944C56.1595 35.9898 55.4797 36.0433 54.7923 36.0433C51.4163 36.0433 48.3229 34.825 45.9322 32.8048C45.9322 32.8048 45.9297 32.8035 45.9246 32.801C42.9382 30.2766 41.0439 26.5073 41.0439 22.295C41.0439 16.3297 44.8438 11.2543 50.1522 9.35244C50.1598 9.35244 50.1637 9.35244 50.1713 9.3448C51.6187 8.82542 53.173 8.54663 54.7923 8.54663C60.2381 8.54663 64.9469 11.7164 67.1734 16.3068C68.048 18.117 68.5406 20.1487 68.5406 22.295V22.2988Z" fill="#F7941D"/>
<path d="M54.3073 22.8643C54.3073 22.8643 47.689 30.8192 45.9246 32.8051C42.9382 30.2807 41.0439 26.5114 41.0439 22.299C41.0439 16.3338 44.8438 11.2584 50.1522 9.35652C50.1598 9.35652 50.1637 9.35651 50.1713 9.34888L54.3073 22.8643Z" fill="#0E7E90"/>
<path d="M67.1745 16.3107C64.6273 17.5939 54.3237 22.9825 54.3237 22.9825L50.1113 9.40599C50.1113 9.40599 50.1381 9.37162 50.1533 9.35634C51.6045 8.83314 53.1665 8.55054 54.7934 8.55054C60.2393 8.55054 64.9481 11.7203 67.1745 16.3107Z" fill="#FBB040"/>
<path d="M66.9107 28.8027C64.8981 32.5415 61.2128 35.2415 56.8515 35.8946C56.8401 35.8946 56.8324 35.8946 56.821 35.8946C55.9846 30.5595 54.499 23.0552 54.499 23.0552L66.9107 28.7989V28.8027Z" fill="#EF4136"/>
<path d="M56.8521 35.8946C56.1799 35.9939 55.4925 36.0474 54.7936 36.0474C51.4176 36.0474 48.3243 34.8291 45.9336 32.8089L54.3506 22.9827L56.8521 35.8946Z" fill="#F15A29"/>
<path d="M45.1084 33.9623L54.2549 22.8567" stroke="white" stroke-width="0.381898" stroke-linecap="round" stroke-linejoin="round"/>
<path d="M57.0431 37.109L54.3545 23.0017L67.9424 29.3794" stroke="white" stroke-width="0.381898" stroke-linecap="round" stroke-linejoin="round"/>
<path d="M54.3545 23.0016L67.8737 15.99" stroke="white" stroke-width="0.381898" stroke-linecap="round" stroke-linejoin="round"/>
<path d="M50.0488 8.43237L54.2955 22.9827" stroke="white" stroke-width="0.381898" stroke-linecap="round" stroke-linejoin="round"/>
<path d="M67.6931 34.6611C66.4825 34.9705 65.2299 35.1041 63.9658 35.0889C64.195 36.3262 64.4279 37.5636 64.6647 38.8047C64.68 38.7818 64.6952 38.7589 64.7105 38.736" stroke="#338AC2" stroke-width="0.381898" stroke-linecap="round" stroke-linejoin="round"/>
<path d="M64.2188 35.2989C65.6776 37.7812 68.897 39.2935 71.956 38.9384C75.015 38.5832 77.715 36.3797 78.4445 33.6453" stroke="#338AC2" stroke-width="0.381898" stroke-linecap="round" stroke-linejoin="round"/>
<path d="M70.501 31.8274C71.1464 31.2201 72.1202 31.0788 73.0177 31.1399C73.9113 31.2011 74.7935 31.4302 75.691 31.4302C76.577 31.4302 77.4477 31.2049 78.3299 31.0979C79.2121 30.991 80.1554 31.0139 80.9153 31.4607" stroke="#557182" stroke-width="0.381898" stroke-linecap="round" stroke-linejoin="round"/>
<path d="M70.3262 30.0744C71.1663 29.4099 72.3273 29.2801 73.4081 29.3488C74.4889 29.4176 75.5544 29.6582 76.6389 29.6276C78.2429 29.5818 79.9424 28.9555 81.3898 29.6352" stroke="#557182" stroke-width="0.381898" stroke-linecap="round" stroke-linejoin="round"/>
<path d="M70.1807 28.0885C70.5626 28.4017 71.124 28.394 71.6051 28.268C72.0863 28.142 72.5408 27.9205 73.0373 27.8556C74.0073 27.7257 74.9506 28.2146 75.9282 28.2871C76.7684 28.3482 77.5933 28.0962 78.422 27.951C79.2507 27.8021 80.1635 27.7715 80.8738 28.2145" stroke="#557182" stroke-width="0.381898" stroke-linecap="round" stroke-linejoin="round"/>
<path d="M70 26.8627C71.3481 26.076 73.0475 26.3816 74.6171 26.4388C75.3466 26.4656 76.0722 26.435 76.8016 26.4006C78.3521 26.3319 79.9064 26.267 81.4569 26.1982" stroke="#557182" stroke-width="0.381898" stroke-linecap="round" stroke-linejoin="round"/>
<path d="M60 48.6308C63.777 48.3368 67.5501 47.7945 71.3462 47.7525C74.7718 47.7716 78.2776 48.4628 81.5772 47.657" stroke="#557182" stroke-width="0.381898" stroke-linecap="round" stroke-linejoin="round"/>
<path d="M60 50.9909C66.7443 49.1273 74.6878 51.2048 81.5772 49.8032" stroke="#557182" stroke-width="0.381898" stroke-linecap="round" stroke-linejoin="round"/>
<path d="M60 52.6444C62.6045 51.9303 65.2129 52.6024 68.0008 52.591C70.38 52.5795 72.6943 52.0907 75.0659 52.1785C77.1587 52.2625 79.6105 52.8239 81.5772 52.2434" stroke="#557182" stroke-width="0.381898" stroke-linecap="round" stroke-linejoin="round"/>
<path d="M60 54.7756C64.1245 52.8661 68.4972 54.4357 72.9731 54.2906C75.7227 54.1989 78.9612 53.4848 81.5772 54.1378" stroke="#557182" stroke-width="0.381898" stroke-linecap="round" stroke-linejoin="round"/>
<path d="M60 56.4139C61.6918 56.9638 64.4797 56.7919 66.5992 56.2573C71.2278 55.1956 76.8646 57.2617 81.5772 56.5513" stroke="#557182" stroke-width="0.381898" stroke-linecap="round" stroke-linejoin="round"/>
<path d="M60 46.2897C60.8631 46.5493 62.4174 46.5073 63.4104 46.3699C64.4033 46.2362 65.3542 46.0223 66.3815 45.9689C67.7716 45.8963 69.1541 46.1293 70.5557 46.1293C72.2742 46.1293 73.9125 45.7779 75.6273 45.7206C77.2465 45.6672 80.2826 45.8925 81.5811 46.3431" stroke="#557182" stroke-width="0.381898" stroke-linecap="round" stroke-linejoin="round"/>
<path d="M33.7807 13.8781C29.0986 13.5841 24.428 13.0418 19.7269 12.9998C15.4802 13.0189 11.138 13.7101 7.04785 12.9043" stroke="#557182" stroke-width="0.381898" stroke-linecap="round" stroke-linejoin="round"/>
<path d="M33.7807 16.2382C25.421 14.3746 15.5833 16.4521 7.04785 15.0505" stroke="#557182" stroke-width="0.381898" stroke-linecap="round" stroke-linejoin="round"/>
<path d="M33.7807 17.8918C30.5537 17.1776 27.3228 17.8497 23.8666 17.8383C20.9184 17.8268 18.0542 17.338 15.1135 17.4258C12.5205 17.5099 9.48436 18.0712 7.04785 17.4908" stroke="#557182" stroke-width="0.381898" stroke-linecap="round" stroke-linejoin="round"/>
<path d="M33.7807 20.0229C28.6709 18.1134 23.2556 19.683 17.7066 19.5379C14.3039 19.4462 10.2902 18.7321 7.04785 19.3851" stroke="#557182" stroke-width="0.381898" stroke-linecap="round" stroke-linejoin="round"/>
<path d="M33.7807 21.6612C31.6841 22.2111 28.2279 22.0392 25.6081 21.5046C19.8758 20.4429 12.8909 22.509 7.04785 21.7986" stroke="#557182" stroke-width="0.381898" stroke-linecap="round" stroke-linejoin="round"/>
<path d="M33.7807 11.5372C32.7076 11.7969 30.7866 11.7549 29.5569 11.6174C28.3272 11.4838 27.151 11.2699 25.8792 11.2164C24.1569 11.1439 22.4422 11.3768 20.7083 11.3768C18.5774 11.3768 16.5495 11.0255 14.4261 10.9682C12.4212 10.9147 8.65946 11.14 7.04785 11.5907" stroke="#557182" stroke-width="0.381898" stroke-linecap="round" stroke-linejoin="round"/>
</svg>
