<svg width="16" height="16" viewBox="0 0 16 16" fill="none" xmlns="http://www.w3.org/2000/svg">
<path d="M10.4167 5.54942C9.30146 5.54942 8.36012 6.29853 8.06419 7.31943H0.750032V8.68092H8.06419C8.36011 9.70166 9.30146 10.4509 10.4167 10.4509C11.5319 10.4509 12.4732 9.70182 12.7691 8.68092H15.25V7.31943H12.769C12.4733 6.2987 11.5317 5.54942 10.4168 5.54942H10.4167ZM10.4167 9.08931C9.81594 9.08931 9.32739 8.60079 9.32739 8.00005C9.32739 7.3993 9.81591 6.91078 10.4167 6.91078C11.0174 6.91078 11.5059 7.3993 11.5059 8.00005C11.5058 8.60076 11.0171 9.08931 10.4167 9.08931ZM5.58334 10.9953C4.46815 10.9953 3.5268 11.7444 3.23087 12.7653H0.75V14.1268H3.23087C3.5268 15.1475 4.46815 15.8968 5.58334 15.8968C6.69854 15.8968 7.63988 15.1477 7.93581 14.1268H15.25V12.7653H7.93581C7.64001 11.7446 6.69841 10.9953 5.58347 10.9953H5.58334ZM5.58334 14.5352C4.98263 14.5352 4.49408 14.0467 4.49408 13.4459C4.49408 12.8452 4.9826 12.3567 5.58334 12.3567C6.18409 12.3567 6.67261 12.8452 6.67261 13.4459C6.67261 14.0467 6.18383 14.5352 5.58334 14.5352ZM7.93569 1.87328C7.63976 0.852548 6.69841 0.103271 5.58322 0.103271C4.46802 0.103271 3.52667 0.852386 3.23074 1.87328H0.75V3.23478H3.23087C3.5268 4.25551 4.46815 5.00479 5.58334 5.00479C6.69854 5.00479 7.63988 4.25567 7.93581 3.23478H15.25V1.87328H7.93569ZM5.58334 3.64329C4.98263 3.64329 4.49408 3.15477 4.49408 2.55403C4.49408 1.95329 4.9826 1.46477 5.58334 1.46477C6.18409 1.46477 6.67261 1.95329 6.67261 2.55403C6.67261 3.15477 6.18383 3.64329 5.58334 3.64329Z" fill="#A386FE"/>
</svg>
