<svg width="24" height="26" viewBox="0 0 24 26" fill="none" xmlns="http://www.w3.org/2000/svg">
<path d="M14.459 17.1101C12.748 17.1101 11.0582 17.1101 9.33659 17.1101C9.33659 17.2051 9.33659 17.3107 9.33659 17.4058C9.33659 19.8984 9.33659 22.4015 9.33659 24.8941C9.33659 25.5278 8.98806 25.908 8.35435 25.908C6.18919 25.9186 4.03459 25.9186 1.86943 25.908C0.78157 25.8975 0 25.0736 0 23.9963C0 19.8984 0 15.811 0 11.713C0 10.8469 0.348538 10.1287 0.971682 9.53729C4.05571 6.56944 7.13975 3.60158 10.2343 0.644291C11.1427 -0.221773 12.6319 -0.211211 13.5402 0.654853C16.6242 3.60158 19.6977 6.54831 22.7817 9.48448C23.4682 10.1393 23.7956 10.8998 23.7851 11.8503C23.7745 15.906 23.7851 19.9512 23.7745 24.0069C23.7745 24.9363 23.2042 25.6757 22.3064 25.8763C22.1269 25.9186 21.9368 25.9186 21.7572 25.9186C19.6871 25.9186 17.6276 25.9186 15.5575 25.9186C14.7865 25.9186 14.4485 25.5806 14.4485 24.8096C14.4485 22.3593 14.4485 19.9089 14.4485 17.4586C14.459 17.353 14.459 17.2474 14.459 17.1101ZM7.44604 24.0386C7.44604 23.9013 7.44604 23.8062 7.44604 23.7006C7.44604 21.2397 7.44604 18.7788 7.44604 16.3179C7.44604 15.5786 7.79458 15.2301 8.54446 15.2195C9.20985 15.2195 9.87524 15.2195 10.5512 15.2195C12.1143 15.2195 13.6775 15.2195 15.2406 15.2195C15.9905 15.2195 16.339 15.5786 16.339 16.3179C16.339 18.7894 16.339 21.2608 16.339 23.7217C16.339 23.8273 16.339 23.9224 16.339 24.028C18.2085 24.028 20.0357 24.028 21.8734 24.028C21.8734 23.9118 21.8734 23.8168 21.8734 23.7217C21.8734 19.7505 21.8734 15.7793 21.8734 11.8081C21.8734 11.4173 21.7361 11.111 21.4615 10.8469C20.944 10.3611 20.437 9.86471 19.9195 9.3683C17.3952 6.96022 14.8815 4.54158 12.3573 2.1335C12.0298 1.81665 11.7447 1.80608 11.4384 2.09125C8.37547 5.01686 5.31256 7.94247 2.26022 10.8681C2.00673 11.111 1.87999 11.3962 1.87999 11.7553C1.89055 15.7582 1.87999 19.7505 1.87999 23.7534C1.87999 23.8485 1.89055 23.933 1.89055 24.0386C3.75999 24.0386 5.57661 24.0386 7.44604 24.0386Z" fill="#653EE2"/>
</svg>
