<svg xmlns="http://www.w3.org/2000/svg" width="21" height="20" viewBox="0 0 21 20" fill="none">
<path fill-rule="evenodd" clip-rule="evenodd" d="M20.9572 9.63864V18.8147C20.9572 19.4669 20.424 20 19.7719 20H10.3219C5.22729 20 0.957642 15.0143 0.957642 10.0004C0.957642 4.47786 5.43514 0 10.9576 0C16.1226 0 20.958 4.3375 20.958 9.63857L20.9572 9.63864ZM10.2226 12.7383H11.6916V11.3356C11.6916 9.44907 14.313 10.2006 14.313 7.39564C14.313 3.29314 7.60118 3.261 7.60118 7.77957H9.12071C9.15503 5.25321 12.7939 5.18332 12.7939 7.41225C12.7939 9.56614 10.2228 8.71443 10.2228 11.319V12.7383H10.2226ZM10.0221 16.0606H11.9423V14.1073H10.0221V16.0606Z" fill="#653EE2"/>
</svg>