<svg width="25" height="25" viewBox="0 0 25 25" fill="none" xmlns="http://www.w3.org/2000/svg">
<path d="M0.00209236 12.1542C-0.121004 18.6619 5.44301 24.5952 12.6647 24.308C18.9427 24.07 24.4657 18.785 24.3098 11.8505C24.1538 5.34277 18.7786 -0.0489044 12.041 0.000334603C5.25426 0.0495736 -0.096384 5.69565 0.00209236 12.1542ZM22.2007 12.228C22.1679 17.7674 17.761 22.1661 12.2872 22.2153C6.63295 22.2646 2.11937 17.6033 2.10296 12.1706C2.08655 6.52451 6.63295 2.12582 12.0985 2.12582C17.6215 2.10941 22.2007 6.70505 22.2007 12.228Z" fill="#653EE2"/>
<path d="M10.7362 14.6326C10.7362 15.5599 10.7362 16.4872 10.7362 17.4146C10.7362 18.1778 11.3681 18.8015 12.1313 18.8097C12.8945 18.8179 13.5428 18.186 13.551 17.431C13.551 15.5599 13.551 13.6888 13.551 11.8177C13.551 11.0545 12.9109 10.439 12.1395 10.439C11.3681 10.439 10.7362 11.0627 10.7362 11.8259C10.7362 12.7615 10.7362 13.697 10.7362 14.6326Z" fill="#653EE2"/>
<path d="M12.1396 8.9044C13.0834 8.9044 13.8384 8.1494 13.8384 7.21386C13.8384 6.28652 13.0834 5.53152 12.156 5.53152C11.2123 5.53152 10.4573 6.28652 10.4573 7.22206C10.4573 8.1494 11.2123 8.9044 12.1396 8.9044Z" fill="#653EE2"/>
</svg>
