<svg width="17" height="19" viewBox="0 0 17 19" fill="none" xmlns="http://www.w3.org/2000/svg">
<path d="M0.55669 14.8281V15.6952C0.55669 16.0105 0.65524 16.306 0.852199 16.5227C1.44336 17.2125 2.92119 18.3552 6.23148 18.3552C9.52211 18.3552 10.7832 17.2123 11.2561 16.5424C11.3941 16.3256 11.4728 16.0694 11.4728 15.7936V14.9464C10.7438 15.7148 9.24622 16.6409 6.23149 16.6409C2.99998 16.6607 1.34481 15.5966 0.556641 14.8281H0.55669Z" fill="#1F1F1F"/>
<path d="M11.4728 12.444C10.7438 13.2125 9.24622 14.1386 6.23149 14.1386C2.99998 14.1386 1.34481 13.0746 0.556641 12.3062V13.311C0.556641 13.6263 0.655191 13.9218 0.85215 14.1386C1.44332 14.8283 2.92114 15.9711 6.23144 15.9711C9.52206 15.9711 10.7831 14.8282 11.256 14.1583C11.394 13.9415 11.4728 13.6853 11.4728 13.4095L11.4728 12.444Z" fill="#1F1F1F"/>
<path d="M11.414 6.41442C14.2317 6.31587 16.5371 5.03515 16.5371 3.53751C16.5568 1.96127 14.0543 0.641113 11.0987 0.641113C8.14315 0.641113 5.64062 1.9613 5.64062 3.53765C5.64062 3.89226 5.77862 4.24701 6.01504 4.56231C8.37967 4.56231 10.3894 5.29134 11.414 6.41442H11.414Z" fill="#1F1F1F"/>
<path d="M6.01474 5.25174C3.05909 5.25174 0.556641 6.57194 0.556641 8.14828C0.556641 9.70486 3.05913 11.0448 6.01474 11.0448C8.97036 11.0448 11.4728 9.705 11.4728 8.12861C11.4728 6.5719 8.9705 5.25171 6.01474 5.25171V5.25174Z" fill="#1F1F1F"/>
<path d="M12.1621 9.50806V10.8873V11.0646V11.3405C14.8223 11.1632 15.9256 10.1582 16.3394 9.54736C16.4774 9.3306 16.5562 9.07442 16.5562 8.79856V7.83301C15.8863 8.52284 14.6055 9.35042 12.1621 9.50805L12.1621 9.50806Z" fill="#1F1F1F"/>
<path d="M11.4728 9.80347C10.468 10.9463 8.41864 11.7148 6.01474 11.7148C3.61081 11.7148 1.58127 10.9463 0.556641 9.80347V10.7887C0.556641 11.104 0.655191 11.3995 0.85215 11.6163C1.44332 12.306 2.92114 13.4487 6.23144 13.4487C9.52206 13.4487 10.7831 12.3058 11.256 11.6359C11.394 11.4191 11.4728 11.163 11.4728 10.8871L11.4728 9.80347Z" fill="#1F1F1F"/>
<path d="M11.8867 7.06465C12.064 7.39961 12.1429 7.75438 12.1429 8.12862C12.1429 8.26661 12.1233 8.40447 12.1035 8.54248H12.1429V8.81833C14.8031 8.64103 15.9064 7.636 16.3202 7.0252C16.4582 6.80845 16.537 6.55226 16.537 6.2764V5.19263C15.6503 6.21743 13.9359 6.92679 11.8868 7.06465L11.8867 7.06465Z" fill="#1F1F1F"/>
<path d="M12.1621 12.03V13.4093V13.4487V13.7246C14.8223 13.5473 15.9256 12.5423 16.3394 11.9315C16.4774 11.7147 16.5562 11.4585 16.5562 11.1827V10.3354C15.8863 11.0645 14.6055 11.8724 12.1621 12.03L12.1621 12.03Z" fill="#1F1F1F"/>
</svg>
