<svg width="22" height="21" viewBox="0 0 22 21" fill="none" xmlns="http://www.w3.org/2000/svg">
<path d="M10.5385 20.1377C10.51 20.1163 10.4886 20.102 10.4672 20.0806C9.13278 18.6606 7.63427 17.4261 6.20712 16.1131C4.81565 14.8287 3.45986 13.5229 2.27532 12.0458C1.42617 10.9825 0.705458 9.84796 0.312992 8.54211C-0.122289 7.11496 -0.129425 5.69495 0.455707 4.31061C1.2121 2.5124 2.54648 1.34928 4.45173 0.935402C6.78512 0.428764 8.76886 1.14234 10.4172 2.84065C10.4529 2.87633 10.4886 2.91914 10.5599 2.99763C10.5885 2.94768 10.6027 2.90487 10.6313 2.86919C12.4652 0.971081 14.663 0.278913 17.1962 1.09952C19.2513 1.76315 20.4929 3.25452 20.9425 5.3667C21.2564 6.83667 20.9853 8.24241 20.3573 9.59107C19.7793 10.8184 18.973 11.8816 18.081 12.8949C16.7894 14.3578 15.3552 15.6707 13.9066 16.9766C12.7934 17.9827 11.666 18.9603 10.6313 20.0449C10.6099 20.0806 10.5742 20.102 10.5385 20.1377Z" fill="#653EE2"/>
</svg>
