<svg xmlns="http://www.w3.org/2000/svg" width="27" height="20" viewBox="0 0 27 20" fill="none">
<path d="M26.6683 9.845C26.5861 13.636 25.3186 16.7696 22.7717 19.3752C22.3374 19.8212 21.6919 19.8564 21.2107 19.4691C20.7178 19.0818 20.6004 18.4128 20.9408 17.8964C21.0347 17.7555 21.152 17.6382 21.2577 17.5208C23.4407 15.1969 24.4383 12.4271 24.227 9.24643C24.051 6.62916 23.0182 4.36398 21.1872 2.46263C20.6591 1.91101 20.5887 1.33591 20.9877 0.807763C21.4455 0.18572 22.2788 0.15051 22.8539 0.737343C24.5322 2.4509 25.6707 4.46961 26.2458 6.79347C26.3631 7.26294 26.4687 7.74414 26.5274 8.22534C26.6096 8.81218 26.6331 9.41075 26.6683 9.845Z" fill="white"/>
<path d="M0.296387 9.50504C0.366807 6.41829 1.58742 3.31981 4.08733 0.73774C4.59201 0.221326 5.33142 0.17438 5.81262 0.63211C6.34078 1.13679 6.35251 1.84099 5.81262 2.40435C4.15775 4.09443 3.12493 6.11314 2.80804 8.46047C2.35031 11.7702 3.23056 14.7044 5.43705 17.2278C5.56615 17.3804 5.71873 17.5212 5.85957 17.6738C6.32904 18.2254 6.28209 18.9179 5.76568 19.3991C5.30795 19.8216 4.60375 19.7746 4.11081 19.2817C2.53809 17.6972 1.44658 15.8311 0.824537 13.695C0.472437 12.4862 0.296387 11.2538 0.296387 9.50504Z" fill="white"/>
<path d="M21.0701 10.0094C21.0348 12.1338 20.272 13.9412 18.7697 15.4318C18.3589 15.8426 17.7603 15.8778 17.2674 15.5257C16.8096 15.197 16.6336 14.5515 16.8801 14.0586C16.9622 13.8943 17.0796 13.7534 17.2087 13.6126C19.1335 11.5235 19.1335 8.51887 17.2322 6.41801C17.0444 6.21849 16.8801 5.96028 16.8096 5.70207C16.6571 5.18566 16.9387 4.65751 17.42 4.3993C17.9012 4.14109 18.4528 4.23499 18.8401 4.63403C20.3189 6.13633 21.0466 7.93204 21.0701 10.0094Z" fill="white"/>
<path d="M5.85938 10.1034C5.89459 7.95561 6.59879 6.15989 8.0424 4.66934C8.5236 4.16466 9.2278 4.11771 9.72074 4.55197C10.2489 5.0097 10.3076 5.73737 9.81463 6.27726C9.18085 6.96973 8.66444 7.73261 8.44144 8.65981C7.98371 10.5377 8.3945 12.2043 9.69727 13.6362C10.2019 14.1878 10.2489 14.7394 9.86158 15.2793C9.42732 15.8661 8.64097 15.9365 8.12455 15.4201C6.86873 14.176 6.14106 12.6738 5.91806 10.925C5.88285 10.6316 5.87111 10.3264 5.85938 10.1034Z" fill="white"/>
<path d="M13.3829 7.9908C14.4861 7.90864 15.4368 8.76542 15.5072 9.91561C15.5777 11.0071 14.7091 11.9461 13.5707 12.0282C12.4792 12.0986 11.5402 11.2536 11.4581 10.1151C11.3759 9.02363 12.2327 8.07296 13.3829 7.9908Z" fill="white"/>
</svg>