<svg width="34" height="26" viewBox="0 0 34 26" fill="none" xmlns="http://www.w3.org/2000/svg">
<path d="M33.9999 12.972C33.8963 17.7526 32.2978 21.7043 29.0861 24.99C28.5385 25.5524 27.7245 25.5968 27.1177 25.1084C26.4961 24.62 26.3481 23.7764 26.7773 23.1252C26.8957 22.9475 27.0437 22.7995 27.1769 22.6515C29.9298 19.721 31.1878 16.2281 30.9214 12.2172C30.6994 8.9167 29.397 6.0602 27.0881 3.66252C26.4221 2.9669 26.3333 2.24168 26.8365 1.57566C27.4137 0.791231 28.4645 0.74683 29.1897 1.48685C31.3062 3.64772 32.7419 6.19341 33.4671 9.1239C33.6151 9.71592 33.7483 10.3227 33.8223 10.9296C33.9259 11.6696 33.9555 12.4244 33.9999 12.972Z" fill="#653EE2"/>
<path d="M0.743408 12.5426C0.832211 8.65006 2.37146 4.74274 5.52396 1.48663C6.16038 0.835412 7.09281 0.77621 7.69963 1.35343C8.36566 1.98985 8.38046 2.87788 7.69963 3.5883C5.61277 5.71957 4.31032 8.26525 3.91071 11.2253C3.33349 15.3991 4.44353 19.0992 7.22602 22.2813C7.38882 22.4737 7.58123 22.6513 7.75884 22.8437C8.35086 23.5393 8.29165 24.4126 7.64043 25.0194C7.06321 25.5522 6.17518 25.493 5.55356 24.8714C3.5703 22.8733 2.19386 20.5201 1.40943 17.8264C0.965415 16.3019 0.743408 14.7479 0.743408 12.5426Z" fill="#653EE2"/>
<path d="M26.9403 13.1791C26.8959 15.858 25.9338 18.1373 24.0394 20.0169C23.5214 20.5349 22.7665 20.5794 22.1449 20.1353C21.5677 19.7209 21.3457 18.9069 21.6565 18.2853C21.7601 18.0781 21.9081 17.9005 22.0709 17.7229C24.4982 15.0884 24.4982 11.2994 22.1005 8.65016C21.8637 8.39855 21.6565 8.07294 21.5677 7.74733C21.3753 7.09611 21.7305 6.43009 22.3373 6.10448C22.9441 5.77887 23.6398 5.89727 24.1282 6.40049C25.993 8.29495 26.9107 10.5594 26.9403 13.1791Z" fill="#653EE2"/>
<path d="M7.75879 13.2971C7.80319 10.5886 8.69122 8.32417 10.5117 6.44451C11.1185 5.80809 12.0065 5.74889 12.6281 6.2965C13.2942 6.87372 13.3682 7.79135 12.7466 8.47218C11.9473 9.3454 11.2961 10.3074 11.0149 11.4767C10.4377 13.8447 10.9557 15.9464 12.5985 17.7521C13.235 18.4477 13.2942 19.1433 12.8058 19.8241C12.2581 20.5642 11.2665 20.653 10.6153 20.0017C9.03163 18.4329 8.114 16.5384 7.83279 14.3332C7.78839 13.9632 7.77359 13.5783 7.75879 13.2971Z" fill="#653EE2"/>
<path d="M17.2462 10.6333C18.6374 10.5297 19.8362 11.6102 19.925 13.0606C20.0139 14.4371 18.9186 15.6211 17.483 15.7247C16.1065 15.8135 14.9225 14.7479 14.8189 13.3122C14.7153 11.9358 15.7957 10.7369 17.2462 10.6333Z" fill="#653EE2"/>
</svg>
