<svg xmlns="http://www.w3.org/2000/svg" width="34" height="34" viewBox="0 0 34 34" fill="none">
<circle cx="17.458" cy="17" r="16.5" fill="#653EE2"/>
<path d="M23.7317 25.1544C19.4775 25.1544 15.2344 25.1544 10.9691 25.1544C10.9691 25.0568 10.958 24.9701 10.958 24.8833C10.958 23.7342 10.958 22.5743 10.958 21.4251C10.958 19.6689 12.2985 18.2922 14.0822 18.2705C16.2536 18.238 18.425 18.238 20.5964 18.2705C22.3801 18.2922 23.7206 19.6689 23.7317 21.4251C23.7428 22.5851 23.7317 23.7451 23.7317 24.9159C23.7428 24.9918 23.7317 25.0676 23.7317 25.1544Z" fill="white"/>
<path d="M13.7056 13.175C13.7056 11.137 15.3785 9.5 17.4723 9.5C19.5551 9.5 21.2391 11.1478 21.2391 13.175C21.2391 15.2022 19.5441 16.8609 17.4723 16.8609C15.3895 16.8609 13.7056 15.2131 13.7056 13.175Z" fill="white"/>
</svg>