<svg width="112" height="112" viewBox="0 0 112 112" fill="none" xmlns="http://www.w3.org/2000/svg">
<circle cx="56" cy="56" r="56" fill="#653EE2"/>
<path d="M45.8628 58.4208C45.8628 52.7107 45.8628 47.0006 45.8628 41.3049C45.8628 40.4419 46.2923 39.8666 47.0511 39.8234C47.3804 39.8091 47.767 39.9241 48.0533 40.0967C52.2769 42.585 56.5005 45.102 60.7097 47.6047C66.093 50.7977 71.462 53.9908 76.8452 57.1838C77.6327 57.6585 77.9047 58.392 77.4895 59.0824C77.332 59.3269 77.0743 59.5427 76.8166 59.7009C72.865 62.0597 68.9135 64.4042 64.9619 66.7486C59.3353 70.0999 53.6943 73.4367 48.0676 76.788C47.6668 77.0181 47.2659 77.162 46.8077 77.0325C46.1921 76.8455 45.8628 76.3565 45.8628 75.6374C45.8628 73.3792 45.8628 71.1211 45.8628 68.8485C45.8628 65.3678 45.8628 61.8871 45.8628 58.4208Z" fill="#C4C4C4"/>
</svg>
