<svg xmlns="http://www.w3.org/2000/svg" width="18" height="18" viewBox="0 0 18 18" fill="none">
<circle cx="9" cy="9" r="9" fill="#8A8A8A"/>
<path d="M8.352 10.6H9.348C9.348 9.808 9.54 9.424 10.224 8.908L10.764 8.5C11.34 8.056 11.784 7.612 11.784 6.748C11.784 5.404 10.644 4.6 9.072 4.6C7.656 4.6 6.384 5.416 6.384 7.252H7.38C7.38 6.316 7.824 5.392 9.072 5.392C10.2 5.392 10.716 6.052 10.716 6.844C10.716 7.264 10.464 7.6 10.08 7.888L9.54 8.296C8.724 8.92 8.352 9.388 8.352 10.6ZM8.268 13H9.432V11.836H8.268V13Z" fill="#1F1F1F"/>
</svg>