<svg xmlns="http://www.w3.org/2000/svg" width="10" height="8" viewBox="0 0 10 8" fill="none">
<path d="M4.95987 0.187499C6.29051 0.1875 7.62115 0.1875 8.94843 0.1875C9.14954 0.1875 9.28361 0.287591 9.29366 0.46442C9.29701 0.541156 9.2702 0.631239 9.22998 0.697966C8.65013 1.6822 8.06358 2.66643 7.48037 3.64733C6.73629 4.90181 5.9922 6.15295 5.24812 7.40743C5.13751 7.59093 4.96657 7.65432 4.80569 7.55757C4.74871 7.52086 4.69843 7.46081 4.66156 7.40076C4.11188 6.47991 3.56554 5.55907 3.01921 4.63823C2.23826 3.32703 1.46065 2.0125 0.679698 0.701301C0.626071 0.607883 0.592553 0.514464 0.622719 0.4077C0.666291 0.264236 0.780251 0.187499 0.947838 0.187499C1.47406 0.187499 2.00028 0.187499 2.52986 0.187499C3.34098 0.187499 4.1521 0.187499 4.95987 0.187499Z" fill="#8A8A8A"/>
</svg>