<svg width="24" height="23" viewBox="0 0 24 23" fill="none" xmlns="http://www.w3.org/2000/svg">
<path d="M5.82067 22.6153C5.56607 22.6153 5.31148 22.5305 5.08507 22.3607C4.63232 22.0213 4.4626 21.4837 4.63232 20.946L6.58466 14.9477C6.66953 14.6931 6.58466 14.3819 6.35829 14.2403L1.26535 10.5339C0.812601 10.1944 0.642883 9.65681 0.812602 9.11917C0.982336 8.58153 1.46332 8.2421 2.00095 8.2421H8.31053C8.59355 8.2421 8.84817 8.07237 8.933 7.78935L10.8853 1.79101C11.0551 1.25337 11.5361 0.91394 12.0737 0.91394C12.6113 0.91394 13.0923 1.25341 13.262 1.79101L15.1861 7.81765C15.271 8.07225 15.5256 8.2704 15.8086 8.2704H22.1182C22.684 8.2704 23.1368 8.60986 23.3065 9.14746C23.4763 9.68506 23.3065 10.2227 22.8538 10.5622L17.7609 14.2686C17.5345 14.4384 17.4496 14.7214 17.5345 14.976L19.4868 20.9743C19.6566 21.512 19.4868 22.0496 19.0341 22.389C18.5813 22.7285 18.0155 22.7285 17.5627 22.389L12.4698 18.6826C12.2434 18.5128 11.9322 18.5128 11.7058 18.6826L6.61287 22.389C6.33024 22.5306 6.07526 22.6153 5.82067 22.6153Z" fill="#E2AA3E"/>
</svg>
