<svg xmlns="http://www.w3.org/2000/svg" class='time-icon' width="16" height="16" viewBox="0 0 16 16" fill="none">
<path fill-rule="evenodd" clip-rule="evenodd" d="M0.666748 7.99984C0.666748 3.94975 3.94999 0.666504 8.00008 0.666504C12.0502 0.666504 15.3334 3.94975 15.3334 7.99984C15.3334 12.0499 12.0502 15.3332 8.00008 15.3332C3.94999 15.3332 0.666748 12.0499 0.666748 7.99984ZM8.00008 1.99984C4.68637 1.99984 2.00008 4.68613 2.00008 7.99984C2.00008 11.3135 4.68637 13.9998 8.00008 13.9998C11.3138 13.9998 14.0001 11.3135 14.0001 7.99984C14.0001 4.68613 11.3138 1.99984 8.00008 1.99984Z" fill="white"/>
<path fill-rule="evenodd" clip-rule="evenodd" d="M8.00008 3.33317C8.36827 3.33317 8.66675 3.63165 8.66675 3.99984V7.7237L10.4715 9.52843C10.7318 9.78878 10.7318 10.2109 10.4715 10.4712C10.2111 10.7316 9.78903 10.7316 9.52868 10.4712L7.52868 8.47124C7.40365 8.34622 7.33342 8.17665 7.33342 7.99984V3.99984C7.33342 3.63165 7.63189 3.33317 8.00008 3.33317Z" fill="white"/>
</svg>