<svg width="8" height="7" viewBox="0 0 8 7" fill="none" xmlns="http://www.w3.org/2000/svg">
<path d="M3.67067 -1.59915e-07C4.79387 -1.10818e-07 5.91708 -6.17216e-08 7.03745 -1.27484e-08C7.20721 -5.32821e-09 7.32038 0.0844881 7.32886 0.23375C7.33169 0.298525 7.30906 0.374564 7.27511 0.430889C6.78565 1.26169 6.29054 2.09249 5.79825 2.92047C5.17016 3.97939 4.54207 5.03549 3.91398 6.09441C3.82062 6.2493 3.67633 6.30281 3.54052 6.22114C3.49243 6.19016 3.44999 6.13947 3.41887 6.08877C2.95487 5.31148 2.49371 4.53419 2.03254 3.7569C1.37333 2.65011 0.716949 1.5405 0.0577383 0.433705C0.0124707 0.35485 -0.0158219 0.275994 0.00964116 0.185873C0.046421 0.0647739 0.142615 -3.14131e-07 0.284077 -3.07948e-07C0.728266 -2.88532e-07 1.17246 -2.69116e-07 1.61947 -2.49576e-07C2.30415 -2.19648e-07 2.98882 -1.8972e-07 3.67067 -1.59915e-07Z" fill="#333333"/>
</svg>
