<svg width="11" height="10" viewBox="0 0 11 10" fill="none" xmlns="http://www.w3.org/2000/svg">
<path d="M10.484 8.55776L6.1248 1.01138C5.88384 0.595164 5.28143 0.595164 5.04047 1.01138L0.681318 8.55776C0.44036 8.97398 0.736097 9.49968 1.21802 9.49968H9.93632C10.4291 9.49968 10.7248 8.9739 10.4839 8.55776H10.484ZM5.44574 3.32239C5.70862 3.25669 5.97145 3.3881 6.09193 3.62907C6.1357 3.7167 6.1467 3.81525 6.1357 3.90288C6.11378 4.1767 6.10285 4.45051 6.09193 4.73526C6.07 5.16242 6.03715 5.60048 6.01522 6.02764C6.00429 6.15904 6.00429 6.29052 5.99329 6.43287C5.98237 6.66291 5.80711 6.83809 5.57707 6.83809C5.35804 6.83809 5.17184 6.66283 5.16085 6.4438C5.128 5.77569 5.08415 5.10758 5.0513 4.43946C5.04037 4.2642 5.02937 4.07803 5.01844 3.90276C5.0186 3.64002 5.19386 3.38815 5.44575 3.32243L5.44574 3.32239ZM5.58815 8.3387C5.28147 8.3387 5.04051 8.08681 5.04051 7.78014C5.04051 7.47346 5.29241 7.22157 5.59908 7.22157C5.90575 7.22157 6.14671 7.47346 6.14671 7.79113C6.13579 8.08671 5.88389 8.33868 5.58815 8.33868V8.3387Z" fill="#949393"/>
</svg>
