<svg xmlns="http://www.w3.org/2000/svg" width="24" height="24" viewBox="0 0 24 24" fill="none">
  <path d="M12 9.81787V14.4652H18.4575C18.1739 15.9597 17.323 17.2252 16.0468 18.0761L19.9409 21.0979C22.2098 19.0035 23.5188 15.9271 23.5188 12.2725C23.5188 11.4216 23.4424 10.6034 23.3006 9.818L12 9.81787Z" fill="#4285F4"/>
  <path d="M5.27616 14.2842L4.39789 14.9566L1.28906 17.3783C3.2634 21.2947 7.30996 24.0002 12.0003 24.0002C15.2399 24.0002 17.956 22.9311 19.9413 21.0984L16.0472 18.0765C14.9782 18.7965 13.6147 19.2329 12.0003 19.2329C8.88069 19.2329 6.23013 17.1275 5.28106 14.2911L5.27616 14.2842Z" fill="#34A853"/>
  <path d="M1.28705 6.62207C0.468994 8.23655 0 10.0584 0 12.0002C0 13.942 0.468994 15.7638 1.28705 17.3783C1.28705 17.3891 5.27943 14.2801 5.27943 14.2801C5.03946 13.5601 4.89762 12.7965 4.89762 12.0001C4.89762 11.2036 5.03946 10.44 5.27943 9.72L1.28705 6.62207Z" fill="#FBBC05"/>
  <path d="M12.0006 4.77818C13.7677 4.77818 15.3384 5.38907 16.5929 6.56727L20.0288 3.13095C17.9454 1.18917 15.2403 0 12.0006 0C7.31021 0 3.2634 2.69454 1.28906 6.62183L5.28133 9.72001C6.23026 6.88362 8.88093 4.77818 12.0006 4.77818Z" fill="#EA4335"/>
</svg>