<svg xmlns="http://www.w3.org/2000/svg" width="24" height="24" viewBox="0 0 24 24" fill="none">
  <path d="M22.5342 1.12305L13.4062 7.90248L15.0942 3.90271L22.5342 1.12305Z" fill="#E2761B" stroke="#E2761B" stroke-width="0.103373" stroke-linecap="round" stroke-linejoin="round"/>
  <path d="M1.46325 1.12305L10.5178 7.9667L8.91237 3.90271L1.46325 1.12305ZM19.2512 16.8378L16.8202 20.5623L22.0217 21.9934L23.5171 16.9203L19.2512 16.8378ZM0.5 16.9203L1.98616 21.9934L7.1877 20.5623L4.75664 16.8378L0.5 16.9203Z" fill="#E4761B" stroke="#E4761B" stroke-width="0.103373" stroke-linecap="round" stroke-linejoin="round"/>
  <path d="M6.89087 10.5445L5.44141 12.7371L10.6063 12.9664L10.4228 7.41627L6.89087 10.5445ZM17.1013 10.5445L13.5235 7.35205L13.4043 12.9664L18.5599 12.7371L17.1013 10.5445ZM7.18443 20.5623L10.2852 19.0486L7.60642 16.957L7.18443 20.5623ZM13.707 19.0486L16.8169 20.5623L16.3857 16.957L13.707 19.0486Z" fill="#E4761B" stroke="#E4761B" stroke-width="0.103373" stroke-linecap="round" stroke-linejoin="round"/>
  <path d="M16.82 20.562L13.7101 19.0483L13.9578 21.0758L13.9302 21.9289L16.82 20.562ZM7.1875 20.562L10.0772 21.9289L10.0589 21.0758L10.2882 19.0483L7.1875 20.562Z" fill="#D7C1B3" stroke="#D7C1B3" stroke-width="0.103373" stroke-linecap="round" stroke-linejoin="round"/>
  <path d="M10.1222 15.6172L7.53516 14.8558L9.36074 14.021L10.1222 15.6172ZM13.8743 15.6172L14.6357 14.021L16.4704 14.8558L13.8743 15.6172Z" fill="#161616" stroke="#233447" stroke-width="0.103373" stroke-linecap="round" stroke-linejoin="round"/>
  <path d="M7.18496 20.5621L7.6253 16.8375L4.75391 16.9201L7.18496 20.5621ZM16.3771 16.8375L16.8175 20.5621L19.2485 16.9201L16.3771 16.8375ZM18.5605 12.7368L13.4048 12.9662L13.8818 15.6174L14.6433 14.0211L16.478 14.856L18.5605 12.7368ZM7.53357 14.856L9.36833 14.0211L10.1206 15.6174L10.6068 12.9662L5.44194 12.7368L7.53357 14.856Z" fill="#CD6116" stroke="#CD6116" stroke-width="0.103373" stroke-linecap="round" stroke-linejoin="round"/>
  <path d="M5.44141 12.7368L7.60642 16.9568L7.53303 14.856L5.44141 12.7368ZM16.4775 14.856L16.3857 16.9568L18.5599 12.7368L16.4775 14.856ZM10.6063 12.9662L10.12 15.6174L10.7255 18.7457L10.8631 14.6266L10.6063 12.9662ZM13.4043 12.9662L13.1566 14.6174L13.2667 18.7457L13.8813 15.6174L13.4043 12.9662Z" fill="#E4751F" stroke="#E4751F" stroke-width="0.103373" stroke-linecap="round" stroke-linejoin="round"/>
  <path d="M13.8834 15.6174L13.2688 18.7456L13.7091 19.0484L16.3879 16.9568L16.4796 14.856L13.8834 15.6174ZM7.53516 14.856L7.60855 16.9568L10.2873 19.0484L10.7276 18.7456L10.1222 15.6174L7.53516 14.856Z" fill="#F6851B" stroke="#F6851B" stroke-width="0.103373" stroke-linecap="round" stroke-linejoin="round"/>
  <path d="M13.9302 21.9289L13.9578 21.0757L13.7284 20.8739H10.2699L10.0589 21.0757L10.0772 21.9289L7.1875 20.562L8.19662 21.3877L10.2424 22.8096H13.7559L15.8109 21.3877L16.82 20.562L13.9302 21.9289Z" fill="#C0AD9E" stroke="#C0AD9E" stroke-width="0.103373" stroke-linecap="round" stroke-linejoin="round"/>
  <path d="M13.7098 19.0483L13.2694 18.7456H10.7283L10.2879 19.0483L10.0586 21.0757L10.2696 20.8739H13.7281L13.9575 21.0757L13.7098 19.0483Z" fill="#161616" stroke="#161616" stroke-width="0.103373" stroke-linecap="round" stroke-linejoin="round"/>
  <path d="M22.9181 8.34283L23.6979 4.59992L22.5328 1.12305L13.7076 7.67314L17.1019 10.5445L21.8998 11.9481L22.964 10.7097L22.5053 10.3794L23.2392 9.70972L22.6704 9.26938L23.4043 8.70978L22.9181 8.34283ZM0.304688 4.59992L1.08446 8.34283L0.589075 8.70978L1.32298 9.26938L0.763377 9.70972L1.49728 10.3794L1.03859 10.7097L2.09358 11.9481L6.89148 10.5445L10.2858 7.67314L1.46059 1.12305L0.304688 4.59992Z" fill="#763D16" stroke="#763D16" stroke-width="0.103373" stroke-linecap="round" stroke-linejoin="round"/>
  <path d="M21.9025 11.9478L17.1046 10.5442L18.5632 12.7367L16.389 16.9567L19.2512 16.92H23.5171L21.9025 11.9478ZM6.89414 10.5442L2.09624 11.9478L0.5 16.92H4.75664L7.60969 16.9567L5.44468 12.7367L6.89414 10.5442ZM13.4075 12.9661L13.7103 7.67277L15.1047 3.90234H8.91237L10.2884 7.67277L10.6095 12.9661L10.7196 14.6357L10.7288 18.7456H13.2699L13.2883 14.6357L13.4075 12.9661Z" fill="#F6851B" stroke="#F6851B" stroke-width="0.103373" stroke-linecap="round" stroke-linejoin="round"/>
</svg>