<svg xmlns="http://www.w3.org/2000/svg" width="24" height="24" viewBox="0 0 24 24" fill="none">
  <path d="M18.0528 3.01528L13.8722 9.22222C13.8127 9.31161 13.7875 9.41954 13.8014 9.52604C13.8153 9.63254 13.8673 9.73042 13.9477 9.80156C14.0282 9.87271 14.1317 9.91231 14.2391 9.91305C14.3465 9.91378 14.4505 9.87559 14.5319 9.80556L18.6472 6.23611C18.6713 6.21453 18.7012 6.20045 18.7332 6.19557C18.7652 6.19068 18.7979 6.19522 18.8274 6.20862C18.8568 6.22203 18.8817 6.24371 18.8991 6.27104C18.9164 6.29836 18.9254 6.33014 18.925 6.3625V17.5375C18.925 17.5717 18.9144 17.6051 18.8948 17.6331C18.8752 17.6611 18.8474 17.6824 18.8152 17.6941C18.7831 17.7058 18.7481 17.7073 18.7151 17.6984C18.682 17.6895 18.6525 17.6707 18.6306 17.6444L6.19167 2.75417C5.99159 2.51791 5.74246 2.32806 5.4616 2.19782C5.18073 2.06758 4.87487 2.00008 4.56528 2H4.13056C3.5655 2 3.02358 2.22447 2.62403 2.62403C2.22447 3.02358 2 3.5655 2 4.13056V19.8694C2 20.4345 2.22447 20.9764 2.62403 21.376C3.02358 21.7755 3.5655 22 4.13056 22C4.49488 22.0001 4.85316 21.9068 5.17119 21.7291C5.48922 21.5513 5.7564 21.2951 5.94722 20.9847L10.1278 14.7778C10.1873 14.6884 10.2125 14.5805 10.1986 14.474C10.1847 14.3675 10.1327 14.2696 10.0523 14.1984C9.97182 14.1273 9.86832 14.0877 9.76092 14.087C9.65352 14.0862 9.54948 14.1244 9.46806 14.1944L5.35278 17.7639C5.32866 17.7855 5.29878 17.7996 5.26679 17.8044C5.2348 17.8093 5.20208 17.8048 5.17263 17.7914C5.14317 17.778 5.11826 17.7563 5.10092 17.729C5.08358 17.7016 5.07458 17.6699 5.075 17.6375V6.45972C5.07501 6.42551 5.08555 6.39213 5.10519 6.36412C5.12483 6.3361 5.15261 6.31481 5.18477 6.30313C5.21693 6.29145 5.2519 6.28995 5.28494 6.29883C5.31797 6.30772 5.34748 6.32655 5.36944 6.35278L17.8069 21.2458C18.007 21.4821 18.2562 21.6719 18.537 21.8022C18.8179 21.9324 19.1237 21.9999 19.4333 22H19.8681C20.148 22.0002 20.4252 21.9452 20.6838 21.8382C20.9425 21.7312 21.1775 21.5743 21.3755 21.3765C21.5735 21.1786 21.7305 20.9437 21.8377 20.6851C21.9448 20.4265 22 20.1494 22 19.8694V4.13056C22 3.5655 21.7755 3.02358 21.376 2.62403C20.9764 2.22447 20.4345 2 19.8694 2C19.5051 1.9999 19.1468 2.09318 18.8288 2.27091C18.5108 2.44865 18.2436 2.70492 18.0528 3.01528Z" fill="white"/>
</svg>