<svg xmlns="http://www.w3.org/2000/svg" width="628" height="351" viewBox="0 0 628 351" fill="none">
<g filter="url(#filter0_f_4202_2236)">
<path opacity="0.9" d="M235.144 106.063H237.928V113.479H238.96V106.063H241.744V105.199H235.144V106.063ZM246.571 109.759V113.479H247.567V109.411C247.567 108.283 246.883 107.359 245.599 107.359C244.711 107.359 244.099 107.827 243.787 108.655H243.763V105.199H242.803V113.479H243.799V109.663C243.799 108.811 244.207 108.187 245.191 108.187C246.163 108.187 246.571 108.763 246.571 109.759ZM254.334 111.583H253.338C253.206 112.075 252.894 112.807 251.85 112.807C250.746 112.807 250.026 112.027 249.978 110.779H254.406C254.574 108.763 253.494 107.359 251.706 107.359C249.918 107.359 248.97 108.811 248.97 110.479C248.97 112.147 249.966 113.599 251.754 113.599C253.398 113.599 254.118 112.651 254.334 111.583ZM251.706 108.151C252.762 108.151 253.338 108.907 253.422 109.987H249.978C250.074 108.907 250.65 108.151 251.706 108.151ZM256.865 109.879C256.865 108.799 257.477 108.439 258.449 108.439H258.665V107.359C257.777 107.359 257.165 107.827 256.853 108.655H256.829V107.479H255.869V113.479H256.865V109.879ZM264.646 111.583H263.65C263.518 112.075 263.206 112.807 262.162 112.807C261.058 112.807 260.338 112.027 260.29 110.779H264.718C264.886 108.763 263.806 107.359 262.018 107.359C260.23 107.359 259.282 108.811 259.282 110.479C259.282 112.147 260.278 113.599 262.066 113.599C263.71 113.599 264.43 112.651 264.646 111.583ZM262.018 108.151C263.074 108.151 263.65 108.907 263.734 109.987H260.29C260.386 108.907 260.962 108.151 262.018 108.151ZM272.747 109.603V109.795L271.067 109.975C269.795 110.107 268.715 110.503 268.715 111.739C268.715 112.903 269.651 113.599 270.803 113.599C271.739 113.599 272.447 113.131 272.759 112.303H272.783V113.479H273.743V109.831C273.743 108.019 272.651 107.359 271.319 107.359C269.795 107.359 268.991 108.271 268.919 109.375H269.915C269.951 108.667 270.407 108.151 271.319 108.151C272.255 108.151 272.747 108.703 272.747 109.603ZM271.043 112.807C270.335 112.807 269.795 112.387 269.795 111.787C269.795 111.151 270.251 110.827 271.151 110.731L272.747 110.551V110.875C272.747 112.171 272.099 112.807 271.043 112.807ZM276.506 109.879C276.506 108.799 277.118 108.439 278.09 108.439H278.306V107.359C277.418 107.359 276.806 107.827 276.494 108.655H276.47V107.479H275.51V113.479H276.506V109.879ZM284.287 111.583H283.291C283.159 112.075 282.847 112.807 281.803 112.807C280.699 112.807 279.979 112.027 279.931 110.779H284.359C284.527 108.763 283.447 107.359 281.659 107.359C279.871 107.359 278.923 108.811 278.923 110.479C278.923 112.147 279.919 113.599 281.707 113.599C283.351 113.599 284.071 112.651 284.287 111.583ZM281.659 108.151C282.715 108.151 283.291 108.907 283.375 109.987H279.931C280.027 108.907 280.603 108.151 281.659 108.151ZM292.543 109.759V113.479H293.539V109.411C293.539 108.283 292.855 107.359 291.571 107.359C290.683 107.359 290.071 107.827 289.759 108.655H289.735V107.479H288.775V113.479H289.771V109.663C289.771 108.811 290.179 108.187 291.163 108.187C292.135 108.187 292.543 108.763 292.543 109.759ZM297.811 113.599C299.611 113.599 300.691 112.075 300.691 110.479C300.691 108.883 299.611 107.359 297.811 107.359C296.011 107.359 294.931 108.883 294.931 110.479C294.931 112.075 296.011 113.599 297.811 113.599ZM297.811 112.807C296.659 112.807 296.011 111.811 296.011 110.479C296.011 109.147 296.659 108.151 297.811 108.151C298.963 108.151 299.611 109.147 299.611 110.479C299.611 111.811 298.963 112.807 297.811 112.807ZM310.104 111.583H309.108C308.976 112.075 308.664 112.807 307.62 112.807C306.516 112.807 305.796 112.027 305.748 110.779H310.176C310.344 108.763 309.264 107.359 307.476 107.359C305.688 107.359 304.74 108.811 304.74 110.479C304.74 112.147 305.736 113.599 307.524 113.599C309.168 113.599 309.888 112.651 310.104 111.583ZM307.476 108.151C308.532 108.151 309.108 108.907 309.192 109.987H305.748C305.844 108.907 306.42 108.151 307.476 108.151ZM310.885 107.479L312.649 113.479H314.689L316.453 107.479H315.421L313.669 113.431L311.917 107.479H310.885ZM322.525 111.583H321.529C321.397 112.075 321.085 112.807 320.041 112.807C318.937 112.807 318.217 112.027 318.169 110.779H322.597C322.765 108.763 321.685 107.359 319.897 107.359C318.109 107.359 317.161 108.811 317.161 110.479C317.161 112.147 318.157 113.599 319.945 113.599C321.589 113.599 322.309 112.651 322.525 111.583ZM319.897 108.151C320.953 108.151 321.529 108.907 321.613 109.987H318.169C318.265 108.907 318.841 108.151 319.897 108.151ZM327.828 109.759V113.479H328.824V109.411C328.824 108.283 328.14 107.359 326.856 107.359C325.968 107.359 325.356 107.827 325.044 108.655H325.02V107.479H324.06V113.479H325.056V109.663C325.056 108.811 325.464 108.187 326.448 108.187C327.42 108.187 327.828 108.763 327.828 109.759ZM330.961 108.271V112.135C330.961 112.999 331.345 113.479 332.353 113.479H333.433V112.687H332.629C332.125 112.687 331.957 112.495 331.957 112.027V108.271H333.481V107.479H331.957V106.111H330.961V107.479H329.869V108.271H330.961ZM338.218 111.907C338.218 112.471 337.582 112.807 336.814 112.807C335.914 112.807 335.29 112.207 335.23 111.379H334.234C334.306 112.507 335.218 113.599 336.778 113.599C338.338 113.599 339.178 112.879 339.178 111.847C339.178 110.875 338.602 110.287 337.45 110.023L336.646 109.843C335.746 109.639 335.386 109.471 335.386 108.979C335.386 108.427 335.95 108.151 336.646 108.151C337.486 108.151 337.978 108.559 338.062 109.255H339.058C338.974 108.151 338.014 107.359 336.646 107.359C335.362 107.359 334.414 108.079 334.414 109.075C334.414 110.023 335.11 110.539 336.262 110.791L337.066 110.971C337.978 111.175 338.218 111.511 338.218 111.907ZM236.356 121.479H235.264V122.271H236.356V127.479H237.352V122.271H238.876V121.479H237.352V120.651C237.352 120.183 237.52 119.991 238.024 119.991H238.828V119.199H237.748C236.74 119.199 236.356 119.679 236.356 120.543V121.479ZM242.299 127.599C244.099 127.599 245.179 126.075 245.179 124.479C245.179 122.883 244.099 121.359 242.299 121.359C240.499 121.359 239.419 122.883 239.419 124.479C239.419 126.075 240.499 127.599 242.299 127.599ZM242.299 126.807C241.147 126.807 240.499 125.811 240.499 124.479C240.499 123.147 241.147 122.151 242.299 122.151C243.451 122.151 244.099 123.147 244.099 124.479C244.099 125.811 243.451 126.807 242.299 126.807ZM247.631 123.879C247.631 122.799 248.243 122.439 249.215 122.439H249.431V121.359C248.543 121.359 247.931 121.827 247.619 122.655H247.595V121.479H246.635V127.479H247.631V123.879ZM253.524 122.271V126.135C253.524 126.999 253.908 127.479 254.916 127.479H255.996V126.687H255.192C254.688 126.687 254.52 126.495 254.52 126.027V122.271H256.044V121.479H254.52V120.111H253.524V121.479H252.432V122.271H253.524ZM261.008 123.759V127.479H262.004V123.411C262.004 122.283 261.32 121.359 260.036 121.359C259.148 121.359 258.536 121.827 258.224 122.655H258.2V119.199H257.24V127.479H258.236V123.663C258.236 122.811 258.644 122.187 259.628 122.187C260.6 122.187 261.008 122.763 261.008 123.759ZM263.683 120.363H264.847V119.199H263.683V120.363ZM264.763 121.479H263.767V127.479H264.763V121.479ZM270.132 125.907C270.132 126.471 269.496 126.807 268.728 126.807C267.828 126.807 267.204 126.207 267.144 125.379H266.148C266.22 126.507 267.132 127.599 268.692 127.599C270.252 127.599 271.092 126.879 271.092 125.847C271.092 124.875 270.516 124.287 269.364 124.023L268.56 123.843C267.66 123.639 267.3 123.471 267.3 122.979C267.3 122.427 267.864 122.151 268.56 122.151C269.4 122.151 269.892 122.559 269.976 123.255H270.972C270.888 122.151 269.928 121.359 268.56 121.359C267.276 121.359 266.328 122.079 266.328 123.075C266.328 124.023 267.024 124.539 268.176 124.791L268.98 124.971C269.892 125.175 270.132 125.511 270.132 125.907ZM275.127 124.479C275.127 126.135 276.003 127.599 277.707 127.599C278.655 127.599 279.375 127.071 279.711 126.207H279.735V127.479H280.73V119.199H279.735V122.751H279.711C279.375 121.887 278.655 121.359 277.707 121.359C276.003 121.359 275.127 122.823 275.127 124.479ZM276.207 124.479C276.207 123.147 276.855 122.151 278.007 122.151C279.159 122.151 279.783 123.147 279.783 124.479C279.783 125.811 279.159 126.807 278.007 126.807C276.855 126.807 276.207 125.811 276.207 124.479ZM286.165 123.603V123.795L284.485 123.975C283.213 124.107 282.133 124.503 282.133 125.739C282.133 126.903 283.069 127.599 284.221 127.599C285.157 127.599 285.865 127.131 286.177 126.303H286.201V127.479H287.161V123.831C287.161 122.019 286.069 121.359 284.737 121.359C283.213 121.359 282.409 122.271 282.337 123.375H283.333C283.369 122.667 283.825 122.151 284.737 122.151C285.673 122.151 286.165 122.703 286.165 123.603ZM284.461 126.807C283.753 126.807 283.213 126.387 283.213 125.787C283.213 125.151 283.669 124.827 284.569 124.731L286.165 124.551V124.875C286.165 126.171 285.517 126.807 284.461 126.807ZM289.266 122.271V126.135C289.266 126.999 289.65 127.479 290.658 127.479H291.738V126.687H290.934C290.43 126.687 290.262 126.495 290.262 126.027V122.271H291.786V121.479H290.262V120.111H289.266V121.479H288.174V122.271H289.266ZM297.904 125.583H296.908C296.776 126.075 296.464 126.807 295.42 126.807C294.316 126.807 293.596 126.027 293.548 124.779H297.976C298.144 122.763 297.064 121.359 295.276 121.359C293.488 121.359 292.54 122.811 292.54 124.479C292.54 126.147 293.536 127.599 295.324 127.599C296.968 127.599 297.688 126.651 297.904 125.583ZM295.276 122.151C296.332 122.151 296.908 122.907 296.992 123.987H293.548C293.644 122.907 294.22 122.151 295.276 122.151Z" fill="#8A8A8A"/>
<path d="M235.288 26.6465H240.856V41.4785H242.92V26.6465H248.488V24.9185H235.288V26.6465ZM250.603 36.9185V29.4785H248.611V37.6145C248.611 39.8705 249.979 41.7185 252.619 41.7185C254.323 41.7185 255.427 40.7825 256.051 39.1265H256.099V41.4785H258.019V29.4785H256.027V37.1105C256.027 38.8145 255.331 40.0625 253.315 40.0625C251.419 40.0625 250.603 38.9105 250.603 36.9185ZM271.676 37.6865H269.684C269.42 38.6705 268.796 40.1345 266.708 40.1345C264.5 40.1345 263.06 38.5745 262.964 36.0785H271.82C272.156 32.0465 269.996 29.2385 266.42 29.2385C262.844 29.2385 260.948 32.1425 260.948 35.4785C260.948 38.8145 262.94 41.7185 266.516 41.7185C269.804 41.7185 271.244 39.8225 271.676 37.6865ZM266.42 30.8225C268.532 30.8225 269.684 32.3345 269.852 34.4945H262.964C263.156 32.3345 264.308 30.8225 266.42 30.8225ZM247.264 70.4785V68.8945H238.912L243.4 64.3345C245.896 61.7905 247.096 60.4945 247.096 58.4065C247.096 55.9825 245.08 53.6785 241.6 53.6785C238.792 53.6785 236.248 55.5985 236.248 59.1985H238.24C238.24 56.7265 239.464 55.2625 241.6 55.2625C244 55.2625 245.008 57.0145 245.008 58.6465C245.008 60.0625 244.384 60.7345 242.68 62.4865L236.128 69.1345V70.4785H247.264Z" fill="#8A8A8A"/>
<rect opacity="0.8" x="217.5" y="5.97852" width="193" height="339" rx="2.5" stroke="#8A8A8A"/>
<path d="M33.68 41.3825L29.384 24.9185H25.232V41.4785H27.296V25.0145L31.544 41.4785H35.816L40.064 25.0145V41.4785H42.128V24.9185H37.976L33.68 41.3825ZM51.0744 41.7185C54.6744 41.7185 56.8344 38.6705 56.8344 35.4785C56.8344 32.2865 54.6744 29.2385 51.0744 29.2385C47.4744 29.2385 45.3144 32.2865 45.3144 35.4785C45.3144 38.6705 47.4744 41.7185 51.0744 41.7185ZM51.0744 40.1345C48.7704 40.1345 47.4744 38.1425 47.4744 35.4785C47.4744 32.8145 48.7704 30.8225 51.0744 30.8225C53.3784 30.8225 54.6744 32.8145 54.6744 35.4785C54.6744 38.1425 53.3784 40.1345 51.0744 40.1345ZM67.2819 34.0385V41.4785H69.2739V33.3425C69.2739 31.0865 67.9059 29.2385 65.3379 29.2385C63.5619 29.2385 62.3379 30.1745 61.7139 31.8305H61.6659V29.4785H59.7459V41.4785H61.7379V33.8465C61.7379 32.1425 62.5539 30.8945 64.5219 30.8945C66.4659 30.8945 67.2819 32.0465 67.2819 34.0385ZM33.656 68.8945H30.2V53.9185H28.616L28.592 54.1105C28.424 55.5025 27.92 56.4625 25.448 56.4625H24.248V58.0465H28.208V68.8945H24.248V70.4785H33.656V68.8945Z" fill="#8A8A8A"/>
<rect opacity="0.8" x="5.5" y="5.97852" width="193" height="339" rx="2.5" stroke="#8A8A8A"/>
<rect x="23" y="253.047" width="73.1465" height="12" rx="3" transform="rotate(-90 23 253.047)" fill="#8A8A8A"/>
<path d="M47.93 199.344H48.79V196.574H50.19C51.86 196.574 52.91 195.844 52.91 194.504C52.91 193.164 51.86 192.444 50.19 192.444H47.93V199.344ZM50.29 193.164C51.36 193.164 51.98 193.614 51.98 194.504C51.98 195.394 51.36 195.854 50.29 195.854H48.79V193.164H50.29ZM54.8009 196.344C54.8009 195.444 55.3109 195.144 56.1209 195.144H56.3009V194.244C55.5609 194.244 55.0509 194.634 54.7909 195.324H54.7709V194.344H53.9709V199.344H54.8009V196.344ZM59.2055 199.444C60.7055 199.444 61.6055 198.174 61.6055 196.844C61.6055 195.514 60.7055 194.244 59.2055 194.244C57.7055 194.244 56.8055 195.514 56.8055 196.844C56.8055 198.174 57.7055 199.444 59.2055 199.444ZM59.2055 198.784C58.2455 198.784 57.7055 197.954 57.7055 196.844C57.7055 195.734 58.2455 194.904 59.2055 194.904C60.1655 194.904 60.7055 195.734 60.7055 196.844C60.7055 197.954 60.1655 198.784 59.2055 198.784ZM62.7486 193.414H63.7186V192.444H62.7486V193.414ZM63.6486 194.344H62.8186V199.834C62.8186 200.224 62.6786 200.384 62.2586 200.384H61.9086V201.044H62.4886C63.3286 201.044 63.6486 200.644 63.6486 199.924V194.344ZM69.3421 197.764H68.5121C68.4021 198.174 68.1421 198.784 67.2721 198.784C66.3521 198.784 65.7521 198.134 65.7121 197.094H69.4021C69.5421 195.414 68.6421 194.244 67.1521 194.244C65.6621 194.244 64.8721 195.454 64.8721 196.844C64.8721 198.234 65.7021 199.444 67.1921 199.444C68.5621 199.444 69.1621 198.654 69.3421 197.764ZM67.1521 194.904C68.0321 194.904 68.5121 195.534 68.5821 196.434H65.7121C65.7921 195.534 66.2721 194.904 67.1521 194.904ZM70.3213 196.844C70.3213 198.234 71.2313 199.444 72.6713 199.444C73.8813 199.444 74.6513 198.804 74.8713 197.654H74.0413C73.8913 198.464 73.3813 198.784 72.7413 198.784C71.7613 198.784 71.2213 197.934 71.2213 196.844C71.2213 195.784 71.7313 194.904 72.6813 194.904C73.3413 194.904 73.8413 195.204 73.9913 196.014H74.8213C74.6013 194.864 73.8413 194.244 72.6313 194.244C71.2213 194.244 70.3213 195.514 70.3213 196.844ZM76.3036 195.004V198.224C76.3036 198.944 76.6236 199.344 77.4636 199.344H78.3636V198.684H77.6936C77.2736 198.684 77.1336 198.524 77.1336 198.134V195.004H78.4036V194.344H77.1336V193.204H76.3036V194.344H75.3936V195.004H76.3036ZM85.0016 196.244V199.344H85.8316V195.954C85.8316 195.014 85.2616 194.244 84.1916 194.244C83.4516 194.244 82.9416 194.634 82.6816 195.324H82.6616V194.344H81.8616V199.344H82.6916V196.164C82.6916 195.454 83.0316 194.934 83.8516 194.934C84.6616 194.934 85.0016 195.414 85.0016 196.244ZM90.311 196.114V196.274L88.911 196.424C87.851 196.534 86.951 196.864 86.951 197.894C86.951 198.864 87.731 199.444 88.691 199.444C89.471 199.444 90.061 199.054 90.321 198.364H90.341V199.344H91.141V196.304C91.141 194.794 90.231 194.244 89.121 194.244C87.851 194.244 87.181 195.004 87.121 195.924H87.951C87.981 195.334 88.361 194.904 89.121 194.904C89.901 194.904 90.311 195.364 90.311 196.114ZM88.891 198.784C88.301 198.784 87.851 198.434 87.851 197.934C87.851 197.404 88.231 197.134 88.981 197.054L90.311 196.904V197.174C90.311 198.254 89.771 198.784 88.891 198.784ZM93.4435 196.164C93.4435 195.454 93.7335 194.934 94.5735 194.934C95.3635 194.934 95.7035 195.414 95.7035 196.244V199.344H96.5335V196.164C96.5335 195.454 96.8235 194.934 97.6635 194.934C98.4535 194.934 98.7935 195.414 98.7935 196.244V199.344H99.6235V195.954C99.6235 195.014 99.0535 194.244 97.9535 194.244C97.2435 194.244 96.7135 194.634 96.4535 195.324H96.4435C96.2335 194.694 95.7035 194.244 94.8635 194.244C94.1535 194.244 93.6935 194.634 93.4335 195.324H93.4135V194.344H92.6135V199.344H93.4435V196.164ZM105.26 197.764H104.43C104.32 198.174 104.06 198.784 103.19 198.784C102.27 198.784 101.67 198.134 101.63 197.094H105.32C105.46 195.414 104.56 194.244 103.07 194.244C101.58 194.244 100.79 195.454 100.79 196.844C100.79 198.234 101.62 199.444 103.11 199.444C104.48 199.444 105.08 198.654 105.26 197.764ZM103.07 194.904C103.95 194.904 104.43 195.534 104.5 196.434H101.63C101.71 195.534 102.19 194.904 103.07 194.904ZM47.76 211.344H48.59V204.444H47.76V211.344ZM52.2035 211.444C53.7035 211.444 54.6035 210.174 54.6035 208.844C54.6035 207.514 53.7035 206.244 52.2035 206.244C50.7035 206.244 49.8035 207.514 49.8035 208.844C49.8035 210.174 50.7035 211.444 52.2035 211.444ZM52.2035 210.784C51.2435 210.784 50.7035 209.954 50.7035 208.844C50.7035 207.734 51.2435 206.904 52.2035 206.904C53.1635 206.904 53.7035 207.734 53.7035 208.844C53.7035 209.954 53.1635 210.784 52.2035 210.784ZM58.9566 208.244V211.344H59.7866V207.954C59.7866 207.014 59.2166 206.244 58.1466 206.244C57.4066 206.244 56.8966 206.634 56.6366 207.324H56.6166V206.344H55.8166V211.344H56.6466V208.164C56.6466 207.454 56.9866 206.934 57.8066 206.934C58.6166 206.934 58.9566 207.414 58.9566 208.244ZM64.8161 211.174C64.8161 212.064 64.2261 212.484 63.4461 212.484C62.7861 212.484 62.2161 212.194 62.1061 211.484H61.2761C61.4161 212.504 62.1261 213.144 63.4461 213.144C64.8961 213.144 65.6461 212.304 65.6461 211.174V206.344H64.8161V207.404H64.7961C64.5161 206.684 63.9161 206.244 63.1261 206.244C61.7061 206.244 60.9761 207.364 60.9761 208.744C60.9761 210.124 61.7061 211.244 63.1261 211.244C63.9161 211.244 64.5161 210.804 64.7961 210.084H64.8161V211.174ZM61.8761 208.744C61.8761 207.634 62.4161 206.904 63.3761 206.904C64.3361 206.904 64.8561 207.634 64.8561 208.744C64.8561 209.854 64.3361 210.584 63.3761 210.584C62.4161 210.584 61.8761 209.854 61.8761 208.744ZM72.7652 208.244V211.344H73.5952V207.954C73.5952 207.014 73.0252 206.244 71.9552 206.244C71.2152 206.244 70.7052 206.634 70.4452 207.324H70.4252V206.344H69.6252V211.344H70.4552V208.164C70.4552 207.454 70.7952 206.934 71.6152 206.934C72.4252 206.934 72.7652 207.414 72.7652 208.244ZM78.0747 208.114V208.274L76.6747 208.424C75.6147 208.534 74.7147 208.864 74.7147 209.894C74.7147 210.864 75.4947 211.444 76.4547 211.444C77.2347 211.444 77.8247 211.054 78.0847 210.364H78.1047V211.344H78.9047V208.304C78.9047 206.794 77.9947 206.244 76.8847 206.244C75.6147 206.244 74.9447 207.004 74.8847 207.924H75.7147C75.7447 207.334 76.1247 206.904 76.8847 206.904C77.6647 206.904 78.0747 207.364 78.0747 208.114ZM76.6547 210.784C76.0647 210.784 75.6147 210.434 75.6147 209.934C75.6147 209.404 75.9947 209.134 76.7447 209.054L78.0747 208.904V209.174C78.0747 210.254 77.5347 210.784 76.6547 210.784ZM81.2072 208.164C81.2072 207.454 81.4972 206.934 82.3372 206.934C83.1272 206.934 83.4672 207.414 83.4672 208.244V211.344H84.2972V208.164C84.2972 207.454 84.5872 206.934 85.4272 206.934C86.2172 206.934 86.5572 207.414 86.5572 208.244V211.344H87.3872V207.954C87.3872 207.014 86.8172 206.244 85.7172 206.244C85.0072 206.244 84.4772 206.634 84.2172 207.324H84.2072C83.9972 206.694 83.4672 206.244 82.6272 206.244C81.9172 206.244 81.4572 206.634 81.1972 207.324H81.1772V206.344H80.3772V211.344H81.2072V208.164ZM93.0238 209.764H92.1938C92.0838 210.174 91.8238 210.784 90.9538 210.784C90.0338 210.784 89.4338 210.134 89.3938 209.094H93.0838C93.2238 207.414 92.3238 206.244 90.8338 206.244C89.3438 206.244 88.5538 207.454 88.5538 208.844C88.5538 210.234 89.3838 211.444 90.8738 211.444C92.2438 211.444 92.8438 210.654 93.0238 209.764ZM90.8338 206.904C91.7138 206.904 92.1938 207.534 92.2638 208.434H89.3938C89.4738 207.534 89.9538 206.904 90.8338 206.904Z" fill="white"/>
<path d="M54.104 236.007H51.8V226.022H50.744L50.728 226.15C50.616 227.078 50.28 227.718 48.632 227.718H47.832V228.774H50.472V236.007H47.832V237.062H54.104V236.007ZM61.591 233.366C61.591 235.206 60.503 236.166 59.159 236.166C57.463 236.166 56.759 234.886 56.615 233.686H55.287C55.511 235.862 56.967 237.223 59.095 237.223C61.431 237.223 63.031 235.814 63.031 233.366C63.031 230.838 61.287 229.494 59.447 229.494C58.215 229.494 57.335 230.086 56.871 231.062H56.839V227.078H62.391V226.022H55.511V231.926H56.839C57.239 230.934 58.007 230.566 58.999 230.566C60.247 230.566 61.591 231.35 61.591 233.366ZM64.838 230.614H66.39V229.062H64.838V230.614ZM64.838 237.062H66.39V235.51H64.838V237.062ZM74.5884 236.007H72.2844V226.022H71.2284L71.2124 226.15C71.1004 227.078 70.7644 227.718 69.1164 227.718H68.3164V228.774H70.9564V236.007H68.3164V237.062H74.5884V236.007ZM79.729 237.223C82.401 237.223 83.985 234.918 83.985 231.542C83.985 228.166 82.401 225.862 79.729 225.862C77.057 225.862 75.489 228.166 75.489 231.542C75.489 234.918 77.057 237.223 79.729 237.223ZM79.729 236.166C77.921 236.166 76.929 234.39 76.929 231.542C76.929 228.694 77.921 226.918 79.729 226.918C81.537 226.918 82.545 228.71 82.545 231.542C82.545 234.374 81.537 236.166 79.729 236.166ZM90.2693 237.062H91.6453V232.63H93.8853C96.5573 232.63 98.2373 231.462 98.2373 229.318C98.2373 227.174 96.5573 226.022 93.8853 226.022H90.2693V237.062ZM94.0453 227.174C95.7573 227.174 96.7493 227.894 96.7493 229.318C96.7493 230.742 95.7573 231.478 94.0453 231.478H91.6453V227.174H94.0453ZM105.839 236.998L102.975 226.022H100.207V237.062H101.583V226.086L104.415 237.062H107.263L110.095 226.086V237.062H111.471V226.022H108.703L105.839 236.998Z" fill="white"/>
<rect x="121.491" y="222.85" width="46.0599" height="17.424" rx="1.58" fill="#3C73DE"/>
<path d="M137.52 234.062V228.977H136.886V234.062H137.52ZM141.231 231.778V234.062H141.843V231.564C141.843 230.871 141.423 230.303 140.634 230.303C140.089 230.303 139.713 230.591 139.521 231.099H139.507V230.377H138.917V234.062H139.529V231.719C139.529 231.195 139.779 230.812 140.384 230.812C140.981 230.812 141.231 231.166 141.231 231.778ZM143.303 230.864V233.237C143.303 233.768 143.539 234.062 144.158 234.062H144.821V233.576H144.328C144.018 233.576 143.915 233.458 143.915 233.171V230.864H144.851V230.377H143.915V229.537H143.303V230.377H142.632V230.864H143.303ZM146.345 231.851C146.345 231.188 146.721 230.967 147.318 230.967H147.451V230.303C146.905 230.303 146.529 230.591 146.338 231.099H146.323V230.377H145.733V234.062H146.345V231.851ZM149.739 234.136C150.845 234.136 151.508 233.2 151.508 232.22C151.508 231.239 150.845 230.303 149.739 230.303C148.633 230.303 147.97 231.239 147.97 232.22C147.97 233.2 148.633 234.136 149.739 234.136ZM149.739 233.65C149.031 233.65 148.633 233.038 148.633 232.22C148.633 231.402 149.031 230.79 149.739 230.79C150.447 230.79 150.845 231.402 150.845 232.22C150.845 233.038 150.447 233.65 149.739 233.65Z" fill="white"/>
<rect x="23.5" y="180.4" width="156" height="72.1465" rx="2.5" stroke="#C4C4C4"/>
<rect x="23" y="333.91" width="73.1465" height="12" rx="3" transform="rotate(-90 23 333.91)" fill="#8A8A8A"/>
<path d="M47.93 280.207H48.79V277.437H50.19C51.86 277.437 52.91 276.707 52.91 275.367C52.91 274.027 51.86 273.307 50.19 273.307H47.93V280.207ZM50.29 274.027C51.36 274.027 51.98 274.477 51.98 275.367C51.98 276.257 51.36 276.717 50.29 276.717H48.79V274.027H50.29ZM54.8009 277.207C54.8009 276.307 55.3109 276.007 56.1209 276.007H56.3009V275.107C55.5609 275.107 55.0509 275.497 54.7909 276.187H54.7709V275.207H53.9709V280.207H54.8009V277.207ZM59.2055 280.307C60.7055 280.307 61.6055 279.037 61.6055 277.707C61.6055 276.377 60.7055 275.107 59.2055 275.107C57.7055 275.107 56.8055 276.377 56.8055 277.707C56.8055 279.037 57.7055 280.307 59.2055 280.307ZM59.2055 279.647C58.2455 279.647 57.7055 278.817 57.7055 277.707C57.7055 276.597 58.2455 275.767 59.2055 275.767C60.1655 275.767 60.7055 276.597 60.7055 277.707C60.7055 278.817 60.1655 279.647 59.2055 279.647ZM62.7486 274.277H63.7186V273.307H62.7486V274.277ZM63.6486 275.207H62.8186V280.697C62.8186 281.087 62.6786 281.247 62.2586 281.247H61.9086V281.907H62.4886C63.3286 281.907 63.6486 281.507 63.6486 280.787V275.207ZM69.3421 278.627H68.5121C68.4021 279.037 68.1421 279.647 67.2721 279.647C66.3521 279.647 65.7521 278.997 65.7121 277.957H69.4021C69.5421 276.277 68.6421 275.107 67.1521 275.107C65.6621 275.107 64.8721 276.317 64.8721 277.707C64.8721 279.097 65.7021 280.307 67.1921 280.307C68.5621 280.307 69.1621 279.517 69.3421 278.627ZM67.1521 275.767C68.0321 275.767 68.5121 276.397 68.5821 277.297H65.7121C65.7921 276.397 66.2721 275.767 67.1521 275.767ZM70.3213 277.707C70.3213 279.097 71.2313 280.307 72.6713 280.307C73.8813 280.307 74.6513 279.667 74.8713 278.517H74.0413C73.8913 279.327 73.3813 279.647 72.7413 279.647C71.7613 279.647 71.2213 278.797 71.2213 277.707C71.2213 276.647 71.7313 275.767 72.6813 275.767C73.3413 275.767 73.8413 276.067 73.9913 276.877H74.8213C74.6013 275.727 73.8413 275.107 72.6313 275.107C71.2213 275.107 70.3213 276.377 70.3213 277.707ZM76.3036 275.867V279.087C76.3036 279.807 76.6236 280.207 77.4636 280.207H78.3636V279.547H77.6936C77.2736 279.547 77.1336 279.387 77.1336 278.997V275.867H78.4036V275.207H77.1336V274.067H76.3036V275.207H75.3936V275.867H76.3036ZM85.0016 277.107V280.207H85.8316V276.817C85.8316 275.877 85.2616 275.107 84.1916 275.107C83.4516 275.107 82.9416 275.497 82.6816 276.187H82.6616V275.207H81.8616V280.207H82.6916V277.027C82.6916 276.317 83.0316 275.797 83.8516 275.797C84.6616 275.797 85.0016 276.277 85.0016 277.107ZM90.311 276.977V277.137L88.911 277.287C87.851 277.397 86.951 277.727 86.951 278.757C86.951 279.727 87.731 280.307 88.691 280.307C89.471 280.307 90.061 279.917 90.321 279.227H90.341V280.207H91.141V277.167C91.141 275.657 90.231 275.107 89.121 275.107C87.851 275.107 87.181 275.867 87.121 276.787H87.951C87.981 276.197 88.361 275.767 89.121 275.767C89.901 275.767 90.311 276.227 90.311 276.977ZM88.891 279.647C88.301 279.647 87.851 279.297 87.851 278.797C87.851 278.267 88.231 277.997 88.981 277.917L90.311 277.767V278.037C90.311 279.117 89.771 279.647 88.891 279.647ZM93.4435 277.027C93.4435 276.317 93.7335 275.797 94.5735 275.797C95.3635 275.797 95.7035 276.277 95.7035 277.107V280.207H96.5335V277.027C96.5335 276.317 96.8235 275.797 97.6635 275.797C98.4535 275.797 98.7935 276.277 98.7935 277.107V280.207H99.6235V276.817C99.6235 275.877 99.0535 275.107 97.9535 275.107C97.2435 275.107 96.7135 275.497 96.4535 276.187H96.4435C96.2335 275.557 95.7035 275.107 94.8635 275.107C94.1535 275.107 93.6935 275.497 93.4335 276.187H93.4135V275.207H92.6135V280.207H93.4435V277.027ZM105.26 278.627H104.43C104.32 279.037 104.06 279.647 103.19 279.647C102.27 279.647 101.67 278.997 101.63 277.957H105.32C105.46 276.277 104.56 275.107 103.07 275.107C101.58 275.107 100.79 276.317 100.79 277.707C100.79 279.097 101.62 280.307 103.11 280.307C104.48 280.307 105.08 279.517 105.26 278.627ZM103.07 275.767C103.95 275.767 104.43 276.397 104.5 277.297H101.63C101.71 276.397 102.19 275.767 103.07 275.767ZM47.76 292.207H48.59V285.307H47.76V292.207ZM52.2035 292.307C53.7035 292.307 54.6035 291.037 54.6035 289.707C54.6035 288.377 53.7035 287.107 52.2035 287.107C50.7035 287.107 49.8035 288.377 49.8035 289.707C49.8035 291.037 50.7035 292.307 52.2035 292.307ZM52.2035 291.647C51.2435 291.647 50.7035 290.817 50.7035 289.707C50.7035 288.597 51.2435 287.767 52.2035 287.767C53.1635 287.767 53.7035 288.597 53.7035 289.707C53.7035 290.817 53.1635 291.647 52.2035 291.647ZM58.9566 289.107V292.207H59.7866V288.817C59.7866 287.877 59.2166 287.107 58.1466 287.107C57.4066 287.107 56.8966 287.497 56.6366 288.187H56.6166V287.207H55.8166V292.207H56.6466V289.027C56.6466 288.317 56.9866 287.797 57.8066 287.797C58.6166 287.797 58.9566 288.277 58.9566 289.107ZM64.8161 292.037C64.8161 292.927 64.2261 293.347 63.4461 293.347C62.7861 293.347 62.2161 293.057 62.1061 292.347H61.2761C61.4161 293.367 62.1261 294.007 63.4461 294.007C64.8961 294.007 65.6461 293.167 65.6461 292.037V287.207H64.8161V288.267H64.7961C64.5161 287.547 63.9161 287.107 63.1261 287.107C61.7061 287.107 60.9761 288.227 60.9761 289.607C60.9761 290.987 61.7061 292.107 63.1261 292.107C63.9161 292.107 64.5161 291.667 64.7961 290.947H64.8161V292.037ZM61.8761 289.607C61.8761 288.497 62.4161 287.767 63.3761 287.767C64.3361 287.767 64.8561 288.497 64.8561 289.607C64.8561 290.717 64.3361 291.447 63.3761 291.447C62.4161 291.447 61.8761 290.717 61.8761 289.607ZM72.7652 289.107V292.207H73.5952V288.817C73.5952 287.877 73.0252 287.107 71.9552 287.107C71.2152 287.107 70.7052 287.497 70.4452 288.187H70.4252V287.207H69.6252V292.207H70.4552V289.027C70.4552 288.317 70.7952 287.797 71.6152 287.797C72.4252 287.797 72.7652 288.277 72.7652 289.107ZM78.0747 288.977V289.137L76.6747 289.287C75.6147 289.397 74.7147 289.727 74.7147 290.757C74.7147 291.727 75.4947 292.307 76.4547 292.307C77.2347 292.307 77.8247 291.917 78.0847 291.227H78.1047V292.207H78.9047V289.167C78.9047 287.657 77.9947 287.107 76.8847 287.107C75.6147 287.107 74.9447 287.867 74.8847 288.787H75.7147C75.7447 288.197 76.1247 287.767 76.8847 287.767C77.6647 287.767 78.0747 288.227 78.0747 288.977ZM76.6547 291.647C76.0647 291.647 75.6147 291.297 75.6147 290.797C75.6147 290.267 75.9947 289.997 76.7447 289.917L78.0747 289.767V290.037C78.0747 291.117 77.5347 291.647 76.6547 291.647ZM81.2072 289.027C81.2072 288.317 81.4972 287.797 82.3372 287.797C83.1272 287.797 83.4672 288.277 83.4672 289.107V292.207H84.2972V289.027C84.2972 288.317 84.5872 287.797 85.4272 287.797C86.2172 287.797 86.5572 288.277 86.5572 289.107V292.207H87.3872V288.817C87.3872 287.877 86.8172 287.107 85.7172 287.107C85.0072 287.107 84.4772 287.497 84.2172 288.187H84.2072C83.9972 287.557 83.4672 287.107 82.6272 287.107C81.9172 287.107 81.4572 287.497 81.1972 288.187H81.1772V287.207H80.3772V292.207H81.2072V289.027ZM93.0238 290.627H92.1938C92.0838 291.037 91.8238 291.647 90.9538 291.647C90.0338 291.647 89.4338 290.997 89.3938 289.957H93.0838C93.2238 288.277 92.3238 287.107 90.8338 287.107C89.3438 287.107 88.5538 288.317 88.5538 289.707C88.5538 291.097 89.3838 292.307 90.8738 292.307C92.2438 292.307 92.8438 291.517 93.0238 290.627ZM90.8338 287.767C91.7138 287.767 92.1938 288.397 92.2638 289.297H89.3938C89.4738 288.397 89.9538 287.767 90.8338 287.767Z" fill="white"/>
<path d="M54.104 316.87H51.8V306.886H50.744L50.728 307.014C50.616 307.942 50.28 308.582 48.632 308.582H47.832V309.638H50.472V316.87H47.832V317.926H54.104V316.87ZM61.591 314.23C61.591 316.07 60.503 317.03 59.159 317.03C57.463 317.03 56.759 315.75 56.615 314.55H55.287C55.511 316.726 56.967 318.086 59.095 318.086C61.431 318.086 63.031 316.678 63.031 314.23C63.031 311.702 61.287 310.358 59.447 310.358C58.215 310.358 57.335 310.95 56.871 311.926H56.839V307.942H62.391V306.886H55.511V312.79H56.839C57.239 311.798 58.007 311.43 58.999 311.43C60.247 311.43 61.591 312.214 61.591 314.23ZM64.838 311.478H66.39V309.926H64.838V311.478ZM64.838 317.926H66.39V316.374H64.838V317.926ZM74.5884 316.87H72.2844V306.886H71.2284L71.2124 307.014C71.1004 307.942 70.7644 308.582 69.1164 308.582H68.3164V309.638H70.9564V316.87H68.3164V317.926H74.5884V316.87ZM79.729 318.086C82.401 318.086 83.985 315.782 83.985 312.406C83.985 309.03 82.401 306.726 79.729 306.726C77.057 306.726 75.489 309.03 75.489 312.406C75.489 315.782 77.057 318.086 79.729 318.086ZM79.729 317.03C77.921 317.03 76.929 315.254 76.929 312.406C76.929 309.558 77.921 307.782 79.729 307.782C81.537 307.782 82.545 309.574 82.545 312.406C82.545 315.238 81.537 317.03 79.729 317.03ZM90.2693 317.926H91.6453V313.494H93.8853C96.5573 313.494 98.2373 312.326 98.2373 310.182C98.2373 308.038 96.5573 306.886 93.8853 306.886H90.2693V317.926ZM94.0453 308.038C95.7573 308.038 96.7493 308.758 96.7493 310.182C96.7493 311.606 95.7573 312.342 94.0453 312.342H91.6453V308.038H94.0453ZM105.839 317.862L102.975 306.886H100.207V317.926H101.583V306.95L104.415 317.926H107.263L110.095 306.95V317.926H111.471V306.886H108.703L105.839 317.862Z" fill="white"/>
<rect x="121.491" y="303.713" width="46.0599" height="17.424" rx="1.58" fill="#16AF4A"/>
<path d="M135.564 314.926V309.84H134.93V314.926H135.564ZM139.275 312.641V314.926H139.887V312.427C139.887 311.734 139.467 311.167 138.678 311.167C138.133 311.167 137.757 311.454 137.565 311.963H137.55V311.24H136.961V314.926H137.572V312.582C137.572 312.058 137.823 311.675 138.427 311.675C139.024 311.675 139.275 312.029 139.275 312.641ZM140.698 311.24L141.781 314.926H143.034L144.118 311.24H143.484L142.408 314.896L141.332 311.24H140.698ZM147.995 313.761H147.383C147.302 314.063 147.111 314.513 146.469 314.513C145.791 314.513 145.349 314.034 145.319 313.267H148.039C148.143 312.029 147.479 311.167 146.381 311.167C145.283 311.167 144.7 312.058 144.7 313.083C144.7 314.108 145.312 314.999 146.41 314.999C147.42 314.999 147.862 314.417 147.995 313.761ZM146.381 311.653C147.03 311.653 147.383 312.117 147.435 312.781H145.319C145.378 312.117 145.732 311.653 146.381 311.653ZM151.26 313.96C151.26 314.307 150.869 314.513 150.397 314.513C149.845 314.513 149.461 314.144 149.425 313.636H148.813C148.857 314.329 149.417 314.999 150.375 314.999C151.334 314.999 151.85 314.557 151.85 313.923C151.85 313.326 151.496 312.965 150.788 312.803L150.294 312.692C149.741 312.567 149.52 312.464 149.52 312.162C149.52 311.823 149.867 311.653 150.294 311.653C150.81 311.653 151.112 311.904 151.164 312.331H151.776C151.724 311.653 151.135 311.167 150.294 311.167C149.506 311.167 148.923 311.609 148.923 312.221C148.923 312.803 149.351 313.12 150.058 313.275L150.552 313.385C151.112 313.511 151.26 313.717 151.26 313.96ZM153.076 311.727V314.1C153.076 314.631 153.312 314.926 153.931 314.926H154.594V314.439H154.1C153.791 314.439 153.688 314.321 153.688 314.034V311.727H154.624V311.24H153.688V310.4H153.076V311.24H152.405V311.727H153.076Z" fill="white"/>
<rect x="23.5" y="261.264" width="156" height="72.1465" rx="2.5" stroke="#C4C4C4"/>
<rect x="23" y="172.182" width="73.1465" height="12" rx="3" transform="rotate(-90 23 172.182)" fill="#8A8A8A"/>
<path d="M47.93 118.479H48.79V115.709H50.19C51.86 115.709 52.91 114.979 52.91 113.639C52.91 112.299 51.86 111.579 50.19 111.579H47.93V118.479ZM50.29 112.299C51.36 112.299 51.98 112.749 51.98 113.639C51.98 114.529 51.36 114.989 50.29 114.989H48.79V112.299H50.29ZM54.8009 115.479C54.8009 114.579 55.3109 114.279 56.1209 114.279H56.3009V113.379C55.5609 113.379 55.0509 113.769 54.7909 114.459H54.7709V113.479H53.9709V118.479H54.8009V115.479ZM59.2055 118.579C60.7055 118.579 61.6055 117.309 61.6055 115.979C61.6055 114.649 60.7055 113.379 59.2055 113.379C57.7055 113.379 56.8055 114.649 56.8055 115.979C56.8055 117.309 57.7055 118.579 59.2055 118.579ZM59.2055 117.919C58.2455 117.919 57.7055 117.089 57.7055 115.979C57.7055 114.869 58.2455 114.039 59.2055 114.039C60.1655 114.039 60.7055 114.869 60.7055 115.979C60.7055 117.089 60.1655 117.919 59.2055 117.919ZM62.7486 112.549H63.7186V111.579H62.7486V112.549ZM63.6486 113.479H62.8186V118.969C62.8186 119.359 62.6786 119.519 62.2586 119.519H61.9086V120.179H62.4886C63.3286 120.179 63.6486 119.779 63.6486 119.059V113.479ZM69.3421 116.899H68.5121C68.4021 117.309 68.1421 117.919 67.2721 117.919C66.3521 117.919 65.7521 117.269 65.7121 116.229H69.4021C69.5421 114.549 68.6421 113.379 67.1521 113.379C65.6621 113.379 64.8721 114.589 64.8721 115.979C64.8721 117.369 65.7021 118.579 67.1921 118.579C68.5621 118.579 69.1621 117.789 69.3421 116.899ZM67.1521 114.039C68.0321 114.039 68.5121 114.669 68.5821 115.569H65.7121C65.7921 114.669 66.2721 114.039 67.1521 114.039ZM70.3213 115.979C70.3213 117.369 71.2313 118.579 72.6713 118.579C73.8813 118.579 74.6513 117.939 74.8713 116.789H74.0413C73.8913 117.599 73.3813 117.919 72.7413 117.919C71.7613 117.919 71.2213 117.069 71.2213 115.979C71.2213 114.919 71.7313 114.039 72.6813 114.039C73.3413 114.039 73.8413 114.339 73.9913 115.149H74.8213C74.6013 113.999 73.8413 113.379 72.6313 113.379C71.2213 113.379 70.3213 114.649 70.3213 115.979ZM76.3036 114.139V117.359C76.3036 118.079 76.6236 118.479 77.4636 118.479H78.3636V117.819H77.6936C77.2736 117.819 77.1336 117.659 77.1336 117.269V114.139H78.4036V113.479H77.1336V112.339H76.3036V113.479H75.3936V114.139H76.3036ZM85.0016 115.379V118.479H85.8316V115.089C85.8316 114.149 85.2616 113.379 84.1916 113.379C83.4516 113.379 82.9416 113.769 82.6816 114.459H82.6616V113.479H81.8616V118.479H82.6916V115.299C82.6916 114.589 83.0316 114.069 83.8516 114.069C84.6616 114.069 85.0016 114.549 85.0016 115.379ZM90.311 115.249V115.409L88.911 115.559C87.851 115.669 86.951 115.999 86.951 117.029C86.951 117.999 87.731 118.579 88.691 118.579C89.471 118.579 90.061 118.189 90.321 117.499H90.341V118.479H91.141V115.439C91.141 113.929 90.231 113.379 89.121 113.379C87.851 113.379 87.181 114.139 87.121 115.059H87.951C87.981 114.469 88.361 114.039 89.121 114.039C89.901 114.039 90.311 114.499 90.311 115.249ZM88.891 117.919C88.301 117.919 87.851 117.569 87.851 117.069C87.851 116.539 88.231 116.269 88.981 116.189L90.311 116.039V116.309C90.311 117.389 89.771 117.919 88.891 117.919ZM93.4435 115.299C93.4435 114.589 93.7335 114.069 94.5735 114.069C95.3635 114.069 95.7035 114.549 95.7035 115.379V118.479H96.5335V115.299C96.5335 114.589 96.8235 114.069 97.6635 114.069C98.4535 114.069 98.7935 114.549 98.7935 115.379V118.479H99.6235V115.089C99.6235 114.149 99.0535 113.379 97.9535 113.379C97.2435 113.379 96.7135 113.769 96.4535 114.459H96.4435C96.2335 113.829 95.7035 113.379 94.8635 113.379C94.1535 113.379 93.6935 113.769 93.4335 114.459H93.4135V113.479H92.6135V118.479H93.4435V115.299ZM105.26 116.899H104.43C104.32 117.309 104.06 117.919 103.19 117.919C102.27 117.919 101.67 117.269 101.63 116.229H105.32C105.46 114.549 104.56 113.379 103.07 113.379C101.58 113.379 100.79 114.589 100.79 115.979C100.79 117.369 101.62 118.579 103.11 118.579C104.48 118.579 105.08 117.789 105.26 116.899ZM103.07 114.039C103.95 114.039 104.43 114.669 104.5 115.569H101.63C101.71 114.669 102.19 114.039 103.07 114.039ZM47.76 130.479H48.59V123.579H47.76V130.479ZM52.2035 130.579C53.7035 130.579 54.6035 129.309 54.6035 127.979C54.6035 126.649 53.7035 125.379 52.2035 125.379C50.7035 125.379 49.8035 126.649 49.8035 127.979C49.8035 129.309 50.7035 130.579 52.2035 130.579ZM52.2035 129.919C51.2435 129.919 50.7035 129.089 50.7035 127.979C50.7035 126.869 51.2435 126.039 52.2035 126.039C53.1635 126.039 53.7035 126.869 53.7035 127.979C53.7035 129.089 53.1635 129.919 52.2035 129.919ZM58.9566 127.379V130.479H59.7866V127.089C59.7866 126.149 59.2166 125.379 58.1466 125.379C57.4066 125.379 56.8966 125.769 56.6366 126.459H56.6166V125.479H55.8166V130.479H56.6466V127.299C56.6466 126.589 56.9866 126.069 57.8066 126.069C58.6166 126.069 58.9566 126.549 58.9566 127.379ZM64.8161 130.309C64.8161 131.199 64.2261 131.619 63.4461 131.619C62.7861 131.619 62.2161 131.329 62.1061 130.619H61.2761C61.4161 131.639 62.1261 132.279 63.4461 132.279C64.8961 132.279 65.6461 131.439 65.6461 130.309V125.479H64.8161V126.539H64.7961C64.5161 125.819 63.9161 125.379 63.1261 125.379C61.7061 125.379 60.9761 126.499 60.9761 127.879C60.9761 129.259 61.7061 130.379 63.1261 130.379C63.9161 130.379 64.5161 129.939 64.7961 129.219H64.8161V130.309ZM61.8761 127.879C61.8761 126.769 62.4161 126.039 63.3761 126.039C64.3361 126.039 64.8561 126.769 64.8561 127.879C64.8561 128.989 64.3361 129.719 63.3761 129.719C62.4161 129.719 61.8761 128.989 61.8761 127.879ZM72.7652 127.379V130.479H73.5952V127.089C73.5952 126.149 73.0252 125.379 71.9552 125.379C71.2152 125.379 70.7052 125.769 70.4452 126.459H70.4252V125.479H69.6252V130.479H70.4552V127.299C70.4552 126.589 70.7952 126.069 71.6152 126.069C72.4252 126.069 72.7652 126.549 72.7652 127.379ZM78.0747 127.249V127.409L76.6747 127.559C75.6147 127.669 74.7147 127.999 74.7147 129.029C74.7147 129.999 75.4947 130.579 76.4547 130.579C77.2347 130.579 77.8247 130.189 78.0847 129.499H78.1047V130.479H78.9047V127.439C78.9047 125.929 77.9947 125.379 76.8847 125.379C75.6147 125.379 74.9447 126.139 74.8847 127.059H75.7147C75.7447 126.469 76.1247 126.039 76.8847 126.039C77.6647 126.039 78.0747 126.499 78.0747 127.249ZM76.6547 129.919C76.0647 129.919 75.6147 129.569 75.6147 129.069C75.6147 128.539 75.9947 128.269 76.7447 128.189L78.0747 128.039V128.309C78.0747 129.389 77.5347 129.919 76.6547 129.919ZM81.2072 127.299C81.2072 126.589 81.4972 126.069 82.3372 126.069C83.1272 126.069 83.4672 126.549 83.4672 127.379V130.479H84.2972V127.299C84.2972 126.589 84.5872 126.069 85.4272 126.069C86.2172 126.069 86.5572 126.549 86.5572 127.379V130.479H87.3872V127.089C87.3872 126.149 86.8172 125.379 85.7172 125.379C85.0072 125.379 84.4772 125.769 84.2172 126.459H84.2072C83.9972 125.829 83.4672 125.379 82.6272 125.379C81.9172 125.379 81.4572 125.769 81.1972 126.459H81.1772V125.479H80.3772V130.479H81.2072V127.299ZM93.0238 128.899H92.1938C92.0838 129.309 91.8238 129.919 90.9538 129.919C90.0338 129.919 89.4338 129.269 89.3938 128.229H93.0838C93.2238 126.549 92.3238 125.379 90.8338 125.379C89.3438 125.379 88.5538 126.589 88.5538 127.979C88.5538 129.369 89.3838 130.579 90.8738 130.579C92.2438 130.579 92.8438 129.789 93.0238 128.899ZM90.8338 126.039C91.7138 126.039 92.1938 126.669 92.2638 127.569H89.3938C89.4738 126.669 89.9538 126.039 90.8338 126.039Z" fill="white"/>
<path d="M54.104 155.141H51.8V145.157H50.744L50.728 145.285C50.616 146.213 50.28 146.853 48.632 146.853H47.832V147.909H50.472V155.141H47.832V156.197H54.104V155.141ZM61.591 152.501C61.591 154.341 60.503 155.301 59.159 155.301C57.463 155.301 56.759 154.021 56.615 152.821H55.287C55.511 154.997 56.967 156.357 59.095 156.357C61.431 156.357 63.031 154.949 63.031 152.501C63.031 149.973 61.287 148.629 59.447 148.629C58.215 148.629 57.335 149.221 56.871 150.197H56.839V146.213H62.391V145.157H55.511V151.061H56.839C57.239 150.069 58.007 149.701 58.999 149.701C60.247 149.701 61.591 150.485 61.591 152.501ZM64.838 149.749H66.39V148.197H64.838V149.749ZM64.838 156.197H66.39V154.645H64.838V156.197ZM74.5884 155.141H72.2844V145.157H71.2284L71.2124 145.285C71.1004 146.213 70.7644 146.853 69.1164 146.853H68.3164V147.909H70.9564V155.141H68.3164V156.197H74.5884V155.141ZM79.729 156.357C82.401 156.357 83.985 154.053 83.985 150.677C83.985 147.301 82.401 144.997 79.729 144.997C77.057 144.997 75.489 147.301 75.489 150.677C75.489 154.053 77.057 156.357 79.729 156.357ZM79.729 155.301C77.921 155.301 76.929 153.525 76.929 150.677C76.929 147.829 77.921 146.053 79.729 146.053C81.537 146.053 82.545 147.845 82.545 150.677C82.545 153.509 81.537 155.301 79.729 155.301ZM90.2693 156.197H91.6453V151.765H93.8853C96.5573 151.765 98.2373 150.597 98.2373 148.453C98.2373 146.309 96.5573 145.157 93.8853 145.157H90.2693V156.197ZM94.0453 146.309C95.7573 146.309 96.7493 147.029 96.7493 148.453C96.7493 149.877 95.7573 150.613 94.0453 150.613H91.6453V146.309H94.0453ZM105.839 156.133L102.975 145.157H100.207V156.197H101.583V145.221L104.415 156.197H107.263L110.095 145.221V156.197H111.471V145.157H108.703L105.839 156.133Z" fill="white"/>
<rect x="121.491" y="141.984" width="46.0599" height="17.424" rx="1.58" fill="#DE6D3C"/>
<path d="M135.866 151.281C135.866 152.165 135.505 152.74 134.62 152.74C133.736 152.74 133.375 152.165 133.375 151.281V148.111H132.741V151.17C132.741 152.615 133.441 153.271 134.62 153.271C135.8 153.271 136.5 152.615 136.5 151.17V148.111H135.866V151.281ZM141.281 151.355C141.281 150.337 140.743 149.438 139.696 149.438C139.114 149.438 138.672 149.762 138.465 150.293H138.45V149.512H137.839V154.45H138.45V152.416H138.465C138.672 152.947 139.114 153.271 139.696 153.271C140.743 153.271 141.281 152.372 141.281 151.355ZM140.618 151.355C140.618 152.173 140.22 152.784 139.512 152.784C138.804 152.784 138.421 152.173 138.421 151.355C138.421 150.536 138.804 149.925 139.512 149.925C140.22 149.925 140.618 150.536 140.618 151.355ZM142.12 151.355C142.12 152.372 142.658 153.271 143.705 153.271C144.287 153.271 144.729 152.947 144.936 152.416H144.951V153.197H145.562V148.111H144.951V150.293H144.936C144.729 149.762 144.287 149.438 143.705 149.438C142.658 149.438 142.12 150.337 142.12 151.355ZM142.783 151.355C142.783 150.536 143.181 149.925 143.889 149.925C144.597 149.925 144.98 150.536 144.98 151.355C144.98 152.173 144.597 152.784 143.889 152.784C143.181 152.784 142.783 152.173 142.783 151.355ZM149.048 150.816V150.934L148.016 151.045C147.234 151.126 146.571 151.369 146.571 152.128C146.571 152.843 147.146 153.271 147.854 153.271C148.428 153.271 148.863 152.984 149.055 152.475H149.07V153.197H149.659V150.956C149.659 149.843 148.989 149.438 148.17 149.438C147.234 149.438 146.741 149.998 146.696 150.676H147.308C147.33 150.242 147.61 149.925 148.17 149.925C148.745 149.925 149.048 150.264 149.048 150.816ZM148.001 152.784C147.566 152.784 147.234 152.527 147.234 152.158C147.234 151.767 147.514 151.568 148.067 151.509L149.048 151.399V151.598C149.048 152.394 148.65 152.784 148.001 152.784ZM151.1 149.998V152.372C151.1 152.902 151.336 153.197 151.955 153.197H152.618V152.711H152.125C151.815 152.711 151.712 152.593 151.712 152.305V149.998H152.648V149.512H151.712V148.671H151.1V149.512H150.429V149.998H151.1ZM156.554 152.033H155.942C155.861 152.335 155.669 152.784 155.028 152.784C154.35 152.784 153.907 152.305 153.878 151.539H156.598C156.701 150.3 156.038 149.438 154.939 149.438C153.841 149.438 153.259 150.33 153.259 151.355C153.259 152.379 153.87 153.271 154.969 153.271C155.979 153.271 156.421 152.689 156.554 152.033ZM154.939 149.925C155.588 149.925 155.942 150.389 155.993 151.052H153.878C153.937 150.389 154.291 149.925 154.939 149.925Z" fill="white"/>
<rect x="23.5" y="99.5352" width="156" height="72.1465" rx="2.5" stroke="#C4C4C4"/>
<rect x="187.201" y="160.197" width="3" height="121" rx="1.5" fill="#8A8A8A"/>
<rect x="187.201" y="175.197" width="3" height="19" rx="1.5" fill="#1F1F1F"/>
<rect x="429.5" y="5.97852" width="193" height="339" rx="2.5" fill="#653EE2" stroke="white"/>
<path d="M456.816 24.9185L453.672 41.3825L449.784 24.9185H447.744L451.656 41.4785H455.688L458.832 25.0145L461.976 41.4785H466.008L469.92 24.9185H467.88L463.992 41.3825L460.848 24.9185H456.816ZM481.918 37.6865H479.926C479.662 38.6705 479.038 40.1345 476.95 40.1345C474.742 40.1345 473.302 38.5745 473.206 36.0785H482.062C482.398 32.0465 480.238 29.2385 476.662 29.2385C473.086 29.2385 471.19 32.1425 471.19 35.4785C471.19 38.8145 473.182 41.7185 476.758 41.7185C480.046 41.7185 481.486 39.8225 481.918 37.6865ZM476.662 30.8225C478.774 30.8225 479.926 32.3345 480.094 34.4945H473.206C473.398 32.3345 474.55 30.8225 476.662 30.8225ZM484.292 35.4785C484.292 38.7905 486.044 41.7185 489.452 41.7185C491.348 41.7185 492.788 40.6625 493.46 38.9345H493.508V41.4785H495.5V24.9185H493.508V32.0225H493.46C492.788 30.2945 491.348 29.2385 489.452 29.2385C486.044 29.2385 484.292 32.1665 484.292 35.4785ZM486.452 35.4785C486.452 32.8145 487.748 30.8225 490.052 30.8225C492.356 30.8225 493.604 32.8145 493.604 35.4785C493.604 38.1425 492.356 40.1345 490.052 40.1345C487.748 40.1345 486.452 38.1425 486.452 35.4785ZM453.744 70.7185C456.792 70.7185 459.192 68.9905 459.192 65.9905C459.192 63.4465 457.272 62.3185 455.016 61.9345V61.8865C457.128 61.5265 458.88 60.2065 458.88 58.1185C458.88 55.2865 456.696 53.6785 453.552 53.6785C450.96 53.6785 448.68 55.2625 448.344 58.4785H450.336C450.528 56.4865 451.56 55.2625 453.696 55.2625C455.688 55.2625 456.72 56.4145 456.72 57.9505C456.72 60.3265 455.232 61.0225 451.944 61.1185V62.7025C455.352 62.7985 457.032 63.5905 457.032 66.1825C457.032 67.9825 455.76 69.1345 453.936 69.1345C451.224 69.1345 450.384 67.4305 450.144 65.4865H448.152C448.512 68.8945 450.84 70.7185 453.744 70.7185Z" fill="white"/>
<rect x="447" y="253.047" width="73.1465" height="12" rx="3" transform="rotate(-90 447 253.047)" fill="white"/>
<path d="M471.93 199.344H472.79V196.574H474.19C475.86 196.574 476.91 195.844 476.91 194.504C476.91 193.164 475.86 192.444 474.19 192.444H471.93V199.344ZM474.29 193.164C475.36 193.164 475.98 193.614 475.98 194.504C475.98 195.394 475.36 195.854 474.29 195.854H472.79V193.164H474.29ZM478.801 196.344C478.801 195.444 479.311 195.144 480.121 195.144H480.301V194.244C479.561 194.244 479.051 194.634 478.791 195.324H478.771V194.344H477.971V199.344H478.801V196.344ZM483.205 199.444C484.705 199.444 485.605 198.174 485.605 196.844C485.605 195.514 484.705 194.244 483.205 194.244C481.705 194.244 480.805 195.514 480.805 196.844C480.805 198.174 481.705 199.444 483.205 199.444ZM483.205 198.784C482.245 198.784 481.705 197.954 481.705 196.844C481.705 195.734 482.245 194.904 483.205 194.904C484.165 194.904 484.705 195.734 484.705 196.844C484.705 197.954 484.165 198.784 483.205 198.784ZM486.749 193.414H487.719V192.444H486.749V193.414ZM487.649 194.344H486.819V199.834C486.819 200.224 486.679 200.384 486.259 200.384H485.909V201.044H486.489C487.329 201.044 487.649 200.644 487.649 199.924V194.344ZM493.342 197.764H492.512C492.402 198.174 492.142 198.784 491.272 198.784C490.352 198.784 489.752 198.134 489.712 197.094H493.402C493.542 195.414 492.642 194.244 491.152 194.244C489.662 194.244 488.872 195.454 488.872 196.844C488.872 198.234 489.702 199.444 491.192 199.444C492.562 199.444 493.162 198.654 493.342 197.764ZM491.152 194.904C492.032 194.904 492.512 195.534 492.582 196.434H489.712C489.792 195.534 490.272 194.904 491.152 194.904ZM494.321 196.844C494.321 198.234 495.231 199.444 496.671 199.444C497.881 199.444 498.651 198.804 498.871 197.654H498.041C497.891 198.464 497.381 198.784 496.741 198.784C495.761 198.784 495.221 197.934 495.221 196.844C495.221 195.784 495.731 194.904 496.681 194.904C497.341 194.904 497.841 195.204 497.991 196.014H498.821C498.601 194.864 497.841 194.244 496.631 194.244C495.221 194.244 494.321 195.514 494.321 196.844ZM500.304 195.004V198.224C500.304 198.944 500.624 199.344 501.464 199.344H502.364V198.684H501.694C501.274 198.684 501.134 198.524 501.134 198.134V195.004H502.404V194.344H501.134V193.204H500.304V194.344H499.394V195.004H500.304ZM509.002 196.244V199.344H509.832V195.954C509.832 195.014 509.262 194.244 508.192 194.244C507.452 194.244 506.942 194.634 506.682 195.324H506.662V194.344H505.862V199.344H506.692V196.164C506.692 195.454 507.032 194.934 507.852 194.934C508.662 194.934 509.002 195.414 509.002 196.244ZM514.311 196.114V196.274L512.911 196.424C511.851 196.534 510.951 196.864 510.951 197.894C510.951 198.864 511.731 199.444 512.691 199.444C513.471 199.444 514.061 199.054 514.321 198.364H514.341V199.344H515.141V196.304C515.141 194.794 514.231 194.244 513.121 194.244C511.851 194.244 511.181 195.004 511.121 195.924H511.951C511.981 195.334 512.361 194.904 513.121 194.904C513.901 194.904 514.311 195.364 514.311 196.114ZM512.891 198.784C512.301 198.784 511.851 198.434 511.851 197.934C511.851 197.404 512.231 197.134 512.981 197.054L514.311 196.904V197.174C514.311 198.254 513.771 198.784 512.891 198.784ZM517.444 196.164C517.444 195.454 517.734 194.934 518.574 194.934C519.364 194.934 519.704 195.414 519.704 196.244V199.344H520.534V196.164C520.534 195.454 520.824 194.934 521.664 194.934C522.454 194.934 522.794 195.414 522.794 196.244V199.344H523.624V195.954C523.624 195.014 523.054 194.244 521.954 194.244C521.244 194.244 520.714 194.634 520.454 195.324H520.444C520.234 194.694 519.704 194.244 518.864 194.244C518.154 194.244 517.694 194.634 517.434 195.324H517.414V194.344H516.614V199.344H517.444V196.164ZM529.26 197.764H528.43C528.32 198.174 528.06 198.784 527.19 198.784C526.27 198.784 525.67 198.134 525.63 197.094H529.32C529.46 195.414 528.56 194.244 527.07 194.244C525.58 194.244 524.79 195.454 524.79 196.844C524.79 198.234 525.62 199.444 527.11 199.444C528.48 199.444 529.08 198.654 529.26 197.764ZM527.07 194.904C527.95 194.904 528.43 195.534 528.5 196.434H525.63C525.71 195.534 526.19 194.904 527.07 194.904ZM471.76 211.344H472.59V204.444H471.76V211.344ZM476.204 211.444C477.704 211.444 478.604 210.174 478.604 208.844C478.604 207.514 477.704 206.244 476.204 206.244C474.704 206.244 473.804 207.514 473.804 208.844C473.804 210.174 474.704 211.444 476.204 211.444ZM476.204 210.784C475.244 210.784 474.704 209.954 474.704 208.844C474.704 207.734 475.244 206.904 476.204 206.904C477.164 206.904 477.704 207.734 477.704 208.844C477.704 209.954 477.164 210.784 476.204 210.784ZM482.957 208.244V211.344H483.787V207.954C483.787 207.014 483.217 206.244 482.147 206.244C481.407 206.244 480.897 206.634 480.637 207.324H480.617V206.344H479.817V211.344H480.647V208.164C480.647 207.454 480.987 206.934 481.807 206.934C482.617 206.934 482.957 207.414 482.957 208.244ZM488.816 211.174C488.816 212.064 488.226 212.484 487.446 212.484C486.786 212.484 486.216 212.194 486.106 211.484H485.276C485.416 212.504 486.126 213.144 487.446 213.144C488.896 213.144 489.646 212.304 489.646 211.174V206.344H488.816V207.404H488.796C488.516 206.684 487.916 206.244 487.126 206.244C485.706 206.244 484.976 207.364 484.976 208.744C484.976 210.124 485.706 211.244 487.126 211.244C487.916 211.244 488.516 210.804 488.796 210.084H488.816V211.174ZM485.876 208.744C485.876 207.634 486.416 206.904 487.376 206.904C488.336 206.904 488.856 207.634 488.856 208.744C488.856 209.854 488.336 210.584 487.376 210.584C486.416 210.584 485.876 209.854 485.876 208.744ZM496.765 208.244V211.344H497.595V207.954C497.595 207.014 497.025 206.244 495.955 206.244C495.215 206.244 494.705 206.634 494.445 207.324H494.425V206.344H493.625V211.344H494.455V208.164C494.455 207.454 494.795 206.934 495.615 206.934C496.425 206.934 496.765 207.414 496.765 208.244ZM502.075 208.114V208.274L500.675 208.424C499.615 208.534 498.715 208.864 498.715 209.894C498.715 210.864 499.495 211.444 500.455 211.444C501.235 211.444 501.825 211.054 502.085 210.364H502.105V211.344H502.905V208.304C502.905 206.794 501.995 206.244 500.885 206.244C499.615 206.244 498.945 207.004 498.885 207.924H499.715C499.745 207.334 500.125 206.904 500.885 206.904C501.665 206.904 502.075 207.364 502.075 208.114ZM500.655 210.784C500.065 210.784 499.615 210.434 499.615 209.934C499.615 209.404 499.995 209.134 500.745 209.054L502.075 208.904V209.174C502.075 210.254 501.535 210.784 500.655 210.784ZM505.207 208.164C505.207 207.454 505.497 206.934 506.337 206.934C507.127 206.934 507.467 207.414 507.467 208.244V211.344H508.297V208.164C508.297 207.454 508.587 206.934 509.427 206.934C510.217 206.934 510.557 207.414 510.557 208.244V211.344H511.387V207.954C511.387 207.014 510.817 206.244 509.717 206.244C509.007 206.244 508.477 206.634 508.217 207.324H508.207C507.997 206.694 507.467 206.244 506.627 206.244C505.917 206.244 505.457 206.634 505.197 207.324H505.177V206.344H504.377V211.344H505.207V208.164ZM517.024 209.764H516.194C516.084 210.174 515.824 210.784 514.954 210.784C514.034 210.784 513.434 210.134 513.394 209.094H517.084C517.224 207.414 516.324 206.244 514.834 206.244C513.344 206.244 512.554 207.454 512.554 208.844C512.554 210.234 513.384 211.444 514.874 211.444C516.244 211.444 516.844 210.654 517.024 209.764ZM514.834 206.904C515.714 206.904 516.194 207.534 516.264 208.434H513.394C513.474 207.534 513.954 206.904 514.834 206.904Z" fill="white"/>
<path d="M479.176 237.193V236.137H473.608L476.6 233.097C478.264 231.401 479.064 230.537 479.064 229.145C479.064 227.529 477.72 225.993 475.4 225.993C473.528 225.993 471.832 227.273 471.832 229.673H473.16C473.16 228.025 473.976 227.049 475.4 227.049C477 227.049 477.672 228.217 477.672 229.305C477.672 230.249 477.256 230.697 476.12 231.865L471.752 236.297V237.193H479.176ZM485.057 237.353C487.729 237.353 489.313 235.049 489.313 231.673C489.313 228.297 487.729 225.993 485.057 225.993C482.385 225.993 480.817 228.297 480.817 231.673C480.817 235.049 482.385 237.353 485.057 237.353ZM485.057 236.297C483.249 236.297 482.257 234.521 482.257 231.673C482.257 228.825 483.249 227.049 485.057 227.049C486.865 227.049 487.873 228.841 487.873 231.673C487.873 234.505 486.865 236.297 485.057 236.297ZM491.26 230.745H492.812V229.193H491.26V230.745ZM491.26 237.193H492.812V235.641H491.26V237.193ZM499.01 237.353C501.682 237.353 503.266 235.049 503.266 231.673C503.266 228.297 501.682 225.993 499.01 225.993C496.338 225.993 494.77 228.297 494.77 231.673C494.77 235.049 496.338 237.353 499.01 237.353ZM499.01 236.297C497.202 236.297 496.21 234.521 496.21 231.673C496.21 228.825 497.202 227.049 499.01 227.049C500.818 227.049 501.826 228.841 501.826 231.673C501.826 234.505 500.818 236.297 499.01 236.297ZM509.229 237.353C511.901 237.353 513.485 235.049 513.485 231.673C513.485 228.297 511.901 225.993 509.229 225.993C506.557 225.993 504.989 228.297 504.989 231.673C504.989 235.049 506.557 237.353 509.229 237.353ZM509.229 236.297C507.421 236.297 506.429 234.521 506.429 231.673C506.429 228.825 507.421 227.049 509.229 227.049C511.037 227.049 512.045 228.841 512.045 231.673C512.045 234.505 511.037 236.297 509.229 236.297ZM519.769 237.193H521.145V232.761H523.385C526.057 232.761 527.737 231.593 527.737 229.449C527.737 227.305 526.057 226.153 523.385 226.153H519.769V237.193ZM523.545 227.305C525.257 227.305 526.249 228.025 526.249 229.449C526.249 230.873 525.257 231.609 523.545 231.609H521.145V227.305H523.545ZM535.339 237.129L532.475 226.153H529.707V237.193H531.083V226.217L533.915 237.193H536.763L539.595 226.217V237.193H540.971V226.153H538.203L535.339 237.129Z" fill="white"/>
<rect x="545.491" y="222.85" width="46.0599" height="17.424" rx="1.58" fill="#3C73DE"/>
<path d="M561.52 234.062V228.977H560.886V234.062H561.52ZM565.231 231.778V234.062H565.843V231.564C565.843 230.871 565.423 230.303 564.634 230.303C564.089 230.303 563.713 230.591 563.521 231.099H563.507V230.377H562.917V234.062H563.529V231.719C563.529 231.195 563.779 230.812 564.384 230.812C564.981 230.812 565.231 231.166 565.231 231.778ZM567.303 230.864V233.237C567.303 233.768 567.539 234.062 568.158 234.062H568.821V233.576H568.328C568.018 233.576 567.915 233.458 567.915 233.171V230.864H568.851V230.377H567.915V229.537H567.303V230.377H566.632V230.864H567.303ZM570.345 231.851C570.345 231.188 570.721 230.967 571.318 230.967H571.451V230.303C570.905 230.303 570.529 230.591 570.338 231.099H570.323V230.377H569.733V234.062H570.345V231.851ZM573.739 234.136C574.845 234.136 575.508 233.2 575.508 232.22C575.508 231.239 574.845 230.303 573.739 230.303C572.633 230.303 571.97 231.239 571.97 232.22C571.97 233.2 572.633 234.136 573.739 234.136ZM573.739 233.65C573.031 233.65 572.633 233.038 572.633 232.22C572.633 231.402 573.031 230.79 573.739 230.79C574.447 230.79 574.845 231.402 574.845 232.22C574.845 233.038 574.447 233.65 573.739 233.65Z" fill="white"/>
<rect x="447.5" y="180.4" width="156" height="72.1465" rx="2.5" stroke="#C4C4C4"/>
<rect x="447" y="333.91" width="73.1465" height="12" rx="3" transform="rotate(-90 447 333.91)" fill="white"/>
<path d="M471.93 280.207H472.79V277.437H474.19C475.86 277.437 476.91 276.707 476.91 275.367C476.91 274.027 475.86 273.307 474.19 273.307H471.93V280.207ZM474.29 274.027C475.36 274.027 475.98 274.477 475.98 275.367C475.98 276.257 475.36 276.717 474.29 276.717H472.79V274.027H474.29ZM478.801 277.207C478.801 276.307 479.311 276.007 480.121 276.007H480.301V275.107C479.561 275.107 479.051 275.497 478.791 276.187H478.771V275.207H477.971V280.207H478.801V277.207ZM483.205 280.307C484.705 280.307 485.605 279.037 485.605 277.707C485.605 276.377 484.705 275.107 483.205 275.107C481.705 275.107 480.805 276.377 480.805 277.707C480.805 279.037 481.705 280.307 483.205 280.307ZM483.205 279.647C482.245 279.647 481.705 278.817 481.705 277.707C481.705 276.597 482.245 275.767 483.205 275.767C484.165 275.767 484.705 276.597 484.705 277.707C484.705 278.817 484.165 279.647 483.205 279.647ZM486.749 274.277H487.719V273.307H486.749V274.277ZM487.649 275.207H486.819V280.697C486.819 281.087 486.679 281.247 486.259 281.247H485.909V281.907H486.489C487.329 281.907 487.649 281.507 487.649 280.787V275.207ZM493.342 278.627H492.512C492.402 279.037 492.142 279.647 491.272 279.647C490.352 279.647 489.752 278.997 489.712 277.957H493.402C493.542 276.277 492.642 275.107 491.152 275.107C489.662 275.107 488.872 276.317 488.872 277.707C488.872 279.097 489.702 280.307 491.192 280.307C492.562 280.307 493.162 279.517 493.342 278.627ZM491.152 275.767C492.032 275.767 492.512 276.397 492.582 277.297H489.712C489.792 276.397 490.272 275.767 491.152 275.767ZM494.321 277.707C494.321 279.097 495.231 280.307 496.671 280.307C497.881 280.307 498.651 279.667 498.871 278.517H498.041C497.891 279.327 497.381 279.647 496.741 279.647C495.761 279.647 495.221 278.797 495.221 277.707C495.221 276.647 495.731 275.767 496.681 275.767C497.341 275.767 497.841 276.067 497.991 276.877H498.821C498.601 275.727 497.841 275.107 496.631 275.107C495.221 275.107 494.321 276.377 494.321 277.707ZM500.304 275.867V279.087C500.304 279.807 500.624 280.207 501.464 280.207H502.364V279.547H501.694C501.274 279.547 501.134 279.387 501.134 278.997V275.867H502.404V275.207H501.134V274.067H500.304V275.207H499.394V275.867H500.304ZM509.002 277.107V280.207H509.832V276.817C509.832 275.877 509.262 275.107 508.192 275.107C507.452 275.107 506.942 275.497 506.682 276.187H506.662V275.207H505.862V280.207H506.692V277.027C506.692 276.317 507.032 275.797 507.852 275.797C508.662 275.797 509.002 276.277 509.002 277.107ZM514.311 276.977V277.137L512.911 277.287C511.851 277.397 510.951 277.727 510.951 278.757C510.951 279.727 511.731 280.307 512.691 280.307C513.471 280.307 514.061 279.917 514.321 279.227H514.341V280.207H515.141V277.167C515.141 275.657 514.231 275.107 513.121 275.107C511.851 275.107 511.181 275.867 511.121 276.787H511.951C511.981 276.197 512.361 275.767 513.121 275.767C513.901 275.767 514.311 276.227 514.311 276.977ZM512.891 279.647C512.301 279.647 511.851 279.297 511.851 278.797C511.851 278.267 512.231 277.997 512.981 277.917L514.311 277.767V278.037C514.311 279.117 513.771 279.647 512.891 279.647ZM517.444 277.027C517.444 276.317 517.734 275.797 518.574 275.797C519.364 275.797 519.704 276.277 519.704 277.107V280.207H520.534V277.027C520.534 276.317 520.824 275.797 521.664 275.797C522.454 275.797 522.794 276.277 522.794 277.107V280.207H523.624V276.817C523.624 275.877 523.054 275.107 521.954 275.107C521.244 275.107 520.714 275.497 520.454 276.187H520.444C520.234 275.557 519.704 275.107 518.864 275.107C518.154 275.107 517.694 275.497 517.434 276.187H517.414V275.207H516.614V280.207H517.444V277.027ZM529.26 278.627H528.43C528.32 279.037 528.06 279.647 527.19 279.647C526.27 279.647 525.67 278.997 525.63 277.957H529.32C529.46 276.277 528.56 275.107 527.07 275.107C525.58 275.107 524.79 276.317 524.79 277.707C524.79 279.097 525.62 280.307 527.11 280.307C528.48 280.307 529.08 279.517 529.26 278.627ZM527.07 275.767C527.95 275.767 528.43 276.397 528.5 277.297H525.63C525.71 276.397 526.19 275.767 527.07 275.767ZM471.76 292.207H472.59V285.307H471.76V292.207ZM476.204 292.307C477.704 292.307 478.604 291.037 478.604 289.707C478.604 288.377 477.704 287.107 476.204 287.107C474.704 287.107 473.804 288.377 473.804 289.707C473.804 291.037 474.704 292.307 476.204 292.307ZM476.204 291.647C475.244 291.647 474.704 290.817 474.704 289.707C474.704 288.597 475.244 287.767 476.204 287.767C477.164 287.767 477.704 288.597 477.704 289.707C477.704 290.817 477.164 291.647 476.204 291.647ZM482.957 289.107V292.207H483.787V288.817C483.787 287.877 483.217 287.107 482.147 287.107C481.407 287.107 480.897 287.497 480.637 288.187H480.617V287.207H479.817V292.207H480.647V289.027C480.647 288.317 480.987 287.797 481.807 287.797C482.617 287.797 482.957 288.277 482.957 289.107ZM488.816 292.037C488.816 292.927 488.226 293.347 487.446 293.347C486.786 293.347 486.216 293.057 486.106 292.347H485.276C485.416 293.367 486.126 294.007 487.446 294.007C488.896 294.007 489.646 293.167 489.646 292.037V287.207H488.816V288.267H488.796C488.516 287.547 487.916 287.107 487.126 287.107C485.706 287.107 484.976 288.227 484.976 289.607C484.976 290.987 485.706 292.107 487.126 292.107C487.916 292.107 488.516 291.667 488.796 290.947H488.816V292.037ZM485.876 289.607C485.876 288.497 486.416 287.767 487.376 287.767C488.336 287.767 488.856 288.497 488.856 289.607C488.856 290.717 488.336 291.447 487.376 291.447C486.416 291.447 485.876 290.717 485.876 289.607ZM496.765 289.107V292.207H497.595V288.817C497.595 287.877 497.025 287.107 495.955 287.107C495.215 287.107 494.705 287.497 494.445 288.187H494.425V287.207H493.625V292.207H494.455V289.027C494.455 288.317 494.795 287.797 495.615 287.797C496.425 287.797 496.765 288.277 496.765 289.107ZM502.075 288.977V289.137L500.675 289.287C499.615 289.397 498.715 289.727 498.715 290.757C498.715 291.727 499.495 292.307 500.455 292.307C501.235 292.307 501.825 291.917 502.085 291.227H502.105V292.207H502.905V289.167C502.905 287.657 501.995 287.107 500.885 287.107C499.615 287.107 498.945 287.867 498.885 288.787H499.715C499.745 288.197 500.125 287.767 500.885 287.767C501.665 287.767 502.075 288.227 502.075 288.977ZM500.655 291.647C500.065 291.647 499.615 291.297 499.615 290.797C499.615 290.267 499.995 289.997 500.745 289.917L502.075 289.767V290.037C502.075 291.117 501.535 291.647 500.655 291.647ZM505.207 289.027C505.207 288.317 505.497 287.797 506.337 287.797C507.127 287.797 507.467 288.277 507.467 289.107V292.207H508.297V289.027C508.297 288.317 508.587 287.797 509.427 287.797C510.217 287.797 510.557 288.277 510.557 289.107V292.207H511.387V288.817C511.387 287.877 510.817 287.107 509.717 287.107C509.007 287.107 508.477 287.497 508.217 288.187H508.207C507.997 287.557 507.467 287.107 506.627 287.107C505.917 287.107 505.457 287.497 505.197 288.187H505.177V287.207H504.377V292.207H505.207V289.027ZM517.024 290.627H516.194C516.084 291.037 515.824 291.647 514.954 291.647C514.034 291.647 513.434 290.997 513.394 289.957H517.084C517.224 288.277 516.324 287.107 514.834 287.107C513.344 287.107 512.554 288.317 512.554 289.707C512.554 291.097 513.384 292.307 514.874 292.307C516.244 292.307 516.844 291.517 517.024 290.627ZM514.834 287.767C515.714 287.767 516.194 288.397 516.264 289.297H513.394C513.474 288.397 513.954 287.767 514.834 287.767Z" fill="white"/>
<path d="M479.176 317.191V316.135H473.608L476.6 313.095C478.264 311.399 479.064 310.535 479.064 309.143C479.064 307.527 477.72 305.991 475.4 305.991C473.528 305.991 471.832 307.271 471.832 309.671H473.16C473.16 308.023 473.976 307.047 475.4 307.047C477 307.047 477.672 308.215 477.672 309.303C477.672 310.247 477.256 310.695 476.12 311.863L471.752 316.295V317.191H479.176ZM484.449 317.351C486.481 317.351 488.081 316.199 488.081 314.199C488.081 312.503 486.801 311.751 485.297 311.495V311.463C486.705 311.223 487.873 310.343 487.873 308.951C487.873 307.063 486.417 305.991 484.321 305.991C482.593 305.991 481.073 307.047 480.849 309.191H482.177C482.305 307.863 482.993 307.047 484.417 307.047C485.745 307.047 486.433 307.815 486.433 308.839C486.433 310.423 485.441 310.887 483.249 310.951V312.007C485.521 312.071 486.641 312.599 486.641 314.327C486.641 315.527 485.793 316.295 484.577 316.295C482.769 316.295 482.209 315.159 482.049 313.863H480.721C480.961 316.135 482.513 317.351 484.449 317.351ZM490.057 310.743H491.609V309.191H490.057V310.743ZM490.057 317.191H491.609V315.639H490.057V317.191ZM497.807 317.351C500.479 317.351 502.063 315.047 502.063 311.671C502.063 308.295 500.479 305.991 497.807 305.991C495.135 305.991 493.567 308.295 493.567 311.671C493.567 315.047 495.135 317.351 497.807 317.351ZM497.807 316.295C495.999 316.295 495.007 314.519 495.007 311.671C495.007 308.823 495.999 307.047 497.807 307.047C499.615 307.047 500.623 308.839 500.623 311.671C500.623 314.503 499.615 316.295 497.807 316.295ZM508.026 317.351C510.698 317.351 512.282 315.047 512.282 311.671C512.282 308.295 510.698 305.991 508.026 305.991C505.354 305.991 503.786 308.295 503.786 311.671C503.786 315.047 505.354 317.351 508.026 317.351ZM508.026 316.295C506.218 316.295 505.226 314.519 505.226 311.671C505.226 308.823 506.218 307.047 508.026 307.047C509.834 307.047 510.842 308.839 510.842 311.671C510.842 314.503 509.834 316.295 508.026 316.295ZM518.566 317.191H519.942V312.759H522.182C524.854 312.759 526.534 311.591 526.534 309.447C526.534 307.303 524.854 306.151 522.182 306.151H518.566V317.191ZM522.342 307.303C524.054 307.303 525.046 308.023 525.046 309.447C525.046 310.871 524.054 311.607 522.342 311.607H519.942V307.303H522.342ZM534.136 317.127L531.272 306.151H528.504V317.191H529.88V306.215L532.712 317.191H535.56L538.392 306.215V317.191H539.768V306.151H537L534.136 317.127Z" fill="white"/>
<rect x="545.491" y="303.713" width="46.0599" height="17.424" rx="1.58" fill="#16AF4A"/>
<path d="M559.564 314.926V309.84H558.93V314.926H559.564ZM563.275 312.641V314.926H563.887V312.427C563.887 311.734 563.467 311.167 562.678 311.167C562.133 311.167 561.757 311.454 561.565 311.963H561.55V311.24H560.961V314.926H561.572V312.582C561.572 312.058 561.823 311.675 562.427 311.675C563.024 311.675 563.275 312.029 563.275 312.641ZM564.698 311.24L565.781 314.926H567.034L568.118 311.24H567.484L566.408 314.896L565.332 311.24H564.698ZM571.995 313.761H571.383C571.302 314.063 571.111 314.513 570.469 314.513C569.791 314.513 569.349 314.034 569.319 313.267H572.039C572.143 312.029 571.479 311.167 570.381 311.167C569.283 311.167 568.7 312.058 568.7 313.083C568.7 314.108 569.312 314.999 570.41 314.999C571.42 314.999 571.862 314.417 571.995 313.761ZM570.381 311.653C571.03 311.653 571.383 312.117 571.435 312.781H569.319C569.378 312.117 569.732 311.653 570.381 311.653ZM575.26 313.96C575.26 314.307 574.869 314.513 574.397 314.513C573.845 314.513 573.461 314.144 573.425 313.636H572.813C572.857 314.329 573.417 314.999 574.375 314.999C575.334 314.999 575.85 314.557 575.85 313.923C575.85 313.326 575.496 312.965 574.788 312.803L574.294 312.692C573.741 312.567 573.52 312.464 573.52 312.162C573.52 311.823 573.867 311.653 574.294 311.653C574.81 311.653 575.112 311.904 575.164 312.331H575.776C575.724 311.653 575.135 311.167 574.294 311.167C573.506 311.167 572.923 311.609 572.923 312.221C572.923 312.803 573.351 313.12 574.058 313.275L574.552 313.385C575.112 313.511 575.26 313.717 575.26 313.96ZM577.076 311.727V314.1C577.076 314.631 577.312 314.926 577.931 314.926H578.594V314.439H578.1C577.791 314.439 577.688 314.321 577.688 314.034V311.727H578.624V311.24H577.688V310.4H577.076V311.24H576.405V311.727H577.076Z" fill="white"/>
<rect x="447.5" y="261.264" width="156" height="72.1465" rx="2.5" stroke="#C4C4C4"/>
<rect x="447" y="172.182" width="73.1465" height="12" rx="3" transform="rotate(-90 447 172.182)" fill="white"/>
<path d="M471.93 118.479H472.79V115.709H474.19C475.86 115.709 476.91 114.979 476.91 113.639C476.91 112.299 475.86 111.579 474.19 111.579H471.93V118.479ZM474.29 112.299C475.36 112.299 475.98 112.749 475.98 113.639C475.98 114.529 475.36 114.989 474.29 114.989H472.79V112.299H474.29ZM478.801 115.479C478.801 114.579 479.311 114.279 480.121 114.279H480.301V113.379C479.561 113.379 479.051 113.769 478.791 114.459H478.771V113.479H477.971V118.479H478.801V115.479ZM483.205 118.579C484.705 118.579 485.605 117.309 485.605 115.979C485.605 114.649 484.705 113.379 483.205 113.379C481.705 113.379 480.805 114.649 480.805 115.979C480.805 117.309 481.705 118.579 483.205 118.579ZM483.205 117.919C482.245 117.919 481.705 117.089 481.705 115.979C481.705 114.869 482.245 114.039 483.205 114.039C484.165 114.039 484.705 114.869 484.705 115.979C484.705 117.089 484.165 117.919 483.205 117.919ZM486.749 112.549H487.719V111.579H486.749V112.549ZM487.649 113.479H486.819V118.969C486.819 119.359 486.679 119.519 486.259 119.519H485.909V120.179H486.489C487.329 120.179 487.649 119.779 487.649 119.059V113.479ZM493.342 116.899H492.512C492.402 117.309 492.142 117.919 491.272 117.919C490.352 117.919 489.752 117.269 489.712 116.229H493.402C493.542 114.549 492.642 113.379 491.152 113.379C489.662 113.379 488.872 114.589 488.872 115.979C488.872 117.369 489.702 118.579 491.192 118.579C492.562 118.579 493.162 117.789 493.342 116.899ZM491.152 114.039C492.032 114.039 492.512 114.669 492.582 115.569H489.712C489.792 114.669 490.272 114.039 491.152 114.039ZM494.321 115.979C494.321 117.369 495.231 118.579 496.671 118.579C497.881 118.579 498.651 117.939 498.871 116.789H498.041C497.891 117.599 497.381 117.919 496.741 117.919C495.761 117.919 495.221 117.069 495.221 115.979C495.221 114.919 495.731 114.039 496.681 114.039C497.341 114.039 497.841 114.339 497.991 115.149H498.821C498.601 113.999 497.841 113.379 496.631 113.379C495.221 113.379 494.321 114.649 494.321 115.979ZM500.304 114.139V117.359C500.304 118.079 500.624 118.479 501.464 118.479H502.364V117.819H501.694C501.274 117.819 501.134 117.659 501.134 117.269V114.139H502.404V113.479H501.134V112.339H500.304V113.479H499.394V114.139H500.304ZM509.002 115.379V118.479H509.832V115.089C509.832 114.149 509.262 113.379 508.192 113.379C507.452 113.379 506.942 113.769 506.682 114.459H506.662V113.479H505.862V118.479H506.692V115.299C506.692 114.589 507.032 114.069 507.852 114.069C508.662 114.069 509.002 114.549 509.002 115.379ZM514.311 115.249V115.409L512.911 115.559C511.851 115.669 510.951 115.999 510.951 117.029C510.951 117.999 511.731 118.579 512.691 118.579C513.471 118.579 514.061 118.189 514.321 117.499H514.341V118.479H515.141V115.439C515.141 113.929 514.231 113.379 513.121 113.379C511.851 113.379 511.181 114.139 511.121 115.059H511.951C511.981 114.469 512.361 114.039 513.121 114.039C513.901 114.039 514.311 114.499 514.311 115.249ZM512.891 117.919C512.301 117.919 511.851 117.569 511.851 117.069C511.851 116.539 512.231 116.269 512.981 116.189L514.311 116.039V116.309C514.311 117.389 513.771 117.919 512.891 117.919ZM517.444 115.299C517.444 114.589 517.734 114.069 518.574 114.069C519.364 114.069 519.704 114.549 519.704 115.379V118.479H520.534V115.299C520.534 114.589 520.824 114.069 521.664 114.069C522.454 114.069 522.794 114.549 522.794 115.379V118.479H523.624V115.089C523.624 114.149 523.054 113.379 521.954 113.379C521.244 113.379 520.714 113.769 520.454 114.459H520.444C520.234 113.829 519.704 113.379 518.864 113.379C518.154 113.379 517.694 113.769 517.434 114.459H517.414V113.479H516.614V118.479H517.444V115.299ZM529.26 116.899H528.43C528.32 117.309 528.06 117.919 527.19 117.919C526.27 117.919 525.67 117.269 525.63 116.229H529.32C529.46 114.549 528.56 113.379 527.07 113.379C525.58 113.379 524.79 114.589 524.79 115.979C524.79 117.369 525.62 118.579 527.11 118.579C528.48 118.579 529.08 117.789 529.26 116.899ZM527.07 114.039C527.95 114.039 528.43 114.669 528.5 115.569H525.63C525.71 114.669 526.19 114.039 527.07 114.039ZM471.76 130.479H472.59V123.579H471.76V130.479ZM476.204 130.579C477.704 130.579 478.604 129.309 478.604 127.979C478.604 126.649 477.704 125.379 476.204 125.379C474.704 125.379 473.804 126.649 473.804 127.979C473.804 129.309 474.704 130.579 476.204 130.579ZM476.204 129.919C475.244 129.919 474.704 129.089 474.704 127.979C474.704 126.869 475.244 126.039 476.204 126.039C477.164 126.039 477.704 126.869 477.704 127.979C477.704 129.089 477.164 129.919 476.204 129.919ZM482.957 127.379V130.479H483.787V127.089C483.787 126.149 483.217 125.379 482.147 125.379C481.407 125.379 480.897 125.769 480.637 126.459H480.617V125.479H479.817V130.479H480.647V127.299C480.647 126.589 480.987 126.069 481.807 126.069C482.617 126.069 482.957 126.549 482.957 127.379ZM488.816 130.309C488.816 131.199 488.226 131.619 487.446 131.619C486.786 131.619 486.216 131.329 486.106 130.619H485.276C485.416 131.639 486.126 132.279 487.446 132.279C488.896 132.279 489.646 131.439 489.646 130.309V125.479H488.816V126.539H488.796C488.516 125.819 487.916 125.379 487.126 125.379C485.706 125.379 484.976 126.499 484.976 127.879C484.976 129.259 485.706 130.379 487.126 130.379C487.916 130.379 488.516 129.939 488.796 129.219H488.816V130.309ZM485.876 127.879C485.876 126.769 486.416 126.039 487.376 126.039C488.336 126.039 488.856 126.769 488.856 127.879C488.856 128.989 488.336 129.719 487.376 129.719C486.416 129.719 485.876 128.989 485.876 127.879ZM496.765 127.379V130.479H497.595V127.089C497.595 126.149 497.025 125.379 495.955 125.379C495.215 125.379 494.705 125.769 494.445 126.459H494.425V125.479H493.625V130.479H494.455V127.299C494.455 126.589 494.795 126.069 495.615 126.069C496.425 126.069 496.765 126.549 496.765 127.379ZM502.075 127.249V127.409L500.675 127.559C499.615 127.669 498.715 127.999 498.715 129.029C498.715 129.999 499.495 130.579 500.455 130.579C501.235 130.579 501.825 130.189 502.085 129.499H502.105V130.479H502.905V127.439C502.905 125.929 501.995 125.379 500.885 125.379C499.615 125.379 498.945 126.139 498.885 127.059H499.715C499.745 126.469 500.125 126.039 500.885 126.039C501.665 126.039 502.075 126.499 502.075 127.249ZM500.655 129.919C500.065 129.919 499.615 129.569 499.615 129.069C499.615 128.539 499.995 128.269 500.745 128.189L502.075 128.039V128.309C502.075 129.389 501.535 129.919 500.655 129.919ZM505.207 127.299C505.207 126.589 505.497 126.069 506.337 126.069C507.127 126.069 507.467 126.549 507.467 127.379V130.479H508.297V127.299C508.297 126.589 508.587 126.069 509.427 126.069C510.217 126.069 510.557 126.549 510.557 127.379V130.479H511.387V127.089C511.387 126.149 510.817 125.379 509.717 125.379C509.007 125.379 508.477 125.769 508.217 126.459H508.207C507.997 125.829 507.467 125.379 506.627 125.379C505.917 125.379 505.457 125.769 505.197 126.459H505.177V125.479H504.377V130.479H505.207V127.299ZM517.024 128.899H516.194C516.084 129.309 515.824 129.919 514.954 129.919C514.034 129.919 513.434 129.269 513.394 128.229H517.084C517.224 126.549 516.324 125.379 514.834 125.379C513.344 125.379 512.554 126.589 512.554 127.979C512.554 129.369 513.384 130.579 514.874 130.579C516.244 130.579 516.844 129.789 517.024 128.899ZM514.834 126.039C515.714 126.039 516.194 126.669 516.264 127.569H513.394C513.474 126.669 513.954 126.039 514.834 126.039Z" fill="white"/>
<path d="M478.104 155.141H475.8V145.157H474.744L474.728 145.285C474.616 146.213 474.28 146.853 472.632 146.853H471.832V147.909H474.472V155.141H471.832V156.197H478.104V155.141ZM485.591 152.501C485.591 154.341 484.503 155.301 483.159 155.301C481.463 155.301 480.759 154.021 480.615 152.821H479.287C479.511 154.997 480.967 156.357 483.095 156.357C485.431 156.357 487.031 154.949 487.031 152.501C487.031 149.973 485.287 148.629 483.447 148.629C482.215 148.629 481.335 149.221 480.871 150.197H480.839V146.213H486.391V145.157H479.511V151.061H480.839C481.239 150.069 482.007 149.701 482.999 149.701C484.247 149.701 485.591 150.485 485.591 152.501ZM488.838 149.749H490.39V148.197H488.838V149.749ZM488.838 156.197H490.39V154.645H488.838V156.197ZM498.588 155.141H496.284V145.157H495.228L495.212 145.285C495.1 146.213 494.764 146.853 493.116 146.853H492.316V147.909H494.956V155.141H492.316V156.197H498.588V155.141ZM503.729 156.357C506.401 156.357 507.985 154.053 507.985 150.677C507.985 147.301 506.401 144.997 503.729 144.997C501.057 144.997 499.489 147.301 499.489 150.677C499.489 154.053 501.057 156.357 503.729 156.357ZM503.729 155.301C501.921 155.301 500.929 153.525 500.929 150.677C500.929 147.829 501.921 146.053 503.729 146.053C505.537 146.053 506.545 147.845 506.545 150.677C506.545 153.509 505.537 155.301 503.729 155.301ZM514.269 156.197H515.645V151.765H517.885C520.557 151.765 522.237 150.597 522.237 148.453C522.237 146.309 520.557 145.157 517.885 145.157H514.269V156.197ZM518.045 146.309C519.757 146.309 520.749 147.029 520.749 148.453C520.749 149.877 519.757 150.613 518.045 150.613H515.645V146.309H518.045ZM529.839 156.133L526.975 145.157H524.207V156.197H525.583V145.221L528.415 156.197H531.263L534.095 145.221V156.197H535.471V145.157H532.703L529.839 156.133Z" fill="white"/>
<rect x="545.491" y="141.984" width="46.0599" height="17.424" rx="1.58" fill="#DE6D3C"/>
<path d="M559.866 151.281C559.866 152.165 559.505 152.74 558.62 152.74C557.736 152.74 557.375 152.165 557.375 151.281V148.111H556.741V151.17C556.741 152.615 557.441 153.271 558.62 153.271C559.8 153.271 560.5 152.615 560.5 151.17V148.111H559.866V151.281ZM565.281 151.355C565.281 150.337 564.743 149.438 563.696 149.438C563.114 149.438 562.672 149.762 562.465 150.293H562.45V149.512H561.839V154.45H562.45V152.416H562.465C562.672 152.947 563.114 153.271 563.696 153.271C564.743 153.271 565.281 152.372 565.281 151.355ZM564.618 151.355C564.618 152.173 564.22 152.784 563.512 152.784C562.804 152.784 562.421 152.173 562.421 151.355C562.421 150.536 562.804 149.925 563.512 149.925C564.22 149.925 564.618 150.536 564.618 151.355ZM566.12 151.355C566.12 152.372 566.658 153.271 567.705 153.271C568.287 153.271 568.729 152.947 568.936 152.416H568.951V153.197H569.562V148.111H568.951V150.293H568.936C568.729 149.762 568.287 149.438 567.705 149.438C566.658 149.438 566.12 150.337 566.12 151.355ZM566.783 151.355C566.783 150.536 567.181 149.925 567.889 149.925C568.597 149.925 568.98 150.536 568.98 151.355C568.98 152.173 568.597 152.784 567.889 152.784C567.181 152.784 566.783 152.173 566.783 151.355ZM573.048 150.816V150.934L572.016 151.045C571.234 151.126 570.571 151.369 570.571 152.128C570.571 152.843 571.146 153.271 571.854 153.271C572.428 153.271 572.863 152.984 573.055 152.475H573.07V153.197H573.659V150.956C573.659 149.843 572.989 149.438 572.17 149.438C571.234 149.438 570.741 149.998 570.696 150.676H571.308C571.33 150.242 571.61 149.925 572.17 149.925C572.745 149.925 573.048 150.264 573.048 150.816ZM572.001 152.784C571.566 152.784 571.234 152.527 571.234 152.158C571.234 151.767 571.514 151.568 572.067 151.509L573.048 151.399V151.598C573.048 152.394 572.65 152.784 572.001 152.784ZM575.1 149.998V152.372C575.1 152.902 575.336 153.197 575.955 153.197H576.618V152.711H576.125C575.815 152.711 575.712 152.593 575.712 152.305V149.998H576.648V149.512H575.712V148.671H575.1V149.512H574.429V149.998H575.1ZM580.554 152.033H579.942C579.861 152.335 579.669 152.784 579.028 152.784C578.35 152.784 577.907 152.305 577.878 151.539H580.598C580.701 150.3 580.038 149.438 578.939 149.438C577.841 149.438 577.259 150.33 577.259 151.355C577.259 152.379 577.87 153.271 578.969 153.271C579.979 153.271 580.421 152.689 580.554 152.033ZM578.939 149.925C579.588 149.925 579.942 150.389 579.993 151.052H577.878C577.937 150.389 578.291 149.925 578.939 149.925Z" fill="white"/>
<rect x="447.5" y="99.5352" width="156" height="72.1465" rx="2.5" stroke="#C4C4C4"/>
<rect x="611.109" y="160.197" width="3" height="121" rx="1.5" fill="#8A8A8A"/>
<rect x="611.109" y="175.197" width="3" height="19" rx="1.5" fill="#1F1F1F"/>
<path d="M591.551 116.359C591.498 118.823 590.674 120.86 589.018 122.554C588.736 122.844 588.316 122.867 588.003 122.615C587.683 122.363 587.607 121.928 587.828 121.593C587.889 121.501 587.965 121.425 588.034 121.349C589.453 119.838 590.101 118.037 589.964 115.97C589.85 114.268 589.178 112.796 587.988 111.56C587.645 111.201 587.599 110.827 587.858 110.484C588.156 110.08 588.698 110.057 589.071 110.438C590.162 111.552 590.903 112.865 591.276 114.375C591.353 114.68 591.421 114.993 591.459 115.306C591.513 115.688 591.528 116.077 591.551 116.359Z" fill="white"/>
<path d="M574.408 116.139C574.454 114.132 575.247 112.118 576.873 110.439C577.201 110.104 577.681 110.073 577.994 110.371C578.337 110.699 578.345 111.156 577.994 111.523C576.918 112.621 576.247 113.934 576.041 115.46C575.743 117.611 576.316 119.518 577.75 121.159C577.834 121.258 577.933 121.35 578.025 121.449C578.33 121.807 578.299 122.257 577.964 122.57C577.666 122.845 577.208 122.814 576.888 122.494C575.865 121.464 575.156 120.251 574.752 118.862C574.523 118.076 574.408 117.275 574.408 116.139Z" fill="white"/>
<path d="M587.912 116.467C587.889 117.848 587.393 119.023 586.416 119.992C586.149 120.259 585.76 120.282 585.44 120.053C585.142 119.84 585.028 119.42 585.188 119.1C585.241 118.993 585.318 118.901 585.402 118.81C586.653 117.452 586.653 115.498 585.417 114.133C585.295 114.003 585.188 113.835 585.142 113.667C585.043 113.332 585.226 112.988 585.539 112.82C585.852 112.653 586.21 112.714 586.462 112.973C587.423 113.95 587.897 115.117 587.912 116.467Z" fill="white"/>
<path d="M578.024 116.528C578.047 115.132 578.505 113.964 579.444 112.995C579.756 112.667 580.214 112.637 580.535 112.919C580.878 113.217 580.916 113.69 580.596 114.041C580.184 114.491 579.848 114.987 579.703 115.589C579.405 116.81 579.672 117.894 580.519 118.824C580.847 119.183 580.878 119.541 580.626 119.892C580.344 120.274 579.833 120.32 579.497 119.984C578.681 119.175 578.208 118.199 578.063 117.062C578.04 116.871 578.032 116.673 578.024 116.528Z" fill="white"/>
<path d="M582.915 115.154C583.632 115.101 584.25 115.657 584.296 116.405C584.342 117.115 583.777 117.725 583.037 117.778C582.327 117.824 581.717 117.275 581.664 116.535C581.61 115.825 582.167 115.207 582.915 115.154Z" fill="white"/>
</g>
<defs>
<filter id="filter0_f_4202_2236" x="0" y="0.478516" width="628" height="350" filterUnits="userSpaceOnUse" color-interpolation-filters="sRGB">
<feFlood flood-opacity="0" result="BackgroundImageFix"/>
<feBlend mode="normal" in="SourceGraphic" in2="BackgroundImageFix" result="shape"/>
<feGaussianBlur stdDeviation="2.5" result="effect1_foregroundBlur_4202_2236"/>
</filter>
</defs>
</svg>