<svg width="136" height="64" viewBox="0 0 136 64" fill="none" xmlns="http://www.w3.org/2000/svg">
<path d="M19.9783 16.8516C19.4682 16.9667 18.9785 17.1229 18.4804 17.3241C15.0881 18.6754 13.0654 20.7268 11.876 22.7787C15.2943 21.6138 19.0561 21.9649 21.673 22.4907C21.7487 22.5093 21.8244 22.528 21.9144 22.5446C21.4431 21.9966 20.9885 21.3586 20.5935 20.6245C19.9867 19.5253 19.8537 18.1553 19.9783 16.8516Z" fill="white"/>
<path d="M12.5176 28.8422C11.0906 28.8809 9.7372 28.924 8.94868 29.0342C8.84832 29.0482 8.74796 29.0623 8.66395 29.0886C3.25373 30.2251 -0.222772 35.7832 0.408804 42.2872C0.853499 46.9317 3.4086 49.6295 5.02006 50.9097C4.55446 49.1477 4.50463 47.3275 4.88891 45.4759C5.9129 40.5676 8.9626 38.7526 12.5127 36.6484C13.9709 35.7868 15.5481 34.8354 17.0975 33.581L23.4865 26.8994C22.0826 27.4173 20.0785 28.0336 17.4423 28.5191C16.289 28.7389 14.3665 28.7884 12.5176 28.8422Z" fill="white"/>
<path d="M28.9935 23.44C28.9439 23.6078 29.1646 23.7231 29.2756 23.576C29.9272 22.6956 31.3259 21.1991 33.4067 20.9228C35.6453 20.6245 38.7007 21.6736 39.6561 23.2795C40.426 24.6043 39.0406 25.7773 39.0406 25.7773C38.6281 25.4404 37.7674 25.0345 36.299 25.1959C34.1385 25.4249 32.9143 27.4378 33.1024 27.5284C34.2719 28.0519 35.6568 27.7121 36.4844 27.5672C37.3119 27.4223 38.5991 26.9061 38.9662 26.7086C39.6039 26.3564 40.4872 25.3558 40.7796 24.1017C41.0078 23.1197 41.4087 19.8187 36.4772 19.675C33.3657 19.5838 29.7874 20.8588 28.9935 23.44Z" fill="white"/>
<path d="M52.0482 27.3212C51.9645 27.2452 51.8644 27.1568 51.7644 27.0685L51.7154 27.0315C51.068 26.4789 50.4594 25.9939 50.1653 25.7719C50.2531 25.1457 50.414 23.3692 49.7855 22.01C49.3014 20.9521 48.4999 19.924 48.0776 19.413L47.9389 19.257C47.8695 19.179 47.8002 19.101 47.7471 19.0353C47.6961 18.984 47.6614 18.945 47.6411 18.904L47.5984 18.8076C47.0996 17.8542 45.9184 15.7829 44.6839 15.1077L51.3619 0.770225C51.6215 0.222335 50.9105 -0.262948 50.4875 0.161618L39.3761 11.4354C37.8822 9.84637 35.9141 8.73291 35.8017 8.66092C35.6749 8.59093 35.5009 8.60065 35.3819 8.69037C35.2629 8.7801 35.2132 8.94782 35.2476 9.08919C35.2496 9.10352 35.4519 9.92303 35.1846 11.6706C36.314 11.9074 37.2977 12.2522 38.1461 12.6744L37.5711 13.2664C36.1952 12.6256 34.4932 12.1619 32.401 12.1475C29.8112 12.1295 27.8476 12.9302 26.5796 14.5254C27.5017 14.9519 28.6321 15.5101 29.2654 15.9624C29.3942 16.0467 29.5106 16.1474 29.627 16.248C29.2005 16.4392 28.7762 16.6447 28.3518 16.8502C28.3047 16.8275 28.27 16.7885 28.223 16.7659C27.9166 16.5602 27.5241 16.3666 27.1132 16.1463C26.2629 15.7098 25.2694 15.1909 24.5674 14.4559C24.1898 14.0555 23.8923 13.6001 23.7425 13.051C23.6513 12.713 23.5189 12.4976 23.3288 12.3926C23.2328 12.333 22.8873 12.162 22.5033 12.5519C22.2486 12.8214 21.9787 13.3999 21.7779 14.1589C21.2789 16.0265 21.174 18.9354 22.4438 20.8042C22.662 21.1099 22.8781 21.4013 23.1066 21.6763C23.0693 21.8277 23.0483 21.9914 23.0397 22.1388C23.0218 22.6383 23.067 23.2751 23.1222 23.9836C20.1171 23.1905 15.5313 22.4869 11.6533 24.023C8.34307 25.3336 6.35537 27.3217 5.14355 29.3182C6.14234 28.7255 7.22254 28.2967 8.40047 28.0443C9.19531 27.8747 10.7677 27.8303 12.4425 27.7862C14.1603 27.736 16.1259 27.6805 17.2075 27.4708C19.9441 26.9713 21.9728 26.3222 23.3317 25.7961C23.44 26.5702 23.5686 27.3854 23.7278 28.211C24.1649 30.6055 24.7737 33.0784 25.3767 34.7774C26.2516 37.2715 28.8487 42.3606 31.1733 43.4096C32.032 43.8011 33.2731 44.3146 34.725 44.8717C34.4949 45.8394 34.2965 47.1388 34.4649 48.3431C34.7695 50.5223 35.7435 52.0525 36.7835 53.4273C37.6074 54.5107 38.4746 55.4857 39.0997 56.6115C39.5884 57.4933 39.2678 60.637 39.0765 62.3008C38.9947 62.97 38.9505 63.3855 38.9731 63.3385C39.4014 62.5331 39.8319 61.6398 40.2564 60.7034C41.9649 56.9272 42.0957 53.5762 42.09 53.4308L42.0906 53.2261L41.9129 53.1048C41.8802 53.0801 39.1323 51.1987 38.6218 48.6974C38.4261 47.7162 38.5347 47.0287 38.9617 46.6328C39.0273 46.5797 39.093 46.5267 39.173 46.4717C40.3224 46.8518 41.4699 47.2176 42.5663 47.5321C43.0378 47.9777 44.045 48.6993 44.4985 49.016C45.0501 49.4066 45.6441 49.9959 46.404 49.8897C47.1638 49.7835 48.6835 49.571 49.4577 49.4628C50.2319 49.3545 51.3358 49.2002 51.8959 48.8149C52.4559 48.4297 53.3463 47.7936 53.2204 46.788C53.1903 46.573 53.1996 46.2209 53.2131 45.7951C53.6454 45.0184 53.5885 44.1932 53.5164 42.9462C53.4739 42.119 53.4495 40.6899 53.4274 39.1728C53.3995 36.8818 53.3738 34.5029 53.2269 33.661C53.0339 32.4894 52.7826 31.6329 52.7015 31.3665C52.8507 30.7609 53.1121 28.2395 52.0482 27.3212ZM31.5255 42.688C29.4504 41.7503 26.9613 36.8069 26.1412 34.4951C24.974 31.1648 23.7789 24.8127 23.8422 22.1289C23.8946 19.6805 30.1758 16.2005 34.8419 15.3874C35.1122 15.335 35.3847 15.2969 35.6427 15.2608C35.7861 15.2408 35.9295 15.2207 36.0728 15.2007C36.1567 15.9052 36.5719 17.4112 38.5624 18.58C40.7757 19.8784 43.021 18.6875 43.021 18.6875L44.381 15.764C45.0963 16.1756 45.9832 17.3963 46.6877 18.6718C46.5507 18.6325 46.4013 18.6096 46.2252 18.6049C45.0379 18.5809 41.6768 19.1093 43.4118 23.5734C43.6353 24.1269 44.3457 24.8169 46.3247 26.4258C46.7863 26.7998 47.1621 27.0834 47.4726 27.3177C48.3877 28.0084 48.6818 28.2303 48.7844 28.8592C48.7904 28.9022 48.7878 29.0926 48.7871 29.2973C48.6604 29.2273 48.4927 29.1777 48.2797 29.2221C47.7595 29.2655 43.5604 30.7004 42.5035 32.2368C42.2978 32.5432 41.9105 32.6997 41.571 32.5718C41.5546 32.5594 41.5403 32.5615 41.524 32.5491C41.3072 32.4625 41.1561 32.3228 41.0524 32.1035C40.7638 31.3983 41.2036 30.1529 41.3912 29.7174C41.4572 29.562 41.3881 29.3816 41.247 29.3136C41.0916 29.2476 40.9113 29.3167 40.8433 29.4578C40.833 29.4884 40.7443 29.6909 40.641 29.9976C40.3002 31.01 39.71 31.9111 38.9176 32.6212C37.6449 33.7638 35.7814 35.2814 34.1928 35.942C31.7064 36.9767 30.4586 35.2655 30.4035 35.1855C30.3118 35.0522 30.1174 35.0209 29.9841 35.1126C29.8507 35.2043 29.8051 35.4007 29.9112 35.5321C29.9275 35.5444 31.0569 37.1405 33.2361 36.8359C33.3221 36.8238 33.4348 36.7935 33.5475 36.7631C34.154 36.6052 34.7905 36.6624 35.3651 36.9037C35.909 37.1346 36.6062 37.4171 37.2975 37.6567C39.2302 38.3074 39.5293 38.2509 40.2014 38.04C40.3551 37.9893 47.293 36.6978 51.5208 35.2589L52.041 35.2154C52.3871 35.1816 52.7036 35.459 52.7087 35.8091L52.7107 35.8234C52.7101 36.0281 52.6194 36.2162 52.4614 36.3406C52.1044 36.6098 51.5997 36.9727 51.1403 37.2416C50.9229 37.3596 50.6912 37.4797 50.4412 37.5732C49.6787 37.8698 48.8818 38.025 48.8818 38.025C48.8818 38.025 48.1317 38.3053 46.9885 38.5967C46.509 38.7222 45.9702 38.8414 45.3864 38.9522C43.3933 39.3332 43.5547 39.4422 41.8509 39.5927C41.4332 39.6365 41.0277 39.6639 40.649 39.673C40.2845 39.6801 40.2583 40.2246 40.6288 40.2605C41.5334 40.3533 42.5877 40.3667 43.7326 40.192C43.876 40.172 44.005 40.1539 44.1484 40.1339C45.9815 39.863 47.7969 40.7201 48.7503 42.3116C49.1516 42.9864 49.5786 43.9499 49.8953 44.8557C50.3217 46.0239 49.4581 47.2702 48.2235 47.3258C46.4053 47.39 44.3137 47.1708 43.0966 46.8294C38.858 45.6825 33.7744 43.7183 31.5255 42.688ZM47.4296 19.796L47.6397 20.0443C48.064 20.5697 48.696 21.4314 49.111 22.3089C49.7639 23.7378 49.3994 25.8351 49.4014 25.8495L49.3598 26.0745L49.5395 26.2102C49.5415 26.2245 50.3606 26.8555 51.2387 27.5951L51.2571 27.6218C51.3571 27.7101 51.4552 27.7841 51.5552 27.8725C52.1719 28.4148 52.1684 30.2716 52.0199 31.301L52.0033 31.391L52.0296 31.475C52.0296 31.475 52.1027 31.6841 52.1938 32.0221C51.8127 32.1193 51.5741 32.5034 51.6733 32.8988L51.9383 33.9581L50.7073 34.1448L48.4652 32.2218C48.2977 32.0698 48.2617 31.8118 48.4137 31.6444C49.3033 30.5845 49.3845 30.12 49.3892 29.944C49.41 29.1517 49.4129 28.859 49.3988 28.7586C49.2766 27.8841 48.8027 27.5264 47.8549 26.8112C47.5444 26.5768 47.1686 26.2932 46.7233 25.9315C46.6253 25.8575 46.5416 25.7815 46.4435 25.7076C46.7566 25.7515 47.1701 25.7814 47.6922 25.7522C48.9106 25.6842 49.2269 25.333 49.2269 25.333C49.2269 25.333 49.3878 24.9159 48.9369 24.4089C48.486 23.9018 47.9137 23.5726 46.9061 23.6842C46.1853 23.7557 45.6183 24.4051 45.349 24.7789C45.1999 24.6536 44.839 24.1632 44.5857 23.2924C44.1762 21.9318 44.6021 21.2144 44.9308 20.8469C45.5121 20.1956 46.3392 19.5245 46.845 19.483C46.976 19.4793 47.1214 19.4736 47.2401 19.4863C47.2705 19.5989 47.3419 19.6913 47.4296 19.796ZM52.8183 42.9707C52.8823 44.1604 52.9171 44.8279 52.6042 45.4125C52.3366 45.903 51.5736 45.6735 51.5978 45.1146C51.6131 44.8055 51.612 44.4841 51.5842 44.1811C51.4128 42.641 50.4628 41.2829 50.0684 40.344L50.0664 40.3297C49.8612 39.8029 50.0841 39.2017 50.5682 38.9002C50.7836 38.7677 51.0236 38.6026 51.2759 38.4212C51.8893 37.9992 52.7213 38.4091 52.7232 39.1543L52.7252 39.1687C52.7616 40.6838 52.7737 42.1292 52.8183 42.9707ZM39.9189 32.5689C40.1509 32.3464 40.5336 32.366 40.7458 32.6287C40.8885 32.8134 41.0763 33.0064 41.3154 33.1483C42.0347 33.5886 42.7906 33.4537 43.278 33.3856C43.7511 33.3194 44.0402 33.1913 44.1222 33.1506C44.4563 33.0308 44.7788 33.3512 44.6508 33.6906C44.3743 34.4309 43.9988 35.4043 43.9474 35.4553C43.8571 35.541 40.7809 36.6435 40.3854 36.7426C39.99 36.8417 38.7464 37.1472 37.716 36.6773C37.2805 36.4897 36.8533 36.2571 36.5058 36.0718C36.2381 35.9338 36.229 35.555 36.469 35.3899C37.8024 34.4727 39.0915 33.3423 39.9189 32.5689ZM47.6196 33.5971L48.992 34.7354C49.2411 34.9491 49.1519 35.3562 48.8425 35.4433C48.1376 35.6296 47.4328 35.8158 46.7403 35.9857C46.4146 36.0605 46.1351 35.7341 46.2671 35.4233C46.4793 34.9552 46.7432 34.3336 46.9825 33.7447C47.0795 33.4972 47.4052 33.4225 47.6196 33.5971ZM38.8871 13.3748L49.4734 1.79435L39.9897 14.3607C39.6794 14.7549 39.0755 14.7224 38.7983 14.308C38.6109 14.0127 38.6428 13.6136 38.8871 13.3748Z" fill="white"/>
<path d="M13.069 37.594C9.61327 39.6412 6.8876 41.2647 5.95919 45.7065C4.63617 52.0306 9.08072 58.2062 17.327 61.6723C13.4694 52.272 15.9627 48.2546 18.1844 44.699C18.9476 43.4668 19.6758 42.2979 20.1322 40.9624C21.4646 37.0049 20.8835 33.4758 20.4809 31.8511C18.0753 34.6138 15.4317 36.1966 13.069 37.594Z" fill="white"/>
<path d="M69.293 29.7663V42.5522H75.0845V37.8606H82.4227V42.5522H88.2314V29.7663H82.4227V34.1314H75.0845V29.7663H69.293ZM98.6408 33.3237L100.462 37.2591H96.8535L98.6408 33.3237ZM102.095 40.7821L102.903 42.5522H109.33L102.783 29.7663H94.7741L88.6217 42.5522H94.482L95.2725 40.7821H102.095ZM115.514 38.8402H121.512C122.715 38.8402 123.711 38.7371 124.502 38.4965C125.293 38.2559 125.911 37.9465 126.392 37.5341C126.874 37.1216 127.2 36.6576 127.406 36.1249C127.595 35.5921 127.698 35.025 127.698 34.4407V34.0626C127.698 33.4783 127.595 32.9112 127.406 32.3956C127.217 31.8801 126.891 31.4161 126.41 31.0208C125.928 30.6427 125.293 30.3334 124.502 30.11C123.711 29.8866 122.715 29.7663 121.512 29.7663H109.723V42.5522H115.514V38.8402ZM115.514 35.2656V33.2721H120.36C120.859 33.2721 121.202 33.3752 121.409 33.5471C121.615 33.7361 121.718 33.9767 121.718 34.2517V34.286C121.718 34.561 121.615 34.8016 121.409 34.9906C121.202 35.1797 120.859 35.2656 120.36 35.2656H115.514ZM134.327 42.5522V29.7663H128.553V42.5522H134.327Z" fill="white"/>
</svg>
