<svg width="98" height="97" viewBox="0 0 98 97" fill="none" xmlns="http://www.w3.org/2000/svg">
<path d="M83.2793 8.87296C83.2997 7.45329 82.9642 6.05166 82.3029 4.8011C81.6417 3.55054 80.6779 2.49241 79.502 1.72705C78.2865 0.985478 76.8967 0.59375 75.479 0.59375C74.0621 0.59375 72.6715 0.985478 71.4567 1.72705L54.9123 11.1012C54.7637 11.194 54.6414 11.3239 54.5562 11.4786C54.471 11.6333 54.4268 11.8076 54.4268 11.9849C54.4268 12.1621 54.471 12.3363 54.5562 12.491C54.6414 12.6457 54.7637 12.7756 54.9123 12.8684L81.6925 28.2357C81.8438 28.3242 82.0142 28.3705 82.1886 28.3698C82.3624 28.3692 82.5335 28.3209 82.6828 28.2311C82.8327 28.1413 82.9562 28.0125 83.0415 27.8585C83.126 27.704 83.1689 27.5289 83.1656 27.3525L83.2793 8.87296Z" fill="url(#paint0_linear_4232_1218)"/>
<path d="M13.364 58.8961C13.3294 60.3237 13.6592 61.736 14.3212 62.9951C14.9832 64.2542 15.955 65.317 17.1414 66.0807C18.3476 66.8073 19.7236 67.1911 21.1261 67.1911C22.5285 67.1911 23.9045 66.8073 25.1114 66.0807L41.4669 56.5913C41.6248 56.5061 41.7576 56.3793 41.8494 56.2234C41.9419 56.0675 41.9907 55.8891 41.9907 55.7075C41.9907 55.5258 41.9419 55.3475 41.8494 55.1916C41.7576 55.0357 41.6248 54.9088 41.4669 54.8236L14.7238 39.4563C14.5703 39.3705 14.3978 39.3262 14.2227 39.3282C14.0476 39.3295 13.8759 39.3771 13.7241 39.4663C13.5723 39.5548 13.4455 39.6816 13.356 39.8349C13.2664 39.9881 13.2172 40.1618 13.2129 40.3402L13.364 58.8961Z" fill="url(#paint1_linear_4232_1218)"/>
<path d="M83.2785 59.1246C83.2825 60.5389 82.9205 61.9294 82.2295 63.1568C81.5386 64.3842 80.5417 65.4048 79.3408 66.1169C78.1392 66.829 76.7751 67.2075 75.3845 67.2141C73.994 67.2207 72.6259 66.8561 71.4184 66.1552L15.4771 33.7686C14.8058 33.3881 14.2478 32.8305 13.8622 32.1541C13.4767 31.4783 13.2777 30.7081 13.2864 29.9266V8.60445C13.2963 6.45761 14.1392 4.40153 15.6317 2.8835C17.124 1.36546 19.1454 0.508154 21.2566 0.498047C22.5831 0.538871 23.8791 0.908073 25.0338 1.57375L81.1257 34.153C81.785 34.5441 82.3306 35.1056 82.7091 35.7801C83.087 36.4545 83.2832 37.2182 83.2785 37.9943V59.1246Z" fill="url(#paint2_linear_4232_1218)"/>
<path d="M56.4465 77.1367H45.1669C45.019 77.1367 44.8763 77.1962 44.7712 77.3032C44.6669 77.4095 44.6074 77.5549 44.6074 77.7055C44.6074 78.4328 44.8915 79.1304 45.3975 79.6443C45.9028 80.1589 46.5885 80.4476 47.3033 80.4476H56.4465C56.5079 80.4476 56.5694 80.435 56.6262 80.4106C56.683 80.3861 56.7338 80.3505 56.7768 80.3049C56.8224 80.26 56.858 80.2052 56.8818 80.145C56.9062 80.0849 56.9181 80.0208 56.9168 79.9561V77.6282C56.9188 77.5641 56.9076 77.5007 56.8845 77.4406C56.862 77.3811 56.8276 77.327 56.7834 77.2814C56.7398 77.2351 56.6876 77.1988 56.6295 77.1744C56.5713 77.1493 56.5092 77.1367 56.4465 77.1367Z" fill="white"/>
<path d="M39.0502 77.1343H36.6213C36.5585 77.1343 36.4964 77.1469 36.4383 77.172C36.3808 77.1964 36.328 77.2327 36.2844 77.279C36.2408 77.3246 36.2058 77.3787 36.1833 77.4382C36.1602 77.4983 36.1496 77.5617 36.1509 77.6258V85.1142L36.3676 90.792L28.4835 78.4145C28.2358 78.0188 27.8936 77.6925 27.4893 77.4666C27.0844 77.2407 26.6305 77.1218 26.1688 77.1211H24.3376C24.2749 77.1211 24.2128 77.1336 24.1547 77.1588C24.0972 77.1839 24.0443 77.2202 24.0007 77.2658C23.9565 77.312 23.9221 77.3662 23.8997 77.4256C23.8765 77.4851 23.866 77.5485 23.8673 77.6126V95.5905C23.8673 95.7173 23.9168 95.8389 24.0054 95.9287C24.0932 96.0185 24.2128 96.0687 24.3376 96.0687H26.7792C26.9053 96.0654 27.0249 96.0119 27.1128 95.9201C27.2006 95.829 27.2502 95.7054 27.2502 95.5773V88.0888L26.9958 82.3853L34.8925 94.7885C35.1383 95.1836 35.4778 95.5092 35.8801 95.7352C36.2824 95.9611 36.7342 96.0806 37.194 96.082H39.0377C39.1645 96.0787 39.2861 96.0258 39.3759 95.934C39.4658 95.8428 39.5173 95.72 39.5206 95.5905V77.6126C39.512 77.489 39.4598 77.3721 39.3733 77.2843C39.2867 77.1964 39.1725 77.1429 39.0502 77.1343Z" fill="white"/>
<path d="M72.291 77.5248C72.2461 77.4112 72.1688 77.3134 72.0691 77.2447C71.9693 77.1753 71.8524 77.1383 71.7315 77.137H68.5144C68.3896 77.1331 68.2667 77.1681 68.1623 77.2374C68.0573 77.3068 67.976 77.4072 67.9298 77.5248L61.1139 95.438C61.1053 95.4888 61.1053 95.5417 61.1139 95.5932C61.1139 95.7233 61.1647 95.8482 61.2552 95.9407C61.3457 96.0325 61.4686 96.0847 61.5967 96.0847H64.14C64.2378 96.0827 64.3329 96.053 64.4142 95.9975C64.4947 95.9426 64.5588 95.8647 64.5978 95.7742L70.1421 81.0556L75.623 95.7742C75.6587 95.8667 75.7221 95.9466 75.804 96.0021C75.8859 96.0576 75.9824 96.086 76.0808 96.0847H78.6241H78.7767C78.8368 96.0629 78.8923 96.0292 78.9398 95.9856C78.9874 95.942 79.0257 95.8891 79.0528 95.8297C79.0805 95.7709 79.0957 95.7068 79.0984 95.6421C79.101 95.5767 79.0911 95.5119 79.0686 95.4505L72.291 77.5248Z" fill="white"/>
<path d="M96.9093 95.295L92.0137 88.9447C93.3078 88.7036 94.4698 87.9889 95.2803 86.9359C96.0909 85.8822 96.4945 84.5637 96.4139 83.228C96.4139 79.4646 93.9598 77.1367 90.0557 77.1367H82.9346C82.7747 77.1367 82.6215 77.2001 82.5072 77.3138C82.3936 77.4274 82.3275 77.582 82.3242 77.7445C82.3275 78.4599 82.6089 79.1456 83.1064 79.6522C83.6038 80.1582 84.2782 80.4443 84.9818 80.4476H89.7631C91.8611 80.4476 93.0693 81.4695 93.0693 83.2538C93.0693 85.0387 91.8611 86.0996 89.7631 86.0996H82.9346C82.7741 86.1029 82.6202 86.1689 82.5065 86.2852C82.3929 86.4008 82.3275 86.5567 82.3242 86.7205V95.6187C82.3242 95.7488 82.3751 95.8736 82.4656 95.9661C82.5561 96.0579 82.6796 96.1101 82.8078 96.1101H85.1984C85.3266 96.1101 85.4495 96.0579 85.54 95.9661C85.6305 95.8736 85.6813 95.7488 85.6813 95.6187V89.1515H88.148L92.5098 94.9462C92.7688 95.2864 93.0997 95.5618 93.4789 95.7521C93.8574 95.943 94.2743 96.0428 94.697 96.0454H96.5665C96.6299 96.0421 96.692 96.0262 96.7495 95.9985C96.807 95.9707 96.8585 95.9311 96.9008 95.8835C96.943 95.8353 96.9761 95.7792 96.9972 95.7184C97.0183 95.657 97.0276 95.5929 97.0243 95.5282C97.0018 95.4429 96.9629 95.3637 96.9093 95.295Z" fill="white"/>
<path d="M56.4463 92.7744H48.0033V88.1053H55.785C55.9099 88.1053 56.0294 88.0545 56.118 87.9653C56.2065 87.8754 56.256 87.7532 56.256 87.6264V85.2727C56.2573 85.2087 56.2468 85.1452 56.2237 85.0858C56.2005 85.0263 56.1662 84.9715 56.1226 84.9259C56.079 84.8803 56.0261 84.844 55.968 84.8189C55.9105 84.7938 55.8484 84.7812 55.785 84.7812H45.1799C45.0201 84.7846 44.8682 84.8513 44.7565 84.9675C44.6449 85.0838 44.5821 85.2397 44.5821 85.4022V95.4775C44.5808 95.5581 44.5947 95.6387 44.6244 95.714C44.6535 95.7893 44.6971 95.858 44.7532 95.9155C44.8087 95.9736 44.8748 96.0192 44.9481 96.0509C45.0221 96.0819 45.1007 96.0984 45.1799 96.0978H56.4212C56.4839 96.0984 56.546 96.0852 56.6042 96.0608C56.6623 96.0357 56.7145 95.9994 56.7581 95.9531C56.8023 95.9075 56.8367 95.8534 56.8591 95.7939C56.8823 95.7345 56.8935 95.6704 56.8915 95.607V93.2658C56.8948 93.141 56.8506 93.0194 56.7673 92.9276C56.6841 92.8358 56.5692 92.781 56.4463 92.7744Z" fill="white"/>
<path d="M11.877 92.5403H3.59879C3.59879 92.5403 3.50981 92.5403 3.50981 92.463V77.6407C3.51146 77.5753 3.50023 77.51 3.47672 77.4485C3.4532 77.3877 3.41786 77.3323 3.37287 77.2847C3.32782 77.2378 3.27391 77.2008 3.21446 77.175C3.15501 77.1493 3.09113 77.1367 3.02659 77.1367H0.483325C0.418785 77.1367 0.354911 77.1493 0.295458 77.175C0.236005 77.2008 0.182101 77.2378 0.137115 77.2847C0.0920628 77.3323 0.0567194 77.3877 0.0332025 77.4485C0.00968553 77.51 -0.00154648 77.5753 0.000171044 77.6407V95.5407C-0.00154648 95.6114 0.0106778 95.6821 0.0361105 95.7481C0.0615431 95.8135 0.0996589 95.8736 0.148278 95.9245C0.196831 95.9747 0.254897 96.015 0.31904 96.0427C0.383117 96.0698 0.451947 96.0844 0.521507 96.0844H11.8388C11.9184 96.0844 11.9971 96.0679 12.0704 96.0368C12.1438 96.0051 12.2103 95.9595 12.266 95.9014C12.3217 95.8439 12.3654 95.7752 12.3947 95.6999C12.4239 95.6246 12.4381 95.544 12.4365 95.4634V93.1613C12.437 93.0054 12.3797 92.8547 12.276 92.7398C12.1724 92.6242 12.0299 92.5535 11.877 92.5403Z" fill="white"/>
<path d="M18.5019 81.6504H15.9593C15.699 81.6504 15.4883 81.8644 15.4883 82.1287V95.5928C15.4883 95.857 15.699 96.071 15.9593 96.071H18.5019C18.7622 96.071 18.9729 95.857 18.9729 95.5928V82.1287C18.9729 81.8644 18.7622 81.6504 18.5019 81.6504Z" fill="white"/>
<path d="M18.1841 77.1367H16.277C15.8417 77.1367 15.4883 77.4954 15.4883 77.9387V79.8782C15.4883 80.3214 15.8417 80.6801 16.277 80.6801H18.1841C18.6195 80.6801 18.9729 80.3214 18.9729 79.8782V77.9387C18.9729 77.4954 18.6195 77.1367 18.1841 77.1367Z" fill="white"/>
<defs>
<linearGradient id="paint0_linear_4232_1218" x1="67.7924" y1="6.06837" x2="75.8576" y2="32.155" gradientUnits="userSpaceOnUse">
<stop stop-color="#1BB3CC"/>
<stop offset="0.99" stop-color="#A626CC"/>
</linearGradient>
<linearGradient id="paint1_linear_4232_1218" x1="15.1015" y1="40.8396" x2="27.9493" y2="67.02" gradientUnits="userSpaceOnUse">
<stop stop-color="#1CB1CC"/>
<stop offset="1" stop-color="#8B41CC"/>
</linearGradient>
<linearGradient id="paint2_linear_4232_1218" x1="16.9885" y1="4.33989" x2="80.4017" y2="68.5763" gradientUnits="userSpaceOnUse">
<stop stop-color="#1BB3CC"/>
<stop offset="1" stop-color="#824ACC"/>
</linearGradient>
</defs>
</svg>
