<svg width="113" height="33" viewBox="0 0 113 33" fill="none" xmlns="http://www.w3.org/2000/svg">
<path d="M62.1473 8.22628V23.7489C62.1473 23.8671 62.0591 23.9854 61.912 23.9854H60.2942C59.5588 23.9854 58.8529 23.601 58.4411 22.9801L51.1462 11.656L51.3815 17.3033V23.7784C51.3815 23.8967 51.2932 24.015 51.1462 24.015H49.0283C48.9106 24.015 48.793 23.9263 48.793 23.7784V8.22628C48.793 8.10801 48.8812 7.98975 49.0283 7.98975H50.6167C51.3521 7.98975 52.058 8.37412 52.4698 8.99502L59.7647 20.2896L59.5294 14.6423V8.22628C59.5294 8.10801 59.6177 7.98975 59.7647 7.98975H61.8826C62.0591 7.98975 62.1473 8.07845 62.1473 8.22628Z" fill="#EDEDED"/>
<path d="M83.8564 24.015H81.6012C81.4529 24.015 81.3342 23.8666 81.3935 23.7182L87.3876 8.19748C87.4469 8.07878 87.5656 7.98975 87.6843 7.98975H90.5329C90.6813 7.98975 90.8 8.07878 90.8297 8.19748L96.8534 23.7182C96.9127 23.8666 96.794 24.015 96.6457 24.015H94.3905C94.3015 24.015 94.2125 23.9556 94.1828 23.8666L89.346 11.1058C89.2867 10.9277 88.9899 10.9277 88.9306 11.1058L84.0938 23.8666C84.0345 23.9556 83.9455 24.015 83.8564 24.015Z" fill="#EDEDED"/>
<path d="M112.837 23.6589L108.251 17.9017C110.846 17.4268 112.355 15.7056 112.355 13.0644C112.355 10.0374 110.363 7.98975 106.803 7.98975H100.406C100.225 7.98975 100.074 8.13813 100.074 8.31619C100.074 9.50324 101.04 10.4529 102.247 10.4529H106.561C108.704 10.4529 109.73 11.5212 109.73 13.0941C109.73 14.6669 108.734 15.7353 106.561 15.7353H100.466C100.285 15.7353 100.135 15.8837 100.135 16.0617V23.7776C100.135 23.8963 100.225 24.015 100.376 24.015H102.548C102.669 24.015 102.79 23.926 102.79 23.7776V18.05H105.294L109.277 23.1544C109.699 23.7182 110.363 24.015 111.087 24.015H112.747C112.868 24.015 112.958 23.8072 112.837 23.6589Z" fill="#EDEDED"/>
<path d="M77.3955 7.98975H67.2567C67.0752 7.98975 66.9541 8.10867 66.9541 8.28706C66.9541 9.47632 67.9528 10.4575 69.1634 10.4575H77.3955C77.5165 10.4575 77.6376 10.3683 77.6376 10.2196V8.19787C77.6073 8.07894 77.5165 7.98975 77.3955 7.98975ZM77.3955 21.577H69.8293C69.7082 21.577 69.5871 21.4878 69.5871 21.3392V17.3254C69.5871 17.2065 69.6779 17.0876 69.8293 17.0876H76.8204C76.9415 17.0876 77.0626 16.9984 77.0626 16.8497V14.828C77.0626 14.709 76.9718 14.5901 76.8204 14.5901H67.287C67.1054 14.5901 66.9541 14.7388 66.9541 14.9172V23.6879C66.9541 23.8663 67.1054 24.015 67.287 24.015H77.3955C77.5165 24.015 77.6376 23.9258 77.6376 23.7771V21.7554C77.6073 21.6662 77.5165 21.577 77.3955 21.577Z" fill="#EDEDED"/>
<path d="M25.7508 1.74317L19.0456 11.694C18.5819 12.3716 19.4736 13.1919 20.1156 12.6213L26.7138 6.87906C26.8921 6.7364 27.1418 6.84339 27.1418 7.09306V25.033C27.1418 25.2827 26.8208 25.3897 26.6781 25.2113L6.70519 1.31518C6.0632 0.53053 5.13589 0.102539 4.10158 0.102539H3.38826C1.53363 0.102539 0 1.63617 0 3.52647V28.7779C0 30.6682 1.53363 32.2019 3.42393 32.2019C4.6009 32.2019 5.70655 31.5955 6.34853 30.5612L13.0537 20.6104C13.5174 19.9328 12.6257 19.1125 11.9837 19.6831L5.38555 25.3897C5.20722 25.5323 4.95756 25.4253 4.95756 25.1757V7.27139C4.95756 7.02172 5.27855 6.91473 5.42122 7.09306L25.3941 30.9892C26.0361 31.7739 26.9991 32.2019 27.9977 32.2019H28.7111C30.6014 32.2019 32.135 30.6682 32.135 28.7779V3.52647C32.0993 1.63617 30.5657 0.102539 28.6754 0.102539C27.4984 0.102539 26.3928 0.708859 25.7508 1.74317Z" fill="#EDEDED"/>
</svg>
