<svg width="73" height="63" viewBox="0 0 73 63" fill="none" xmlns="http://www.w3.org/2000/svg">
<path d="M36.3358 0.872803C44.588 0.872803 52.8402 0.872803 61.0924 0.872803C61.7685 0.872803 61.7685 0.872803 61.7685 1.5284C61.7685 17.9701 61.7685 34.4117 61.7685 50.8534C61.7685 51.5608 61.7685 51.5608 61.0577 51.5608C44.5533 51.5608 28.0489 51.5608 11.5272 51.5608C10.8164 51.5608 10.8164 51.5608 10.8164 50.8534C10.8164 34.429 10.8164 18.0046 10.8164 1.58016C10.8164 0.872803 10.8164 0.872803 11.5272 0.872803C19.7967 0.872803 28.0663 0.872803 36.3358 0.872803ZM38.6936 26.1478C38.6936 20.8167 38.6936 15.503 38.6936 10.1719C38.6936 9.58534 38.6763 9.56808 38.0868 9.56808C36.9253 9.56808 35.7464 9.56808 34.5848 9.56808C33.8914 9.56808 33.8914 9.56808 33.8914 10.2582C33.8914 16.5381 33.8914 22.8008 33.8914 29.0807C33.8914 33.4456 33.8914 37.8105 33.8914 42.1754C33.8914 42.7447 33.9087 42.762 34.4808 42.762C35.6597 42.762 36.8386 42.762 38.0348 42.762C38.7109 42.762 38.7109 42.762 38.7109 42.1064C38.6936 36.7753 38.6936 31.4616 38.6936 26.1478ZM23.4894 20.9893C23.4894 24.595 23.4894 28.2008 23.4894 31.7894C23.4894 32.2034 23.6108 32.3414 24.0269 32.3414C25.2751 32.3242 26.506 32.3242 27.7542 32.3414C28.1183 32.3414 28.257 32.2379 28.257 31.8584C28.2396 24.595 28.2396 17.3317 28.257 10.0684C28.257 9.65435 28.1183 9.55083 27.7196 9.56808C26.506 9.58534 25.2924 9.56808 24.0789 9.56808C23.4894 9.56808 23.4894 9.58534 23.4894 10.1719C23.4894 13.795 23.4894 17.4007 23.4894 20.9893ZM44.328 20.972C44.328 24.595 44.328 28.2008 44.328 31.8239C44.328 32.2034 44.432 32.3587 44.8307 32.3587C46.079 32.3414 47.3099 32.3414 48.5581 32.3587C48.9395 32.3587 49.0955 32.2552 49.0955 31.8411C49.0782 24.595 49.0782 17.349 49.0955 10.1029C49.0955 9.72336 48.9742 9.56808 48.5754 9.56808C47.3619 9.58534 46.1483 9.56808 44.9348 9.56808C44.328 9.56808 44.328 9.56808 44.328 10.1547C44.328 13.7605 44.328 17.3662 44.328 20.972Z" fill="white"/>
<path d="M60.6591 62.6711C59.9136 62.8781 59.7229 62.8091 59.3589 62.326C59.0295 61.8775 58.7174 61.4116 58.3707 60.9631C58.2667 60.8423 58.076 60.7215 57.9199 60.7043C57.2265 60.6698 56.533 60.7043 55.8396 60.687C55.5622 60.687 55.4581 60.8078 55.4581 61.0666C55.4755 61.4979 55.4581 61.9292 55.4581 62.3605C55.4581 62.6538 55.3368 62.7746 55.0421 62.7573C54.7647 62.7401 54.5566 62.7228 54.5566 62.3778C54.5566 60.8078 54.5566 59.2551 54.5566 57.6851C54.5566 57.4263 54.678 57.3228 54.9207 57.3228C56.2903 57.3228 57.6599 57.2883 59.0295 57.34C59.8616 57.3745 60.4684 57.9266 60.6071 58.634C60.7631 59.4966 60.4337 60.135 59.6363 60.5318C59.4109 60.6525 59.3762 60.756 59.5149 60.9631C59.827 61.3944 60.1217 61.843 60.4164 62.2743C60.5031 62.395 60.5724 62.5158 60.6591 62.6711ZM57.3998 59.8589C57.9199 59.8589 58.44 59.8762 58.9601 59.8589C59.4629 59.8417 59.827 59.4794 59.827 59.0135C59.827 58.5477 59.4802 58.1854 58.9775 58.1682C57.9546 58.1509 56.9318 58.1682 55.9089 58.1682C55.5795 58.1682 55.4755 58.3234 55.4928 58.6167C55.5102 58.8928 55.5102 59.1688 55.4928 59.4276C55.4755 59.7381 55.5968 59.8762 55.9089 59.8589C56.3943 59.8589 56.8971 59.8589 57.3998 59.8589Z" fill="white"/>
<path d="M27.2166 61.5845C27.2339 61.343 27.2686 61.1877 27.2686 61.0152C27.2686 59.9455 27.2686 58.8931 27.2686 57.8234C27.2686 57.4957 27.3379 57.3059 27.7194 57.3059C28.1008 57.3059 28.1874 57.4957 28.1874 57.8234C28.1874 59.2209 28.1874 60.6356 28.1701 62.0331C28.1701 62.2574 28.0834 62.6714 27.9794 62.6887C27.6153 62.7577 27.2166 62.8784 26.8872 62.5334C26.1591 61.7398 25.4136 60.9634 24.6855 60.1698C24.252 59.704 23.8013 59.2209 23.3679 58.7551C23.2985 58.6861 23.1945 58.6171 23.0385 58.5136C23.0211 58.7551 22.9865 58.9276 22.9865 59.0829C22.9865 60.1353 22.9691 61.1704 22.9865 62.2228C22.9865 62.5679 22.8998 62.7577 22.501 62.7577C22.1023 62.7577 22.0156 62.6024 22.0156 62.2401C22.033 60.7564 22.033 59.2899 22.0156 57.8062C22.0156 57.4266 22.1543 57.3059 22.5184 57.3059C22.9691 57.2886 23.2812 57.4266 23.6106 57.7717C24.6855 58.9621 25.795 60.118 26.9045 61.2912C26.9739 61.3947 27.0606 61.4637 27.2166 61.5845Z" fill="white"/>
<path d="M46.7371 62.7749C45.9743 62.7749 45.2114 62.7576 44.4486 62.7749C44.1019 62.7749 43.9459 62.6886 43.9632 62.3263C43.9805 60.8253 43.9805 59.3071 43.9632 57.8062C43.9632 57.4438 44.1019 57.3403 44.4486 57.3403C46.0089 57.3576 47.5692 57.3576 49.1122 57.3403C49.4242 57.3403 49.5976 57.4266 49.5976 57.7716C49.5976 58.1512 49.4069 58.1857 49.1122 58.1857C47.8639 58.1857 46.5984 58.203 45.3501 58.1685C44.9687 58.1685 44.8474 58.2892 44.8647 58.6688C44.8994 59.8074 44.7607 59.6349 45.8182 59.6349C46.4077 59.6349 46.9971 59.6522 47.5866 59.6349C47.9159 59.6177 48.0026 59.7557 48.0026 60.0662C48.0026 60.394 47.8639 60.4975 47.5692 60.4803C46.8411 60.463 46.0956 60.4975 45.3675 60.463C45.0034 60.4458 44.8474 60.5493 44.8647 60.9461C44.882 61.895 44.8647 61.895 45.8182 61.895C46.9278 61.895 48.0373 61.895 49.1468 61.895C49.4416 61.895 49.5976 61.9468 49.5976 62.2918C49.5976 62.6369 49.4936 62.7749 49.1295 62.7749C48.3147 62.7576 47.5172 62.7749 46.7371 62.7749Z" fill="white"/>
<path d="M0.587891 60.049C0.587891 59.3244 0.605227 58.5825 0.587891 57.8579C0.587891 57.4956 0.69191 57.3403 1.09065 57.3403C2.37356 57.3576 3.65646 57.3231 4.93937 57.3576C5.9969 57.3748 6.72503 58.0994 6.69036 59.0828C6.67302 60.0317 5.91021 60.7218 4.88736 60.7218C3.95118 60.7218 3.01501 60.7391 2.07883 60.7218C1.64542 60.7046 1.52406 60.8599 1.55874 61.2739C1.59341 61.619 1.55874 61.964 1.57607 62.3091C1.59341 62.6369 1.50673 62.8266 1.12532 62.8094C0.761256 62.8094 0.605227 62.7059 0.605227 62.3091C0.605227 61.5327 0.587891 60.7908 0.587891 60.049ZM3.44842 59.8592C3.89917 59.8592 4.34992 59.8592 4.78334 59.8592C5.44213 59.8592 5.87554 59.5142 5.8582 58.9966C5.8582 58.5135 5.40745 58.1685 4.80067 58.1685C4.14188 58.1685 3.46576 58.1512 2.80697 58.1685C1.31603 58.203 1.59341 57.8752 1.55874 59.4797C1.55874 59.7557 1.66276 59.8592 1.94014 59.8592C2.4429 59.8592 2.94566 59.8592 3.44842 59.8592Z" fill="white"/>
<path d="M17.1782 62.6714C16.4328 62.8957 16.1901 62.8267 15.9474 62.2056C15.7393 61.6708 15.4099 61.5155 14.8552 61.55C14.0403 61.6018 13.2082 61.5673 12.3934 61.55C12.0813 61.55 11.8906 61.6363 11.7866 61.9123C11.7519 61.9986 11.6826 62.0848 11.6306 62.1711C11.2838 62.8267 11.2318 62.8439 10.417 62.6887C10.4863 62.5161 10.521 62.3436 10.6077 62.1883C11.4052 60.6874 12.2027 59.2037 12.9828 57.7027C13.1908 57.2886 13.5376 57.3231 13.9016 57.3059C14.231 57.2886 14.4217 57.4266 14.5778 57.7199C15.3406 59.1864 16.1207 60.6356 16.9009 62.0848C16.9875 62.2919 17.0742 62.4644 17.1782 62.6714ZM13.7976 58.1858C13.3295 59.0656 12.9135 59.842 12.48 60.6529C13.3989 60.6529 14.2137 60.6529 15.1152 60.6529C14.6644 59.8248 14.2657 59.0656 13.7976 58.1858Z" fill="white"/>
<path d="M68.7909 57.3404C69.2416 57.2196 69.4324 57.4956 69.6231 57.8407C70.3685 59.2727 71.1487 60.7046 71.8941 62.1366C71.9808 62.3091 72.0502 62.5679 71.9808 62.7059C71.8768 62.8957 71.2354 62.7404 71.114 62.5334C70.9926 62.3264 70.8539 62.1193 70.7673 61.895C70.6632 61.619 70.4725 61.55 70.1952 61.55C69.2416 61.5672 68.2881 61.5672 67.3346 61.55C67.0746 61.55 66.9012 61.619 66.7972 61.8778C66.7278 62.0503 66.6238 62.2056 66.5545 62.3781C66.3811 62.7232 65.965 62.9129 65.6356 62.7404C65.5663 62.7059 65.5316 62.4471 65.5836 62.3436C66.2598 61.0497 66.9359 59.7557 67.6294 58.4618C67.7334 58.2548 67.8721 58.065 67.9414 57.8579C68.0801 57.4266 68.3575 57.2541 68.7909 57.3404ZM67.4386 60.6701C68.3748 60.6701 69.1723 60.6701 70.0911 60.6701C69.6577 59.842 69.259 59.0829 68.7909 58.1857C68.3055 59.0484 67.8894 59.8247 67.4386 60.6701Z" fill="white"/>
<path d="M36.0764 57.3403C36.9086 57.3403 37.7581 57.3403 38.5902 57.3403C38.8849 57.3403 39.093 57.3921 39.093 57.7544C39.093 58.1167 38.9196 58.1857 38.6075 58.1857C38.0874 58.1685 37.5673 58.203 37.0473 58.1685C36.6312 58.1512 36.5272 58.3065 36.5445 58.686C36.5618 59.8765 36.5445 61.0669 36.5618 62.2573C36.5618 62.6196 36.4578 62.7749 36.0764 62.7749C35.6777 62.7749 35.591 62.5851 35.591 62.2401C35.6083 61.0669 35.591 59.8937 35.6083 58.7033C35.6083 58.3065 35.5043 58.1167 35.0709 58.1512C34.5681 58.1857 34.0654 58.1512 33.5626 58.1685C33.2679 58.1685 33.0598 58.134 33.0772 57.7544C33.0772 57.4094 33.2332 57.3058 33.5626 57.3231C34.3601 57.3403 35.2096 57.3403 36.0764 57.3403Z" fill="white"/>
</svg>
